M48
;GenerationSoftware,Autodesk,EAGLE,9.6.2*%
;CreationDate,2022-06-07T08:03:19Z*%
FMAT,2
ICI,OFF
METRIC,TZ,000.000
T5C0.200
T4C0.250
T3C0.254
T2C0.300
T1C0.600
%
G90
M71
T1
X23622Y1951
X10922Y1951
T2
X23813Y9780
X3683Y14287
X3150Y14287
X2870Y18491
X4445Y21209
X4445Y20574
X16464Y21798
X16964Y22298
T3
X7112Y18809
X15456Y6782
X12865Y15684
X11532Y14351
X10198Y15684
X11532Y15684
X12865Y14351
X12865Y13017
X11532Y13017
X10198Y13017
X10198Y14351
X13705Y9694
X6909Y18225
X15384Y8223
X11328Y21082
X10198Y16726
X11493Y16739
X12865Y16726
X10185Y11963
X11532Y11963
X12890Y11963
X9144Y16726
X9157Y15697
X9144Y14364
X9144Y13030
X9144Y11963
X13919Y11963
X13919Y13030
X13906Y14351
X13906Y15684
X13919Y16726
X12256Y8561
X13517Y6287
X14272Y4755
X12323Y6699
X14482Y5810
X4445Y17488
X11736Y7340
X15922Y10453
X7112Y19380
X6998Y10224
X7366Y9830
X10008Y8928
X3886Y17475
T4
X23876Y16256
X23876Y15621
X23876Y14986
X23876Y14351
X23876Y8001
X23876Y7366
X23241Y7366
X22606Y7366
X21971Y7366
X21336Y7366
X20701Y7366
X20066Y7366
X23876Y20193
X23833Y28656
X23838Y27445
X23825Y26797
X23825Y26162
X23851Y25527
X23838Y24892
X23247Y28662
X22612Y28668
X21954Y28668
X18161Y7366
X17526Y7366
X17526Y8001
X16891Y8001
X16892Y8520
X18796Y7366
X19431Y7366
X23241Y24892
X21319Y28668
X20684Y28668
X20049Y28668
X19414Y28668
X18779Y28668
X18144Y28668
X17509Y28668
X16874Y28668
X16239Y28668
X15604Y28668
X14334Y28668
X13699Y28668
X13064Y28668
X12429Y28668
X11794Y28668
X11159Y28668
X10524Y28668
X7503Y28653
X6741Y28653
X5979Y28653
X5217Y28653
X4455Y28653
X4445Y27940
X4445Y27178
X4318Y26416
X3937Y25781
X10160Y3556
X9779Y4064
X9271Y4572
X8763Y5080
X8255Y5588
X5969Y7874
X5461Y8382
X4953Y8890
X635Y9906
X2159Y9906
X2921Y9906
X635Y10668
X635Y11430
X635Y12192
X635Y12954
X635Y13716
X635Y14478
X635Y15240
X635Y16002
X635Y16891
X22733Y3429
X21844Y3429
X20955Y3429
X19939Y3429
X18923Y3429
X17907Y3429
X16891Y3429
X15875Y3429
X14859Y3429
X13843Y3429
X13081Y3429
X7709Y6134
X23241Y28067
X23241Y27432
X23241Y26797
X23241Y26162
X23241Y25527
X23876Y5842
X23876Y5207
X23241Y5842
X23241Y5207
X22606Y5842
X22606Y5207
X23876Y4318
X23876Y3429
X17526Y6731
X18161Y6731
X18796Y6731
X19431Y6731
X20066Y6731
X16891Y7366
X22606Y6604
X23241Y6604
X23876Y6604
X20701Y6731
X13208Y4953
X1751Y24384
X1751Y22987
X1751Y21717
X1751Y20447
X1751Y19304
X11430Y5969
X10287Y5969
X7493Y20955
X8763Y20955
X12192Y3429
X23241Y14351
X23241Y14986
X23241Y15621
X23241Y16256
X23241Y16891
X23241Y17526
X8001Y10795
X9017Y9906
X10541Y9779
X18161Y6096
X18161Y5461
X18796Y6096
X19431Y6096
X20066Y6096
X18796Y5461
X19431Y5461
X20066Y5461
X20701Y5461
X23876Y20955
X23876Y21717
X23876Y22479
X23876Y23241
X23876Y24003
X23241Y24130
X23241Y23368
X23241Y22606
X23241Y21844
X23241Y21082
X23241Y20320
X23241Y19558
X23241Y18796
X23241Y18034
X23876Y8509
X23876Y13589
X23871Y12567
X23281Y13583
X23306Y12572
X23871Y11032
X23286Y13092
X23876Y13097
X18161Y8001
X18796Y8001
X19431Y8001
X20066Y8001
X20701Y8001
X21336Y8001
X21971Y8001
X22606Y8001
X23241Y8001
X17526Y8509
X18161Y8509
X18796Y8509
X19431Y8509
X20066Y8509
X20701Y8509
X21336Y8509
X21971Y8509
X22606Y8509
X23241Y8509
X22606Y28067
X22606Y27432
X22606Y26797
X22606Y26162
X22606Y25527
X22606Y24892
X22606Y24130
X22606Y23368
X22606Y22606
X22606Y21844
X22606Y21082
X22606Y20320
X22606Y19558
X22606Y18796
X22606Y18034
X22606Y17526
X22606Y16891
X22606Y16256
X22606Y15621
X22606Y14986
X22606Y14351
X22606Y13589
X18825Y9209
X19431Y9144
X20066Y9144
X20701Y9144
X20701Y9779
X20701Y10414
X20701Y11049
X20447Y11811
X21590Y11811
X21336Y11049
X21336Y10414
X21336Y9779
X21336Y9144
X21971Y9144
X21971Y9779
X21971Y10414
X21971Y11049
X22606Y11049
X23241Y11049
X21971Y13589
X21336Y13589
X20701Y13589
X20066Y13589
X19431Y13589
X18796Y13589
X18161Y14224
X17399Y14224
X17399Y14859
X17399Y15494
X17399Y16129
X17412Y16706
X22606Y9144
X22606Y9779
X22606Y10414
X18815Y12595
X18819Y11021
X18825Y9905
X19431Y14224
X20066Y14224
X20701Y14224
X21336Y14224
X21971Y14224
X20193Y18923
X19050Y16002
X21590Y15113
X21590Y17145
X20193Y16891
X20447Y20828
X21336Y22479
X21590Y19685
X20193Y19939
X20193Y17780
X18161Y15367
X20193Y15113
X21590Y16002
X18923Y21336
X21590Y20828
X5715Y25781
X20193Y21971
X21590Y18415
X20193Y16002
X19050Y15113
X19050Y17018
X21590Y23368
X21005Y11811
X16322Y8525
X16331Y8002
X16321Y7365
X18378Y9575
X18419Y10411
X18796Y14224
X16141Y9204
X16118Y9822
X23838Y28054
X14948Y18923
X9169Y20015
X5083Y2479
X9652Y6477
X15367Y4953
X16383Y6096
X6239Y2479
X4699Y6096
X2005Y18669
X14969Y28668
X23876Y19431
X9271Y7620
X4064Y9779
X23876Y18796
X1027Y19869
X1032Y23700
X1024Y24962
X12573Y5207
X3556Y3848
X5096Y4105
X4359Y4003
X1651Y10541
X4291Y908
X1030Y22414
X1072Y21179
X10262Y27305
X20574Y4826
X23876Y18161
X23876Y17526
X23876Y16891
X18420Y13065
T5
X11278Y18580
X6883Y16535
X8369Y9766
X7264Y16078
X15875Y15494
X15811Y17234
X8204Y17793
X10643Y20574
X17361Y17615
X15875Y16129
X15888Y14291
X7252Y17082
X12319Y18669
M30