G04 EAGLE Gerber RS-274X export*
G75*
%MOMM*%
%FSLAX34Y34*%
%LPD*%
%INCopper Layer 15*%
%IPPOS*%
%AMOC8*
5,1,8,0,0,1.08239X$1,22.5*%
G01*
%ADD10C,0.900000*%
%ADD11C,0.403200*%
%ADD12C,0.457200*%
%ADD13C,0.503200*%
%ADD14C,0.453200*%

G36*
X240166Y31373D02*
X240166Y31373D01*
X240185Y31371D01*
X240287Y31393D01*
X240389Y31410D01*
X240406Y31419D01*
X240426Y31423D01*
X240515Y31476D01*
X240606Y31525D01*
X240620Y31539D01*
X240637Y31549D01*
X240704Y31628D01*
X240775Y31703D01*
X240784Y31721D01*
X240797Y31736D01*
X240835Y31832D01*
X240879Y31926D01*
X240881Y31946D01*
X240889Y31964D01*
X240907Y32131D01*
X240907Y289231D01*
X240904Y289251D01*
X240906Y289270D01*
X240884Y289372D01*
X240867Y289474D01*
X240858Y289491D01*
X240854Y289511D01*
X240801Y289600D01*
X240752Y289691D01*
X240738Y289705D01*
X240728Y289722D01*
X240649Y289789D01*
X240574Y289860D01*
X240556Y289869D01*
X240541Y289882D01*
X240444Y289921D01*
X240351Y289964D01*
X240331Y289966D01*
X240313Y289974D01*
X240146Y289992D01*
X160655Y289992D01*
X160635Y289989D01*
X160616Y289991D01*
X160514Y289969D01*
X160412Y289952D01*
X160395Y289943D01*
X160375Y289939D01*
X160286Y289886D01*
X160195Y289837D01*
X160181Y289823D01*
X160164Y289813D01*
X160097Y289734D01*
X160026Y289659D01*
X160017Y289641D01*
X160004Y289626D01*
X159965Y289530D01*
X159922Y289436D01*
X159920Y289416D01*
X159912Y289398D01*
X159894Y289231D01*
X159894Y175524D01*
X159909Y175434D01*
X159916Y175343D01*
X159928Y175313D01*
X159934Y175281D01*
X159976Y175200D01*
X160012Y175116D01*
X160038Y175084D01*
X160049Y175064D01*
X160072Y175041D01*
X160117Y174985D01*
X161402Y173700D01*
X161402Y170978D01*
X159476Y169052D01*
X156754Y169052D01*
X154828Y170978D01*
X154828Y173700D01*
X155596Y174468D01*
X155637Y174526D01*
X155687Y174578D01*
X155709Y174625D01*
X155739Y174667D01*
X155760Y174736D01*
X155790Y174801D01*
X155796Y174853D01*
X155811Y174903D01*
X155810Y174974D01*
X155818Y175045D01*
X155806Y175096D01*
X155805Y175148D01*
X155780Y175216D01*
X155765Y175286D01*
X155739Y175330D01*
X155721Y175379D01*
X155676Y175435D01*
X155639Y175497D01*
X155600Y175531D01*
X155567Y175571D01*
X155507Y175610D01*
X155452Y175657D01*
X155404Y175676D01*
X155360Y175704D01*
X155291Y175722D01*
X155224Y175749D01*
X155153Y175757D01*
X155122Y175765D01*
X155098Y175763D01*
X155057Y175767D01*
X93472Y175767D01*
X93382Y175753D01*
X93291Y175745D01*
X93261Y175733D01*
X93229Y175728D01*
X93149Y175685D01*
X93065Y175649D01*
X93033Y175623D01*
X93012Y175612D01*
X92990Y175589D01*
X92934Y175544D01*
X84298Y166908D01*
X84245Y166834D01*
X84185Y166765D01*
X84173Y166735D01*
X84154Y166709D01*
X84127Y166622D01*
X84093Y166537D01*
X84089Y166496D01*
X84082Y166473D01*
X84083Y166441D01*
X84075Y166370D01*
X84075Y116840D01*
X84090Y116750D01*
X84097Y116659D01*
X84109Y116629D01*
X84115Y116597D01*
X84157Y116517D01*
X84193Y116433D01*
X84219Y116401D01*
X84230Y116380D01*
X84253Y116358D01*
X84298Y116302D01*
X86838Y113762D01*
X86912Y113709D01*
X86981Y113649D01*
X87011Y113637D01*
X87037Y113618D01*
X87124Y113591D01*
X87209Y113557D01*
X87250Y113553D01*
X87273Y113546D01*
X87305Y113547D01*
X87376Y113539D01*
X173737Y113539D01*
X173737Y32131D01*
X173740Y32111D01*
X173738Y32092D01*
X173760Y31990D01*
X173777Y31888D01*
X173786Y31871D01*
X173790Y31851D01*
X173843Y31762D01*
X173892Y31671D01*
X173906Y31657D01*
X173916Y31640D01*
X173995Y31573D01*
X174070Y31502D01*
X174088Y31493D01*
X174103Y31480D01*
X174199Y31441D01*
X174293Y31398D01*
X174313Y31396D01*
X174331Y31388D01*
X174498Y31370D01*
X240146Y31370D01*
X240166Y31373D01*
G37*
G36*
X114320Y85602D02*
X114320Y85602D01*
X114339Y85600D01*
X114441Y85622D01*
X114543Y85639D01*
X114560Y85648D01*
X114580Y85652D01*
X114669Y85705D01*
X114760Y85754D01*
X114774Y85768D01*
X114791Y85778D01*
X114858Y85857D01*
X114930Y85932D01*
X114938Y85950D01*
X114951Y85965D01*
X114990Y86061D01*
X115033Y86155D01*
X115035Y86175D01*
X115043Y86193D01*
X115061Y86360D01*
X115061Y107950D01*
X115058Y107970D01*
X115060Y107989D01*
X115038Y108091D01*
X115022Y108193D01*
X115012Y108210D01*
X115008Y108230D01*
X114955Y108319D01*
X114906Y108410D01*
X114892Y108424D01*
X114882Y108441D01*
X114803Y108508D01*
X114728Y108580D01*
X114710Y108588D01*
X114695Y108601D01*
X114599Y108640D01*
X114505Y108683D01*
X114485Y108685D01*
X114467Y108693D01*
X114300Y108711D01*
X84308Y108711D01*
X84288Y108708D01*
X84269Y108710D01*
X84167Y108688D01*
X84065Y108672D01*
X84048Y108662D01*
X84028Y108658D01*
X83939Y108605D01*
X83848Y108556D01*
X83834Y108542D01*
X83817Y108532D01*
X83750Y108453D01*
X83678Y108378D01*
X83670Y108360D01*
X83657Y108345D01*
X83618Y108249D01*
X83575Y108155D01*
X83573Y108135D01*
X83565Y108117D01*
X83547Y107950D01*
X83547Y106485D01*
X81475Y104413D01*
X78545Y104413D01*
X76473Y106485D01*
X76473Y109415D01*
X78545Y111487D01*
X79121Y111487D01*
X79141Y111490D01*
X79160Y111488D01*
X79262Y111510D01*
X79364Y111526D01*
X79381Y111536D01*
X79401Y111540D01*
X79490Y111593D01*
X79581Y111642D01*
X79595Y111656D01*
X79612Y111666D01*
X79679Y111745D01*
X79751Y111820D01*
X79759Y111838D01*
X79772Y111853D01*
X79811Y111949D01*
X79854Y112043D01*
X79856Y112063D01*
X79864Y112081D01*
X79882Y112248D01*
X79882Y168595D01*
X90231Y178944D01*
X154813Y178944D01*
X154833Y178947D01*
X154852Y178945D01*
X154954Y178967D01*
X155056Y178984D01*
X155073Y178993D01*
X155093Y178997D01*
X155182Y179050D01*
X155273Y179099D01*
X155287Y179113D01*
X155304Y179123D01*
X155371Y179202D01*
X155443Y179277D01*
X155451Y179295D01*
X155464Y179310D01*
X155503Y179406D01*
X155546Y179500D01*
X155548Y179520D01*
X155556Y179538D01*
X155574Y179705D01*
X155574Y215900D01*
X155571Y215920D01*
X155573Y215939D01*
X155551Y216041D01*
X155535Y216143D01*
X155525Y216160D01*
X155521Y216180D01*
X155468Y216269D01*
X155419Y216360D01*
X155405Y216374D01*
X155395Y216391D01*
X155316Y216458D01*
X155241Y216530D01*
X155223Y216538D01*
X155208Y216551D01*
X155112Y216590D01*
X155018Y216633D01*
X154998Y216635D01*
X154980Y216643D01*
X154813Y216661D01*
X54991Y216661D01*
X54971Y216658D01*
X54952Y216660D01*
X54850Y216638D01*
X54748Y216622D01*
X54731Y216612D01*
X54711Y216608D01*
X54622Y216555D01*
X54531Y216506D01*
X54517Y216492D01*
X54500Y216482D01*
X54433Y216403D01*
X54362Y216328D01*
X54353Y216310D01*
X54340Y216295D01*
X54301Y216199D01*
X54258Y216105D01*
X54256Y216085D01*
X54248Y216067D01*
X54230Y215900D01*
X54230Y113030D01*
X54245Y112940D01*
X54252Y112849D01*
X54264Y112819D01*
X54270Y112787D01*
X54312Y112707D01*
X54348Y112623D01*
X54374Y112591D01*
X54385Y112570D01*
X54408Y112548D01*
X54434Y112515D01*
X54435Y112513D01*
X54437Y112512D01*
X54453Y112492D01*
X81123Y85822D01*
X81197Y85769D01*
X81266Y85709D01*
X81296Y85697D01*
X81322Y85678D01*
X81409Y85651D01*
X81494Y85617D01*
X81535Y85613D01*
X81558Y85606D01*
X81590Y85607D01*
X81661Y85599D01*
X114300Y85599D01*
X114320Y85602D01*
G37*
G36*
X127088Y31254D02*
X127088Y31254D01*
X127160Y31256D01*
X127209Y31274D01*
X127260Y31283D01*
X127324Y31316D01*
X127391Y31341D01*
X127432Y31373D01*
X127478Y31398D01*
X127527Y31450D01*
X127583Y31494D01*
X127611Y31538D01*
X127647Y31576D01*
X127677Y31641D01*
X127716Y31701D01*
X127729Y31752D01*
X127751Y31799D01*
X127759Y31870D01*
X127776Y31940D01*
X127772Y31992D01*
X127778Y32043D01*
X127763Y32114D01*
X127757Y32185D01*
X127737Y32233D01*
X127726Y32284D01*
X127689Y32345D01*
X127661Y32411D01*
X127616Y32467D01*
X127600Y32495D01*
X127582Y32510D01*
X127556Y32542D01*
X127273Y32825D01*
X127273Y35755D01*
X129345Y37827D01*
X132275Y37827D01*
X134082Y36020D01*
X134098Y36008D01*
X134110Y35993D01*
X134180Y35948D01*
X134212Y35921D01*
X134230Y35913D01*
X134281Y35876D01*
X134300Y35871D01*
X134317Y35860D01*
X134418Y35834D01*
X134517Y35804D01*
X134536Y35805D01*
X134556Y35800D01*
X134659Y35808D01*
X134762Y35810D01*
X134781Y35817D01*
X134801Y35819D01*
X134873Y35850D01*
X134876Y35850D01*
X134883Y35854D01*
X134896Y35859D01*
X134993Y35895D01*
X135009Y35907D01*
X135027Y35915D01*
X135083Y35959D01*
X135093Y35965D01*
X135105Y35977D01*
X135158Y36020D01*
X136965Y37827D01*
X139895Y37827D01*
X141967Y35755D01*
X141967Y32825D01*
X141684Y32542D01*
X141642Y32484D01*
X141593Y32432D01*
X141571Y32385D01*
X141540Y32343D01*
X141519Y32274D01*
X141489Y32209D01*
X141483Y32157D01*
X141468Y32108D01*
X141470Y32036D01*
X141462Y31965D01*
X141473Y31914D01*
X141474Y31862D01*
X141499Y31794D01*
X141514Y31724D01*
X141541Y31679D01*
X141559Y31631D01*
X141604Y31575D01*
X141640Y31513D01*
X141680Y31479D01*
X141713Y31439D01*
X141773Y31400D01*
X141827Y31353D01*
X141876Y31334D01*
X141920Y31306D01*
X141989Y31288D01*
X142056Y31261D01*
X142127Y31253D01*
X142158Y31245D01*
X142181Y31247D01*
X142222Y31243D01*
X144798Y31243D01*
X144868Y31254D01*
X144940Y31256D01*
X144989Y31274D01*
X145040Y31283D01*
X145104Y31316D01*
X145171Y31341D01*
X145212Y31373D01*
X145258Y31398D01*
X145307Y31450D01*
X145363Y31494D01*
X145391Y31538D01*
X145427Y31576D01*
X145457Y31641D01*
X145496Y31701D01*
X145509Y31752D01*
X145531Y31799D01*
X145539Y31870D01*
X145556Y31940D01*
X145552Y31992D01*
X145558Y32043D01*
X145543Y32114D01*
X145537Y32185D01*
X145517Y32233D01*
X145506Y32284D01*
X145469Y32345D01*
X145441Y32411D01*
X145396Y32467D01*
X145380Y32495D01*
X145362Y32510D01*
X145336Y32542D01*
X145053Y32825D01*
X145053Y35755D01*
X147125Y37827D01*
X150055Y37827D01*
X152127Y35755D01*
X152127Y32825D01*
X151844Y32542D01*
X151802Y32484D01*
X151753Y32432D01*
X151731Y32385D01*
X151700Y32343D01*
X151679Y32274D01*
X151649Y32209D01*
X151643Y32157D01*
X151628Y32108D01*
X151630Y32036D01*
X151622Y31965D01*
X151633Y31914D01*
X151634Y31862D01*
X151659Y31794D01*
X151674Y31724D01*
X151701Y31679D01*
X151719Y31631D01*
X151764Y31575D01*
X151800Y31513D01*
X151840Y31479D01*
X151873Y31439D01*
X151933Y31400D01*
X151987Y31353D01*
X152036Y31334D01*
X152080Y31306D01*
X152149Y31288D01*
X152216Y31261D01*
X152287Y31253D01*
X152318Y31245D01*
X152341Y31247D01*
X152382Y31243D01*
X154958Y31243D01*
X155028Y31254D01*
X155100Y31256D01*
X155149Y31274D01*
X155200Y31283D01*
X155264Y31316D01*
X155331Y31341D01*
X155372Y31373D01*
X155418Y31398D01*
X155467Y31450D01*
X155523Y31494D01*
X155551Y31538D01*
X155587Y31576D01*
X155617Y31641D01*
X155656Y31701D01*
X155669Y31752D01*
X155691Y31799D01*
X155699Y31870D01*
X155716Y31940D01*
X155712Y31992D01*
X155718Y32043D01*
X155703Y32114D01*
X155697Y32185D01*
X155677Y32233D01*
X155666Y32284D01*
X155629Y32345D01*
X155601Y32411D01*
X155556Y32467D01*
X155540Y32495D01*
X155522Y32510D01*
X155496Y32542D01*
X155213Y32825D01*
X155213Y35755D01*
X157285Y37827D01*
X160215Y37827D01*
X162287Y35755D01*
X162287Y32825D01*
X162004Y32542D01*
X161962Y32484D01*
X161913Y32432D01*
X161891Y32385D01*
X161860Y32343D01*
X161839Y32274D01*
X161809Y32209D01*
X161803Y32157D01*
X161788Y32108D01*
X161790Y32036D01*
X161782Y31965D01*
X161793Y31914D01*
X161794Y31862D01*
X161819Y31794D01*
X161834Y31724D01*
X161861Y31679D01*
X161879Y31631D01*
X161924Y31575D01*
X161960Y31513D01*
X162000Y31479D01*
X162033Y31439D01*
X162093Y31400D01*
X162147Y31353D01*
X162196Y31334D01*
X162240Y31306D01*
X162309Y31288D01*
X162376Y31261D01*
X162447Y31253D01*
X162478Y31245D01*
X162501Y31247D01*
X162542Y31243D01*
X165118Y31243D01*
X165188Y31254D01*
X165260Y31256D01*
X165309Y31274D01*
X165360Y31283D01*
X165424Y31316D01*
X165491Y31341D01*
X165532Y31373D01*
X165578Y31398D01*
X165627Y31450D01*
X165683Y31494D01*
X165711Y31538D01*
X165747Y31576D01*
X165777Y31641D01*
X165816Y31701D01*
X165829Y31752D01*
X165851Y31799D01*
X165859Y31870D01*
X165876Y31940D01*
X165872Y31992D01*
X165878Y32043D01*
X165863Y32114D01*
X165857Y32185D01*
X165837Y32233D01*
X165826Y32284D01*
X165789Y32345D01*
X165761Y32411D01*
X165716Y32467D01*
X165700Y32495D01*
X165682Y32510D01*
X165656Y32542D01*
X165373Y32825D01*
X165373Y35755D01*
X167445Y37827D01*
X170375Y37827D01*
X170658Y37544D01*
X170716Y37502D01*
X170768Y37453D01*
X170815Y37431D01*
X170857Y37400D01*
X170926Y37379D01*
X170991Y37349D01*
X171043Y37343D01*
X171093Y37328D01*
X171164Y37330D01*
X171235Y37322D01*
X171286Y37333D01*
X171338Y37334D01*
X171406Y37359D01*
X171476Y37374D01*
X171520Y37401D01*
X171569Y37419D01*
X171625Y37464D01*
X171687Y37500D01*
X171721Y37540D01*
X171761Y37573D01*
X171800Y37633D01*
X171847Y37687D01*
X171866Y37736D01*
X171894Y37780D01*
X171912Y37849D01*
X171921Y37872D01*
X171929Y37889D01*
X171930Y37893D01*
X171939Y37916D01*
X171947Y37987D01*
X171955Y38018D01*
X171953Y38041D01*
X171957Y38082D01*
X171957Y65296D01*
X171943Y65386D01*
X171935Y65477D01*
X171923Y65507D01*
X171918Y65538D01*
X171875Y65619D01*
X171839Y65703D01*
X171813Y65735D01*
X171802Y65756D01*
X171779Y65778D01*
X171734Y65834D01*
X171723Y65845D01*
X171723Y68775D01*
X171734Y68786D01*
X171779Y68848D01*
X171807Y68877D01*
X171812Y68888D01*
X171847Y68929D01*
X171859Y68959D01*
X171878Y68986D01*
X171905Y69073D01*
X171939Y69158D01*
X171943Y69198D01*
X171950Y69221D01*
X171949Y69253D01*
X171957Y69324D01*
X171957Y69868D01*
X171946Y69938D01*
X171944Y70010D01*
X171926Y70059D01*
X171918Y70110D01*
X171884Y70174D01*
X171859Y70241D01*
X171827Y70282D01*
X171802Y70328D01*
X171751Y70377D01*
X171706Y70433D01*
X171662Y70461D01*
X171624Y70497D01*
X171559Y70527D01*
X171499Y70566D01*
X171448Y70579D01*
X171401Y70601D01*
X171330Y70609D01*
X171260Y70626D01*
X171208Y70622D01*
X171157Y70628D01*
X171086Y70613D01*
X171015Y70607D01*
X170967Y70587D01*
X170916Y70576D01*
X170855Y70539D01*
X170789Y70511D01*
X170733Y70466D01*
X170705Y70450D01*
X170690Y70432D01*
X170658Y70406D01*
X170375Y70123D01*
X167445Y70123D01*
X165373Y72195D01*
X165373Y75125D01*
X166545Y76297D01*
X166557Y76313D01*
X166572Y76325D01*
X166628Y76413D01*
X166689Y76496D01*
X166694Y76515D01*
X166705Y76532D01*
X166731Y76633D01*
X166761Y76732D01*
X166760Y76751D01*
X166765Y76771D01*
X166757Y76874D01*
X166755Y76977D01*
X166748Y76996D01*
X166746Y77016D01*
X166706Y77111D01*
X166670Y77208D01*
X166658Y77224D01*
X166650Y77242D01*
X166545Y77373D01*
X165373Y78545D01*
X165373Y80792D01*
X165370Y80812D01*
X165372Y80831D01*
X165350Y80933D01*
X165334Y81035D01*
X165324Y81052D01*
X165320Y81072D01*
X165267Y81161D01*
X165218Y81252D01*
X165204Y81266D01*
X165194Y81283D01*
X165115Y81350D01*
X165040Y81422D01*
X165022Y81430D01*
X165007Y81443D01*
X164911Y81482D01*
X164817Y81525D01*
X164797Y81527D01*
X164779Y81535D01*
X164612Y81553D01*
X162365Y81553D01*
X160293Y83625D01*
X160293Y86555D01*
X161465Y87727D01*
X161477Y87743D01*
X161492Y87755D01*
X161548Y87843D01*
X161609Y87926D01*
X161614Y87945D01*
X161625Y87962D01*
X161650Y88063D01*
X161681Y88162D01*
X161680Y88181D01*
X161685Y88201D01*
X161677Y88304D01*
X161675Y88407D01*
X161668Y88426D01*
X161666Y88446D01*
X161626Y88541D01*
X161590Y88638D01*
X161578Y88654D01*
X161570Y88672D01*
X161465Y88803D01*
X160293Y89975D01*
X160293Y92905D01*
X161465Y94077D01*
X161477Y94093D01*
X161492Y94105D01*
X161548Y94193D01*
X161609Y94276D01*
X161614Y94295D01*
X161625Y94312D01*
X161650Y94413D01*
X161681Y94512D01*
X161680Y94531D01*
X161685Y94551D01*
X161677Y94654D01*
X161675Y94757D01*
X161668Y94776D01*
X161666Y94796D01*
X161626Y94891D01*
X161590Y94988D01*
X161578Y95004D01*
X161570Y95022D01*
X161465Y95153D01*
X160293Y96325D01*
X160293Y99255D01*
X161765Y100727D01*
X161777Y100743D01*
X161793Y100756D01*
X161849Y100843D01*
X161909Y100927D01*
X161915Y100946D01*
X161926Y100963D01*
X161951Y101063D01*
X161981Y101162D01*
X161981Y101182D01*
X161986Y101201D01*
X161978Y101304D01*
X161975Y101408D01*
X161968Y101427D01*
X161967Y101446D01*
X161926Y101541D01*
X161923Y101558D01*
X161916Y101568D01*
X161891Y101639D01*
X161878Y101654D01*
X161870Y101673D01*
X161806Y101753D01*
X161797Y101769D01*
X161787Y101777D01*
X161765Y101804D01*
X160243Y103326D01*
X160243Y106256D01*
X162315Y108328D01*
X165245Y108328D01*
X167317Y106256D01*
X167317Y103326D01*
X165844Y101854D01*
X165833Y101838D01*
X165817Y101825D01*
X165761Y101738D01*
X165701Y101654D01*
X165695Y101635D01*
X165684Y101618D01*
X165659Y101518D01*
X165629Y101419D01*
X165629Y101399D01*
X165624Y101380D01*
X165632Y101277D01*
X165635Y101173D01*
X165642Y101154D01*
X165643Y101135D01*
X165684Y101040D01*
X165719Y100942D01*
X165732Y100926D01*
X165740Y100908D01*
X165844Y100777D01*
X167367Y99255D01*
X167367Y96325D01*
X166195Y95153D01*
X166183Y95137D01*
X166168Y95125D01*
X166112Y95037D01*
X166051Y94954D01*
X166046Y94935D01*
X166035Y94918D01*
X166009Y94817D01*
X165979Y94718D01*
X165980Y94699D01*
X165975Y94679D01*
X165983Y94576D01*
X165985Y94473D01*
X165992Y94454D01*
X165994Y94434D01*
X166034Y94339D01*
X166070Y94242D01*
X166082Y94226D01*
X166090Y94208D01*
X166195Y94077D01*
X167367Y92905D01*
X167367Y89975D01*
X166195Y88803D01*
X166183Y88787D01*
X166168Y88775D01*
X166112Y88687D01*
X166051Y88604D01*
X166046Y88585D01*
X166035Y88568D01*
X166009Y88467D01*
X165979Y88368D01*
X165980Y88349D01*
X165975Y88329D01*
X165983Y88226D01*
X165985Y88123D01*
X165992Y88104D01*
X165994Y88084D01*
X166034Y87989D01*
X166070Y87892D01*
X166082Y87876D01*
X166090Y87858D01*
X166195Y87727D01*
X167367Y86555D01*
X167367Y84308D01*
X167370Y84288D01*
X167368Y84269D01*
X167390Y84167D01*
X167406Y84065D01*
X167416Y84048D01*
X167420Y84028D01*
X167473Y83939D01*
X167522Y83848D01*
X167536Y83834D01*
X167546Y83817D01*
X167625Y83750D01*
X167700Y83678D01*
X167718Y83670D01*
X167733Y83657D01*
X167829Y83618D01*
X167923Y83575D01*
X167943Y83573D01*
X167961Y83565D01*
X168128Y83547D01*
X170375Y83547D01*
X170424Y83498D01*
X170482Y83456D01*
X170534Y83407D01*
X170581Y83385D01*
X170623Y83354D01*
X170692Y83333D01*
X170757Y83303D01*
X170809Y83297D01*
X170859Y83282D01*
X170930Y83284D01*
X171001Y83276D01*
X171052Y83287D01*
X171104Y83288D01*
X171172Y83313D01*
X171242Y83328D01*
X171287Y83355D01*
X171335Y83373D01*
X171391Y83418D01*
X171453Y83454D01*
X171487Y83494D01*
X171527Y83527D01*
X171566Y83587D01*
X171613Y83641D01*
X171632Y83690D01*
X171660Y83733D01*
X171678Y83803D01*
X171705Y83870D01*
X171713Y83941D01*
X171721Y83972D01*
X171719Y83995D01*
X171723Y84036D01*
X171723Y86555D01*
X171734Y86566D01*
X171787Y86640D01*
X171847Y86709D01*
X171859Y86739D01*
X171878Y86766D01*
X171905Y86853D01*
X171939Y86938D01*
X171943Y86978D01*
X171950Y87001D01*
X171949Y87033D01*
X171957Y87104D01*
X171957Y110109D01*
X171954Y110129D01*
X171956Y110148D01*
X171934Y110250D01*
X171918Y110352D01*
X171908Y110369D01*
X171904Y110389D01*
X171851Y110478D01*
X171802Y110569D01*
X171788Y110583D01*
X171778Y110600D01*
X171699Y110667D01*
X171624Y110739D01*
X171606Y110747D01*
X171591Y110760D01*
X171495Y110799D01*
X171401Y110842D01*
X171381Y110844D01*
X171363Y110852D01*
X171196Y110870D01*
X117221Y110870D01*
X117201Y110867D01*
X117182Y110869D01*
X117080Y110847D01*
X116978Y110831D01*
X116961Y110821D01*
X116941Y110817D01*
X116852Y110764D01*
X116761Y110715D01*
X116747Y110701D01*
X116730Y110691D01*
X116663Y110612D01*
X116592Y110537D01*
X116583Y110519D01*
X116570Y110504D01*
X116531Y110408D01*
X116488Y110314D01*
X116486Y110294D01*
X116478Y110276D01*
X116460Y110109D01*
X116460Y83946D01*
X80071Y83946D01*
X51307Y112710D01*
X51307Y162560D01*
X51304Y162580D01*
X51306Y162599D01*
X51284Y162701D01*
X51268Y162803D01*
X51258Y162820D01*
X51254Y162840D01*
X51201Y162929D01*
X51152Y163020D01*
X51138Y163034D01*
X51128Y163051D01*
X51049Y163118D01*
X50974Y163190D01*
X50956Y163198D01*
X50941Y163211D01*
X50845Y163250D01*
X50751Y163293D01*
X50731Y163295D01*
X50713Y163303D01*
X50546Y163321D01*
X29083Y163321D01*
X29063Y163318D01*
X29044Y163320D01*
X28942Y163298D01*
X28840Y163282D01*
X28823Y163272D01*
X28803Y163268D01*
X28714Y163215D01*
X28623Y163166D01*
X28609Y163152D01*
X28592Y163142D01*
X28525Y163063D01*
X28454Y162988D01*
X28445Y162970D01*
X28432Y162955D01*
X28393Y162859D01*
X28350Y162765D01*
X28348Y162745D01*
X28340Y162727D01*
X28322Y162560D01*
X28322Y123063D01*
X28337Y122973D01*
X28344Y122882D01*
X28356Y122852D01*
X28362Y122820D01*
X28404Y122740D01*
X28440Y122656D01*
X28466Y122624D01*
X28477Y122603D01*
X28500Y122581D01*
X28545Y122525D01*
X117084Y33986D01*
X117142Y33944D01*
X117194Y33894D01*
X117241Y33872D01*
X117283Y33842D01*
X117352Y33821D01*
X117417Y33791D01*
X117469Y33785D01*
X117519Y33770D01*
X117590Y33772D01*
X117661Y33764D01*
X117712Y33775D01*
X117764Y33776D01*
X117832Y33801D01*
X117902Y33816D01*
X117946Y33843D01*
X117995Y33861D01*
X118051Y33905D01*
X118113Y33942D01*
X118147Y33982D01*
X118187Y34014D01*
X118226Y34075D01*
X118273Y34129D01*
X118292Y34177D01*
X118320Y34221D01*
X118338Y34291D01*
X118365Y34357D01*
X118373Y34429D01*
X118381Y34460D01*
X118379Y34483D01*
X118383Y34524D01*
X118383Y35755D01*
X120455Y37827D01*
X123385Y37827D01*
X125457Y35755D01*
X125457Y32825D01*
X125174Y32542D01*
X125132Y32484D01*
X125083Y32432D01*
X125061Y32385D01*
X125030Y32343D01*
X125009Y32274D01*
X124979Y32209D01*
X124973Y32157D01*
X124958Y32108D01*
X124960Y32036D01*
X124952Y31965D01*
X124963Y31914D01*
X124964Y31862D01*
X124989Y31794D01*
X125004Y31724D01*
X125031Y31679D01*
X125049Y31631D01*
X125094Y31575D01*
X125130Y31513D01*
X125170Y31479D01*
X125203Y31439D01*
X125263Y31400D01*
X125317Y31353D01*
X125366Y31334D01*
X125410Y31306D01*
X125479Y31288D01*
X125546Y31261D01*
X125617Y31253D01*
X125648Y31245D01*
X125671Y31247D01*
X125712Y31243D01*
X127018Y31243D01*
X127088Y31254D01*
G37*
G36*
X53665Y93738D02*
X53665Y93738D01*
X53736Y93740D01*
X53785Y93758D01*
X53837Y93767D01*
X53900Y93800D01*
X53967Y93825D01*
X54008Y93857D01*
X54054Y93882D01*
X54103Y93933D01*
X54159Y93978D01*
X54188Y94022D01*
X54224Y94060D01*
X54254Y94125D01*
X54292Y94185D01*
X54305Y94236D01*
X54327Y94283D01*
X54335Y94354D01*
X54353Y94424D01*
X54348Y94476D01*
X54354Y94527D01*
X54339Y94598D01*
X54333Y94669D01*
X54313Y94717D01*
X54302Y94768D01*
X54265Y94829D01*
X54237Y94895D01*
X54192Y94951D01*
X54176Y94979D01*
X54158Y94994D01*
X54132Y95026D01*
X25526Y123632D01*
X25526Y166244D01*
X49276Y166244D01*
X49296Y166247D01*
X49315Y166245D01*
X49417Y166267D01*
X49519Y166284D01*
X49536Y166293D01*
X49556Y166297D01*
X49645Y166350D01*
X49736Y166399D01*
X49750Y166413D01*
X49767Y166423D01*
X49834Y166502D01*
X49906Y166577D01*
X49914Y166595D01*
X49927Y166610D01*
X49966Y166706D01*
X50009Y166800D01*
X50011Y166820D01*
X50019Y166838D01*
X50037Y167005D01*
X50037Y216027D01*
X50034Y216047D01*
X50036Y216066D01*
X50014Y216168D01*
X49998Y216270D01*
X49988Y216287D01*
X49984Y216307D01*
X49931Y216396D01*
X49882Y216487D01*
X49868Y216501D01*
X49858Y216518D01*
X49779Y216585D01*
X49704Y216657D01*
X49686Y216665D01*
X49671Y216678D01*
X49575Y216717D01*
X49481Y216760D01*
X49461Y216762D01*
X49443Y216770D01*
X49276Y216788D01*
X20808Y216788D01*
X20788Y216785D01*
X20769Y216787D01*
X20667Y216765D01*
X20565Y216749D01*
X20548Y216739D01*
X20528Y216735D01*
X20439Y216682D01*
X20348Y216633D01*
X20334Y216619D01*
X20317Y216609D01*
X20250Y216530D01*
X20178Y216455D01*
X20170Y216437D01*
X20157Y216422D01*
X20118Y216326D01*
X20075Y216232D01*
X20073Y216212D01*
X20065Y216194D01*
X20047Y216027D01*
X20047Y215705D01*
X19998Y215656D01*
X19956Y215598D01*
X19907Y215546D01*
X19885Y215499D01*
X19854Y215457D01*
X19833Y215388D01*
X19803Y215323D01*
X19797Y215271D01*
X19782Y215221D01*
X19784Y215150D01*
X19776Y215079D01*
X19787Y215028D01*
X19788Y214976D01*
X19813Y214908D01*
X19828Y214838D01*
X19855Y214793D01*
X19873Y214745D01*
X19918Y214689D01*
X19954Y214627D01*
X19994Y214593D01*
X20027Y214553D01*
X20087Y214514D01*
X20141Y214467D01*
X20190Y214448D01*
X20233Y214420D01*
X20303Y214402D01*
X20370Y214375D01*
X20441Y214367D01*
X20472Y214359D01*
X20495Y214361D01*
X20512Y214359D01*
X22587Y212285D01*
X22587Y209355D01*
X20511Y207279D01*
X20466Y207272D01*
X20394Y207270D01*
X20345Y207252D01*
X20293Y207244D01*
X20230Y207210D01*
X20163Y207185D01*
X20122Y207153D01*
X20076Y207128D01*
X20027Y207077D01*
X19971Y207032D01*
X19943Y206988D01*
X19907Y206950D01*
X19877Y206885D01*
X19838Y206825D01*
X19825Y206774D01*
X19803Y206727D01*
X19795Y206656D01*
X19778Y206586D01*
X19782Y206534D01*
X19776Y206483D01*
X19791Y206412D01*
X19797Y206341D01*
X19817Y206293D01*
X19828Y206242D01*
X19865Y206181D01*
X19893Y206115D01*
X19938Y206059D01*
X19954Y206031D01*
X19972Y206016D01*
X19998Y205984D01*
X20047Y205935D01*
X20047Y203005D01*
X17975Y200933D01*
X15045Y200933D01*
X12973Y203005D01*
X12973Y205935D01*
X15049Y208011D01*
X15094Y208018D01*
X15166Y208020D01*
X15215Y208038D01*
X15267Y208046D01*
X15330Y208080D01*
X15397Y208105D01*
X15438Y208137D01*
X15484Y208162D01*
X15533Y208213D01*
X15589Y208258D01*
X15617Y208302D01*
X15653Y208340D01*
X15683Y208405D01*
X15722Y208465D01*
X15735Y208516D01*
X15757Y208563D01*
X15765Y208634D01*
X15782Y208704D01*
X15778Y208756D01*
X15784Y208807D01*
X15769Y208878D01*
X15763Y208949D01*
X15743Y208997D01*
X15732Y209048D01*
X15695Y209109D01*
X15667Y209175D01*
X15622Y209231D01*
X15606Y209259D01*
X15588Y209274D01*
X15562Y209306D01*
X15513Y209355D01*
X15513Y212285D01*
X15562Y212334D01*
X15604Y212392D01*
X15653Y212444D01*
X15675Y212491D01*
X15706Y212533D01*
X15727Y212602D01*
X15757Y212667D01*
X15763Y212719D01*
X15778Y212769D01*
X15776Y212840D01*
X15784Y212911D01*
X15773Y212962D01*
X15772Y213014D01*
X15747Y213082D01*
X15732Y213152D01*
X15705Y213197D01*
X15687Y213245D01*
X15642Y213301D01*
X15606Y213363D01*
X15566Y213397D01*
X15533Y213437D01*
X15473Y213476D01*
X15419Y213523D01*
X15370Y213542D01*
X15327Y213570D01*
X15257Y213588D01*
X15190Y213615D01*
X15119Y213623D01*
X15088Y213631D01*
X15065Y213629D01*
X15048Y213631D01*
X12973Y215705D01*
X12973Y216027D01*
X12970Y216047D01*
X12972Y216066D01*
X12950Y216168D01*
X12934Y216270D01*
X12924Y216287D01*
X12920Y216307D01*
X12867Y216396D01*
X12818Y216487D01*
X12804Y216501D01*
X12794Y216518D01*
X12715Y216585D01*
X12640Y216657D01*
X12622Y216665D01*
X12607Y216678D01*
X12511Y216717D01*
X12417Y216760D01*
X12397Y216762D01*
X12379Y216770D01*
X12212Y216788D01*
X3411Y216788D01*
X3391Y216785D01*
X3371Y216787D01*
X3270Y216765D01*
X3168Y216749D01*
X3150Y216739D01*
X3131Y216735D01*
X3042Y216682D01*
X2950Y216633D01*
X2937Y216619D01*
X2920Y216609D01*
X2852Y216530D01*
X2781Y216455D01*
X2773Y216437D01*
X2760Y216422D01*
X2721Y216326D01*
X2677Y216232D01*
X2675Y216212D01*
X2668Y216194D01*
X2649Y216027D01*
X2649Y172049D01*
X2661Y171978D01*
X2663Y171906D01*
X2681Y171857D01*
X2689Y171806D01*
X2723Y171743D01*
X2747Y171675D01*
X2780Y171635D01*
X2804Y171589D01*
X2856Y171539D01*
X2901Y171483D01*
X2945Y171455D01*
X2983Y171419D01*
X3048Y171389D01*
X3108Y171350D01*
X3158Y171338D01*
X3206Y171316D01*
X3277Y171308D01*
X3346Y171290D01*
X3398Y171294D01*
X3450Y171289D01*
X3520Y171304D01*
X3592Y171309D01*
X3639Y171330D01*
X3690Y171341D01*
X3752Y171378D01*
X3818Y171406D01*
X3874Y171451D01*
X3902Y171467D01*
X3917Y171485D01*
X3949Y171511D01*
X4885Y172447D01*
X7815Y172447D01*
X9887Y170375D01*
X9887Y167445D01*
X7815Y165373D01*
X4885Y165373D01*
X3949Y166309D01*
X3891Y166351D01*
X3839Y166401D01*
X3791Y166423D01*
X3749Y166453D01*
X3681Y166474D01*
X3616Y166504D01*
X3564Y166510D01*
X3514Y166525D01*
X3442Y166523D01*
X3371Y166531D01*
X3320Y166520D01*
X3268Y166519D01*
X3201Y166494D01*
X3131Y166479D01*
X3086Y166452D01*
X3037Y166435D01*
X2981Y166390D01*
X2920Y166353D01*
X2886Y166313D01*
X2845Y166281D01*
X2806Y166221D01*
X2760Y166166D01*
X2740Y166118D01*
X2712Y166074D01*
X2695Y166004D01*
X2668Y165938D01*
X2660Y165867D01*
X2652Y165835D01*
X2654Y165812D01*
X2649Y165771D01*
X2649Y163159D01*
X2661Y163088D01*
X2663Y163016D01*
X2681Y162967D01*
X2689Y162916D01*
X2723Y162853D01*
X2747Y162785D01*
X2780Y162745D01*
X2804Y162699D01*
X2856Y162649D01*
X2901Y162593D01*
X2945Y162565D01*
X2983Y162529D01*
X3048Y162499D01*
X3108Y162460D01*
X3158Y162448D01*
X3206Y162426D01*
X3277Y162418D01*
X3346Y162400D01*
X3398Y162404D01*
X3450Y162399D01*
X3520Y162414D01*
X3592Y162419D01*
X3639Y162440D01*
X3690Y162451D01*
X3752Y162488D01*
X3818Y162516D01*
X3874Y162561D01*
X3902Y162577D01*
X3917Y162595D01*
X3949Y162621D01*
X4885Y163557D01*
X7815Y163557D01*
X9887Y161485D01*
X9887Y158555D01*
X8080Y156748D01*
X8068Y156732D01*
X8053Y156720D01*
X7997Y156632D01*
X7936Y156549D01*
X7931Y156530D01*
X7920Y156513D01*
X7894Y156412D01*
X7864Y156313D01*
X7865Y156294D01*
X7860Y156274D01*
X7868Y156171D01*
X7870Y156068D01*
X7877Y156049D01*
X7879Y156029D01*
X7919Y155934D01*
X7955Y155837D01*
X7967Y155821D01*
X7975Y155803D01*
X8080Y155672D01*
X9887Y153865D01*
X9887Y150935D01*
X8080Y149128D01*
X8068Y149112D01*
X8053Y149100D01*
X7997Y149012D01*
X7936Y148929D01*
X7931Y148910D01*
X7920Y148893D01*
X7894Y148792D01*
X7864Y148693D01*
X7865Y148674D01*
X7860Y148654D01*
X7868Y148551D01*
X7870Y148448D01*
X7877Y148429D01*
X7879Y148409D01*
X7919Y148314D01*
X7955Y148217D01*
X7967Y148201D01*
X7975Y148183D01*
X8080Y148052D01*
X9887Y146245D01*
X9887Y143315D01*
X8080Y141508D01*
X8068Y141492D01*
X8053Y141480D01*
X7997Y141392D01*
X7936Y141309D01*
X7931Y141290D01*
X7920Y141273D01*
X7894Y141172D01*
X7864Y141073D01*
X7865Y141054D01*
X7860Y141034D01*
X7868Y140931D01*
X7870Y140828D01*
X7877Y140809D01*
X7879Y140789D01*
X7919Y140694D01*
X7955Y140597D01*
X7967Y140581D01*
X7975Y140563D01*
X8080Y140432D01*
X9887Y138625D01*
X9887Y135695D01*
X8080Y133888D01*
X8068Y133872D01*
X8053Y133860D01*
X7997Y133772D01*
X7936Y133689D01*
X7931Y133670D01*
X7920Y133653D01*
X7894Y133552D01*
X7864Y133453D01*
X7865Y133434D01*
X7860Y133414D01*
X7868Y133311D01*
X7870Y133208D01*
X7877Y133189D01*
X7879Y133169D01*
X7919Y133074D01*
X7955Y132977D01*
X7967Y132961D01*
X7975Y132943D01*
X8080Y132812D01*
X9887Y131005D01*
X9887Y128075D01*
X8080Y126268D01*
X8068Y126252D01*
X8053Y126240D01*
X7997Y126152D01*
X7936Y126069D01*
X7931Y126050D01*
X7920Y126033D01*
X7894Y125932D01*
X7864Y125833D01*
X7865Y125814D01*
X7860Y125794D01*
X7868Y125691D01*
X7870Y125588D01*
X7877Y125569D01*
X7879Y125549D01*
X7919Y125454D01*
X7955Y125357D01*
X7967Y125341D01*
X7975Y125323D01*
X8080Y125192D01*
X9887Y123385D01*
X9887Y120455D01*
X8080Y118648D01*
X8068Y118632D01*
X8053Y118620D01*
X7997Y118532D01*
X7936Y118449D01*
X7931Y118430D01*
X7920Y118413D01*
X7894Y118312D01*
X7864Y118213D01*
X7865Y118194D01*
X7860Y118174D01*
X7868Y118071D01*
X7870Y117968D01*
X7877Y117949D01*
X7879Y117929D01*
X7919Y117834D01*
X7955Y117737D01*
X7967Y117721D01*
X7975Y117703D01*
X8057Y117600D01*
X8060Y117596D01*
X8063Y117593D01*
X8080Y117572D01*
X9887Y115765D01*
X9887Y112835D01*
X8080Y111028D01*
X8068Y111012D01*
X8053Y111000D01*
X7997Y110912D01*
X7936Y110829D01*
X7931Y110810D01*
X7920Y110793D01*
X7894Y110692D01*
X7864Y110593D01*
X7865Y110574D01*
X7860Y110554D01*
X7868Y110451D01*
X7870Y110348D01*
X7877Y110329D01*
X7879Y110309D01*
X7919Y110214D01*
X7926Y110197D01*
X7926Y110194D01*
X7927Y110193D01*
X7955Y110117D01*
X7967Y110101D01*
X7975Y110083D01*
X8045Y109995D01*
X8052Y109983D01*
X8060Y109977D01*
X8080Y109952D01*
X9887Y108145D01*
X9887Y105215D01*
X8080Y103408D01*
X8068Y103392D01*
X8053Y103380D01*
X7997Y103292D01*
X7936Y103209D01*
X7931Y103190D01*
X7920Y103173D01*
X7894Y103072D01*
X7864Y102973D01*
X7865Y102954D01*
X7860Y102934D01*
X7868Y102834D01*
X7866Y102822D01*
X7868Y102813D01*
X7870Y102728D01*
X7877Y102709D01*
X7879Y102689D01*
X7912Y102610D01*
X7919Y102582D01*
X7932Y102560D01*
X7955Y102497D01*
X7967Y102481D01*
X7975Y102463D01*
X8033Y102390D01*
X8045Y102371D01*
X8057Y102360D01*
X8080Y102332D01*
X9887Y100525D01*
X9887Y97595D01*
X7815Y95523D01*
X4885Y95523D01*
X3949Y96459D01*
X3891Y96501D01*
X3839Y96551D01*
X3791Y96573D01*
X3749Y96603D01*
X3681Y96624D01*
X3616Y96654D01*
X3564Y96660D01*
X3514Y96675D01*
X3442Y96673D01*
X3371Y96681D01*
X3320Y96670D01*
X3268Y96669D01*
X3201Y96644D01*
X3131Y96629D01*
X3086Y96602D01*
X3037Y96585D01*
X2981Y96540D01*
X2920Y96503D01*
X2886Y96463D01*
X2845Y96431D01*
X2806Y96371D01*
X2760Y96316D01*
X2740Y96268D01*
X2712Y96224D01*
X2695Y96154D01*
X2668Y96088D01*
X2660Y96017D01*
X2652Y95985D01*
X2654Y95962D01*
X2649Y95921D01*
X2649Y94488D01*
X2653Y94468D01*
X2650Y94449D01*
X2672Y94347D01*
X2689Y94245D01*
X2698Y94228D01*
X2703Y94208D01*
X2756Y94119D01*
X2804Y94028D01*
X2819Y94014D01*
X2829Y93997D01*
X2908Y93930D01*
X2983Y93859D01*
X3001Y93850D01*
X3016Y93837D01*
X3112Y93798D01*
X3206Y93755D01*
X3225Y93753D01*
X3244Y93745D01*
X3411Y93727D01*
X53594Y93727D01*
X53665Y93738D01*
G37*
%LPC*%
G36*
X20125Y95523D02*
X20125Y95523D01*
X18053Y97595D01*
X18053Y100525D01*
X18102Y100574D01*
X18144Y100632D01*
X18193Y100684D01*
X18215Y100731D01*
X18246Y100773D01*
X18267Y100842D01*
X18297Y100907D01*
X18303Y100959D01*
X18318Y101009D01*
X18316Y101080D01*
X18324Y101151D01*
X18313Y101202D01*
X18312Y101254D01*
X18287Y101322D01*
X18272Y101392D01*
X18245Y101437D01*
X18227Y101485D01*
X18182Y101541D01*
X18146Y101603D01*
X18106Y101637D01*
X18073Y101677D01*
X18013Y101716D01*
X17959Y101763D01*
X17910Y101782D01*
X17867Y101810D01*
X17797Y101828D01*
X17730Y101855D01*
X17659Y101863D01*
X17628Y101871D01*
X17605Y101869D01*
X17564Y101873D01*
X15045Y101873D01*
X12973Y103945D01*
X12973Y106875D01*
X15045Y108947D01*
X17975Y108947D01*
X20047Y106875D01*
X20047Y103945D01*
X19998Y103896D01*
X19956Y103838D01*
X19907Y103786D01*
X19885Y103739D01*
X19854Y103697D01*
X19833Y103628D01*
X19803Y103563D01*
X19797Y103511D01*
X19782Y103461D01*
X19784Y103390D01*
X19776Y103319D01*
X19787Y103268D01*
X19788Y103216D01*
X19813Y103148D01*
X19828Y103078D01*
X19855Y103033D01*
X19873Y102985D01*
X19918Y102929D01*
X19954Y102867D01*
X19994Y102833D01*
X20027Y102793D01*
X20087Y102754D01*
X20141Y102707D01*
X20190Y102688D01*
X20233Y102660D01*
X20303Y102642D01*
X20370Y102615D01*
X20441Y102607D01*
X20472Y102599D01*
X20495Y102601D01*
X20536Y102597D01*
X23055Y102597D01*
X24862Y100790D01*
X24878Y100778D01*
X24890Y100763D01*
X24958Y100719D01*
X24994Y100688D01*
X25014Y100680D01*
X25061Y100646D01*
X25080Y100641D01*
X25097Y100630D01*
X25198Y100605D01*
X25218Y100598D01*
X25222Y100596D01*
X25225Y100596D01*
X25297Y100574D01*
X25316Y100575D01*
X25336Y100570D01*
X25439Y100578D01*
X25542Y100580D01*
X25561Y100587D01*
X25581Y100589D01*
X25646Y100616D01*
X25654Y100618D01*
X25674Y100628D01*
X25676Y100629D01*
X25773Y100665D01*
X25789Y100677D01*
X25807Y100685D01*
X25859Y100726D01*
X25871Y100733D01*
X25885Y100747D01*
X25938Y100790D01*
X27745Y102597D01*
X30675Y102597D01*
X32747Y100525D01*
X32747Y97595D01*
X30675Y95523D01*
X27745Y95523D01*
X25938Y97330D01*
X25922Y97342D01*
X25910Y97357D01*
X25836Y97405D01*
X25815Y97423D01*
X25802Y97428D01*
X25739Y97474D01*
X25720Y97479D01*
X25703Y97490D01*
X25602Y97516D01*
X25503Y97546D01*
X25484Y97545D01*
X25464Y97550D01*
X25361Y97542D01*
X25258Y97540D01*
X25239Y97533D01*
X25219Y97531D01*
X25124Y97491D01*
X25027Y97455D01*
X25011Y97443D01*
X24993Y97435D01*
X24926Y97381D01*
X24920Y97378D01*
X24914Y97371D01*
X24862Y97330D01*
X23055Y95523D01*
X20125Y95523D01*
G37*
%LPD*%
%LPC*%
G36*
X71283Y157495D02*
X71283Y157495D01*
X69357Y159421D01*
X69357Y161306D01*
X69354Y161326D01*
X69356Y161345D01*
X69334Y161447D01*
X69318Y161549D01*
X69308Y161566D01*
X69304Y161586D01*
X69251Y161675D01*
X69202Y161766D01*
X69188Y161780D01*
X69178Y161797D01*
X69099Y161864D01*
X69024Y161936D01*
X69006Y161944D01*
X68991Y161957D01*
X68895Y161996D01*
X68801Y162039D01*
X68781Y162041D01*
X68763Y162049D01*
X68596Y162067D01*
X67473Y162067D01*
X65547Y163993D01*
X65547Y166715D01*
X67473Y168641D01*
X68469Y168641D01*
X68489Y168644D01*
X68508Y168642D01*
X68610Y168664D01*
X68712Y168680D01*
X68729Y168690D01*
X68749Y168694D01*
X68838Y168747D01*
X68929Y168796D01*
X68943Y168810D01*
X68960Y168820D01*
X69027Y168899D01*
X69099Y168974D01*
X69107Y168992D01*
X69120Y169007D01*
X69159Y169103D01*
X69202Y169197D01*
X69204Y169217D01*
X69212Y169235D01*
X69230Y169402D01*
X69230Y172176D01*
X71156Y174102D01*
X73878Y174102D01*
X75804Y172176D01*
X75804Y169454D01*
X73878Y167528D01*
X72882Y167528D01*
X72862Y167525D01*
X72843Y167527D01*
X72741Y167505D01*
X72639Y167489D01*
X72622Y167479D01*
X72602Y167475D01*
X72513Y167422D01*
X72422Y167373D01*
X72408Y167359D01*
X72391Y167349D01*
X72324Y167270D01*
X72252Y167195D01*
X72244Y167177D01*
X72231Y167162D01*
X72192Y167066D01*
X72149Y166972D01*
X72147Y166952D01*
X72139Y166934D01*
X72121Y166767D01*
X72121Y164830D01*
X72124Y164810D01*
X72122Y164791D01*
X72144Y164689D01*
X72160Y164587D01*
X72170Y164570D01*
X72174Y164550D01*
X72227Y164461D01*
X72276Y164370D01*
X72290Y164356D01*
X72300Y164339D01*
X72379Y164272D01*
X72454Y164200D01*
X72472Y164192D01*
X72487Y164179D01*
X72583Y164140D01*
X72677Y164097D01*
X72697Y164095D01*
X72715Y164087D01*
X72882Y164069D01*
X74005Y164069D01*
X75931Y162143D01*
X75931Y159421D01*
X74005Y157495D01*
X71283Y157495D01*
G37*
%LPD*%
%LPC*%
G36*
X166071Y217193D02*
X166071Y217193D01*
X163853Y219411D01*
X163853Y222549D01*
X166071Y224767D01*
X166902Y224767D01*
X166922Y224770D01*
X166941Y224768D01*
X167043Y224790D01*
X167145Y224806D01*
X167162Y224816D01*
X167182Y224820D01*
X167271Y224873D01*
X167362Y224922D01*
X167376Y224936D01*
X167393Y224946D01*
X167460Y225025D01*
X167532Y225100D01*
X167540Y225118D01*
X167553Y225133D01*
X167592Y225229D01*
X167635Y225323D01*
X167637Y225343D01*
X167645Y225361D01*
X167663Y225528D01*
X167663Y227629D01*
X169881Y229847D01*
X173019Y229847D01*
X175237Y227629D01*
X175237Y224491D01*
X173019Y222273D01*
X172188Y222273D01*
X172168Y222270D01*
X172149Y222272D01*
X172047Y222250D01*
X171945Y222234D01*
X171928Y222224D01*
X171908Y222220D01*
X171819Y222167D01*
X171728Y222118D01*
X171714Y222104D01*
X171697Y222094D01*
X171630Y222015D01*
X171558Y221940D01*
X171550Y221922D01*
X171537Y221907D01*
X171498Y221811D01*
X171455Y221717D01*
X171453Y221697D01*
X171445Y221679D01*
X171427Y221512D01*
X171427Y219411D01*
X169209Y217193D01*
X166071Y217193D01*
G37*
%LPD*%
%LPC*%
G36*
X17585Y183153D02*
X17585Y183153D01*
X15513Y185225D01*
X15513Y188155D01*
X15562Y188204D01*
X15604Y188262D01*
X15653Y188314D01*
X15675Y188361D01*
X15706Y188403D01*
X15727Y188472D01*
X15757Y188537D01*
X15763Y188589D01*
X15778Y188639D01*
X15776Y188710D01*
X15784Y188781D01*
X15773Y188832D01*
X15772Y188884D01*
X15747Y188952D01*
X15732Y189022D01*
X15705Y189067D01*
X15687Y189115D01*
X15642Y189171D01*
X15606Y189233D01*
X15566Y189267D01*
X15533Y189307D01*
X15473Y189346D01*
X15419Y189393D01*
X15370Y189412D01*
X15327Y189440D01*
X15257Y189458D01*
X15190Y189485D01*
X15119Y189493D01*
X15088Y189501D01*
X15065Y189499D01*
X15048Y189501D01*
X12973Y191575D01*
X12973Y194505D01*
X15045Y196577D01*
X17975Y196577D01*
X20047Y194505D01*
X20047Y191575D01*
X19998Y191526D01*
X19956Y191468D01*
X19907Y191416D01*
X19885Y191369D01*
X19854Y191327D01*
X19833Y191258D01*
X19803Y191193D01*
X19797Y191141D01*
X19782Y191091D01*
X19784Y191020D01*
X19776Y190949D01*
X19787Y190898D01*
X19788Y190846D01*
X19813Y190778D01*
X19828Y190708D01*
X19855Y190663D01*
X19873Y190615D01*
X19918Y190559D01*
X19954Y190497D01*
X19994Y190463D01*
X20027Y190423D01*
X20087Y190384D01*
X20141Y190337D01*
X20190Y190318D01*
X20233Y190290D01*
X20303Y190272D01*
X20370Y190245D01*
X20441Y190237D01*
X20472Y190229D01*
X20495Y190231D01*
X20512Y190229D01*
X22587Y188155D01*
X22587Y185225D01*
X20515Y183153D01*
X17585Y183153D01*
G37*
%LPD*%
%LPC*%
G36*
X130615Y45993D02*
X130615Y45993D01*
X128539Y48069D01*
X128532Y48114D01*
X128530Y48186D01*
X128512Y48235D01*
X128504Y48287D01*
X128470Y48350D01*
X128445Y48417D01*
X128413Y48458D01*
X128388Y48504D01*
X128337Y48553D01*
X128292Y48609D01*
X128248Y48637D01*
X128210Y48673D01*
X128145Y48703D01*
X128085Y48742D01*
X128034Y48755D01*
X127987Y48777D01*
X127916Y48785D01*
X127846Y48802D01*
X127794Y48798D01*
X127743Y48804D01*
X127672Y48789D01*
X127601Y48783D01*
X127553Y48763D01*
X127502Y48752D01*
X127441Y48715D01*
X127375Y48687D01*
X127319Y48642D01*
X127291Y48626D01*
X127276Y48608D01*
X127244Y48582D01*
X127195Y48533D01*
X124265Y48533D01*
X122193Y50605D01*
X122193Y53535D01*
X124265Y55607D01*
X127195Y55607D01*
X129271Y53531D01*
X129278Y53486D01*
X129280Y53414D01*
X129298Y53365D01*
X129306Y53313D01*
X129340Y53250D01*
X129365Y53183D01*
X129397Y53142D01*
X129422Y53096D01*
X129473Y53047D01*
X129518Y52991D01*
X129562Y52963D01*
X129600Y52927D01*
X129665Y52897D01*
X129725Y52858D01*
X129776Y52845D01*
X129823Y52823D01*
X129894Y52815D01*
X129964Y52798D01*
X130016Y52802D01*
X130067Y52796D01*
X130138Y52811D01*
X130209Y52817D01*
X130257Y52837D01*
X130308Y52848D01*
X130369Y52885D01*
X130435Y52913D01*
X130491Y52958D01*
X130519Y52974D01*
X130534Y52992D01*
X130566Y53018D01*
X130615Y53067D01*
X133545Y53067D01*
X135617Y50995D01*
X135617Y48065D01*
X133545Y45993D01*
X130615Y45993D01*
G37*
%LPD*%
%LPC*%
G36*
X82332Y94376D02*
X82332Y94376D01*
X80406Y96302D01*
X80406Y99024D01*
X82332Y100950D01*
X85054Y100950D01*
X85518Y100486D01*
X85534Y100475D01*
X85547Y100459D01*
X85634Y100403D01*
X85718Y100343D01*
X85737Y100337D01*
X85753Y100326D01*
X85854Y100301D01*
X85953Y100270D01*
X85973Y100271D01*
X85992Y100266D01*
X86095Y100274D01*
X86199Y100277D01*
X86217Y100284D01*
X86237Y100285D01*
X86332Y100325D01*
X86430Y100361D01*
X86445Y100374D01*
X86464Y100381D01*
X86595Y100486D01*
X88705Y102597D01*
X91635Y102597D01*
X93707Y100525D01*
X93707Y97595D01*
X91635Y95523D01*
X88705Y95523D01*
X87992Y96237D01*
X87975Y96248D01*
X87963Y96264D01*
X87876Y96320D01*
X87792Y96380D01*
X87773Y96386D01*
X87756Y96397D01*
X87656Y96422D01*
X87557Y96453D01*
X87537Y96452D01*
X87517Y96457D01*
X87414Y96449D01*
X87311Y96446D01*
X87292Y96439D01*
X87272Y96438D01*
X87177Y96398D01*
X87080Y96362D01*
X87064Y96349D01*
X87046Y96342D01*
X86915Y96237D01*
X85054Y94376D01*
X82332Y94376D01*
G37*
%LPD*%
%LPC*%
G36*
X157389Y151653D02*
X157389Y151653D01*
X155463Y153579D01*
X155463Y156301D01*
X156739Y157577D01*
X156750Y157593D01*
X156766Y157605D01*
X156822Y157693D01*
X156882Y157776D01*
X156888Y157795D01*
X156899Y157812D01*
X156924Y157913D01*
X156954Y158012D01*
X156954Y158031D01*
X156959Y158051D01*
X156951Y158154D01*
X156948Y158257D01*
X156941Y158276D01*
X156940Y158296D01*
X156899Y158391D01*
X156864Y158488D01*
X156851Y158504D01*
X156843Y158522D01*
X156739Y158653D01*
X155463Y159929D01*
X155463Y162651D01*
X157389Y164577D01*
X160111Y164577D01*
X162037Y162651D01*
X162037Y159929D01*
X160761Y158653D01*
X160750Y158637D01*
X160734Y158625D01*
X160678Y158537D01*
X160618Y158454D01*
X160612Y158435D01*
X160601Y158418D01*
X160576Y158317D01*
X160546Y158218D01*
X160546Y158199D01*
X160541Y158179D01*
X160549Y158076D01*
X160552Y157973D01*
X160559Y157954D01*
X160560Y157934D01*
X160601Y157839D01*
X160636Y157742D01*
X160649Y157726D01*
X160657Y157708D01*
X160761Y157577D01*
X162037Y156301D01*
X162037Y153579D01*
X160111Y151653D01*
X157389Y151653D01*
G37*
%LPD*%
%LPC*%
G36*
X111811Y207263D02*
X111811Y207263D01*
X109727Y209347D01*
X109727Y212293D01*
X111811Y214377D01*
X114757Y214377D01*
X116841Y212293D01*
X116841Y209347D01*
X114757Y207263D01*
X111811Y207263D01*
G37*
%LPD*%
%LPC*%
G36*
X67615Y178688D02*
X67615Y178688D01*
X65531Y180772D01*
X65531Y183718D01*
X67615Y185802D01*
X70561Y185802D01*
X72645Y183718D01*
X72645Y180772D01*
X70561Y178688D01*
X67615Y178688D01*
G37*
%LPD*%
%LPC*%
G36*
X153086Y78231D02*
X153086Y78231D01*
X151002Y80315D01*
X151002Y83261D01*
X153086Y85345D01*
X156032Y85345D01*
X158116Y83261D01*
X158116Y80315D01*
X156032Y78231D01*
X153086Y78231D01*
G37*
%LPD*%
%LPC*%
G36*
X153086Y64261D02*
X153086Y64261D01*
X151002Y66345D01*
X151002Y69291D01*
X153086Y71375D01*
X156032Y71375D01*
X158116Y69291D01*
X158116Y66345D01*
X156032Y64261D01*
X153086Y64261D01*
G37*
%LPD*%
%LPC*%
G36*
X86165Y206013D02*
X86165Y206013D01*
X84093Y208085D01*
X84093Y211015D01*
X86165Y213087D01*
X89095Y213087D01*
X91167Y211015D01*
X91167Y208085D01*
X89095Y206013D01*
X86165Y206013D01*
G37*
%LPD*%
%LPC*%
G36*
X73465Y206013D02*
X73465Y206013D01*
X71393Y208085D01*
X71393Y211015D01*
X73465Y213087D01*
X76395Y213087D01*
X78467Y211015D01*
X78467Y208085D01*
X76395Y206013D01*
X73465Y206013D01*
G37*
%LPD*%
%LPC*%
G36*
X103945Y94253D02*
X103945Y94253D01*
X101873Y96325D01*
X101873Y99255D01*
X103945Y101327D01*
X106875Y101327D01*
X108947Y99255D01*
X108947Y96325D01*
X106875Y94253D01*
X103945Y94253D01*
G37*
%LPD*%
%LPC*%
G36*
X91245Y72663D02*
X91245Y72663D01*
X89173Y74735D01*
X89173Y77665D01*
X91245Y79737D01*
X94175Y79737D01*
X96247Y77665D01*
X96247Y74735D01*
X94175Y72663D01*
X91245Y72663D01*
G37*
%LPD*%
%LPC*%
G36*
X119185Y65043D02*
X119185Y65043D01*
X117113Y67115D01*
X117113Y70045D01*
X119185Y72117D01*
X122115Y72117D01*
X124187Y70045D01*
X124187Y67115D01*
X122115Y65043D01*
X119185Y65043D01*
G37*
%LPD*%
%LPC*%
G36*
X101405Y56153D02*
X101405Y56153D01*
X99333Y58225D01*
X99333Y61155D01*
X101405Y63227D01*
X104335Y63227D01*
X106407Y61155D01*
X106407Y58225D01*
X104335Y56153D01*
X101405Y56153D01*
G37*
%LPD*%
%LPC*%
G36*
X112835Y56153D02*
X112835Y56153D01*
X110763Y58225D01*
X110763Y61155D01*
X112835Y63227D01*
X115765Y63227D01*
X117837Y61155D01*
X117837Y58225D01*
X115765Y56153D01*
X112835Y56153D01*
G37*
%LPD*%
%LPC*%
G36*
X204275Y44723D02*
X204275Y44723D01*
X202203Y46795D01*
X202203Y49725D01*
X204275Y51797D01*
X207205Y51797D01*
X209277Y49725D01*
X209277Y46795D01*
X207205Y44723D01*
X204275Y44723D01*
G37*
%LPD*%
%LPC*%
G36*
X105065Y202453D02*
X105065Y202453D01*
X103139Y204379D01*
X103139Y207101D01*
X105065Y209027D01*
X107787Y209027D01*
X109713Y207101D01*
X109713Y204379D01*
X107787Y202453D01*
X105065Y202453D01*
G37*
%LPD*%
%LPC*%
G36*
X121829Y183403D02*
X121829Y183403D01*
X119903Y185329D01*
X119903Y188051D01*
X121829Y189977D01*
X124551Y189977D01*
X126477Y188051D01*
X126477Y185329D01*
X124551Y183403D01*
X121829Y183403D01*
G37*
%LPD*%
%LPC*%
G36*
X111415Y182514D02*
X111415Y182514D01*
X109489Y184440D01*
X109489Y187162D01*
X111415Y189088D01*
X114137Y189088D01*
X116063Y187162D01*
X116063Y184440D01*
X114137Y182514D01*
X111415Y182514D01*
G37*
%LPD*%
%LPC*%
G36*
X80681Y174640D02*
X80681Y174640D01*
X78755Y176566D01*
X78755Y179288D01*
X80681Y181214D01*
X83403Y181214D01*
X85329Y179288D01*
X85329Y176566D01*
X83403Y174640D01*
X80681Y174640D01*
G37*
%LPD*%
%LPC*%
G36*
X159675Y139842D02*
X159675Y139842D01*
X157749Y141768D01*
X157749Y144490D01*
X159675Y146416D01*
X162397Y146416D01*
X164323Y144490D01*
X164323Y141768D01*
X162397Y139842D01*
X159675Y139842D01*
G37*
%LPD*%
D10*
X109220Y16510D03*
X236220Y16510D03*
D11*
X83693Y97663D03*
D12*
X122564Y85607D03*
X154178Y106045D03*
D13*
X31496Y142875D03*
X36830Y142875D03*
D12*
X71120Y193802D03*
X69977Y102235D03*
X73660Y98298D03*
X100076Y89281D03*
X71120Y188087D03*
D14*
X149479Y189230D03*
X91694Y200152D03*
D12*
X128651Y156845D03*
X115316Y143510D03*
X101981Y156845D03*
X115316Y156845D03*
X128651Y143510D03*
X128651Y130175D03*
X115316Y130175D03*
X101981Y130175D03*
X101981Y143510D03*
D11*
X173609Y176149D03*
D12*
X69088Y182245D03*
X154559Y81788D03*
X113284Y210820D03*
X101981Y167259D03*
X114935Y167386D03*
X128651Y167259D03*
X101854Y119634D03*
X115316Y119634D03*
X128905Y119634D03*
X91440Y167259D03*
X91567Y156972D03*
X91440Y143637D03*
X91440Y130302D03*
X91440Y119634D03*
X139192Y119634D03*
X139192Y130302D03*
X139065Y143510D03*
X139065Y156845D03*
X139192Y167259D03*
D13*
X238895Y97299D03*
D14*
X50546Y22225D03*
X62103Y22225D03*
X40640Y60960D03*
X19050Y186690D03*
X238379Y280543D03*
X238760Y194310D03*
X238760Y187960D03*
X238760Y181610D03*
X238760Y175260D03*
X238760Y168910D03*
X238760Y162560D03*
X238760Y156210D03*
X238760Y149860D03*
X238760Y143510D03*
X238760Y80010D03*
X238760Y73660D03*
X232410Y73660D03*
X226060Y73660D03*
X219710Y73660D03*
X213360Y73660D03*
X207010Y73660D03*
X200660Y73660D03*
X238760Y201930D03*
X238506Y287020D03*
X238379Y274447D03*
X238252Y267970D03*
X238252Y261620D03*
X238506Y255270D03*
X238379Y248920D03*
X232410Y287020D03*
X226060Y287020D03*
X219710Y287020D03*
X181610Y73660D03*
X175260Y73660D03*
X175260Y80010D03*
X168910Y80010D03*
X163830Y85090D03*
X163830Y91440D03*
X163830Y97790D03*
X163780Y104791D03*
X187960Y73660D03*
X194310Y73660D03*
X232410Y248920D03*
X213360Y287020D03*
X207010Y287020D03*
X200660Y287020D03*
X194310Y287020D03*
X187960Y287020D03*
X181610Y287020D03*
X175260Y287020D03*
X168910Y287020D03*
X162560Y287020D03*
X156210Y287020D03*
X149860Y287020D03*
X143510Y287020D03*
X137160Y287020D03*
X130810Y287020D03*
X124460Y287020D03*
X118110Y287020D03*
X111760Y287020D03*
X105410Y287020D03*
X74930Y287020D03*
X67310Y287020D03*
X59690Y287020D03*
X52070Y287020D03*
X44450Y287020D03*
X44450Y279400D03*
X44450Y271780D03*
X43180Y264160D03*
X39370Y257810D03*
X101600Y35560D03*
X97790Y40640D03*
X92710Y45720D03*
X87630Y50800D03*
X82550Y55880D03*
X59690Y78740D03*
X54610Y83820D03*
X49530Y88900D03*
X6350Y99060D03*
X21590Y99060D03*
X29210Y99060D03*
X6350Y106680D03*
X6350Y114300D03*
X6350Y121920D03*
X6350Y129540D03*
X6350Y137160D03*
X6350Y144780D03*
X6350Y152400D03*
X6350Y160020D03*
X6350Y168910D03*
X227330Y34290D03*
X218440Y34290D03*
X209550Y34290D03*
X199390Y34290D03*
X189230Y34290D03*
X179070Y34290D03*
X168910Y34290D03*
X158750Y34290D03*
X148590Y34290D03*
X138430Y34290D03*
X130810Y34290D03*
X77089Y61341D03*
X232410Y280670D03*
X232410Y274320D03*
X232410Y267970D03*
X232410Y261620D03*
X232410Y255270D03*
X238760Y58420D03*
X238760Y52070D03*
X232410Y58420D03*
X232410Y52070D03*
X226060Y58420D03*
X226060Y52070D03*
X238760Y43180D03*
X238760Y34290D03*
X175260Y67310D03*
X181610Y67310D03*
X187960Y67310D03*
X194310Y67310D03*
X200660Y67310D03*
X168910Y73660D03*
X226060Y66040D03*
X232410Y66040D03*
X238760Y66040D03*
X207010Y67310D03*
X132080Y49530D03*
X16510Y243840D03*
X16510Y229870D03*
X16510Y217170D03*
X16510Y204470D03*
X16510Y193040D03*
X120650Y68580D03*
X114300Y59690D03*
X102870Y59690D03*
X74930Y209550D03*
X87630Y209550D03*
D12*
X154559Y67818D03*
D14*
X121920Y34290D03*
X232410Y143510D03*
X232410Y149860D03*
X232410Y156210D03*
X232410Y162560D03*
X232410Y168910D03*
X232410Y175260D03*
X80010Y107950D03*
X90170Y99060D03*
X105410Y97790D03*
X181610Y60960D03*
X181610Y54610D03*
X187960Y60960D03*
X194310Y60960D03*
X200660Y60960D03*
X187960Y54610D03*
X194310Y54610D03*
X200660Y54610D03*
X207010Y54610D03*
X238760Y209550D03*
X238760Y217170D03*
X238760Y224790D03*
X238760Y232410D03*
X238760Y240030D03*
X232410Y241300D03*
X232410Y233680D03*
X232410Y226060D03*
X232410Y218440D03*
X232410Y210820D03*
X232410Y203200D03*
X232410Y195580D03*
X232410Y187960D03*
X232410Y180340D03*
X238760Y87630D03*
X238760Y135890D03*
X238710Y125666D03*
X232811Y135833D03*
X233061Y125716D03*
X238710Y111592D03*
X238760Y106762D03*
X232861Y130924D03*
X238760Y130974D03*
X181610Y80010D03*
X187960Y80010D03*
X194310Y80010D03*
X200660Y80010D03*
X207010Y80010D03*
X213360Y80010D03*
X219710Y80010D03*
X226060Y80010D03*
X232410Y80010D03*
X175260Y85090D03*
X181610Y85090D03*
X187960Y85090D03*
X194310Y85090D03*
X200660Y85090D03*
X207010Y85090D03*
X213360Y85090D03*
X219710Y85090D03*
X226060Y85090D03*
X232410Y85090D03*
X226060Y280670D03*
X226060Y274320D03*
X226060Y267970D03*
X226060Y261620D03*
X226060Y255270D03*
X226060Y248920D03*
X226060Y241300D03*
X226060Y233680D03*
X226060Y226060D03*
X226060Y218440D03*
X226060Y210820D03*
X226060Y203200D03*
X226060Y195580D03*
X226060Y187960D03*
X226060Y180340D03*
X226060Y175260D03*
X226060Y168910D03*
X226060Y162560D03*
X226060Y156210D03*
X226060Y149860D03*
X226060Y143510D03*
X226060Y135890D03*
X188248Y92089D03*
X194310Y91440D03*
X200660Y91440D03*
X207010Y91440D03*
X207010Y97790D03*
X207010Y104140D03*
X207010Y110490D03*
X204470Y118110D03*
X215900Y118110D03*
X213360Y110490D03*
X213360Y104140D03*
X213360Y97790D03*
X213360Y91440D03*
X219710Y91440D03*
X219710Y97790D03*
X219710Y104140D03*
X219710Y110490D03*
X226060Y110490D03*
X232410Y110490D03*
X219710Y135890D03*
X213360Y135890D03*
X207010Y135890D03*
X200660Y135890D03*
X194310Y135890D03*
X187960Y135890D03*
X187960Y142240D03*
X181610Y142240D03*
X173990Y142240D03*
X173990Y148590D03*
X173990Y154940D03*
X173990Y161290D03*
X174115Y167056D03*
X226060Y91440D03*
X226060Y97790D03*
X226060Y104140D03*
X231521Y91457D03*
X231541Y97755D03*
X231505Y104157D03*
X188146Y125949D03*
X188191Y110207D03*
X188248Y99049D03*
X194310Y142240D03*
X200660Y142240D03*
X207010Y142240D03*
X213360Y142240D03*
X219710Y142240D03*
X208280Y187960D03*
X193040Y160020D03*
X212090Y156210D03*
X214630Y176530D03*
X201930Y168910D03*
X204470Y208280D03*
X213360Y224790D03*
X214630Y203200D03*
X199390Y193040D03*
X196850Y177800D03*
X181610Y153670D03*
X201930Y151130D03*
X215900Y166370D03*
X189230Y213360D03*
X213360Y213360D03*
X111760Y226060D03*
X149860Y224790D03*
X85090Y255270D03*
X57150Y257810D03*
X201930Y219710D03*
X217170Y189230D03*
X207010Y161290D03*
X190500Y149860D03*
X185420Y167640D03*
X215900Y233680D03*
X210047Y118110D03*
D12*
X44450Y174879D03*
X38862Y174752D03*
D13*
X28702Y184912D03*
X44450Y212090D03*
D14*
X92710Y76200D03*
X40640Y97790D03*
D13*
X44450Y205740D03*
D11*
X72517Y170815D03*
D14*
X19050Y237490D03*
D11*
X82042Y177927D03*
D14*
X19050Y250190D03*
D11*
X161036Y143129D03*
D14*
X125730Y52070D03*
X35560Y38481D03*
D11*
X158750Y154940D03*
D14*
X49403Y38481D03*
X42037Y38735D03*
D11*
X158750Y161290D03*
D14*
X16510Y105410D03*
X41910Y5080D03*
D11*
X123190Y186690D03*
X112776Y185801D03*
X68834Y165354D03*
D14*
X19050Y223520D03*
D11*
X72644Y160782D03*
D14*
X19050Y210820D03*
D11*
X158115Y172339D03*
D14*
X102616Y273050D03*
D11*
X106426Y205740D03*
D14*
X205740Y48260D03*
D13*
X167640Y220980D03*
X171450Y226060D03*
M02*
