G04 EAGLE Gerber RS-274X export*
G75*
%MOMM*%
%FSLAX34Y34*%
%LPD*%
%INTop Copper*%
%IPPOS*%
%AMOC8*
5,1,8,0,0,1.08239X$1,22.5*%
G01*
%ADD10R,0.850000X0.300000*%
%ADD11R,0.300000X0.850000*%
%ADD12R,5.250000X5.250000*%
%ADD13C,0.280800*%
%ADD14C,0.500000*%
%ADD15C,0.402900*%
%ADD16R,1.000000X1.800000*%
%ADD17R,0.850000X0.950000*%
%ADD18C,0.270000*%
%ADD19R,0.500000X0.900000*%
%ADD20R,0.500000X0.500000*%
%ADD21R,2.368000X2.403600*%
%ADD22R,1.450000X2.400000*%
%ADD23R,0.350000X0.500000*%
%ADD24C,1.016000*%
%ADD25R,1.000000X1.400000*%
%ADD26C,0.152400*%
%ADD27C,0.450000*%
%ADD28C,0.304800*%
%ADD29C,0.406400*%
%ADD30C,0.457200*%
%ADD31C,0.508000*%
%ADD32C,0.503200*%
%ADD33C,0.812800*%
%ADD34C,0.431800*%
%ADD35C,0.330200*%
%ADD36C,0.453200*%
%ADD37C,0.200000*%
%ADD38C,0.203200*%

G36*
X240773Y30992D02*
X240773Y30992D01*
X240793Y30990D01*
X240894Y31012D01*
X240996Y31029D01*
X241013Y31038D01*
X241033Y31042D01*
X241122Y31095D01*
X241213Y31144D01*
X241227Y31158D01*
X241244Y31168D01*
X241311Y31247D01*
X241383Y31322D01*
X241391Y31340D01*
X241404Y31355D01*
X241443Y31451D01*
X241486Y31545D01*
X241488Y31565D01*
X241496Y31583D01*
X241514Y31750D01*
X241514Y89678D01*
X241511Y89698D01*
X241513Y89717D01*
X241491Y89819D01*
X241475Y89921D01*
X241465Y89938D01*
X241461Y89958D01*
X241408Y90047D01*
X241360Y90138D01*
X241345Y90152D01*
X241335Y90169D01*
X241256Y90236D01*
X241181Y90308D01*
X241163Y90316D01*
X241148Y90329D01*
X241052Y90368D01*
X240958Y90411D01*
X240938Y90413D01*
X240920Y90421D01*
X240753Y90439D01*
X234535Y90439D01*
X233949Y91025D01*
X233949Y103285D01*
X234535Y103871D01*
X240753Y103871D01*
X240773Y103874D01*
X240793Y103872D01*
X240894Y103894D01*
X240996Y103910D01*
X241013Y103920D01*
X241033Y103924D01*
X241122Y103977D01*
X241213Y104026D01*
X241227Y104040D01*
X241244Y104050D01*
X241311Y104129D01*
X241383Y104204D01*
X241391Y104222D01*
X241404Y104237D01*
X241443Y104333D01*
X241486Y104427D01*
X241488Y104447D01*
X241496Y104465D01*
X241514Y104632D01*
X241514Y113764D01*
X241511Y113784D01*
X241513Y113803D01*
X241491Y113905D01*
X241475Y114007D01*
X241465Y114024D01*
X241461Y114044D01*
X241408Y114133D01*
X241360Y114224D01*
X241345Y114238D01*
X241335Y114255D01*
X241256Y114322D01*
X241181Y114393D01*
X241163Y114402D01*
X241148Y114415D01*
X241052Y114454D01*
X240958Y114497D01*
X240938Y114499D01*
X240920Y114507D01*
X240753Y114525D01*
X236028Y114525D01*
X235681Y114872D01*
X235666Y114882D01*
X235655Y114897D01*
X235567Y114954D01*
X235482Y115015D01*
X235464Y115021D01*
X235448Y115031D01*
X235346Y115057D01*
X235247Y115087D01*
X235228Y115087D01*
X235210Y115092D01*
X235106Y115084D01*
X235001Y115081D01*
X234983Y115075D01*
X234965Y115073D01*
X234868Y115033D01*
X234770Y114997D01*
X234755Y114985D01*
X234738Y114978D01*
X234607Y114873D01*
X233819Y114091D01*
X228948Y114108D01*
X227606Y115459D01*
X227590Y115471D01*
X227578Y115486D01*
X227491Y115542D01*
X227407Y115603D01*
X227388Y115609D01*
X227371Y115620D01*
X227271Y115646D01*
X227172Y115676D01*
X227152Y115676D01*
X227133Y115681D01*
X227030Y115673D01*
X226926Y115671D01*
X226907Y115664D01*
X226888Y115662D01*
X226792Y115622D01*
X226695Y115587D01*
X226679Y115575D01*
X226661Y115567D01*
X226530Y115463D01*
X225179Y114121D01*
X220308Y114138D01*
X218778Y115679D01*
X218797Y121150D01*
X219823Y122169D01*
X219877Y122244D01*
X219938Y122314D01*
X219949Y122343D01*
X219967Y122368D01*
X219995Y122456D01*
X220030Y122542D01*
X220034Y122581D01*
X220041Y122603D01*
X220040Y122635D01*
X220048Y122709D01*
X220048Y124065D01*
X220034Y124153D01*
X220027Y124243D01*
X220014Y124274D01*
X220008Y124307D01*
X219966Y124387D01*
X219931Y124470D01*
X219904Y124503D01*
X219893Y124525D01*
X219870Y124547D01*
X219827Y124601D01*
X219051Y125383D01*
X219035Y125394D01*
X219022Y125410D01*
X218936Y125466D01*
X218852Y125527D01*
X218833Y125533D01*
X218816Y125544D01*
X218716Y125569D01*
X218617Y125600D01*
X218597Y125600D01*
X218578Y125605D01*
X218474Y125597D01*
X218371Y125595D01*
X218352Y125588D01*
X218332Y125586D01*
X218237Y125546D01*
X218140Y125511D01*
X218124Y125498D01*
X218106Y125491D01*
X217974Y125386D01*
X216623Y124045D01*
X211752Y124062D01*
X210518Y125304D01*
X210444Y125359D01*
X210373Y125419D01*
X210344Y125431D01*
X210319Y125449D01*
X210231Y125476D01*
X210145Y125511D01*
X210106Y125515D01*
X210084Y125522D01*
X210052Y125521D01*
X209978Y125529D01*
X208060Y125529D01*
X207973Y125515D01*
X207886Y125509D01*
X207853Y125495D01*
X207817Y125490D01*
X207740Y125449D01*
X207659Y125415D01*
X207622Y125386D01*
X207599Y125375D01*
X207578Y125352D01*
X207527Y125312D01*
X206192Y124004D01*
X201321Y124055D01*
X199989Y125416D01*
X199973Y125427D01*
X199960Y125443D01*
X199874Y125500D01*
X199791Y125561D01*
X199771Y125567D01*
X199755Y125578D01*
X199655Y125604D01*
X199556Y125636D01*
X199536Y125636D01*
X199517Y125641D01*
X199414Y125634D01*
X199310Y125632D01*
X199292Y125626D01*
X199272Y125624D01*
X199176Y125585D01*
X199078Y125550D01*
X199063Y125538D01*
X199044Y125530D01*
X198912Y125427D01*
X198185Y124714D01*
X198128Y124638D01*
X198066Y124565D01*
X198056Y124539D01*
X198039Y124516D01*
X198010Y124426D01*
X197975Y124337D01*
X197971Y124302D01*
X197964Y124282D01*
X197965Y124249D01*
X197956Y124170D01*
X197956Y122354D01*
X197971Y122263D01*
X197978Y122173D01*
X197991Y122143D01*
X197996Y122111D01*
X198039Y122030D01*
X198074Y121946D01*
X198100Y121914D01*
X198111Y121893D01*
X198134Y121871D01*
X198143Y121861D01*
X198150Y121848D01*
X198159Y121841D01*
X198179Y121815D01*
X199149Y120846D01*
X199149Y115374D01*
X198473Y114699D01*
X198420Y114625D01*
X198361Y114555D01*
X198348Y114525D01*
X198330Y114499D01*
X198303Y114412D01*
X198269Y114327D01*
X198264Y114286D01*
X198257Y114264D01*
X198258Y114232D01*
X198250Y114161D01*
X198250Y112365D01*
X198265Y112275D01*
X198272Y112184D01*
X198285Y112155D01*
X198290Y112123D01*
X198333Y112042D01*
X198368Y111958D01*
X198394Y111926D01*
X198405Y111905D01*
X198428Y111883D01*
X198473Y111827D01*
X199726Y110574D01*
X199726Y105703D01*
X198191Y104168D01*
X192720Y104168D01*
X191185Y105703D01*
X191185Y110574D01*
X192438Y111827D01*
X192491Y111901D01*
X192550Y111971D01*
X192562Y112001D01*
X192581Y112027D01*
X192608Y112114D01*
X192642Y112199D01*
X192647Y112240D01*
X192654Y112262D01*
X192653Y112294D01*
X192661Y112365D01*
X192661Y113606D01*
X192646Y113696D01*
X192639Y113787D01*
X192626Y113817D01*
X192621Y113849D01*
X192578Y113929D01*
X192543Y114013D01*
X192517Y114045D01*
X192506Y114066D01*
X192483Y114088D01*
X192438Y114144D01*
X191396Y115185D01*
X191380Y115197D01*
X191368Y115213D01*
X191280Y115269D01*
X191197Y115329D01*
X191178Y115335D01*
X191161Y115346D01*
X191060Y115371D01*
X190962Y115401D01*
X190942Y115401D01*
X190922Y115406D01*
X190819Y115398D01*
X190716Y115395D01*
X190697Y115388D01*
X190677Y115387D01*
X190582Y115346D01*
X190485Y115311D01*
X190469Y115298D01*
X190451Y115290D01*
X190320Y115185D01*
X188974Y113839D01*
X184447Y113839D01*
X184355Y113824D01*
X184262Y113817D01*
X184226Y113803D01*
X184204Y113800D01*
X184176Y113784D01*
X184105Y113758D01*
X181318Y112356D01*
X181260Y112314D01*
X181210Y112288D01*
X181198Y112275D01*
X181169Y112258D01*
X181146Y112232D01*
X181119Y112212D01*
X181067Y112139D01*
X181053Y112123D01*
X181040Y112109D01*
X181039Y112106D01*
X181009Y112071D01*
X180996Y112039D01*
X180976Y112011D01*
X180950Y111926D01*
X180917Y111843D01*
X180912Y111799D01*
X180905Y111776D01*
X180906Y111744D01*
X180898Y111676D01*
X180898Y110541D01*
X179363Y109006D01*
X174492Y109006D01*
X173146Y110352D01*
X173130Y110364D01*
X173117Y110379D01*
X173030Y110435D01*
X172946Y110496D01*
X172927Y110502D01*
X172910Y110512D01*
X172810Y110538D01*
X172711Y110568D01*
X172691Y110568D01*
X172672Y110572D01*
X172569Y110564D01*
X172465Y110562D01*
X172446Y110555D01*
X172427Y110553D01*
X172332Y110513D01*
X172234Y110477D01*
X172219Y110465D01*
X172200Y110457D01*
X172069Y110352D01*
X171305Y109588D01*
X171252Y109514D01*
X171193Y109445D01*
X171181Y109415D01*
X171162Y109388D01*
X171135Y109301D01*
X171101Y109217D01*
X171096Y109176D01*
X171089Y109153D01*
X171090Y109121D01*
X171082Y109050D01*
X171082Y107282D01*
X171097Y107192D01*
X171104Y107101D01*
X171117Y107071D01*
X171122Y107039D01*
X171165Y106958D01*
X171200Y106874D01*
X171226Y106842D01*
X171237Y106821D01*
X171260Y106799D01*
X171305Y106743D01*
X172210Y105839D01*
X172226Y105827D01*
X172239Y105811D01*
X172326Y105755D01*
X172410Y105695D01*
X172429Y105689D01*
X172446Y105678D01*
X172546Y105653D01*
X172645Y105623D01*
X172665Y105623D01*
X172684Y105618D01*
X172787Y105626D01*
X172891Y105629D01*
X172910Y105636D01*
X172929Y105637D01*
X173024Y105678D01*
X173122Y105713D01*
X173137Y105726D01*
X173156Y105734D01*
X173287Y105839D01*
X174633Y107185D01*
X179504Y107185D01*
X181039Y105650D01*
X181039Y100178D01*
X180086Y99225D01*
X180033Y99151D01*
X179973Y99082D01*
X179961Y99052D01*
X179943Y99026D01*
X179916Y98939D01*
X179882Y98854D01*
X179877Y98813D01*
X179870Y98791D01*
X179871Y98758D01*
X179863Y98687D01*
X179863Y96816D01*
X179878Y96726D01*
X179885Y96635D01*
X179898Y96605D01*
X179903Y96573D01*
X179946Y96492D01*
X179981Y96409D01*
X180007Y96376D01*
X180018Y96356D01*
X180041Y96334D01*
X180086Y96278D01*
X181126Y95237D01*
X181126Y89766D01*
X179591Y88231D01*
X174720Y88231D01*
X173185Y89766D01*
X173185Y95237D01*
X174051Y96103D01*
X174104Y96177D01*
X174163Y96247D01*
X174175Y96277D01*
X174194Y96303D01*
X174221Y96390D01*
X174255Y96475D01*
X174260Y96516D01*
X174267Y96538D01*
X174266Y96570D01*
X174274Y96642D01*
X174274Y98687D01*
X174259Y98777D01*
X174252Y98868D01*
X174239Y98898D01*
X174234Y98930D01*
X174191Y99011D01*
X174155Y99094D01*
X174130Y99127D01*
X174119Y99147D01*
X174095Y99169D01*
X174051Y99225D01*
X173287Y99989D01*
X173270Y100001D01*
X173258Y100017D01*
X173171Y100073D01*
X173087Y100133D01*
X173068Y100139D01*
X173051Y100150D01*
X172951Y100175D01*
X172852Y100205D01*
X172832Y100205D01*
X172813Y100210D01*
X172710Y100202D01*
X172606Y100199D01*
X172587Y100192D01*
X172567Y100191D01*
X172472Y100150D01*
X172375Y100115D01*
X172359Y100102D01*
X172341Y100094D01*
X172210Y99989D01*
X170864Y98643D01*
X165993Y98643D01*
X164458Y100178D01*
X164458Y105650D01*
X165270Y106462D01*
X165323Y106536D01*
X165382Y106605D01*
X165395Y106635D01*
X165413Y106662D01*
X165440Y106749D01*
X165474Y106833D01*
X165479Y106874D01*
X165486Y106897D01*
X165485Y106929D01*
X165493Y107000D01*
X165493Y109050D01*
X165478Y109140D01*
X165471Y109231D01*
X165458Y109261D01*
X165453Y109293D01*
X165411Y109373D01*
X165375Y109457D01*
X165349Y109489D01*
X165338Y109510D01*
X165315Y109532D01*
X165270Y109588D01*
X164338Y110520D01*
X164264Y110573D01*
X164194Y110633D01*
X164164Y110645D01*
X164138Y110664D01*
X164051Y110691D01*
X163966Y110725D01*
X163925Y110729D01*
X163903Y110736D01*
X163871Y110735D01*
X163800Y110743D01*
X161613Y110743D01*
X158856Y113500D01*
X158782Y113553D01*
X158712Y113613D01*
X158682Y113625D01*
X158656Y113644D01*
X158569Y113671D01*
X158484Y113705D01*
X158443Y113709D01*
X158421Y113716D01*
X158389Y113715D01*
X158317Y113723D01*
X155392Y113723D01*
X155302Y113709D01*
X155211Y113701D01*
X155181Y113689D01*
X155149Y113684D01*
X155068Y113641D01*
X154984Y113605D01*
X154952Y113579D01*
X154932Y113568D01*
X154909Y113545D01*
X154853Y113500D01*
X154592Y113239D01*
X146348Y113239D01*
X146328Y113236D01*
X146309Y113238D01*
X146207Y113216D01*
X146105Y113200D01*
X146088Y113190D01*
X146068Y113186D01*
X145979Y113133D01*
X145888Y113084D01*
X145874Y113070D01*
X145857Y113060D01*
X145790Y112981D01*
X145718Y112906D01*
X145710Y112888D01*
X145697Y112873D01*
X145658Y112777D01*
X145615Y112683D01*
X145613Y112663D01*
X145605Y112645D01*
X145587Y112478D01*
X145587Y112409D01*
X145601Y112319D01*
X145609Y112228D01*
X145621Y112198D01*
X145626Y112166D01*
X145669Y112085D01*
X145705Y112002D01*
X145731Y111969D01*
X145742Y111949D01*
X145765Y111927D01*
X145810Y111871D01*
X153281Y104400D01*
X153297Y104388D01*
X153309Y104373D01*
X153396Y104317D01*
X153480Y104256D01*
X153499Y104250D01*
X153516Y104240D01*
X153616Y104214D01*
X153715Y104184D01*
X153735Y104184D01*
X153755Y104180D01*
X153858Y104188D01*
X153961Y104190D01*
X153980Y104197D01*
X154000Y104199D01*
X154095Y104239D01*
X154192Y104275D01*
X154208Y104287D01*
X154226Y104295D01*
X154357Y104400D01*
X155445Y105488D01*
X155498Y105562D01*
X155558Y105631D01*
X155570Y105661D01*
X155589Y105688D01*
X155616Y105775D01*
X155650Y105860D01*
X155654Y105900D01*
X155661Y105923D01*
X155660Y105955D01*
X155665Y105997D01*
X157752Y108084D01*
X160698Y108084D01*
X162782Y106000D01*
X162782Y103054D01*
X160698Y100970D01*
X160584Y100970D01*
X160494Y100955D01*
X160403Y100948D01*
X160373Y100936D01*
X160341Y100930D01*
X160261Y100888D01*
X160177Y100852D01*
X160145Y100826D01*
X160124Y100815D01*
X160102Y100792D01*
X160046Y100747D01*
X158672Y99373D01*
X158619Y99299D01*
X158559Y99230D01*
X158547Y99199D01*
X158528Y99173D01*
X158501Y99086D01*
X158467Y99001D01*
X158463Y98960D01*
X158456Y98938D01*
X158457Y98906D01*
X158449Y98835D01*
X158449Y97146D01*
X156882Y95579D01*
X151457Y95579D01*
X151438Y95576D01*
X151418Y95578D01*
X151317Y95556D01*
X151215Y95540D01*
X151197Y95530D01*
X151178Y95526D01*
X151089Y95473D01*
X150997Y95424D01*
X150984Y95410D01*
X150966Y95400D01*
X150899Y95321D01*
X150828Y95246D01*
X150820Y95228D01*
X150807Y95213D01*
X150768Y95117D01*
X150724Y95023D01*
X150722Y95003D01*
X150715Y94985D01*
X150696Y94818D01*
X150696Y80985D01*
X148125Y78414D01*
X148072Y78340D01*
X148013Y78270D01*
X148000Y78240D01*
X147982Y78214D01*
X147955Y78127D01*
X147921Y78042D01*
X147916Y78001D01*
X147909Y77979D01*
X147910Y77947D01*
X147902Y77875D01*
X147902Y68998D01*
X147158Y68254D01*
X137605Y68254D01*
X136861Y68998D01*
X136861Y79551D01*
X137605Y80295D01*
X143942Y80295D01*
X144032Y80310D01*
X144123Y80317D01*
X144153Y80330D01*
X144185Y80335D01*
X144266Y80378D01*
X144349Y80414D01*
X144382Y80439D01*
X144402Y80450D01*
X144424Y80474D01*
X144480Y80518D01*
X146408Y82446D01*
X146461Y82520D01*
X146520Y82589D01*
X146532Y82619D01*
X146551Y82645D01*
X146578Y82732D01*
X146612Y82817D01*
X146617Y82858D01*
X146624Y82880D01*
X146623Y82913D01*
X146631Y82984D01*
X146631Y94019D01*
X146616Y94109D01*
X146609Y94200D01*
X146596Y94230D01*
X146591Y94262D01*
X146548Y94343D01*
X146513Y94427D01*
X146487Y94459D01*
X146476Y94479D01*
X146453Y94502D01*
X146408Y94558D01*
X144161Y96804D01*
X144087Y96857D01*
X144018Y96917D01*
X143987Y96929D01*
X143961Y96948D01*
X143874Y96975D01*
X143789Y97009D01*
X143748Y97013D01*
X143726Y97020D01*
X143694Y97019D01*
X143623Y97027D01*
X141072Y97027D01*
X139658Y98441D01*
X136148Y101951D01*
X136090Y101992D01*
X136038Y102042D01*
X135991Y102064D01*
X135949Y102094D01*
X135880Y102115D01*
X135815Y102145D01*
X135763Y102151D01*
X135713Y102167D01*
X135642Y102165D01*
X135571Y102173D01*
X135520Y102162D01*
X135468Y102160D01*
X135400Y102136D01*
X135330Y102120D01*
X135285Y102094D01*
X135237Y102076D01*
X135181Y102031D01*
X135119Y101994D01*
X135085Y101955D01*
X135045Y101922D01*
X135006Y101862D01*
X134959Y101807D01*
X134940Y101759D01*
X134912Y101715D01*
X134894Y101646D01*
X134867Y101579D01*
X134859Y101508D01*
X134851Y101477D01*
X134853Y101453D01*
X134849Y101412D01*
X134849Y98368D01*
X132958Y96478D01*
X132905Y96404D01*
X132846Y96334D01*
X132833Y96304D01*
X132815Y96278D01*
X132788Y96191D01*
X132754Y96106D01*
X132749Y96065D01*
X132742Y96043D01*
X132743Y96011D01*
X132735Y95940D01*
X132735Y95557D01*
X132738Y95537D01*
X132736Y95517D01*
X132758Y95416D01*
X132775Y95314D01*
X132784Y95296D01*
X132788Y95277D01*
X132842Y95188D01*
X132890Y95097D01*
X132904Y95083D01*
X132915Y95066D01*
X132993Y94998D01*
X133068Y94927D01*
X133086Y94919D01*
X133102Y94906D01*
X133198Y94867D01*
X133291Y94824D01*
X133311Y94821D01*
X133330Y94814D01*
X133496Y94795D01*
X135658Y94795D01*
X136402Y94051D01*
X136402Y83498D01*
X135658Y82754D01*
X126099Y82754D01*
X126025Y82801D01*
X125941Y82862D01*
X125922Y82868D01*
X125905Y82878D01*
X125805Y82904D01*
X125706Y82934D01*
X125686Y82934D01*
X125667Y82938D01*
X125564Y82930D01*
X125460Y82928D01*
X125441Y82921D01*
X125422Y82919D01*
X125327Y82879D01*
X125229Y82843D01*
X125214Y82831D01*
X125195Y82823D01*
X125064Y82718D01*
X124143Y81797D01*
X120986Y81797D01*
X117586Y85196D01*
X117512Y85249D01*
X117443Y85309D01*
X117413Y85321D01*
X117386Y85340D01*
X117299Y85367D01*
X117214Y85401D01*
X117174Y85405D01*
X117151Y85412D01*
X117119Y85411D01*
X117048Y85419D01*
X113882Y85419D01*
X112298Y87003D01*
X112282Y87015D01*
X112270Y87030D01*
X112182Y87086D01*
X112099Y87147D01*
X112080Y87152D01*
X112063Y87163D01*
X111962Y87189D01*
X111863Y87219D01*
X111844Y87218D01*
X111824Y87223D01*
X111721Y87215D01*
X111618Y87213D01*
X111599Y87206D01*
X111579Y87204D01*
X111484Y87164D01*
X111387Y87128D01*
X111371Y87116D01*
X111353Y87108D01*
X111222Y87003D01*
X109638Y85419D01*
X104208Y85419D01*
X104150Y85469D01*
X104119Y85481D01*
X104093Y85500D01*
X104006Y85527D01*
X103921Y85561D01*
X103881Y85565D01*
X103858Y85572D01*
X103826Y85571D01*
X103755Y85579D01*
X98377Y85579D01*
X98357Y85576D01*
X98338Y85578D01*
X98236Y85556D01*
X98134Y85540D01*
X98117Y85530D01*
X98097Y85526D01*
X98008Y85473D01*
X97917Y85424D01*
X97903Y85410D01*
X97886Y85400D01*
X97819Y85321D01*
X97747Y85246D01*
X97739Y85228D01*
X97726Y85213D01*
X97687Y85117D01*
X97644Y85023D01*
X97642Y85003D01*
X97634Y84985D01*
X97616Y84818D01*
X97616Y80291D01*
X97492Y80167D01*
X97450Y80109D01*
X97401Y80057D01*
X97379Y80010D01*
X97348Y79968D01*
X97327Y79899D01*
X97297Y79834D01*
X97291Y79782D01*
X97276Y79732D01*
X97278Y79661D01*
X97270Y79590D01*
X97281Y79539D01*
X97282Y79487D01*
X97307Y79419D01*
X97322Y79349D01*
X97349Y79304D01*
X97367Y79256D01*
X97412Y79200D01*
X97448Y79138D01*
X97488Y79104D01*
X97520Y79064D01*
X97581Y79025D01*
X97635Y78978D01*
X97684Y78959D01*
X97727Y78931D01*
X97797Y78913D01*
X97863Y78886D01*
X97935Y78878D01*
X97966Y78870D01*
X97989Y78872D01*
X98030Y78868D01*
X99267Y78868D01*
X112035Y66100D01*
X112035Y59067D01*
X112049Y58977D01*
X112057Y58886D01*
X112069Y58856D01*
X112074Y58824D01*
X112117Y58744D01*
X112153Y58660D01*
X112179Y58628D01*
X112190Y58607D01*
X112213Y58585D01*
X112258Y58529D01*
X115315Y55472D01*
X115315Y47026D01*
X115330Y46936D01*
X115337Y46845D01*
X115349Y46815D01*
X115354Y46783D01*
X115397Y46702D01*
X115433Y46619D01*
X115459Y46586D01*
X115470Y46566D01*
X115493Y46544D01*
X115538Y46488D01*
X117064Y44962D01*
X117080Y44950D01*
X117092Y44934D01*
X117180Y44878D01*
X117263Y44818D01*
X117282Y44812D01*
X117299Y44801D01*
X117400Y44776D01*
X117499Y44746D01*
X117518Y44746D01*
X117538Y44741D01*
X117641Y44749D01*
X117744Y44752D01*
X117763Y44759D01*
X117783Y44760D01*
X117878Y44801D01*
X117975Y44836D01*
X117991Y44849D01*
X118009Y44857D01*
X118140Y44962D01*
X119666Y46488D01*
X119719Y46561D01*
X119779Y46631D01*
X119791Y46661D01*
X119810Y46687D01*
X119837Y46774D01*
X119871Y46859D01*
X119875Y46900D01*
X119882Y46922D01*
X119881Y46955D01*
X119889Y47026D01*
X119889Y49104D01*
X121970Y51185D01*
X122023Y51259D01*
X122083Y51328D01*
X122095Y51359D01*
X122114Y51385D01*
X122141Y51472D01*
X122175Y51557D01*
X122179Y51598D01*
X122186Y51620D01*
X122185Y51652D01*
X122193Y51723D01*
X122193Y53535D01*
X124265Y55607D01*
X127195Y55607D01*
X129267Y53535D01*
X129267Y50605D01*
X127195Y48533D01*
X125383Y48533D01*
X125293Y48519D01*
X125202Y48511D01*
X125173Y48499D01*
X125141Y48494D01*
X125060Y48451D01*
X124976Y48415D01*
X124944Y48389D01*
X124923Y48378D01*
X124901Y48355D01*
X124845Y48310D01*
X124178Y47643D01*
X124125Y47569D01*
X124065Y47500D01*
X124053Y47469D01*
X124034Y47443D01*
X124007Y47356D01*
X123973Y47271D01*
X123969Y47230D01*
X123962Y47208D01*
X123963Y47176D01*
X123955Y47105D01*
X123955Y47026D01*
X123970Y46936D01*
X123977Y46845D01*
X123989Y46815D01*
X123994Y46783D01*
X124037Y46702D01*
X124073Y46618D01*
X124099Y46586D01*
X124110Y46566D01*
X124133Y46544D01*
X124178Y46488D01*
X125893Y44773D01*
X125893Y39301D01*
X124358Y37766D01*
X119486Y37766D01*
X118140Y39112D01*
X118124Y39124D01*
X118112Y39140D01*
X118024Y39196D01*
X117941Y39256D01*
X117922Y39262D01*
X117905Y39273D01*
X117804Y39298D01*
X117705Y39328D01*
X117686Y39328D01*
X117666Y39333D01*
X117563Y39325D01*
X117460Y39322D01*
X117441Y39315D01*
X117421Y39314D01*
X117326Y39273D01*
X117229Y39238D01*
X117213Y39225D01*
X117195Y39217D01*
X117064Y39112D01*
X115718Y37766D01*
X110846Y37766D01*
X109311Y39301D01*
X109311Y44773D01*
X111026Y46488D01*
X111079Y46562D01*
X111139Y46631D01*
X111151Y46661D01*
X111170Y46687D01*
X111197Y46774D01*
X111231Y46859D01*
X111235Y46900D01*
X111242Y46922D01*
X111241Y46955D01*
X111249Y47026D01*
X111249Y53472D01*
X111235Y53562D01*
X111227Y53653D01*
X111215Y53683D01*
X111210Y53715D01*
X111167Y53796D01*
X111131Y53880D01*
X111105Y53912D01*
X111094Y53932D01*
X111071Y53955D01*
X111026Y54011D01*
X107969Y57068D01*
X107969Y64101D01*
X107955Y64191D01*
X107947Y64282D01*
X107935Y64311D01*
X107930Y64343D01*
X107887Y64424D01*
X107851Y64508D01*
X107825Y64540D01*
X107814Y64561D01*
X107791Y64583D01*
X107746Y64639D01*
X97806Y74579D01*
X97732Y74632D01*
X97663Y74692D01*
X97632Y74704D01*
X97606Y74723D01*
X97519Y74750D01*
X97434Y74784D01*
X97393Y74788D01*
X97371Y74795D01*
X97339Y74794D01*
X97268Y74802D01*
X96629Y74802D01*
X96539Y74788D01*
X96448Y74780D01*
X96418Y74768D01*
X96387Y74763D01*
X96306Y74720D01*
X96222Y74684D01*
X96190Y74658D01*
X96169Y74647D01*
X96147Y74624D01*
X96091Y74579D01*
X94175Y72663D01*
X91245Y72663D01*
X89173Y74735D01*
X89173Y77665D01*
X89899Y78390D01*
X89910Y78406D01*
X89926Y78419D01*
X89982Y78506D01*
X90042Y78590D01*
X90048Y78609D01*
X90059Y78626D01*
X90084Y78726D01*
X90114Y78825D01*
X90114Y78845D01*
X90119Y78864D01*
X90111Y78967D01*
X90108Y79071D01*
X90101Y79090D01*
X90100Y79110D01*
X90059Y79204D01*
X90024Y79302D01*
X90011Y79318D01*
X90003Y79336D01*
X89928Y79429D01*
X89923Y79438D01*
X89917Y79443D01*
X89899Y79467D01*
X89074Y80291D01*
X89074Y85099D01*
X90432Y86457D01*
X90444Y86473D01*
X90459Y86485D01*
X90515Y86573D01*
X90576Y86656D01*
X90581Y86675D01*
X90592Y86692D01*
X90618Y86793D01*
X90648Y86892D01*
X90647Y86911D01*
X90652Y86931D01*
X90644Y87034D01*
X90642Y87137D01*
X90635Y87156D01*
X90633Y87176D01*
X90593Y87271D01*
X90557Y87368D01*
X90545Y87384D01*
X90537Y87402D01*
X90432Y87533D01*
X89057Y88908D01*
X89041Y88920D01*
X89029Y88935D01*
X88941Y88991D01*
X88858Y89052D01*
X88839Y89057D01*
X88822Y89068D01*
X88721Y89094D01*
X88622Y89124D01*
X88603Y89123D01*
X88583Y89128D01*
X88480Y89120D01*
X88377Y89118D01*
X88358Y89111D01*
X88338Y89109D01*
X88243Y89069D01*
X88146Y89033D01*
X88130Y89021D01*
X88112Y89013D01*
X87981Y88908D01*
X86270Y87197D01*
X80862Y87197D01*
X79295Y88764D01*
X79295Y93572D01*
X80512Y94788D01*
X80523Y94805D01*
X80539Y94817D01*
X80595Y94904D01*
X80655Y94988D01*
X80661Y95007D01*
X80672Y95024D01*
X80697Y95124D01*
X80728Y95223D01*
X80727Y95243D01*
X80732Y95263D01*
X80724Y95366D01*
X80721Y95469D01*
X80715Y95488D01*
X80713Y95508D01*
X80673Y95603D01*
X80637Y95700D01*
X80624Y95716D01*
X80617Y95734D01*
X80512Y95865D01*
X80172Y96205D01*
X80172Y97740D01*
X80158Y97830D01*
X80150Y97921D01*
X80138Y97950D01*
X80133Y97982D01*
X80090Y98063D01*
X80054Y98147D01*
X80028Y98179D01*
X80017Y98200D01*
X79994Y98222D01*
X79949Y98278D01*
X78516Y99711D01*
X78458Y99753D01*
X78406Y99802D01*
X78359Y99824D01*
X78317Y99855D01*
X78248Y99876D01*
X78183Y99906D01*
X78131Y99912D01*
X78081Y99927D01*
X78010Y99925D01*
X77939Y99933D01*
X77888Y99922D01*
X77836Y99921D01*
X77768Y99896D01*
X77698Y99881D01*
X77653Y99854D01*
X77605Y99836D01*
X77549Y99791D01*
X77487Y99755D01*
X77453Y99715D01*
X77413Y99682D01*
X77374Y99622D01*
X77327Y99568D01*
X77308Y99519D01*
X77280Y99475D01*
X77262Y99406D01*
X77235Y99339D01*
X77227Y99268D01*
X77219Y99237D01*
X77221Y99214D01*
X77217Y99173D01*
X77217Y96797D01*
X77200Y96777D01*
X77188Y96747D01*
X77169Y96721D01*
X77142Y96634D01*
X77108Y96549D01*
X77104Y96508D01*
X77097Y96486D01*
X77098Y96454D01*
X77090Y96382D01*
X77090Y94474D01*
X77104Y94384D01*
X77112Y94293D01*
X77124Y94263D01*
X77129Y94231D01*
X77172Y94151D01*
X77208Y94067D01*
X77234Y94035D01*
X77245Y94014D01*
X77268Y93992D01*
X77313Y93936D01*
X77677Y93572D01*
X77677Y88764D01*
X76110Y87197D01*
X70702Y87197D01*
X69135Y88764D01*
X69135Y93572D01*
X70007Y94444D01*
X70060Y94518D01*
X70120Y94587D01*
X70132Y94618D01*
X70151Y94644D01*
X70178Y94731D01*
X70212Y94816D01*
X70216Y94856D01*
X70223Y94879D01*
X70222Y94911D01*
X70230Y94982D01*
X70230Y96382D01*
X70216Y96473D01*
X70208Y96563D01*
X70196Y96593D01*
X70191Y96625D01*
X70148Y96706D01*
X70112Y96790D01*
X70103Y96801D01*
X70103Y96943D01*
X70089Y97033D01*
X70081Y97124D01*
X70069Y97154D01*
X70064Y97186D01*
X70021Y97266D01*
X69985Y97350D01*
X69959Y97382D01*
X69948Y97403D01*
X69925Y97425D01*
X69880Y97481D01*
X68906Y98455D01*
X68832Y98508D01*
X68763Y98568D01*
X68733Y98580D01*
X68707Y98599D01*
X68620Y98626D01*
X68535Y98660D01*
X68521Y98661D01*
X66319Y100863D01*
X66302Y100875D01*
X66290Y100891D01*
X66203Y100947D01*
X66119Y101007D01*
X66100Y101013D01*
X66083Y101024D01*
X65983Y101049D01*
X65884Y101079D01*
X65864Y101079D01*
X65845Y101084D01*
X65742Y101076D01*
X65638Y101073D01*
X65619Y101066D01*
X65599Y101065D01*
X65504Y101024D01*
X65407Y100989D01*
X65391Y100976D01*
X65373Y100968D01*
X65242Y100863D01*
X65228Y100849D01*
X57104Y100849D01*
X54895Y103058D01*
X54895Y115382D01*
X57104Y117591D01*
X61043Y117591D01*
X61133Y117605D01*
X61224Y117613D01*
X61253Y117625D01*
X61285Y117630D01*
X61366Y117673D01*
X61450Y117709D01*
X61482Y117735D01*
X61503Y117746D01*
X61525Y117769D01*
X61581Y117814D01*
X70175Y126408D01*
X70217Y126466D01*
X70266Y126518D01*
X70288Y126565D01*
X70319Y126607D01*
X70340Y126676D01*
X70370Y126741D01*
X70376Y126793D01*
X70391Y126843D01*
X70389Y126914D01*
X70397Y126985D01*
X70386Y127036D01*
X70385Y127088D01*
X70360Y127156D01*
X70345Y127226D01*
X70318Y127270D01*
X70300Y127319D01*
X70255Y127375D01*
X70218Y127437D01*
X70179Y127471D01*
X70146Y127511D01*
X70086Y127550D01*
X70032Y127597D01*
X69983Y127616D01*
X69939Y127644D01*
X69870Y127662D01*
X69803Y127689D01*
X69732Y127697D01*
X69701Y127705D01*
X69678Y127703D01*
X69637Y127707D01*
X68452Y127707D01*
X68432Y127704D01*
X68413Y127706D01*
X68311Y127684D01*
X68209Y127668D01*
X68192Y127658D01*
X68172Y127654D01*
X68083Y127601D01*
X67992Y127552D01*
X67978Y127538D01*
X67961Y127528D01*
X67894Y127449D01*
X67822Y127374D01*
X67814Y127356D01*
X67801Y127341D01*
X67762Y127245D01*
X67719Y127151D01*
X67717Y127131D01*
X67709Y127113D01*
X67691Y126946D01*
X67691Y126680D01*
X65482Y124471D01*
X57358Y124471D01*
X55149Y126680D01*
X55149Y139004D01*
X57358Y141213D01*
X65482Y141213D01*
X67691Y139004D01*
X67691Y135074D01*
X67694Y135054D01*
X67692Y135035D01*
X67714Y134933D01*
X67730Y134831D01*
X67740Y134814D01*
X67744Y134794D01*
X67797Y134705D01*
X67846Y134614D01*
X67860Y134600D01*
X67870Y134583D01*
X67949Y134516D01*
X68024Y134444D01*
X68042Y134436D01*
X68057Y134423D01*
X68153Y134384D01*
X68247Y134341D01*
X68267Y134339D01*
X68285Y134331D01*
X68452Y134313D01*
X74534Y134313D01*
X74554Y134316D01*
X74573Y134314D01*
X74675Y134336D01*
X74777Y134352D01*
X74794Y134362D01*
X74814Y134366D01*
X74903Y134419D01*
X74994Y134468D01*
X75008Y134482D01*
X75025Y134492D01*
X75092Y134571D01*
X75164Y134646D01*
X75172Y134664D01*
X75185Y134679D01*
X75224Y134775D01*
X75267Y134869D01*
X75269Y134889D01*
X75277Y134907D01*
X75295Y135074D01*
X75295Y138059D01*
X75314Y138088D01*
X75374Y138171D01*
X75380Y138190D01*
X75391Y138207D01*
X75416Y138308D01*
X75447Y138407D01*
X75446Y138427D01*
X75451Y138446D01*
X75443Y138549D01*
X75440Y138652D01*
X75433Y138671D01*
X75432Y138691D01*
X75391Y138786D01*
X75356Y138883D01*
X75343Y138899D01*
X75335Y138917D01*
X75295Y138968D01*
X75295Y143059D01*
X75314Y143088D01*
X75374Y143171D01*
X75380Y143190D01*
X75391Y143207D01*
X75416Y143308D01*
X75447Y143406D01*
X75446Y143426D01*
X75451Y143446D01*
X75443Y143549D01*
X75440Y143652D01*
X75433Y143671D01*
X75432Y143691D01*
X75391Y143786D01*
X75356Y143883D01*
X75343Y143899D01*
X75335Y143917D01*
X75295Y143968D01*
X75295Y148059D01*
X75314Y148088D01*
X75374Y148171D01*
X75380Y148190D01*
X75391Y148207D01*
X75416Y148308D01*
X75447Y148407D01*
X75446Y148427D01*
X75451Y148446D01*
X75443Y148549D01*
X75440Y148652D01*
X75433Y148671D01*
X75432Y148691D01*
X75391Y148786D01*
X75356Y148883D01*
X75343Y148899D01*
X75335Y148917D01*
X75295Y148968D01*
X75295Y153059D01*
X75314Y153088D01*
X75374Y153171D01*
X75380Y153190D01*
X75391Y153207D01*
X75416Y153308D01*
X75447Y153407D01*
X75446Y153427D01*
X75451Y153446D01*
X75443Y153549D01*
X75440Y153652D01*
X75433Y153671D01*
X75432Y153691D01*
X75391Y153786D01*
X75356Y153883D01*
X75343Y153899D01*
X75335Y153917D01*
X75295Y153968D01*
X75295Y156616D01*
X75293Y156627D01*
X75294Y156634D01*
X75286Y156670D01*
X75284Y156687D01*
X75282Y156759D01*
X75264Y156808D01*
X75256Y156859D01*
X75222Y156922D01*
X75197Y156990D01*
X75165Y157031D01*
X75140Y157077D01*
X75089Y157126D01*
X75044Y157182D01*
X75000Y157210D01*
X74962Y157246D01*
X74897Y157276D01*
X74837Y157315D01*
X74786Y157328D01*
X74739Y157350D01*
X74668Y157357D01*
X74598Y157375D01*
X74546Y157371D01*
X74495Y157377D01*
X74424Y157361D01*
X74353Y157356D01*
X74305Y157335D01*
X74254Y157324D01*
X74193Y157288D01*
X74131Y157261D01*
X71186Y157261D01*
X69123Y159324D01*
X69123Y161072D01*
X69120Y161092D01*
X69122Y161111D01*
X69100Y161213D01*
X69084Y161315D01*
X69074Y161332D01*
X69070Y161352D01*
X69017Y161441D01*
X68968Y161532D01*
X68954Y161546D01*
X68944Y161563D01*
X68865Y161630D01*
X68790Y161702D01*
X68772Y161710D01*
X68757Y161723D01*
X68661Y161762D01*
X68567Y161805D01*
X68547Y161807D01*
X68529Y161815D01*
X68362Y161833D01*
X67376Y161833D01*
X65313Y163896D01*
X65313Y166812D01*
X67376Y168875D01*
X68235Y168875D01*
X68255Y168878D01*
X68274Y168876D01*
X68376Y168898D01*
X68478Y168914D01*
X68495Y168924D01*
X68515Y168928D01*
X68604Y168981D01*
X68695Y169030D01*
X68709Y169044D01*
X68726Y169054D01*
X68793Y169133D01*
X68865Y169208D01*
X68873Y169226D01*
X68886Y169241D01*
X68925Y169337D01*
X68968Y169431D01*
X68970Y169451D01*
X68978Y169469D01*
X68996Y169636D01*
X68996Y172273D01*
X71059Y174336D01*
X73975Y174336D01*
X74747Y173564D01*
X74763Y173553D01*
X74775Y173537D01*
X74837Y173498D01*
X74889Y173453D01*
X74918Y173441D01*
X74946Y173421D01*
X74965Y173415D01*
X74982Y173404D01*
X75056Y173386D01*
X75117Y173361D01*
X75154Y173357D01*
X75182Y173348D01*
X75201Y173349D01*
X75221Y173344D01*
X75249Y173346D01*
X75284Y173343D01*
X75286Y173343D01*
X75349Y173353D01*
X75427Y173355D01*
X75446Y173362D01*
X75466Y173363D01*
X75499Y173377D01*
X75529Y173382D01*
X75588Y173413D01*
X75658Y173439D01*
X75674Y173452D01*
X75692Y173460D01*
X75726Y173487D01*
X75746Y173497D01*
X75768Y173520D01*
X75823Y173564D01*
X76040Y173781D01*
X79371Y173781D01*
X79442Y173792D01*
X79514Y173794D01*
X79563Y173812D01*
X79614Y173820D01*
X79677Y173854D01*
X79745Y173879D01*
X79785Y173911D01*
X79832Y173936D01*
X79881Y173988D01*
X79937Y174032D01*
X79965Y174076D01*
X80001Y174114D01*
X80031Y174179D01*
X80070Y174239D01*
X80083Y174290D01*
X80105Y174337D01*
X80112Y174408D01*
X80130Y174478D01*
X80126Y174530D01*
X80132Y174581D01*
X80116Y174652D01*
X80111Y174723D01*
X80090Y174771D01*
X80079Y174822D01*
X80043Y174883D01*
X80014Y174949D01*
X79970Y175005D01*
X79953Y175033D01*
X79935Y175048D01*
X79910Y175080D01*
X78521Y176469D01*
X78521Y179385D01*
X80584Y181448D01*
X83500Y181448D01*
X83746Y181202D01*
X83804Y181160D01*
X83856Y181111D01*
X83903Y181089D01*
X83945Y181059D01*
X84014Y181038D01*
X84079Y181007D01*
X84131Y181002D01*
X84181Y180986D01*
X84252Y180988D01*
X84323Y180980D01*
X84374Y180991D01*
X84426Y180993D01*
X84494Y181017D01*
X84564Y181033D01*
X84609Y181059D01*
X84657Y181077D01*
X84713Y181122D01*
X84775Y181159D01*
X84809Y181198D01*
X84849Y181231D01*
X84888Y181291D01*
X84935Y181346D01*
X84954Y181394D01*
X84982Y181438D01*
X85000Y181507D01*
X85027Y181574D01*
X85035Y181645D01*
X85043Y181676D01*
X85041Y181700D01*
X85045Y181741D01*
X85045Y182786D01*
X85790Y183531D01*
X89172Y183531D01*
X89243Y183542D01*
X89315Y183544D01*
X89364Y183562D01*
X89415Y183570D01*
X89478Y183604D01*
X89546Y183629D01*
X89586Y183661D01*
X89632Y183686D01*
X89682Y183738D01*
X89738Y183782D01*
X89766Y183826D01*
X89802Y183864D01*
X89832Y183929D01*
X89871Y183989D01*
X89883Y184040D01*
X89905Y184087D01*
X89913Y184158D01*
X89931Y184228D01*
X89927Y184280D01*
X89932Y184331D01*
X89917Y184402D01*
X89912Y184473D01*
X89891Y184521D01*
X89880Y184572D01*
X89843Y184633D01*
X89815Y184699D01*
X89770Y184755D01*
X89754Y184783D01*
X89736Y184798D01*
X89710Y184830D01*
X87264Y187276D01*
X87190Y187329D01*
X87121Y187389D01*
X87091Y187401D01*
X87065Y187420D01*
X86977Y187447D01*
X86893Y187481D01*
X86852Y187485D01*
X86830Y187492D01*
X86797Y187491D01*
X86726Y187499D01*
X84319Y187499D01*
X82752Y189066D01*
X82752Y194474D01*
X84319Y196041D01*
X88966Y196041D01*
X89036Y196052D01*
X89108Y196054D01*
X89157Y196072D01*
X89209Y196080D01*
X89272Y196114D01*
X89339Y196139D01*
X89380Y196171D01*
X89426Y196196D01*
X89475Y196248D01*
X89531Y196292D01*
X89559Y196336D01*
X89595Y196374D01*
X89625Y196439D01*
X89664Y196499D01*
X89677Y196550D01*
X89699Y196597D01*
X89707Y196668D01*
X89724Y196738D01*
X89720Y196790D01*
X89726Y196841D01*
X89711Y196912D01*
X89705Y196983D01*
X89685Y197031D01*
X89674Y197082D01*
X89637Y197143D01*
X89609Y197209D01*
X89564Y197265D01*
X89548Y197293D01*
X89530Y197308D01*
X89504Y197340D01*
X88157Y198687D01*
X88157Y201617D01*
X90229Y203689D01*
X93159Y203689D01*
X95249Y201599D01*
X95253Y201547D01*
X95265Y201517D01*
X95270Y201486D01*
X95313Y201405D01*
X95349Y201321D01*
X95375Y201289D01*
X95386Y201268D01*
X95409Y201246D01*
X95454Y201190D01*
X96471Y200173D01*
X96545Y200120D01*
X96614Y200060D01*
X96645Y200048D01*
X96671Y200029D01*
X96758Y200002D01*
X96843Y199968D01*
X96884Y199964D01*
X96906Y199957D01*
X96938Y199958D01*
X97009Y199950D01*
X100494Y199950D01*
X102061Y198383D01*
X102061Y193575D01*
X100808Y192322D01*
X100755Y192248D01*
X100695Y192179D01*
X100683Y192148D01*
X100664Y192122D01*
X100637Y192035D01*
X100603Y191950D01*
X100599Y191910D01*
X100592Y191887D01*
X100593Y191855D01*
X100585Y191784D01*
X100585Y184292D01*
X100588Y184272D01*
X100586Y184253D01*
X100608Y184151D01*
X100624Y184049D01*
X100634Y184032D01*
X100638Y184012D01*
X100691Y183923D01*
X100740Y183832D01*
X100754Y183818D01*
X100764Y183801D01*
X100843Y183734D01*
X100918Y183662D01*
X100936Y183654D01*
X100951Y183641D01*
X101047Y183602D01*
X101141Y183559D01*
X101161Y183557D01*
X101179Y183549D01*
X101346Y183531D01*
X104865Y183531D01*
X104894Y183512D01*
X104977Y183452D01*
X104996Y183446D01*
X105013Y183435D01*
X105114Y183410D01*
X105213Y183379D01*
X105233Y183380D01*
X105252Y183375D01*
X105355Y183383D01*
X105458Y183386D01*
X105477Y183393D01*
X105497Y183394D01*
X105592Y183435D01*
X105689Y183470D01*
X105705Y183483D01*
X105723Y183491D01*
X105774Y183531D01*
X108494Y183531D01*
X108514Y183534D01*
X108533Y183532D01*
X108635Y183554D01*
X108737Y183570D01*
X108754Y183580D01*
X108774Y183584D01*
X108863Y183637D01*
X108954Y183686D01*
X108968Y183700D01*
X108985Y183710D01*
X109052Y183789D01*
X109124Y183864D01*
X109132Y183882D01*
X109145Y183897D01*
X109184Y183993D01*
X109227Y184087D01*
X109229Y184107D01*
X109237Y184125D01*
X109255Y184292D01*
X109255Y187259D01*
X110520Y188524D01*
X110573Y188598D01*
X110633Y188668D01*
X110645Y188698D01*
X110664Y188724D01*
X110691Y188811D01*
X110725Y188896D01*
X110729Y188937D01*
X110736Y188959D01*
X110735Y188991D01*
X110743Y189063D01*
X110743Y194261D01*
X114632Y198150D01*
X114685Y198224D01*
X114745Y198293D01*
X114757Y198324D01*
X114776Y198350D01*
X114803Y198437D01*
X114837Y198522D01*
X114841Y198563D01*
X114848Y198585D01*
X114847Y198617D01*
X114855Y198688D01*
X114855Y198776D01*
X116201Y200122D01*
X116213Y200138D01*
X116229Y200150D01*
X116285Y200238D01*
X116345Y200321D01*
X116351Y200340D01*
X116362Y200357D01*
X116387Y200458D01*
X116417Y200557D01*
X116417Y200576D01*
X116422Y200596D01*
X116414Y200699D01*
X116411Y200802D01*
X116404Y200821D01*
X116403Y200841D01*
X116362Y200936D01*
X116327Y201033D01*
X116314Y201049D01*
X116306Y201067D01*
X116201Y201198D01*
X114835Y202564D01*
X114832Y202579D01*
X114816Y202681D01*
X114806Y202698D01*
X114802Y202718D01*
X114749Y202807D01*
X114700Y202898D01*
X114686Y202912D01*
X114676Y202929D01*
X114597Y202996D01*
X114522Y203068D01*
X114504Y203076D01*
X114489Y203089D01*
X114393Y203128D01*
X114299Y203171D01*
X114279Y203173D01*
X114261Y203181D01*
X114094Y203199D01*
X109180Y203199D01*
X109090Y203185D01*
X108999Y203177D01*
X108969Y203165D01*
X108937Y203160D01*
X108856Y203117D01*
X108772Y203081D01*
X108740Y203055D01*
X108720Y203044D01*
X108697Y203021D01*
X108641Y202976D01*
X107884Y202219D01*
X104968Y202219D01*
X102905Y204282D01*
X102905Y207198D01*
X104968Y209261D01*
X107884Y209261D01*
X109657Y207488D01*
X109731Y207435D01*
X109801Y207375D01*
X109831Y207363D01*
X109857Y207344D01*
X109944Y207317D01*
X110029Y207283D01*
X110070Y207279D01*
X110092Y207272D01*
X110124Y207273D01*
X110196Y207265D01*
X114389Y207265D01*
X114479Y207279D01*
X114570Y207287D01*
X114600Y207299D01*
X114632Y207304D01*
X114713Y207347D01*
X114796Y207383D01*
X114829Y207409D01*
X114849Y207420D01*
X114871Y207443D01*
X114927Y207488D01*
X116390Y208951D01*
X121862Y208951D01*
X123397Y207416D01*
X123397Y202544D01*
X122051Y201198D01*
X122039Y201182D01*
X122023Y201170D01*
X121967Y201082D01*
X121907Y200999D01*
X121901Y200980D01*
X121890Y200963D01*
X121865Y200862D01*
X121835Y200763D01*
X121835Y200744D01*
X121830Y200724D01*
X121838Y200621D01*
X121841Y200518D01*
X121848Y200499D01*
X121849Y200479D01*
X121890Y200384D01*
X121925Y200287D01*
X121938Y200271D01*
X121946Y200253D01*
X122051Y200122D01*
X123397Y198776D01*
X123397Y193904D01*
X121862Y192369D01*
X116390Y192369D01*
X116108Y192651D01*
X116050Y192693D01*
X115998Y192743D01*
X115951Y192765D01*
X115909Y192795D01*
X115840Y192816D01*
X115775Y192846D01*
X115723Y192852D01*
X115673Y192867D01*
X115602Y192866D01*
X115531Y192873D01*
X115480Y192862D01*
X115428Y192861D01*
X115360Y192836D01*
X115290Y192821D01*
X115245Y192794D01*
X115197Y192777D01*
X115141Y192732D01*
X115079Y192695D01*
X115045Y192655D01*
X115005Y192623D01*
X114966Y192563D01*
X114919Y192508D01*
X114900Y192460D01*
X114872Y192416D01*
X114854Y192347D01*
X114827Y192280D01*
X114819Y192209D01*
X114811Y192177D01*
X114813Y192154D01*
X114809Y192113D01*
X114809Y189063D01*
X114823Y188973D01*
X114831Y188882D01*
X114843Y188852D01*
X114848Y188820D01*
X114891Y188739D01*
X114927Y188655D01*
X114953Y188623D01*
X114964Y188603D01*
X114987Y188580D01*
X115032Y188524D01*
X116297Y187259D01*
X116297Y184292D01*
X116300Y184272D01*
X116298Y184253D01*
X116320Y184151D01*
X116336Y184049D01*
X116346Y184032D01*
X116350Y184012D01*
X116403Y183923D01*
X116452Y183832D01*
X116466Y183818D01*
X116476Y183801D01*
X116555Y183734D01*
X116630Y183662D01*
X116648Y183654D01*
X116663Y183641D01*
X116759Y183602D01*
X116853Y183559D01*
X116873Y183557D01*
X116891Y183549D01*
X117058Y183531D01*
X119532Y183531D01*
X119603Y183542D01*
X119675Y183544D01*
X119724Y183562D01*
X119775Y183570D01*
X119838Y183604D01*
X119906Y183629D01*
X119947Y183661D01*
X119993Y183686D01*
X120042Y183737D01*
X120098Y183782D01*
X120126Y183826D01*
X120162Y183864D01*
X120192Y183929D01*
X120231Y183989D01*
X120244Y184040D01*
X120266Y184087D01*
X120273Y184158D01*
X120291Y184228D01*
X120287Y184280D01*
X120293Y184331D01*
X120277Y184402D01*
X120272Y184473D01*
X120251Y184521D01*
X120240Y184572D01*
X120204Y184633D01*
X120175Y184699D01*
X120131Y184755D01*
X120114Y184783D01*
X120096Y184798D01*
X120071Y184830D01*
X119669Y185232D01*
X119669Y188148D01*
X121732Y190211D01*
X124648Y190211D01*
X126711Y188148D01*
X126711Y185232D01*
X126309Y184830D01*
X126267Y184772D01*
X126218Y184720D01*
X126196Y184673D01*
X126166Y184631D01*
X126145Y184562D01*
X126114Y184497D01*
X126109Y184445D01*
X126093Y184395D01*
X126095Y184324D01*
X126087Y184253D01*
X126098Y184202D01*
X126100Y184150D01*
X126124Y184082D01*
X126140Y184012D01*
X126166Y183967D01*
X126184Y183919D01*
X126229Y183863D01*
X126266Y183801D01*
X126305Y183767D01*
X126338Y183727D01*
X126398Y183688D01*
X126453Y183641D01*
X126501Y183622D01*
X126545Y183594D01*
X126614Y183576D01*
X126681Y183549D01*
X126752Y183541D01*
X126783Y183533D01*
X126807Y183535D01*
X126848Y183531D01*
X129865Y183531D01*
X129894Y183512D01*
X129977Y183452D01*
X129996Y183446D01*
X130013Y183435D01*
X130114Y183410D01*
X130213Y183379D01*
X130233Y183380D01*
X130252Y183375D01*
X130355Y183383D01*
X130458Y183386D01*
X130477Y183393D01*
X130497Y183394D01*
X130592Y183435D01*
X130689Y183470D01*
X130705Y183483D01*
X130723Y183491D01*
X130774Y183531D01*
X134865Y183531D01*
X134894Y183512D01*
X134977Y183452D01*
X134996Y183446D01*
X135013Y183435D01*
X135114Y183410D01*
X135213Y183379D01*
X135233Y183380D01*
X135252Y183375D01*
X135355Y183383D01*
X135458Y183386D01*
X135477Y183393D01*
X135497Y183394D01*
X135592Y183435D01*
X135689Y183470D01*
X135705Y183483D01*
X135723Y183491D01*
X135774Y183531D01*
X139260Y183531D01*
X139280Y183534D01*
X139299Y183532D01*
X139401Y183554D01*
X139503Y183570D01*
X139520Y183580D01*
X139540Y183584D01*
X139629Y183637D01*
X139720Y183686D01*
X139734Y183700D01*
X139751Y183710D01*
X139818Y183789D01*
X139890Y183864D01*
X139898Y183882D01*
X139911Y183897D01*
X139950Y183993D01*
X139993Y184087D01*
X139995Y184107D01*
X140003Y184125D01*
X140021Y184292D01*
X140021Y185112D01*
X140007Y185202D01*
X139999Y185293D01*
X139987Y185323D01*
X139982Y185355D01*
X139939Y185435D01*
X139903Y185519D01*
X139877Y185551D01*
X139866Y185572D01*
X139843Y185594D01*
X139798Y185650D01*
X138223Y187225D01*
X138223Y192033D01*
X139790Y193600D01*
X145198Y193600D01*
X146042Y192756D01*
X146116Y192703D01*
X146185Y192643D01*
X146216Y192631D01*
X146242Y192612D01*
X146329Y192585D01*
X146414Y192551D01*
X146454Y192547D01*
X146477Y192540D01*
X146509Y192541D01*
X146580Y192533D01*
X147465Y192533D01*
X147555Y192547D01*
X147646Y192555D01*
X147675Y192567D01*
X147707Y192572D01*
X147788Y192615D01*
X147872Y192651D01*
X147904Y192677D01*
X147925Y192688D01*
X147947Y192711D01*
X148003Y192756D01*
X148014Y192767D01*
X150944Y192767D01*
X153016Y190695D01*
X153016Y187765D01*
X150944Y185693D01*
X148014Y185693D01*
X148003Y185704D01*
X147929Y185757D01*
X147860Y185817D01*
X147829Y185829D01*
X147803Y185848D01*
X147716Y185875D01*
X147631Y185909D01*
X147590Y185913D01*
X147568Y185920D01*
X147536Y185919D01*
X147465Y185927D01*
X146372Y185927D01*
X146352Y185924D01*
X146333Y185926D01*
X146231Y185904D01*
X146129Y185888D01*
X146112Y185878D01*
X146092Y185874D01*
X146003Y185821D01*
X145912Y185772D01*
X145898Y185758D01*
X145881Y185748D01*
X145814Y185669D01*
X145742Y185594D01*
X145734Y185576D01*
X145721Y185561D01*
X145682Y185465D01*
X145639Y185371D01*
X145637Y185351D01*
X145629Y185333D01*
X145611Y185166D01*
X145611Y176694D01*
X145605Y176680D01*
X145601Y176639D01*
X145594Y176617D01*
X145595Y176585D01*
X145587Y176513D01*
X145587Y174542D01*
X145590Y174522D01*
X145588Y174503D01*
X145610Y174401D01*
X145626Y174299D01*
X145636Y174282D01*
X145640Y174262D01*
X145693Y174173D01*
X145742Y174082D01*
X145756Y174068D01*
X145766Y174051D01*
X145845Y173984D01*
X145920Y173912D01*
X145938Y173904D01*
X145953Y173891D01*
X146049Y173852D01*
X146143Y173809D01*
X146163Y173807D01*
X146181Y173799D01*
X146348Y173781D01*
X154262Y173781D01*
X154352Y173795D01*
X154443Y173803D01*
X154473Y173815D01*
X154505Y173820D01*
X154586Y173863D01*
X154670Y173899D01*
X154702Y173925D01*
X154722Y173936D01*
X154745Y173959D01*
X154801Y174004D01*
X156657Y175860D01*
X157371Y175860D01*
X157391Y175863D01*
X157410Y175861D01*
X157512Y175883D01*
X157614Y175899D01*
X157631Y175909D01*
X157651Y175913D01*
X157740Y175966D01*
X157831Y176015D01*
X157845Y176029D01*
X157862Y176039D01*
X157929Y176118D01*
X158001Y176193D01*
X158009Y176211D01*
X158022Y176226D01*
X158061Y176322D01*
X158104Y176416D01*
X158106Y176436D01*
X158114Y176454D01*
X158132Y176621D01*
X158132Y177542D01*
X158118Y177632D01*
X158110Y177723D01*
X158098Y177753D01*
X158093Y177785D01*
X158050Y177865D01*
X158014Y177949D01*
X157988Y177981D01*
X157977Y178002D01*
X157954Y178024D01*
X157909Y178080D01*
X156194Y179795D01*
X156194Y185203D01*
X157541Y186550D01*
X157583Y186608D01*
X157632Y186660D01*
X157654Y186707D01*
X157685Y186749D01*
X157706Y186818D01*
X157736Y186883D01*
X157742Y186935D01*
X157757Y186985D01*
X157755Y187056D01*
X157763Y187127D01*
X157752Y187178D01*
X157751Y187230D01*
X157726Y187298D01*
X157711Y187368D01*
X157684Y187413D01*
X157666Y187461D01*
X157621Y187517D01*
X157585Y187579D01*
X157545Y187613D01*
X157512Y187653D01*
X157452Y187692D01*
X157398Y187739D01*
X157349Y187758D01*
X157306Y187786D01*
X157236Y187804D01*
X157170Y187831D01*
X157098Y187839D01*
X157067Y187847D01*
X157044Y187845D01*
X157003Y187849D01*
X155456Y187849D01*
X154711Y188594D01*
X154711Y207646D01*
X155456Y208391D01*
X166508Y208391D01*
X167284Y207615D01*
X167358Y207562D01*
X167428Y207502D01*
X167458Y207490D01*
X167484Y207471D01*
X167571Y207444D01*
X167656Y207410D01*
X167697Y207406D01*
X167719Y207399D01*
X167751Y207400D01*
X167823Y207392D01*
X179141Y207392D01*
X179231Y207406D01*
X179322Y207414D01*
X179352Y207426D01*
X179384Y207431D01*
X179465Y207474D01*
X179549Y207510D01*
X179581Y207536D01*
X179601Y207547D01*
X179624Y207570D01*
X179680Y207615D01*
X180456Y208391D01*
X191508Y208391D01*
X192253Y207646D01*
X192253Y188594D01*
X191508Y187849D01*
X189834Y187849D01*
X189763Y187838D01*
X189692Y187836D01*
X189643Y187818D01*
X189591Y187810D01*
X189528Y187776D01*
X189461Y187751D01*
X189420Y187719D01*
X189374Y187694D01*
X189325Y187642D01*
X189269Y187598D01*
X189241Y187554D01*
X189205Y187516D01*
X189174Y187451D01*
X189136Y187391D01*
X189123Y187340D01*
X189101Y187293D01*
X189093Y187222D01*
X189076Y187152D01*
X189080Y187100D01*
X189074Y187049D01*
X189089Y186978D01*
X189095Y186907D01*
X189115Y186859D01*
X189126Y186808D01*
X189163Y186747D01*
X189191Y186681D01*
X189236Y186625D01*
X189252Y186597D01*
X189270Y186582D01*
X189296Y186550D01*
X190643Y185203D01*
X190643Y179795D01*
X188928Y178080D01*
X188875Y178006D01*
X188815Y177937D01*
X188803Y177906D01*
X188784Y177880D01*
X188757Y177793D01*
X188723Y177708D01*
X188719Y177668D01*
X188712Y177645D01*
X188713Y177613D01*
X188709Y177579D01*
X180674Y169544D01*
X171591Y169544D01*
X171501Y169530D01*
X171410Y169522D01*
X171381Y169510D01*
X171349Y169505D01*
X171268Y169462D01*
X171184Y169426D01*
X171152Y169400D01*
X171131Y169389D01*
X171124Y169382D01*
X171123Y169381D01*
X171107Y169365D01*
X171053Y169321D01*
X168626Y166894D01*
X168573Y166820D01*
X168513Y166751D01*
X168501Y166720D01*
X168482Y166694D01*
X168455Y166607D01*
X168421Y166522D01*
X168417Y166481D01*
X168410Y166459D01*
X168411Y166427D01*
X168403Y166356D01*
X168403Y139546D01*
X168286Y139428D01*
X168244Y139370D01*
X168194Y139318D01*
X168172Y139271D01*
X168142Y139229D01*
X168121Y139160D01*
X168091Y139095D01*
X168085Y139043D01*
X168070Y138993D01*
X168071Y138922D01*
X168064Y138851D01*
X168075Y138800D01*
X168076Y138748D01*
X168101Y138680D01*
X168116Y138610D01*
X168143Y138565D01*
X168160Y138517D01*
X168205Y138461D01*
X168242Y138399D01*
X168282Y138365D01*
X168314Y138325D01*
X168374Y138286D01*
X168429Y138239D01*
X168477Y138220D01*
X168521Y138192D01*
X168590Y138174D01*
X168657Y138147D01*
X168728Y138139D01*
X168760Y138131D01*
X168783Y138133D01*
X168824Y138129D01*
X170693Y138129D01*
X172228Y136594D01*
X172228Y131122D01*
X171227Y130121D01*
X171174Y130047D01*
X171114Y129978D01*
X171102Y129948D01*
X171083Y129922D01*
X171057Y129835D01*
X171023Y129750D01*
X171018Y129709D01*
X171011Y129686D01*
X171012Y129654D01*
X171004Y129583D01*
X171004Y127824D01*
X171019Y127734D01*
X171026Y127643D01*
X171039Y127613D01*
X171044Y127581D01*
X171086Y127501D01*
X171122Y127417D01*
X171148Y127384D01*
X171159Y127364D01*
X171182Y127342D01*
X171227Y127286D01*
X171991Y126522D01*
X172007Y126510D01*
X172020Y126494D01*
X172107Y126438D01*
X172191Y126378D01*
X172210Y126372D01*
X172227Y126361D01*
X172327Y126336D01*
X172426Y126306D01*
X172446Y126306D01*
X172465Y126301D01*
X172568Y126309D01*
X172672Y126312D01*
X172690Y126319D01*
X172710Y126320D01*
X172805Y126361D01*
X172903Y126396D01*
X172918Y126409D01*
X172937Y126417D01*
X173068Y126522D01*
X174414Y127868D01*
X179285Y127868D01*
X180820Y126333D01*
X180820Y125004D01*
X180831Y124934D01*
X180833Y124863D01*
X180851Y124813D01*
X180860Y124761D01*
X180893Y124699D01*
X180917Y124632D01*
X180950Y124590D01*
X180975Y124544D01*
X181026Y124495D01*
X181070Y124440D01*
X181130Y124397D01*
X181153Y124374D01*
X181174Y124365D01*
X181206Y124341D01*
X184494Y122480D01*
X184598Y122441D01*
X184702Y122399D01*
X184716Y122398D01*
X184724Y122395D01*
X184751Y122394D01*
X184869Y122381D01*
X188974Y122381D01*
X190320Y121035D01*
X190336Y121023D01*
X190348Y121007D01*
X190412Y120966D01*
X190459Y120927D01*
X190484Y120916D01*
X190519Y120891D01*
X190538Y120885D01*
X190555Y120874D01*
X190643Y120852D01*
X190687Y120835D01*
X190711Y120832D01*
X190755Y120819D01*
X190775Y120819D01*
X190794Y120814D01*
X190839Y120818D01*
X190853Y120816D01*
X190863Y120816D01*
X190900Y120822D01*
X191000Y120825D01*
X191019Y120832D01*
X191039Y120833D01*
X191084Y120852D01*
X191105Y120856D01*
X191151Y120880D01*
X191231Y120909D01*
X191247Y120922D01*
X191265Y120930D01*
X191306Y120962D01*
X191323Y120971D01*
X191341Y120991D01*
X191396Y121035D01*
X192144Y121782D01*
X192197Y121856D01*
X192256Y121925D01*
X192268Y121955D01*
X192287Y121982D01*
X192314Y122069D01*
X192348Y122153D01*
X192353Y122194D01*
X192360Y122217D01*
X192359Y122249D01*
X192367Y122320D01*
X192367Y124156D01*
X192353Y124242D01*
X192347Y124330D01*
X192333Y124363D01*
X192327Y124399D01*
X192286Y124476D01*
X192253Y124557D01*
X192224Y124594D01*
X192212Y124616D01*
X192189Y124638D01*
X192149Y124689D01*
X191162Y125697D01*
X191219Y131168D01*
X192771Y132687D01*
X197641Y132636D01*
X198973Y131275D01*
X198990Y131264D01*
X199002Y131248D01*
X199088Y131191D01*
X199172Y131130D01*
X199191Y131124D01*
X199207Y131113D01*
X199307Y131087D01*
X199406Y131055D01*
X199426Y131055D01*
X199445Y131050D01*
X199549Y131057D01*
X199652Y131059D01*
X199671Y131065D01*
X199691Y131067D01*
X199786Y131106D01*
X199884Y131141D01*
X199900Y131153D01*
X199918Y131161D01*
X200050Y131264D01*
X201410Y132596D01*
X206281Y132545D01*
X207454Y131347D01*
X207531Y131291D01*
X207603Y131229D01*
X207629Y131219D01*
X207652Y131202D01*
X207743Y131173D01*
X207831Y131137D01*
X207867Y131133D01*
X207886Y131127D01*
X207919Y131127D01*
X207998Y131119D01*
X209974Y131119D01*
X210062Y131133D01*
X210152Y131140D01*
X210183Y131153D01*
X210216Y131159D01*
X210296Y131201D01*
X210379Y131236D01*
X210412Y131262D01*
X210434Y131274D01*
X210456Y131297D01*
X210510Y131340D01*
X211782Y132603D01*
X216653Y132586D01*
X217995Y131235D01*
X218011Y131224D01*
X218023Y131208D01*
X218110Y131152D01*
X218194Y131091D01*
X218213Y131085D01*
X218230Y131074D01*
X218330Y131049D01*
X218429Y131018D01*
X218449Y131018D01*
X218468Y131013D01*
X218571Y131021D01*
X218675Y131023D01*
X218693Y131030D01*
X218713Y131032D01*
X218808Y131072D01*
X218906Y131107D01*
X218922Y131119D01*
X218940Y131127D01*
X219071Y131232D01*
X220422Y132573D01*
X225293Y132556D01*
X226823Y131016D01*
X226804Y125545D01*
X225862Y124610D01*
X225808Y124535D01*
X225748Y124464D01*
X225736Y124435D01*
X225718Y124410D01*
X225691Y124322D01*
X225656Y124236D01*
X225652Y124197D01*
X225645Y124175D01*
X225646Y124143D01*
X225637Y124069D01*
X225637Y122544D01*
X225652Y122455D01*
X225659Y122366D01*
X225672Y122335D01*
X225677Y122301D01*
X225719Y122222D01*
X225754Y122139D01*
X225781Y122105D01*
X225792Y122084D01*
X225815Y122062D01*
X225859Y122008D01*
X226550Y121312D01*
X226566Y121300D01*
X226579Y121284D01*
X226665Y121228D01*
X226749Y121167D01*
X226768Y121161D01*
X226785Y121151D01*
X226885Y121125D01*
X226984Y121094D01*
X227004Y121095D01*
X227023Y121090D01*
X227126Y121097D01*
X227230Y121100D01*
X227249Y121106D01*
X227269Y121108D01*
X227364Y121148D01*
X227461Y121183D01*
X227477Y121196D01*
X227495Y121203D01*
X227627Y121308D01*
X228977Y122649D01*
X233848Y122632D01*
X234678Y121797D01*
X234695Y121785D01*
X234708Y121768D01*
X234772Y121727D01*
X234818Y121688D01*
X234842Y121678D01*
X234877Y121653D01*
X234897Y121647D01*
X234915Y121635D01*
X235005Y121612D01*
X235046Y121596D01*
X235067Y121594D01*
X235112Y121580D01*
X235133Y121580D01*
X235154Y121575D01*
X235202Y121579D01*
X235213Y121578D01*
X235223Y121578D01*
X235256Y121583D01*
X235358Y121585D01*
X235378Y121592D01*
X235399Y121594D01*
X235445Y121614D01*
X235466Y121617D01*
X235508Y121640D01*
X235589Y121669D01*
X235606Y121682D01*
X235625Y121690D01*
X235667Y121723D01*
X235683Y121732D01*
X235701Y121751D01*
X235756Y121795D01*
X236028Y122067D01*
X236626Y122067D01*
X236701Y122079D01*
X240753Y122079D01*
X240773Y122082D01*
X240793Y122080D01*
X240894Y122102D01*
X240996Y122119D01*
X241013Y122128D01*
X241033Y122132D01*
X241122Y122185D01*
X241213Y122234D01*
X241227Y122248D01*
X241244Y122258D01*
X241311Y122337D01*
X241383Y122412D01*
X241391Y122430D01*
X241404Y122445D01*
X241443Y122542D01*
X241486Y122635D01*
X241488Y122655D01*
X241496Y122673D01*
X241514Y122840D01*
X241514Y289231D01*
X241511Y289251D01*
X241513Y289270D01*
X241491Y289372D01*
X241475Y289474D01*
X241465Y289491D01*
X241461Y289511D01*
X241408Y289600D01*
X241360Y289691D01*
X241345Y289705D01*
X241335Y289722D01*
X241256Y289789D01*
X241181Y289860D01*
X241163Y289869D01*
X241148Y289882D01*
X241052Y289921D01*
X240958Y289964D01*
X240938Y289966D01*
X240920Y289974D01*
X240753Y289992D01*
X98141Y289992D01*
X98121Y289989D01*
X98101Y289991D01*
X98000Y289969D01*
X97898Y289952D01*
X97880Y289943D01*
X97861Y289939D01*
X97772Y289886D01*
X97680Y289837D01*
X97667Y289823D01*
X97650Y289813D01*
X97582Y289734D01*
X97511Y289659D01*
X97503Y289641D01*
X97490Y289626D01*
X97451Y289530D01*
X97407Y289436D01*
X97405Y289416D01*
X97398Y289398D01*
X97379Y289231D01*
X97379Y279883D01*
X96219Y278722D01*
X85037Y278722D01*
X83876Y279883D01*
X83876Y289231D01*
X83873Y289251D01*
X83875Y289270D01*
X83853Y289372D01*
X83836Y289474D01*
X83827Y289491D01*
X83823Y289511D01*
X83769Y289600D01*
X83721Y289691D01*
X83707Y289705D01*
X83696Y289722D01*
X83618Y289789D01*
X83543Y289860D01*
X83525Y289869D01*
X83510Y289882D01*
X83413Y289921D01*
X83320Y289964D01*
X83300Y289966D01*
X83281Y289974D01*
X83115Y289992D01*
X39411Y289992D01*
X39391Y289989D01*
X39371Y289991D01*
X39270Y289969D01*
X39168Y289952D01*
X39150Y289943D01*
X39131Y289939D01*
X39042Y289886D01*
X38950Y289837D01*
X38937Y289823D01*
X38920Y289813D01*
X38852Y289734D01*
X38781Y289659D01*
X38773Y289641D01*
X38760Y289626D01*
X38721Y289530D01*
X38677Y289436D01*
X38675Y289416D01*
X38668Y289398D01*
X38649Y289231D01*
X38649Y271038D01*
X38652Y271025D01*
X38650Y271003D01*
X38791Y268027D01*
X36595Y262351D01*
X32291Y258047D01*
X26614Y255851D01*
X23639Y255991D01*
X23625Y255990D01*
X23603Y255992D01*
X3411Y255992D01*
X3391Y255989D01*
X3371Y255991D01*
X3270Y255969D01*
X3168Y255952D01*
X3150Y255943D01*
X3131Y255939D01*
X3042Y255886D01*
X2950Y255837D01*
X2937Y255823D01*
X2920Y255813D01*
X2852Y255734D01*
X2781Y255659D01*
X2773Y255641D01*
X2760Y255626D01*
X2721Y255530D01*
X2677Y255436D01*
X2675Y255416D01*
X2668Y255398D01*
X2649Y255231D01*
X2649Y95250D01*
X2653Y95230D01*
X2650Y95211D01*
X2672Y95109D01*
X2689Y95007D01*
X2698Y94990D01*
X2703Y94970D01*
X2756Y94881D01*
X2804Y94790D01*
X2819Y94776D01*
X2829Y94759D01*
X2908Y94692D01*
X2983Y94621D01*
X3001Y94612D01*
X3016Y94599D01*
X3112Y94560D01*
X3206Y94517D01*
X3225Y94515D01*
X3244Y94507D01*
X3411Y94489D01*
X13226Y94489D01*
X13246Y94492D01*
X13265Y94490D01*
X13367Y94512D01*
X13469Y94529D01*
X13486Y94538D01*
X13506Y94542D01*
X13595Y94595D01*
X13686Y94644D01*
X13700Y94658D01*
X13717Y94668D01*
X13784Y94747D01*
X13856Y94822D01*
X13864Y94840D01*
X13877Y94855D01*
X13916Y94951D01*
X13959Y95045D01*
X13961Y95065D01*
X13969Y95083D01*
X13987Y95250D01*
X13987Y102616D01*
X13973Y102706D01*
X13965Y102797D01*
X13953Y102827D01*
X13948Y102858D01*
X13905Y102939D01*
X13869Y103023D01*
X13843Y103055D01*
X13832Y103076D01*
X13809Y103098D01*
X13764Y103154D01*
X12973Y103945D01*
X12973Y106875D01*
X15045Y108947D01*
X17975Y108947D01*
X20047Y106875D01*
X20047Y103945D01*
X18276Y102174D01*
X18223Y102100D01*
X18163Y102031D01*
X18151Y102001D01*
X18132Y101974D01*
X18105Y101887D01*
X18071Y101802D01*
X18067Y101762D01*
X18060Y101739D01*
X18061Y101707D01*
X18053Y101636D01*
X18053Y95250D01*
X18056Y95230D01*
X18054Y95211D01*
X18076Y95109D01*
X18092Y95007D01*
X18102Y94990D01*
X18106Y94970D01*
X18159Y94881D01*
X18208Y94790D01*
X18222Y94776D01*
X18232Y94759D01*
X18311Y94692D01*
X18386Y94621D01*
X18404Y94612D01*
X18419Y94599D01*
X18515Y94560D01*
X18609Y94517D01*
X18629Y94515D01*
X18647Y94507D01*
X18814Y94489D01*
X37102Y94489D01*
X37172Y94500D01*
X37244Y94502D01*
X37293Y94520D01*
X37344Y94529D01*
X37408Y94562D01*
X37475Y94587D01*
X37516Y94619D01*
X37562Y94644D01*
X37611Y94696D01*
X37667Y94740D01*
X37695Y94784D01*
X37731Y94822D01*
X37761Y94887D01*
X37800Y94947D01*
X37813Y94998D01*
X37835Y95045D01*
X37843Y95116D01*
X37860Y95186D01*
X37856Y95238D01*
X37862Y95289D01*
X37847Y95360D01*
X37841Y95431D01*
X37821Y95479D01*
X37810Y95530D01*
X37773Y95591D01*
X37745Y95657D01*
X37700Y95713D01*
X37684Y95741D01*
X37666Y95756D01*
X37640Y95788D01*
X37103Y96325D01*
X37103Y99255D01*
X39175Y101327D01*
X42105Y101327D01*
X44177Y99255D01*
X44177Y96325D01*
X42896Y95044D01*
X42843Y94970D01*
X42783Y94901D01*
X42771Y94871D01*
X42752Y94844D01*
X42725Y94757D01*
X42691Y94672D01*
X42687Y94631D01*
X42680Y94609D01*
X42681Y94577D01*
X42673Y94506D01*
X42673Y92597D01*
X42687Y92507D01*
X42695Y92416D01*
X42707Y92387D01*
X42712Y92355D01*
X42755Y92274D01*
X42791Y92190D01*
X42817Y92158D01*
X42828Y92137D01*
X42851Y92115D01*
X42896Y92059D01*
X50928Y84027D01*
X50928Y81661D01*
X50942Y81571D01*
X50950Y81480D01*
X50962Y81450D01*
X50967Y81418D01*
X51010Y81338D01*
X51046Y81254D01*
X51072Y81222D01*
X51083Y81201D01*
X51106Y81179D01*
X51151Y81123D01*
X58736Y73538D01*
X58810Y73485D01*
X58879Y73425D01*
X58909Y73413D01*
X58935Y73394D01*
X59022Y73367D01*
X59107Y73333D01*
X59148Y73329D01*
X59171Y73322D01*
X59203Y73323D01*
X59274Y73315D01*
X63315Y73315D01*
X64850Y71780D01*
X64850Y67739D01*
X64864Y67649D01*
X64872Y67558D01*
X64884Y67528D01*
X64889Y67496D01*
X64932Y67416D01*
X64968Y67332D01*
X64994Y67300D01*
X65005Y67279D01*
X65028Y67257D01*
X65073Y67201D01*
X101062Y31212D01*
X101136Y31159D01*
X101205Y31099D01*
X101235Y31087D01*
X101261Y31068D01*
X101348Y31041D01*
X101433Y31007D01*
X101474Y31003D01*
X101497Y30996D01*
X101529Y30997D01*
X101600Y30989D01*
X240753Y30989D01*
X240773Y30992D01*
G37*
G36*
X140355Y114383D02*
X140355Y114383D01*
X140458Y114386D01*
X140477Y114393D01*
X140497Y114394D01*
X140592Y114435D01*
X140689Y114470D01*
X140705Y114483D01*
X140723Y114491D01*
X140774Y114531D01*
X143534Y114531D01*
X143554Y114534D01*
X143573Y114532D01*
X143675Y114554D01*
X143777Y114570D01*
X143794Y114580D01*
X143814Y114584D01*
X143903Y114637D01*
X143994Y114686D01*
X144008Y114700D01*
X144025Y114710D01*
X144092Y114789D01*
X144164Y114864D01*
X144172Y114882D01*
X144185Y114897D01*
X144224Y114993D01*
X144267Y115087D01*
X144269Y115107D01*
X144277Y115125D01*
X144295Y115292D01*
X144295Y118059D01*
X144314Y118088D01*
X144374Y118171D01*
X144380Y118190D01*
X144391Y118207D01*
X144416Y118308D01*
X144447Y118406D01*
X144446Y118426D01*
X144451Y118446D01*
X144443Y118549D01*
X144440Y118652D01*
X144433Y118671D01*
X144432Y118691D01*
X144391Y118786D01*
X144356Y118883D01*
X144343Y118899D01*
X144335Y118917D01*
X144295Y118968D01*
X144295Y123059D01*
X144314Y123088D01*
X144374Y123171D01*
X144380Y123190D01*
X144391Y123207D01*
X144416Y123308D01*
X144447Y123406D01*
X144446Y123426D01*
X144451Y123446D01*
X144443Y123549D01*
X144440Y123652D01*
X144433Y123671D01*
X144432Y123691D01*
X144391Y123786D01*
X144356Y123883D01*
X144343Y123899D01*
X144335Y123917D01*
X144295Y123968D01*
X144295Y128059D01*
X144314Y128088D01*
X144374Y128171D01*
X144380Y128190D01*
X144391Y128207D01*
X144416Y128308D01*
X144447Y128406D01*
X144446Y128426D01*
X144451Y128446D01*
X144443Y128549D01*
X144440Y128652D01*
X144433Y128671D01*
X144432Y128691D01*
X144391Y128786D01*
X144356Y128883D01*
X144343Y128899D01*
X144335Y128917D01*
X144295Y128968D01*
X144295Y133059D01*
X144314Y133088D01*
X144374Y133171D01*
X144380Y133190D01*
X144391Y133207D01*
X144416Y133308D01*
X144447Y133406D01*
X144446Y133426D01*
X144451Y133446D01*
X144443Y133549D01*
X144440Y133652D01*
X144433Y133671D01*
X144432Y133691D01*
X144391Y133786D01*
X144356Y133883D01*
X144343Y133899D01*
X144335Y133917D01*
X144295Y133968D01*
X144295Y138059D01*
X144314Y138088D01*
X144374Y138171D01*
X144380Y138190D01*
X144391Y138207D01*
X144416Y138308D01*
X144447Y138406D01*
X144446Y138426D01*
X144451Y138446D01*
X144443Y138549D01*
X144440Y138652D01*
X144433Y138671D01*
X144432Y138691D01*
X144391Y138786D01*
X144356Y138883D01*
X144343Y138899D01*
X144335Y138917D01*
X144295Y138968D01*
X144295Y143059D01*
X144314Y143088D01*
X144374Y143171D01*
X144380Y143190D01*
X144391Y143207D01*
X144416Y143308D01*
X144447Y143406D01*
X144446Y143426D01*
X144451Y143446D01*
X144443Y143549D01*
X144440Y143652D01*
X144433Y143671D01*
X144432Y143691D01*
X144391Y143786D01*
X144356Y143883D01*
X144343Y143899D01*
X144335Y143917D01*
X144295Y143968D01*
X144295Y148059D01*
X144314Y148088D01*
X144374Y148171D01*
X144380Y148190D01*
X144391Y148207D01*
X144416Y148308D01*
X144447Y148406D01*
X144446Y148426D01*
X144451Y148446D01*
X144443Y148549D01*
X144440Y148652D01*
X144433Y148671D01*
X144432Y148691D01*
X144391Y148786D01*
X144356Y148883D01*
X144343Y148899D01*
X144335Y148917D01*
X144295Y148968D01*
X144295Y153059D01*
X144314Y153088D01*
X144374Y153171D01*
X144380Y153190D01*
X144391Y153207D01*
X144416Y153308D01*
X144447Y153406D01*
X144446Y153426D01*
X144451Y153446D01*
X144443Y153549D01*
X144440Y153652D01*
X144433Y153671D01*
X144432Y153691D01*
X144391Y153786D01*
X144356Y153883D01*
X144343Y153899D01*
X144335Y153917D01*
X144295Y153968D01*
X144295Y158059D01*
X144314Y158088D01*
X144374Y158171D01*
X144380Y158190D01*
X144391Y158207D01*
X144416Y158308D01*
X144447Y158406D01*
X144446Y158426D01*
X144451Y158446D01*
X144443Y158549D01*
X144440Y158652D01*
X144433Y158671D01*
X144432Y158691D01*
X144391Y158786D01*
X144356Y158883D01*
X144343Y158899D01*
X144335Y158917D01*
X144295Y158968D01*
X144295Y163059D01*
X144314Y163088D01*
X144374Y163171D01*
X144380Y163190D01*
X144391Y163207D01*
X144416Y163308D01*
X144447Y163406D01*
X144446Y163426D01*
X144451Y163446D01*
X144443Y163549D01*
X144440Y163652D01*
X144433Y163671D01*
X144432Y163691D01*
X144391Y163786D01*
X144356Y163883D01*
X144343Y163899D01*
X144335Y163917D01*
X144295Y163968D01*
X144295Y168059D01*
X144314Y168088D01*
X144374Y168171D01*
X144380Y168190D01*
X144391Y168207D01*
X144416Y168308D01*
X144447Y168406D01*
X144446Y168426D01*
X144451Y168446D01*
X144443Y168549D01*
X144440Y168652D01*
X144433Y168671D01*
X144432Y168691D01*
X144391Y168786D01*
X144356Y168883D01*
X144343Y168899D01*
X144335Y168917D01*
X144295Y168968D01*
X144295Y171728D01*
X144292Y171748D01*
X144294Y171767D01*
X144272Y171869D01*
X144256Y171971D01*
X144246Y171988D01*
X144242Y172008D01*
X144189Y172097D01*
X144140Y172188D01*
X144126Y172202D01*
X144116Y172219D01*
X144037Y172286D01*
X143962Y172358D01*
X143944Y172366D01*
X143929Y172379D01*
X143833Y172418D01*
X143739Y172461D01*
X143719Y172463D01*
X143701Y172471D01*
X143534Y172489D01*
X140767Y172489D01*
X140738Y172508D01*
X140655Y172568D01*
X140636Y172574D01*
X140619Y172585D01*
X140518Y172610D01*
X140420Y172641D01*
X140400Y172640D01*
X140380Y172645D01*
X140277Y172637D01*
X140174Y172634D01*
X140155Y172627D01*
X140135Y172626D01*
X140040Y172585D01*
X139943Y172550D01*
X139927Y172537D01*
X139909Y172529D01*
X139858Y172489D01*
X135767Y172489D01*
X135738Y172508D01*
X135655Y172568D01*
X135636Y172574D01*
X135619Y172585D01*
X135518Y172610D01*
X135420Y172641D01*
X135400Y172640D01*
X135380Y172645D01*
X135277Y172637D01*
X135174Y172634D01*
X135155Y172627D01*
X135135Y172626D01*
X135040Y172585D01*
X134943Y172550D01*
X134927Y172537D01*
X134909Y172529D01*
X134858Y172489D01*
X130767Y172489D01*
X130738Y172508D01*
X130655Y172568D01*
X130636Y172574D01*
X130619Y172585D01*
X130518Y172610D01*
X130420Y172641D01*
X130400Y172640D01*
X130380Y172645D01*
X130277Y172637D01*
X130174Y172634D01*
X130155Y172627D01*
X130135Y172626D01*
X130040Y172585D01*
X129943Y172550D01*
X129927Y172537D01*
X129909Y172529D01*
X129858Y172489D01*
X125767Y172489D01*
X125738Y172508D01*
X125655Y172568D01*
X125636Y172574D01*
X125619Y172585D01*
X125518Y172610D01*
X125420Y172641D01*
X125400Y172640D01*
X125380Y172645D01*
X125277Y172637D01*
X125174Y172634D01*
X125155Y172627D01*
X125135Y172626D01*
X125040Y172585D01*
X124943Y172550D01*
X124927Y172537D01*
X124909Y172529D01*
X124858Y172489D01*
X120767Y172489D01*
X120738Y172508D01*
X120655Y172568D01*
X120636Y172574D01*
X120619Y172585D01*
X120518Y172610D01*
X120420Y172641D01*
X120400Y172640D01*
X120380Y172645D01*
X120277Y172637D01*
X120174Y172634D01*
X120155Y172627D01*
X120135Y172626D01*
X120040Y172585D01*
X119943Y172550D01*
X119927Y172537D01*
X119909Y172529D01*
X119858Y172489D01*
X115767Y172489D01*
X115738Y172508D01*
X115655Y172568D01*
X115636Y172574D01*
X115619Y172585D01*
X115518Y172610D01*
X115420Y172641D01*
X115400Y172640D01*
X115380Y172645D01*
X115277Y172637D01*
X115174Y172634D01*
X115155Y172627D01*
X115135Y172626D01*
X115040Y172585D01*
X114943Y172550D01*
X114927Y172537D01*
X114909Y172529D01*
X114858Y172489D01*
X110767Y172489D01*
X110738Y172508D01*
X110655Y172568D01*
X110636Y172574D01*
X110619Y172585D01*
X110518Y172610D01*
X110420Y172641D01*
X110400Y172640D01*
X110380Y172645D01*
X110277Y172637D01*
X110174Y172634D01*
X110155Y172627D01*
X110135Y172626D01*
X110040Y172585D01*
X109943Y172550D01*
X109927Y172537D01*
X109909Y172529D01*
X109858Y172489D01*
X105767Y172489D01*
X105738Y172508D01*
X105655Y172568D01*
X105636Y172574D01*
X105619Y172585D01*
X105518Y172610D01*
X105420Y172641D01*
X105400Y172640D01*
X105380Y172645D01*
X105277Y172637D01*
X105174Y172634D01*
X105155Y172627D01*
X105135Y172626D01*
X105040Y172585D01*
X104943Y172550D01*
X104927Y172537D01*
X104909Y172529D01*
X104858Y172489D01*
X100767Y172489D01*
X100738Y172508D01*
X100655Y172568D01*
X100636Y172574D01*
X100619Y172585D01*
X100518Y172610D01*
X100420Y172641D01*
X100400Y172640D01*
X100380Y172645D01*
X100277Y172637D01*
X100174Y172634D01*
X100155Y172627D01*
X100135Y172626D01*
X100040Y172585D01*
X99943Y172550D01*
X99927Y172537D01*
X99909Y172529D01*
X99858Y172489D01*
X95767Y172489D01*
X95738Y172508D01*
X95655Y172568D01*
X95636Y172574D01*
X95619Y172585D01*
X95518Y172610D01*
X95420Y172641D01*
X95400Y172640D01*
X95380Y172645D01*
X95277Y172637D01*
X95174Y172634D01*
X95155Y172627D01*
X95135Y172626D01*
X95040Y172585D01*
X94943Y172550D01*
X94927Y172537D01*
X94909Y172529D01*
X94858Y172489D01*
X90767Y172489D01*
X90738Y172508D01*
X90655Y172568D01*
X90636Y172574D01*
X90619Y172585D01*
X90518Y172610D01*
X90420Y172641D01*
X90400Y172640D01*
X90380Y172645D01*
X90277Y172637D01*
X90174Y172634D01*
X90155Y172627D01*
X90135Y172626D01*
X90040Y172585D01*
X89943Y172550D01*
X89927Y172537D01*
X89909Y172529D01*
X89858Y172489D01*
X87098Y172489D01*
X87078Y172486D01*
X87059Y172488D01*
X86957Y172466D01*
X86855Y172450D01*
X86838Y172440D01*
X86818Y172436D01*
X86729Y172383D01*
X86638Y172334D01*
X86624Y172320D01*
X86607Y172310D01*
X86540Y172231D01*
X86468Y172156D01*
X86460Y172138D01*
X86447Y172123D01*
X86408Y172027D01*
X86365Y171933D01*
X86363Y171913D01*
X86355Y171895D01*
X86337Y171728D01*
X86337Y168961D01*
X86318Y168932D01*
X86258Y168849D01*
X86252Y168830D01*
X86241Y168813D01*
X86216Y168712D01*
X86185Y168614D01*
X86186Y168594D01*
X86181Y168574D01*
X86189Y168471D01*
X86192Y168368D01*
X86199Y168349D01*
X86200Y168329D01*
X86241Y168234D01*
X86276Y168137D01*
X86289Y168121D01*
X86297Y168103D01*
X86337Y168052D01*
X86337Y163961D01*
X86318Y163932D01*
X86258Y163849D01*
X86252Y163830D01*
X86241Y163813D01*
X86216Y163712D01*
X86185Y163614D01*
X86186Y163594D01*
X86181Y163574D01*
X86189Y163471D01*
X86192Y163368D01*
X86199Y163349D01*
X86200Y163329D01*
X86241Y163234D01*
X86276Y163137D01*
X86289Y163121D01*
X86297Y163103D01*
X86337Y163052D01*
X86337Y158961D01*
X86318Y158932D01*
X86258Y158849D01*
X86252Y158830D01*
X86241Y158813D01*
X86216Y158712D01*
X86185Y158614D01*
X86186Y158594D01*
X86181Y158574D01*
X86189Y158471D01*
X86192Y158368D01*
X86199Y158349D01*
X86200Y158329D01*
X86241Y158234D01*
X86276Y158137D01*
X86289Y158121D01*
X86297Y158103D01*
X86337Y158052D01*
X86337Y153961D01*
X86318Y153932D01*
X86258Y153849D01*
X86252Y153830D01*
X86241Y153813D01*
X86216Y153712D01*
X86185Y153614D01*
X86186Y153594D01*
X86181Y153574D01*
X86189Y153471D01*
X86192Y153368D01*
X86199Y153349D01*
X86200Y153329D01*
X86241Y153234D01*
X86276Y153137D01*
X86289Y153121D01*
X86297Y153103D01*
X86337Y153052D01*
X86337Y148961D01*
X86318Y148932D01*
X86258Y148849D01*
X86252Y148830D01*
X86241Y148813D01*
X86216Y148712D01*
X86185Y148614D01*
X86186Y148594D01*
X86181Y148574D01*
X86189Y148471D01*
X86192Y148368D01*
X86199Y148349D01*
X86200Y148329D01*
X86241Y148234D01*
X86276Y148137D01*
X86289Y148121D01*
X86297Y148103D01*
X86337Y148052D01*
X86337Y143961D01*
X86318Y143932D01*
X86258Y143849D01*
X86252Y143830D01*
X86241Y143813D01*
X86216Y143712D01*
X86185Y143613D01*
X86186Y143593D01*
X86181Y143574D01*
X86189Y143471D01*
X86192Y143368D01*
X86199Y143349D01*
X86200Y143329D01*
X86241Y143234D01*
X86276Y143137D01*
X86289Y143121D01*
X86297Y143103D01*
X86337Y143052D01*
X86337Y138961D01*
X86318Y138932D01*
X86258Y138849D01*
X86252Y138830D01*
X86241Y138813D01*
X86216Y138712D01*
X86185Y138614D01*
X86186Y138594D01*
X86181Y138574D01*
X86189Y138471D01*
X86192Y138368D01*
X86199Y138349D01*
X86200Y138329D01*
X86241Y138234D01*
X86276Y138137D01*
X86289Y138121D01*
X86297Y138103D01*
X86337Y138052D01*
X86337Y133961D01*
X86318Y133932D01*
X86258Y133849D01*
X86252Y133830D01*
X86241Y133813D01*
X86216Y133712D01*
X86185Y133614D01*
X86186Y133594D01*
X86181Y133574D01*
X86189Y133471D01*
X86192Y133368D01*
X86199Y133349D01*
X86200Y133329D01*
X86241Y133234D01*
X86276Y133137D01*
X86289Y133121D01*
X86297Y133103D01*
X86337Y133052D01*
X86337Y128961D01*
X86318Y128932D01*
X86258Y128849D01*
X86252Y128830D01*
X86241Y128813D01*
X86216Y128712D01*
X86185Y128614D01*
X86186Y128594D01*
X86181Y128574D01*
X86189Y128471D01*
X86192Y128368D01*
X86199Y128349D01*
X86200Y128329D01*
X86241Y128234D01*
X86276Y128137D01*
X86289Y128121D01*
X86297Y128103D01*
X86337Y128052D01*
X86337Y123961D01*
X86318Y123932D01*
X86258Y123849D01*
X86252Y123830D01*
X86241Y123813D01*
X86216Y123712D01*
X86185Y123614D01*
X86186Y123594D01*
X86181Y123574D01*
X86189Y123471D01*
X86192Y123368D01*
X86199Y123349D01*
X86200Y123329D01*
X86241Y123234D01*
X86276Y123137D01*
X86289Y123121D01*
X86297Y123103D01*
X86337Y123052D01*
X86337Y118965D01*
X86333Y118961D01*
X86323Y118941D01*
X86318Y118932D01*
X86258Y118849D01*
X86252Y118830D01*
X86241Y118813D01*
X86216Y118712D01*
X86185Y118614D01*
X86186Y118594D01*
X86181Y118574D01*
X86189Y118471D01*
X86192Y118368D01*
X86199Y118349D01*
X86200Y118329D01*
X86241Y118234D01*
X86276Y118137D01*
X86289Y118121D01*
X86297Y118103D01*
X86337Y118052D01*
X86337Y115292D01*
X86340Y115272D01*
X86338Y115253D01*
X86360Y115151D01*
X86376Y115049D01*
X86386Y115032D01*
X86390Y115012D01*
X86443Y114923D01*
X86492Y114832D01*
X86506Y114818D01*
X86516Y114801D01*
X86595Y114734D01*
X86670Y114662D01*
X86688Y114654D01*
X86703Y114641D01*
X86799Y114602D01*
X86893Y114559D01*
X86913Y114557D01*
X86931Y114549D01*
X87098Y114531D01*
X89865Y114531D01*
X89894Y114512D01*
X89977Y114452D01*
X89996Y114446D01*
X90013Y114435D01*
X90114Y114410D01*
X90212Y114379D01*
X90232Y114380D01*
X90252Y114375D01*
X90355Y114383D01*
X90458Y114386D01*
X90477Y114393D01*
X90497Y114394D01*
X90592Y114435D01*
X90689Y114470D01*
X90705Y114483D01*
X90723Y114491D01*
X90774Y114531D01*
X94865Y114531D01*
X94894Y114512D01*
X94977Y114452D01*
X94996Y114446D01*
X95013Y114435D01*
X95114Y114410D01*
X95212Y114379D01*
X95232Y114380D01*
X95252Y114375D01*
X95355Y114383D01*
X95458Y114386D01*
X95477Y114393D01*
X95497Y114394D01*
X95592Y114435D01*
X95689Y114470D01*
X95705Y114483D01*
X95723Y114491D01*
X95774Y114531D01*
X99865Y114531D01*
X99894Y114512D01*
X99977Y114452D01*
X99996Y114446D01*
X100013Y114435D01*
X100114Y114410D01*
X100212Y114379D01*
X100232Y114380D01*
X100252Y114375D01*
X100355Y114383D01*
X100458Y114386D01*
X100477Y114393D01*
X100497Y114394D01*
X100592Y114435D01*
X100689Y114470D01*
X100705Y114483D01*
X100723Y114491D01*
X100774Y114531D01*
X104865Y114531D01*
X104894Y114512D01*
X104977Y114452D01*
X104996Y114446D01*
X105013Y114435D01*
X105114Y114410D01*
X105212Y114379D01*
X105232Y114380D01*
X105252Y114375D01*
X105355Y114383D01*
X105458Y114386D01*
X105477Y114393D01*
X105497Y114394D01*
X105592Y114435D01*
X105689Y114470D01*
X105705Y114483D01*
X105723Y114491D01*
X105774Y114531D01*
X109865Y114531D01*
X109894Y114512D01*
X109977Y114452D01*
X109996Y114446D01*
X110013Y114435D01*
X110114Y114410D01*
X110212Y114379D01*
X110232Y114380D01*
X110252Y114375D01*
X110355Y114383D01*
X110458Y114386D01*
X110477Y114393D01*
X110497Y114394D01*
X110592Y114435D01*
X110689Y114470D01*
X110705Y114483D01*
X110723Y114491D01*
X110774Y114531D01*
X114865Y114531D01*
X114894Y114512D01*
X114977Y114452D01*
X114996Y114446D01*
X115013Y114435D01*
X115114Y114410D01*
X115212Y114379D01*
X115232Y114380D01*
X115252Y114375D01*
X115355Y114383D01*
X115458Y114386D01*
X115477Y114393D01*
X115497Y114394D01*
X115592Y114435D01*
X115689Y114470D01*
X115705Y114483D01*
X115723Y114491D01*
X115774Y114531D01*
X119865Y114531D01*
X119894Y114512D01*
X119977Y114452D01*
X119996Y114446D01*
X120013Y114435D01*
X120114Y114410D01*
X120212Y114379D01*
X120232Y114380D01*
X120252Y114375D01*
X120355Y114383D01*
X120458Y114386D01*
X120477Y114393D01*
X120497Y114394D01*
X120592Y114435D01*
X120689Y114470D01*
X120705Y114483D01*
X120723Y114491D01*
X120774Y114531D01*
X124865Y114531D01*
X124894Y114512D01*
X124977Y114452D01*
X124996Y114446D01*
X125013Y114435D01*
X125114Y114410D01*
X125212Y114379D01*
X125232Y114380D01*
X125252Y114375D01*
X125355Y114383D01*
X125458Y114386D01*
X125477Y114393D01*
X125497Y114394D01*
X125592Y114435D01*
X125689Y114470D01*
X125705Y114483D01*
X125723Y114491D01*
X125774Y114531D01*
X129865Y114531D01*
X129894Y114512D01*
X129977Y114452D01*
X129996Y114446D01*
X130013Y114435D01*
X130114Y114410D01*
X130212Y114379D01*
X130232Y114380D01*
X130252Y114375D01*
X130355Y114383D01*
X130458Y114386D01*
X130477Y114393D01*
X130497Y114394D01*
X130592Y114435D01*
X130689Y114470D01*
X130705Y114483D01*
X130723Y114491D01*
X130774Y114531D01*
X134865Y114531D01*
X134894Y114512D01*
X134977Y114452D01*
X134996Y114446D01*
X135013Y114435D01*
X135114Y114410D01*
X135212Y114379D01*
X135232Y114380D01*
X135252Y114375D01*
X135355Y114383D01*
X135458Y114386D01*
X135477Y114393D01*
X135497Y114394D01*
X135592Y114435D01*
X135689Y114470D01*
X135705Y114483D01*
X135723Y114491D01*
X135774Y114531D01*
X139865Y114531D01*
X139894Y114512D01*
X139977Y114452D01*
X139996Y114446D01*
X140013Y114435D01*
X140114Y114410D01*
X140212Y114379D01*
X140232Y114380D01*
X140252Y114375D01*
X140355Y114383D01*
G37*
G36*
X290566Y92794D02*
X290566Y92794D01*
X290565Y92795D01*
X290566Y92796D01*
X290566Y142796D01*
X290556Y142808D01*
X290555Y142807D01*
X290554Y142808D01*
X264166Y142808D01*
X264166Y162784D01*
X290554Y162784D01*
X290566Y162794D01*
X290565Y162795D01*
X290566Y162796D01*
X290566Y189796D01*
X290556Y189808D01*
X290555Y189807D01*
X290554Y189808D01*
X264166Y189808D01*
X264166Y209784D01*
X290554Y209784D01*
X290566Y209794D01*
X290565Y209795D01*
X290566Y209796D01*
X290566Y236796D01*
X290556Y236808D01*
X290555Y236807D01*
X290554Y236808D01*
X246154Y236808D01*
X246142Y236797D01*
X246143Y236797D01*
X246142Y236796D01*
X246142Y231796D01*
X246153Y231784D01*
X246153Y231785D01*
X246154Y231784D01*
X285542Y231784D01*
X285542Y214808D01*
X259154Y214808D01*
X259142Y214797D01*
X259143Y214797D01*
X259142Y214796D01*
X259142Y184796D01*
X259153Y184784D01*
X259153Y184785D01*
X259154Y184784D01*
X285542Y184784D01*
X285542Y167808D01*
X259154Y167808D01*
X259142Y167797D01*
X259143Y167797D01*
X259142Y167796D01*
X259142Y137796D01*
X259153Y137784D01*
X259153Y137785D01*
X259154Y137784D01*
X285542Y137784D01*
X285542Y120808D01*
X236554Y120808D01*
X236542Y120797D01*
X236543Y120797D01*
X236542Y120796D01*
X236542Y115796D01*
X236553Y115784D01*
X236553Y115785D01*
X236554Y115784D01*
X285542Y115784D01*
X285542Y101808D01*
X236554Y101808D01*
X236542Y101797D01*
X236543Y101797D01*
X236542Y101796D01*
X236542Y92796D01*
X236553Y92784D01*
X236553Y92785D01*
X236554Y92784D01*
X290554Y92784D01*
X290566Y92794D01*
G37*
%LPC*%
G36*
X43389Y200405D02*
X43389Y200405D01*
X41428Y201217D01*
X39927Y202718D01*
X39115Y204679D01*
X39115Y216535D01*
X39927Y218496D01*
X54432Y233000D01*
X54485Y233074D01*
X54544Y233143D01*
X54556Y233174D01*
X54575Y233200D01*
X54602Y233287D01*
X54636Y233372D01*
X54641Y233413D01*
X54647Y233435D01*
X54647Y233467D01*
X54655Y233538D01*
X54655Y251334D01*
X55399Y252078D01*
X80132Y252078D01*
X80876Y251334D01*
X80876Y244885D01*
X80878Y244872D01*
X80877Y244861D01*
X80878Y244856D01*
X80877Y244846D01*
X80899Y244745D01*
X80916Y244643D01*
X80925Y244625D01*
X80929Y244606D01*
X80983Y244516D01*
X81031Y244425D01*
X81045Y244412D01*
X81055Y244394D01*
X81134Y244327D01*
X81209Y244256D01*
X81227Y244247D01*
X81242Y244234D01*
X81339Y244196D01*
X81432Y244152D01*
X81452Y244150D01*
X81471Y244143D01*
X81637Y244124D01*
X87674Y244124D01*
X87764Y244139D01*
X87855Y244146D01*
X87885Y244159D01*
X87917Y244164D01*
X87998Y244207D01*
X88082Y244242D01*
X88114Y244268D01*
X88134Y244279D01*
X88148Y244293D01*
X88149Y244294D01*
X88160Y244305D01*
X88213Y244347D01*
X116358Y272493D01*
X118319Y273305D01*
X149838Y273305D01*
X149858Y273308D01*
X149877Y273306D01*
X149979Y273328D01*
X150081Y273344D01*
X150098Y273354D01*
X150118Y273358D01*
X150207Y273411D01*
X150298Y273460D01*
X150312Y273474D01*
X150329Y273484D01*
X150396Y273563D01*
X150468Y273638D01*
X150476Y273656D01*
X150489Y273671D01*
X150528Y273767D01*
X150571Y273861D01*
X150573Y273881D01*
X150581Y273899D01*
X150599Y274066D01*
X150599Y275066D01*
X151344Y275811D01*
X162396Y275811D01*
X163141Y275066D01*
X163141Y260014D01*
X162396Y259269D01*
X151344Y259269D01*
X150599Y260014D01*
X150599Y261874D01*
X150596Y261894D01*
X150598Y261913D01*
X150576Y262015D01*
X150560Y262117D01*
X150550Y262134D01*
X150546Y262154D01*
X150493Y262243D01*
X150444Y262334D01*
X150430Y262348D01*
X150420Y262365D01*
X150341Y262432D01*
X150266Y262504D01*
X150248Y262512D01*
X150233Y262525D01*
X150137Y262564D01*
X150043Y262607D01*
X150023Y262609D01*
X150005Y262617D01*
X149838Y262635D01*
X121905Y262635D01*
X121815Y262621D01*
X121724Y262613D01*
X121694Y262601D01*
X121662Y262596D01*
X121582Y262553D01*
X121498Y262517D01*
X121466Y262491D01*
X121445Y262480D01*
X121423Y262457D01*
X121367Y262412D01*
X93221Y234267D01*
X91260Y233455D01*
X81637Y233455D01*
X81618Y233451D01*
X81598Y233454D01*
X81497Y233432D01*
X81395Y233415D01*
X81377Y233406D01*
X81357Y233401D01*
X81268Y233348D01*
X81177Y233300D01*
X81163Y233285D01*
X81146Y233275D01*
X81079Y233196D01*
X81008Y233121D01*
X80999Y233103D01*
X80986Y233088D01*
X80948Y232992D01*
X80904Y232898D01*
X80902Y232879D01*
X80894Y232860D01*
X80876Y232693D01*
X80876Y226245D01*
X80132Y225501D01*
X62336Y225501D01*
X62246Y225486D01*
X62155Y225479D01*
X62126Y225466D01*
X62094Y225461D01*
X62013Y225418D01*
X61929Y225382D01*
X61897Y225357D01*
X61876Y225346D01*
X61854Y225322D01*
X61798Y225278D01*
X50008Y213487D01*
X49955Y213413D01*
X49895Y213344D01*
X49883Y213314D01*
X49864Y213288D01*
X49837Y213201D01*
X49803Y213116D01*
X49799Y213075D01*
X49792Y213052D01*
X49793Y213020D01*
X49785Y212949D01*
X49785Y204679D01*
X48973Y202718D01*
X47472Y201217D01*
X45511Y200405D01*
X43389Y200405D01*
G37*
%LPD*%
%LPC*%
G36*
X164807Y216337D02*
X164807Y216337D01*
X163246Y217774D01*
X162354Y219700D01*
X162266Y221820D01*
X162997Y223813D01*
X177357Y239411D01*
X177402Y239479D01*
X177454Y239542D01*
X177469Y239581D01*
X177492Y239616D01*
X177513Y239695D01*
X177542Y239772D01*
X177544Y239813D01*
X177554Y239854D01*
X177549Y239936D01*
X177552Y240017D01*
X177541Y240058D01*
X177538Y240099D01*
X177507Y240175D01*
X177484Y240254D01*
X177460Y240288D01*
X177444Y240327D01*
X177390Y240388D01*
X177344Y240456D01*
X177310Y240481D01*
X177282Y240512D01*
X177212Y240554D01*
X177146Y240602D01*
X177106Y240615D01*
X177070Y240637D01*
X176990Y240653D01*
X176912Y240679D01*
X176870Y240678D01*
X176829Y240687D01*
X176748Y240677D01*
X176666Y240676D01*
X176613Y240661D01*
X176585Y240657D01*
X176559Y240645D01*
X176505Y240629D01*
X175481Y240205D01*
X173402Y240205D01*
X173382Y240202D01*
X173363Y240204D01*
X173261Y240182D01*
X173159Y240166D01*
X173142Y240156D01*
X173122Y240152D01*
X173033Y240099D01*
X172942Y240050D01*
X172928Y240036D01*
X172911Y240026D01*
X172844Y239947D01*
X172772Y239872D01*
X172764Y239854D01*
X172751Y239839D01*
X172712Y239743D01*
X172669Y239649D01*
X172667Y239629D01*
X172659Y239611D01*
X172641Y239444D01*
X172641Y238014D01*
X171896Y237269D01*
X160844Y237269D01*
X160099Y238014D01*
X160099Y253066D01*
X160844Y253811D01*
X171896Y253811D01*
X172653Y253054D01*
X172654Y253001D01*
X172672Y252952D01*
X172680Y252900D01*
X172714Y252837D01*
X172739Y252770D01*
X172771Y252729D01*
X172796Y252683D01*
X172848Y252634D01*
X172892Y252578D01*
X172936Y252549D01*
X172974Y252513D01*
X173039Y252483D01*
X173099Y252445D01*
X173150Y252432D01*
X173197Y252410D01*
X173268Y252402D01*
X173338Y252384D01*
X173390Y252389D01*
X173441Y252383D01*
X173512Y252398D01*
X173583Y252404D01*
X173631Y252424D01*
X173682Y252435D01*
X173743Y252472D01*
X173809Y252500D01*
X173865Y252545D01*
X173893Y252561D01*
X173908Y252579D01*
X173940Y252605D01*
X184666Y263331D01*
X184719Y263405D01*
X184779Y263474D01*
X184791Y263504D01*
X184810Y263531D01*
X184837Y263617D01*
X184871Y263702D01*
X184875Y263743D01*
X184882Y263766D01*
X184881Y263798D01*
X184889Y263869D01*
X184889Y275066D01*
X185634Y275811D01*
X196686Y275811D01*
X197431Y275066D01*
X197431Y260014D01*
X196686Y259269D01*
X196009Y259269D01*
X195919Y259255D01*
X195828Y259247D01*
X195798Y259235D01*
X195766Y259230D01*
X195686Y259187D01*
X195602Y259151D01*
X195570Y259125D01*
X195549Y259114D01*
X195527Y259091D01*
X195471Y259046D01*
X194685Y258260D01*
X188599Y252174D01*
X188557Y252116D01*
X188507Y252064D01*
X188486Y252017D01*
X188455Y251975D01*
X188434Y251906D01*
X188404Y251841D01*
X188398Y251789D01*
X188383Y251739D01*
X188385Y251668D01*
X188377Y251597D01*
X188388Y251546D01*
X188389Y251494D01*
X188414Y251426D01*
X188429Y251356D01*
X188456Y251311D01*
X188474Y251263D01*
X188518Y251207D01*
X188555Y251145D01*
X188595Y251111D01*
X188627Y251071D01*
X188688Y251032D01*
X188742Y250985D01*
X188790Y250966D01*
X188834Y250938D01*
X188904Y250920D01*
X188970Y250893D01*
X189042Y250885D01*
X189073Y250877D01*
X189096Y250879D01*
X189137Y250875D01*
X190125Y250875D01*
X190137Y250877D01*
X190156Y250875D01*
X191106Y250915D01*
X191120Y250912D01*
X191166Y250893D01*
X191288Y250880D01*
X191313Y250875D01*
X191321Y250876D01*
X191333Y250875D01*
X193628Y250875D01*
X193648Y250878D01*
X193667Y250876D01*
X193769Y250898D01*
X193871Y250914D01*
X193888Y250924D01*
X193908Y250928D01*
X193997Y250981D01*
X194088Y251030D01*
X194102Y251044D01*
X194119Y251054D01*
X194186Y251133D01*
X194258Y251208D01*
X194266Y251226D01*
X194279Y251241D01*
X194318Y251337D01*
X194361Y251431D01*
X194363Y251451D01*
X194371Y251469D01*
X194389Y251636D01*
X194389Y253066D01*
X195134Y253811D01*
X206186Y253811D01*
X206931Y253066D01*
X206931Y238014D01*
X206186Y237269D01*
X195134Y237269D01*
X194389Y238014D01*
X194389Y239444D01*
X194386Y239464D01*
X194388Y239483D01*
X194366Y239585D01*
X194350Y239687D01*
X194340Y239704D01*
X194336Y239724D01*
X194283Y239813D01*
X194234Y239904D01*
X194220Y239918D01*
X194210Y239935D01*
X194131Y240002D01*
X194056Y240074D01*
X194038Y240082D01*
X194023Y240095D01*
X193927Y240134D01*
X193833Y240177D01*
X193813Y240179D01*
X193795Y240187D01*
X193628Y240205D01*
X192925Y240205D01*
X192819Y240188D01*
X192713Y240175D01*
X192698Y240168D01*
X192682Y240166D01*
X192588Y240116D01*
X192491Y240070D01*
X192476Y240056D01*
X192464Y240050D01*
X192443Y240028D01*
X192365Y239960D01*
X170846Y216586D01*
X168920Y215694D01*
X166800Y215606D01*
X164807Y216337D01*
G37*
%LPD*%
%LPC*%
G36*
X38658Y124471D02*
X38658Y124471D01*
X36449Y126680D01*
X36449Y136779D01*
X36446Y136799D01*
X36448Y136818D01*
X36426Y136920D01*
X36410Y137022D01*
X36400Y137039D01*
X36396Y137059D01*
X36343Y137148D01*
X36294Y137239D01*
X36280Y137253D01*
X36270Y137270D01*
X36191Y137337D01*
X36116Y137409D01*
X36098Y137417D01*
X36083Y137430D01*
X35987Y137469D01*
X35893Y137512D01*
X35873Y137514D01*
X35855Y137522D01*
X35688Y137540D01*
X30435Y137540D01*
X28474Y138352D01*
X26973Y139853D01*
X26161Y141814D01*
X26161Y143936D01*
X26973Y145897D01*
X28474Y147398D01*
X30435Y148210D01*
X35561Y148210D01*
X35581Y148213D01*
X35600Y148211D01*
X35702Y148233D01*
X35804Y148249D01*
X35821Y148259D01*
X35841Y148263D01*
X35930Y148316D01*
X36021Y148365D01*
X36035Y148379D01*
X36052Y148389D01*
X36119Y148468D01*
X36191Y148543D01*
X36199Y148561D01*
X36212Y148576D01*
X36251Y148672D01*
X36294Y148766D01*
X36296Y148786D01*
X36304Y148804D01*
X36322Y148971D01*
X36322Y159070D01*
X38531Y161279D01*
X46655Y161279D01*
X48864Y159070D01*
X48864Y146746D01*
X48278Y146160D01*
X48225Y146086D01*
X48165Y146017D01*
X48153Y145987D01*
X48134Y145960D01*
X48107Y145873D01*
X48073Y145789D01*
X48069Y145748D01*
X48062Y145725D01*
X48063Y145693D01*
X48055Y145622D01*
X48055Y140255D01*
X48069Y140165D01*
X48077Y140074D01*
X48089Y140044D01*
X48094Y140012D01*
X48137Y139932D01*
X48173Y139848D01*
X48199Y139816D01*
X48210Y139795D01*
X48233Y139773D01*
X48278Y139717D01*
X48991Y139004D01*
X48991Y126680D01*
X46782Y124471D01*
X38658Y124471D01*
G37*
%LPD*%
%LPC*%
G36*
X56710Y169459D02*
X56710Y169459D01*
X55269Y170900D01*
X55195Y170953D01*
X55125Y171013D01*
X55095Y171025D01*
X55069Y171044D01*
X54982Y171071D01*
X54897Y171105D01*
X54856Y171109D01*
X54834Y171116D01*
X54802Y171115D01*
X54730Y171123D01*
X47415Y171123D01*
X47325Y171109D01*
X47234Y171101D01*
X47204Y171089D01*
X47172Y171084D01*
X47091Y171041D01*
X47007Y171005D01*
X46975Y170979D01*
X46955Y170968D01*
X46932Y170945D01*
X46928Y170941D01*
X37284Y170941D01*
X35051Y173174D01*
X35051Y176330D01*
X37284Y178563D01*
X41529Y178563D01*
X41549Y178566D01*
X41568Y178564D01*
X41670Y178586D01*
X41772Y178602D01*
X41789Y178612D01*
X41809Y178616D01*
X41898Y178669D01*
X41989Y178718D01*
X42003Y178732D01*
X42020Y178742D01*
X42087Y178821D01*
X42159Y178896D01*
X42167Y178914D01*
X42180Y178929D01*
X42219Y179025D01*
X42262Y179119D01*
X42264Y179139D01*
X42272Y179157D01*
X42290Y179324D01*
X42290Y180739D01*
X42287Y180759D01*
X42289Y180778D01*
X42267Y180880D01*
X42251Y180982D01*
X42241Y180999D01*
X42237Y181019D01*
X42184Y181108D01*
X42135Y181199D01*
X42121Y181213D01*
X42111Y181230D01*
X42032Y181297D01*
X41957Y181369D01*
X41939Y181377D01*
X41924Y181390D01*
X41828Y181429D01*
X41734Y181472D01*
X41714Y181474D01*
X41696Y181482D01*
X41529Y181500D01*
X39501Y181500D01*
X39411Y181486D01*
X39320Y181478D01*
X39290Y181466D01*
X39258Y181461D01*
X39178Y181418D01*
X39094Y181382D01*
X39062Y181356D01*
X39041Y181345D01*
X39019Y181322D01*
X38963Y181277D01*
X38518Y180832D01*
X32965Y180832D01*
X32929Y180847D01*
X32888Y180851D01*
X32866Y180858D01*
X32833Y180857D01*
X32762Y180865D01*
X27360Y180865D01*
X24891Y183334D01*
X24891Y186490D01*
X27124Y188723D01*
X30280Y188723D01*
X30294Y188710D01*
X30367Y188657D01*
X30437Y188597D01*
X30467Y188585D01*
X30493Y188566D01*
X30580Y188539D01*
X30665Y188505D01*
X30706Y188501D01*
X30728Y188494D01*
X30761Y188495D01*
X30832Y188487D01*
X32508Y188487D01*
X32598Y188501D01*
X32689Y188509D01*
X32719Y188521D01*
X32751Y188526D01*
X32831Y188569D01*
X32915Y188605D01*
X32947Y188631D01*
X32968Y188642D01*
X32990Y188665D01*
X33046Y188710D01*
X33110Y188774D01*
X38518Y188774D01*
X38963Y188329D01*
X39037Y188276D01*
X39106Y188216D01*
X39137Y188204D01*
X39163Y188185D01*
X39250Y188158D01*
X39335Y188124D01*
X39375Y188120D01*
X39398Y188113D01*
X39430Y188114D01*
X39501Y188106D01*
X42414Y188106D01*
X42504Y188120D01*
X42595Y188128D01*
X42625Y188140D01*
X42657Y188145D01*
X42737Y188188D01*
X42821Y188224D01*
X42853Y188250D01*
X42874Y188261D01*
X42896Y188284D01*
X42952Y188329D01*
X43397Y188774D01*
X48805Y188774D01*
X50372Y187207D01*
X50372Y182399D01*
X50135Y182162D01*
X50081Y182088D01*
X50022Y182019D01*
X50010Y181989D01*
X49991Y181962D01*
X49964Y181875D01*
X49930Y181791D01*
X49926Y181750D01*
X49919Y181727D01*
X49920Y181695D01*
X49912Y181624D01*
X49912Y179506D01*
X49915Y179486D01*
X49913Y179467D01*
X49935Y179365D01*
X49951Y179263D01*
X49961Y179246D01*
X49965Y179226D01*
X50018Y179137D01*
X50067Y179046D01*
X50081Y179032D01*
X50091Y179015D01*
X50170Y178948D01*
X50245Y178876D01*
X50263Y178868D01*
X50278Y178855D01*
X50374Y178816D01*
X50468Y178773D01*
X50488Y178771D01*
X50506Y178763D01*
X50673Y178745D01*
X55238Y178745D01*
X55328Y178759D01*
X55419Y178767D01*
X55449Y178779D01*
X55481Y178784D01*
X55562Y178827D01*
X55646Y178863D01*
X55678Y178889D01*
X55699Y178900D01*
X55721Y178923D01*
X55777Y178968D01*
X56710Y179901D01*
X64702Y179901D01*
X66627Y177976D01*
X66627Y171384D01*
X64702Y169459D01*
X56710Y169459D01*
G37*
%LPD*%
G36*
X103845Y93215D02*
X103845Y93215D01*
X103936Y93223D01*
X103966Y93235D01*
X103998Y93240D01*
X104078Y93283D01*
X104162Y93319D01*
X104194Y93345D01*
X104215Y93356D01*
X104220Y93361D01*
X107333Y93361D01*
X107423Y93375D01*
X107514Y93383D01*
X107544Y93395D01*
X107576Y93400D01*
X107657Y93443D01*
X107741Y93479D01*
X107773Y93505D01*
X107793Y93516D01*
X107816Y93539D01*
X107871Y93584D01*
X111966Y97679D01*
X115001Y97679D01*
X115091Y97693D01*
X115182Y97701D01*
X115212Y97713D01*
X115244Y97718D01*
X115324Y97761D01*
X115408Y97797D01*
X115440Y97823D01*
X115461Y97834D01*
X115483Y97857D01*
X115539Y97902D01*
X119798Y102161D01*
X119851Y102235D01*
X119911Y102304D01*
X119923Y102334D01*
X119942Y102360D01*
X119969Y102447D01*
X120003Y102532D01*
X120007Y102573D01*
X120014Y102595D01*
X120013Y102628D01*
X120021Y102699D01*
X120021Y102728D01*
X120018Y102748D01*
X120020Y102767D01*
X120008Y102822D01*
X120008Y102841D01*
X119999Y102866D01*
X119998Y102868D01*
X119982Y102971D01*
X119972Y102988D01*
X119968Y103008D01*
X119915Y103097D01*
X119866Y103188D01*
X119852Y103202D01*
X119842Y103219D01*
X119763Y103286D01*
X119688Y103358D01*
X119670Y103366D01*
X119655Y103379D01*
X119559Y103418D01*
X119465Y103461D01*
X119445Y103463D01*
X119427Y103471D01*
X119260Y103489D01*
X115767Y103489D01*
X115738Y103508D01*
X115655Y103568D01*
X115636Y103574D01*
X115619Y103585D01*
X115518Y103610D01*
X115419Y103641D01*
X115399Y103640D01*
X115380Y103645D01*
X115277Y103637D01*
X115174Y103634D01*
X115155Y103627D01*
X115135Y103626D01*
X115040Y103585D01*
X114943Y103550D01*
X114927Y103537D01*
X114909Y103529D01*
X114858Y103489D01*
X110767Y103489D01*
X110738Y103508D01*
X110655Y103568D01*
X110636Y103574D01*
X110619Y103585D01*
X110518Y103610D01*
X110419Y103641D01*
X110399Y103640D01*
X110380Y103645D01*
X110277Y103637D01*
X110174Y103634D01*
X110155Y103627D01*
X110135Y103626D01*
X110040Y103585D01*
X109943Y103550D01*
X109927Y103537D01*
X109909Y103529D01*
X109858Y103489D01*
X105767Y103489D01*
X105738Y103508D01*
X105655Y103568D01*
X105636Y103574D01*
X105619Y103585D01*
X105518Y103610D01*
X105419Y103641D01*
X105399Y103640D01*
X105380Y103645D01*
X105277Y103637D01*
X105174Y103634D01*
X105155Y103627D01*
X105135Y103626D01*
X105040Y103585D01*
X104943Y103550D01*
X104927Y103537D01*
X104909Y103529D01*
X104858Y103489D01*
X100767Y103489D01*
X100738Y103508D01*
X100655Y103568D01*
X100636Y103574D01*
X100619Y103585D01*
X100518Y103610D01*
X100419Y103641D01*
X100399Y103640D01*
X100380Y103645D01*
X100277Y103637D01*
X100174Y103634D01*
X100155Y103627D01*
X100135Y103626D01*
X100040Y103585D01*
X99943Y103550D01*
X99927Y103537D01*
X99909Y103529D01*
X99858Y103489D01*
X95767Y103489D01*
X95738Y103508D01*
X95655Y103568D01*
X95636Y103574D01*
X95619Y103585D01*
X95518Y103610D01*
X95419Y103641D01*
X95399Y103640D01*
X95380Y103645D01*
X95277Y103637D01*
X95174Y103634D01*
X95155Y103627D01*
X95135Y103626D01*
X95040Y103585D01*
X94943Y103550D01*
X94927Y103537D01*
X94909Y103529D01*
X94858Y103489D01*
X90767Y103489D01*
X90738Y103508D01*
X90655Y103568D01*
X90636Y103574D01*
X90619Y103585D01*
X90518Y103610D01*
X90419Y103641D01*
X90399Y103640D01*
X90380Y103645D01*
X90277Y103637D01*
X90174Y103634D01*
X90155Y103627D01*
X90135Y103626D01*
X90040Y103585D01*
X89943Y103550D01*
X89927Y103537D01*
X89909Y103529D01*
X89858Y103489D01*
X85790Y103489D01*
X85045Y104234D01*
X85045Y106471D01*
X85031Y106561D01*
X85023Y106652D01*
X85011Y106681D01*
X85006Y106713D01*
X84963Y106794D01*
X84927Y106878D01*
X84901Y106910D01*
X84890Y106931D01*
X84867Y106953D01*
X84822Y107009D01*
X84723Y107108D01*
X84723Y108792D01*
X84822Y108891D01*
X84869Y108956D01*
X84882Y108969D01*
X84885Y108976D01*
X84935Y109034D01*
X84947Y109065D01*
X84966Y109091D01*
X84993Y109178D01*
X85027Y109263D01*
X85031Y109304D01*
X85038Y109326D01*
X85037Y109358D01*
X85045Y109429D01*
X85045Y112478D01*
X85042Y112498D01*
X85044Y112517D01*
X85022Y112619D01*
X85006Y112721D01*
X84996Y112738D01*
X84992Y112758D01*
X84939Y112847D01*
X84890Y112938D01*
X84876Y112952D01*
X84866Y112969D01*
X84787Y113036D01*
X84712Y113108D01*
X84694Y113116D01*
X84679Y113129D01*
X84583Y113168D01*
X84489Y113211D01*
X84469Y113213D01*
X84451Y113221D01*
X84284Y113239D01*
X76111Y113239D01*
X76091Y113236D01*
X76072Y113238D01*
X75970Y113216D01*
X75868Y113200D01*
X75851Y113190D01*
X75831Y113186D01*
X75742Y113133D01*
X75651Y113084D01*
X75637Y113070D01*
X75620Y113060D01*
X75553Y112981D01*
X75481Y112906D01*
X75473Y112888D01*
X75460Y112873D01*
X75421Y112777D01*
X75378Y112683D01*
X75376Y112663D01*
X75368Y112645D01*
X75350Y112478D01*
X75350Y108942D01*
X75364Y108852D01*
X75372Y108761D01*
X75384Y108732D01*
X75389Y108700D01*
X75432Y108619D01*
X75468Y108535D01*
X75494Y108503D01*
X75505Y108482D01*
X75528Y108460D01*
X75573Y108404D01*
X82570Y101407D01*
X82644Y101354D01*
X82713Y101294D01*
X82744Y101282D01*
X82770Y101263D01*
X82857Y101236D01*
X82942Y101202D01*
X82983Y101198D01*
X83005Y101191D01*
X83037Y101192D01*
X83108Y101184D01*
X85151Y101184D01*
X87214Y99121D01*
X87214Y96205D01*
X86747Y95738D01*
X86736Y95722D01*
X86720Y95709D01*
X86664Y95622D01*
X86604Y95538D01*
X86598Y95519D01*
X86587Y95502D01*
X86562Y95402D01*
X86531Y95303D01*
X86532Y95283D01*
X86527Y95264D01*
X86535Y95161D01*
X86538Y95057D01*
X86544Y95039D01*
X86546Y95019D01*
X86586Y94924D01*
X86622Y94826D01*
X86635Y94811D01*
X86642Y94792D01*
X86747Y94661D01*
X87854Y93555D01*
X87870Y93543D01*
X87882Y93528D01*
X87969Y93472D01*
X88053Y93411D01*
X88073Y93406D01*
X88089Y93395D01*
X88190Y93369D01*
X88289Y93339D01*
X88308Y93340D01*
X88328Y93335D01*
X88431Y93343D01*
X88534Y93345D01*
X88553Y93352D01*
X88573Y93354D01*
X88668Y93394D01*
X88765Y93430D01*
X88781Y93442D01*
X88799Y93450D01*
X88930Y93555D01*
X90641Y95266D01*
X96049Y95266D01*
X97723Y93592D01*
X97771Y93502D01*
X97785Y93488D01*
X97795Y93471D01*
X97874Y93404D01*
X97949Y93332D01*
X97967Y93324D01*
X97982Y93311D01*
X98078Y93272D01*
X98172Y93229D01*
X98192Y93227D01*
X98210Y93219D01*
X98377Y93201D01*
X103755Y93201D01*
X103845Y93215D01*
G37*
G36*
X26338Y49338D02*
X26338Y49338D01*
X26340Y49338D01*
X28459Y51838D01*
X28459Y51839D01*
X28459Y51840D01*
X28460Y51841D01*
X28460Y73341D01*
X28456Y73346D01*
X28455Y73346D01*
X13836Y73346D01*
X13831Y73342D01*
X13831Y73341D01*
X13831Y49341D01*
X13835Y49336D01*
X13836Y49336D01*
X26336Y49336D01*
X26338Y49338D01*
G37*
G36*
X166069Y170309D02*
X166069Y170309D01*
X166141Y170315D01*
X166186Y170334D01*
X166207Y170337D01*
X166213Y170340D01*
X166239Y170346D01*
X166301Y170383D01*
X166367Y170411D01*
X166408Y170443D01*
X166425Y170452D01*
X166434Y170462D01*
X166451Y170472D01*
X166466Y170490D01*
X166498Y170516D01*
X169592Y173610D01*
X178675Y173610D01*
X178765Y173624D01*
X178856Y173632D01*
X178885Y173644D01*
X178917Y173649D01*
X178998Y173692D01*
X179082Y173728D01*
X179114Y173754D01*
X179135Y173765D01*
X179157Y173788D01*
X179213Y173833D01*
X183400Y178020D01*
X183412Y178036D01*
X183427Y178048D01*
X183483Y178135D01*
X183544Y178219D01*
X183549Y178239D01*
X183560Y178255D01*
X183586Y178356D01*
X183616Y178455D01*
X183615Y178475D01*
X183620Y178494D01*
X183612Y178597D01*
X183610Y178700D01*
X183603Y178719D01*
X183601Y178739D01*
X183561Y178834D01*
X183525Y178931D01*
X183513Y178947D01*
X183505Y178965D01*
X183400Y179096D01*
X182701Y179795D01*
X182701Y185203D01*
X184048Y186550D01*
X184090Y186608D01*
X184139Y186660D01*
X184161Y186707D01*
X184192Y186749D01*
X184213Y186818D01*
X184243Y186883D01*
X184249Y186935D01*
X184264Y186985D01*
X184262Y187056D01*
X184270Y187127D01*
X184259Y187178D01*
X184258Y187230D01*
X184233Y187298D01*
X184218Y187368D01*
X184191Y187413D01*
X184173Y187461D01*
X184128Y187517D01*
X184092Y187579D01*
X184052Y187613D01*
X184019Y187653D01*
X183959Y187692D01*
X183905Y187739D01*
X183856Y187758D01*
X183813Y187786D01*
X183743Y187804D01*
X183677Y187831D01*
X183605Y187839D01*
X183574Y187847D01*
X183551Y187845D01*
X183510Y187849D01*
X180456Y187849D01*
X179553Y188752D01*
X179479Y188805D01*
X179409Y188865D01*
X179379Y188877D01*
X179353Y188896D01*
X179266Y188923D01*
X179181Y188957D01*
X179140Y188961D01*
X179118Y188968D01*
X179086Y188967D01*
X179014Y188975D01*
X167950Y188975D01*
X167860Y188961D01*
X167769Y188953D01*
X167739Y188941D01*
X167707Y188936D01*
X167626Y188893D01*
X167542Y188857D01*
X167510Y188831D01*
X167490Y188820D01*
X167467Y188797D01*
X167411Y188752D01*
X166508Y187849D01*
X163327Y187849D01*
X163256Y187838D01*
X163185Y187836D01*
X163136Y187818D01*
X163084Y187810D01*
X163021Y187776D01*
X162954Y187751D01*
X162913Y187719D01*
X162867Y187694D01*
X162818Y187642D01*
X162762Y187598D01*
X162734Y187554D01*
X162698Y187516D01*
X162667Y187451D01*
X162629Y187391D01*
X162616Y187340D01*
X162594Y187293D01*
X162586Y187222D01*
X162569Y187152D01*
X162573Y187100D01*
X162567Y187049D01*
X162582Y186978D01*
X162588Y186907D01*
X162608Y186859D01*
X162619Y186808D01*
X162656Y186747D01*
X162684Y186681D01*
X162729Y186625D01*
X162745Y186597D01*
X162763Y186582D01*
X162789Y186550D01*
X164136Y185203D01*
X164136Y179795D01*
X163056Y178715D01*
X163044Y178699D01*
X163029Y178687D01*
X162973Y178599D01*
X162912Y178516D01*
X162907Y178497D01*
X162896Y178480D01*
X162870Y178379D01*
X162840Y178281D01*
X162841Y178261D01*
X162836Y178241D01*
X162844Y178138D01*
X162846Y178035D01*
X162853Y178016D01*
X162855Y177996D01*
X162895Y177901D01*
X162931Y177804D01*
X162943Y177788D01*
X162951Y177770D01*
X163056Y177639D01*
X165198Y175496D01*
X165198Y171054D01*
X165201Y171036D01*
X165199Y171019D01*
X165210Y170969D01*
X165212Y170912D01*
X165230Y170863D01*
X165238Y170811D01*
X165249Y170790D01*
X165252Y170779D01*
X165274Y170742D01*
X165296Y170681D01*
X165329Y170640D01*
X165353Y170594D01*
X165374Y170574D01*
X165378Y170568D01*
X165405Y170544D01*
X165450Y170488D01*
X165494Y170460D01*
X165532Y170424D01*
X165562Y170410D01*
X165565Y170408D01*
X165583Y170401D01*
X165597Y170394D01*
X165657Y170355D01*
X165707Y170343D01*
X165755Y170321D01*
X165791Y170317D01*
X165793Y170316D01*
X165830Y170312D01*
X165895Y170295D01*
X165944Y170299D01*
X165960Y170298D01*
X165964Y170298D01*
X165965Y170298D01*
X165999Y170294D01*
X166069Y170309D01*
G37*
%LPC*%
G36*
X69647Y184530D02*
X69647Y184530D01*
X67711Y186466D01*
X67637Y186519D01*
X67567Y186579D01*
X67537Y186591D01*
X67511Y186610D01*
X67424Y186637D01*
X67339Y186671D01*
X67298Y186675D01*
X67276Y186682D01*
X67244Y186681D01*
X67172Y186689D01*
X65848Y186689D01*
X65758Y186675D01*
X65667Y186667D01*
X65637Y186655D01*
X65605Y186650D01*
X65524Y186607D01*
X65440Y186571D01*
X65408Y186545D01*
X65387Y186534D01*
X65365Y186511D01*
X65309Y186466D01*
X64702Y185859D01*
X56710Y185859D01*
X54785Y187784D01*
X54785Y194376D01*
X56710Y196301D01*
X64702Y196301D01*
X66264Y194739D01*
X66322Y194697D01*
X66374Y194648D01*
X66421Y194626D01*
X66463Y194596D01*
X66532Y194575D01*
X66597Y194544D01*
X66649Y194539D01*
X66699Y194523D01*
X66770Y194525D01*
X66841Y194517D01*
X66892Y194528D01*
X66944Y194530D01*
X67012Y194554D01*
X67082Y194570D01*
X67127Y194596D01*
X67175Y194614D01*
X67231Y194659D01*
X67293Y194696D01*
X67327Y194735D01*
X67367Y194768D01*
X67406Y194828D01*
X67453Y194883D01*
X67472Y194931D01*
X67500Y194975D01*
X67518Y195044D01*
X67545Y195111D01*
X67553Y195182D01*
X67561Y195213D01*
X67559Y195237D01*
X67563Y195275D01*
X69647Y197359D01*
X72593Y197359D01*
X74677Y195275D01*
X74677Y192329D01*
X73831Y191483D01*
X73819Y191467D01*
X73804Y191454D01*
X73748Y191367D01*
X73687Y191283D01*
X73681Y191264D01*
X73671Y191247D01*
X73645Y191147D01*
X73615Y191048D01*
X73615Y191028D01*
X73611Y191009D01*
X73619Y190906D01*
X73621Y190802D01*
X73628Y190783D01*
X73630Y190764D01*
X73670Y190669D01*
X73706Y190571D01*
X73718Y190555D01*
X73726Y190537D01*
X73831Y190406D01*
X74677Y189560D01*
X74677Y186614D01*
X72593Y184530D01*
X69647Y184530D01*
G37*
%LPD*%
%LPC*%
G36*
X101151Y269513D02*
X101151Y269513D01*
X99079Y271585D01*
X99079Y274515D01*
X101151Y276587D01*
X104081Y276587D01*
X106153Y274515D01*
X106153Y271585D01*
X104081Y269513D01*
X101151Y269513D01*
G37*
%LPD*%
%LPC*%
G36*
X7779Y246081D02*
X7779Y246081D01*
X5707Y248153D01*
X5707Y251083D01*
X7779Y253154D01*
X10709Y253154D01*
X12781Y251083D01*
X12781Y248153D01*
X10709Y246081D01*
X7779Y246081D01*
G37*
%LPD*%
%LPC*%
G36*
X7858Y233459D02*
X7858Y233459D01*
X5786Y235530D01*
X5786Y238460D01*
X7858Y240532D01*
X10788Y240532D01*
X12860Y238460D01*
X12860Y235530D01*
X10788Y233459D01*
X7858Y233459D01*
G37*
%LPD*%
%LPC*%
G36*
X7833Y220601D02*
X7833Y220601D01*
X5761Y222673D01*
X5761Y225603D01*
X7833Y227675D01*
X10763Y227675D01*
X12835Y225603D01*
X12835Y222673D01*
X10763Y220601D01*
X7833Y220601D01*
G37*
%LPD*%
%LPC*%
G36*
X8257Y208256D02*
X8257Y208256D01*
X6185Y210328D01*
X6185Y213258D01*
X8257Y215330D01*
X11187Y215330D01*
X13259Y213258D01*
X13259Y210328D01*
X11187Y208256D01*
X8257Y208256D01*
G37*
%LPD*%
%LPC*%
G36*
X7803Y195156D02*
X7803Y195156D01*
X5731Y197228D01*
X5731Y200158D01*
X7803Y202230D01*
X10733Y202230D01*
X12805Y200158D01*
X12805Y197228D01*
X10733Y195156D01*
X7803Y195156D01*
G37*
%LPD*%
%LPC*%
G36*
X204275Y44723D02*
X204275Y44723D01*
X202203Y46795D01*
X202203Y49725D01*
X204275Y51797D01*
X207205Y51797D01*
X209277Y49725D01*
X209277Y46795D01*
X207205Y44723D01*
X204275Y44723D01*
G37*
%LPD*%
D10*
X149816Y116010D03*
X149816Y121010D03*
X149816Y126010D03*
X149816Y131010D03*
X149816Y136010D03*
X149816Y141010D03*
X149816Y146010D03*
X149816Y151010D03*
X149816Y156010D03*
X149816Y161010D03*
X149816Y166010D03*
X149816Y171010D03*
D11*
X142816Y178010D03*
X137816Y178010D03*
X132816Y178010D03*
X127816Y178010D03*
X122816Y178010D03*
X117816Y178010D03*
X112816Y178010D03*
X107816Y178010D03*
X102816Y178010D03*
X97816Y178010D03*
X92816Y178010D03*
X87816Y178010D03*
D10*
X80816Y171010D03*
X80816Y166010D03*
X80816Y161010D03*
X80816Y156010D03*
X80816Y151010D03*
X80816Y146010D03*
X80816Y141010D03*
X80816Y136010D03*
X80816Y131010D03*
X80816Y126010D03*
X80816Y121010D03*
X80816Y116010D03*
D11*
X87816Y109010D03*
X92816Y109010D03*
X97816Y109010D03*
X102816Y109010D03*
X107816Y109010D03*
X112816Y109010D03*
X117816Y109010D03*
X122816Y109010D03*
X127816Y109010D03*
X132816Y109010D03*
X137816Y109010D03*
X142816Y109010D03*
D12*
X115316Y143510D03*
D13*
X47697Y192107D02*
X47697Y194699D01*
X47697Y192107D02*
X44505Y192107D01*
X44505Y194699D01*
X47697Y194699D01*
X44505Y186099D02*
X44505Y183507D01*
X44505Y186099D02*
X47697Y186099D01*
X47697Y183507D01*
X44505Y183507D01*
X37410Y192107D02*
X37410Y194699D01*
X37410Y192107D02*
X34218Y192107D01*
X34218Y194699D01*
X37410Y194699D01*
X34218Y186099D02*
X34218Y183507D01*
X34218Y186099D02*
X37410Y186099D01*
X37410Y183507D01*
X34218Y183507D01*
X94941Y92591D02*
X94941Y89999D01*
X91749Y89999D01*
X91749Y92591D01*
X94941Y92591D01*
X91749Y83991D02*
X91749Y81399D01*
X91749Y83991D02*
X94941Y83991D01*
X94941Y81399D01*
X91749Y81399D01*
X81970Y81272D02*
X81970Y83864D01*
X85162Y83864D01*
X85162Y81272D01*
X81970Y81272D01*
X85162Y89872D02*
X85162Y92464D01*
X85162Y89872D02*
X81970Y89872D01*
X81970Y92464D01*
X85162Y92464D01*
X79419Y193366D02*
X76827Y193366D01*
X79419Y193366D02*
X79419Y190174D01*
X76827Y190174D01*
X76827Y193366D01*
X76827Y192842D02*
X79419Y192842D01*
X85427Y190174D02*
X88019Y190174D01*
X85427Y190174D02*
X85427Y193366D01*
X88019Y193366D01*
X88019Y190174D01*
X88019Y192842D02*
X85427Y192842D01*
X176776Y184095D02*
X179368Y184095D01*
X179368Y180903D01*
X176776Y180903D01*
X176776Y184095D01*
X176776Y183571D02*
X179368Y183571D01*
X185376Y180903D02*
X187968Y180903D01*
X185376Y180903D02*
X185376Y184095D01*
X187968Y184095D01*
X187968Y180903D01*
X187968Y183571D02*
X185376Y183571D01*
X170061Y180903D02*
X167469Y180903D01*
X167469Y184095D01*
X170061Y184095D01*
X170061Y180903D01*
X170061Y183571D02*
X167469Y183571D01*
X161461Y184095D02*
X158869Y184095D01*
X161461Y184095D02*
X161461Y180903D01*
X158869Y180903D01*
X158869Y184095D01*
X158869Y183571D02*
X161461Y183571D01*
X140898Y188333D02*
X140898Y190925D01*
X144090Y190925D01*
X144090Y188333D01*
X140898Y188333D01*
X144090Y196933D02*
X144090Y199525D01*
X144090Y196933D02*
X140898Y196933D01*
X140898Y199525D01*
X144090Y199525D01*
X96194Y197275D02*
X96194Y194683D01*
X96194Y197275D02*
X99386Y197275D01*
X99386Y194683D01*
X96194Y194683D01*
X99386Y203283D02*
X99386Y205875D01*
X99386Y203283D02*
X96194Y203283D01*
X96194Y205875D01*
X99386Y205875D01*
X108530Y90686D02*
X108530Y88094D01*
X105338Y88094D01*
X105338Y90686D01*
X108530Y90686D01*
X105338Y82086D02*
X105338Y79494D01*
X105338Y82086D02*
X108530Y82086D01*
X108530Y79494D01*
X105338Y79494D01*
X75002Y89872D02*
X75002Y92464D01*
X75002Y89872D02*
X71810Y89872D01*
X71810Y92464D01*
X75002Y92464D01*
X71810Y83864D02*
X71810Y81272D01*
X71810Y83864D02*
X75002Y83864D01*
X75002Y81272D01*
X71810Y81272D01*
D14*
X63666Y104620D02*
X58666Y104620D01*
X58666Y113820D01*
X63666Y113820D01*
X63666Y104620D01*
X63666Y109370D02*
X58666Y109370D01*
X44966Y113820D02*
X39966Y113820D01*
X44966Y113820D02*
X44966Y104620D01*
X39966Y104620D01*
X39966Y113820D01*
X39966Y109370D02*
X44966Y109370D01*
X45093Y157508D02*
X40093Y157508D01*
X45093Y157508D02*
X45093Y148308D01*
X40093Y148308D01*
X40093Y157508D01*
X40093Y153058D02*
X45093Y153058D01*
X58793Y148308D02*
X63793Y148308D01*
X58793Y148308D02*
X58793Y157508D01*
X63793Y157508D01*
X63793Y148308D01*
X63793Y153058D02*
X58793Y153058D01*
D13*
X118182Y90686D02*
X118182Y88094D01*
X114990Y88094D01*
X114990Y90686D01*
X118182Y90686D01*
X114990Y82086D02*
X114990Y79494D01*
X114990Y82086D02*
X118182Y82086D01*
X118182Y79494D01*
X114990Y79494D01*
X155774Y98254D02*
X155774Y100846D01*
X155774Y98254D02*
X152582Y98254D01*
X152582Y100846D01*
X155774Y100846D01*
X152582Y92246D02*
X152582Y89654D01*
X152582Y92246D02*
X155774Y92246D01*
X155774Y89654D01*
X152582Y89654D01*
D15*
X58070Y172744D02*
X58070Y176616D01*
X63342Y176616D01*
X63342Y172744D01*
X58070Y172744D01*
X58070Y176572D02*
X63342Y176572D01*
X63342Y189144D02*
X63342Y193016D01*
X63342Y189144D02*
X58070Y189144D01*
X58070Y193016D01*
X63342Y193016D01*
X63342Y192972D02*
X58070Y192972D01*
D14*
X58920Y128242D02*
X63920Y128242D01*
X58920Y128242D02*
X58920Y137442D01*
X63920Y137442D01*
X63920Y128242D01*
X63920Y132992D02*
X58920Y132992D01*
X45220Y137442D02*
X40220Y137442D01*
X45220Y137442D02*
X45220Y128242D01*
X40220Y128242D01*
X40220Y137442D01*
X40220Y132992D02*
X45220Y132992D01*
D16*
X185982Y198120D03*
X160982Y198120D03*
D17*
X142381Y74275D03*
X142381Y88775D03*
X130881Y88775D03*
X130881Y74275D03*
D18*
X166859Y121947D02*
X169559Y121947D01*
X166859Y121947D02*
X166859Y125247D01*
X169559Y125247D01*
X169559Y121947D01*
X169559Y124512D02*
X166859Y124512D01*
X175499Y121947D02*
X178199Y121947D01*
X175499Y121947D02*
X175499Y125247D01*
X178199Y125247D01*
X178199Y121947D01*
X178199Y124512D02*
X175499Y124512D01*
X169607Y132208D02*
X166907Y132208D01*
X166907Y135508D01*
X169607Y135508D01*
X169607Y132208D01*
X169607Y134773D02*
X166907Y134773D01*
X175547Y132208D02*
X178247Y132208D01*
X175547Y132208D02*
X175547Y135508D01*
X178247Y135508D01*
X178247Y132208D01*
X178247Y134773D02*
X175547Y134773D01*
X175805Y94152D02*
X178505Y94152D01*
X178505Y90852D01*
X175805Y90852D01*
X175805Y94152D01*
X175805Y93417D02*
X178505Y93417D01*
X169865Y94152D02*
X167165Y94152D01*
X169865Y94152D02*
X169865Y90852D01*
X167165Y90852D01*
X167165Y94152D01*
X167165Y93417D02*
X169865Y93417D01*
X169638Y111627D02*
X166938Y111627D01*
X166938Y114927D01*
X169638Y114927D01*
X169638Y111627D01*
X169638Y114192D02*
X166938Y114192D01*
X175578Y111627D02*
X178278Y111627D01*
X175578Y111627D02*
X175578Y114927D01*
X178278Y114927D01*
X178278Y111627D01*
X178278Y114192D02*
X175578Y114192D01*
X193805Y109489D02*
X193805Y106789D01*
X193805Y109489D02*
X197105Y109489D01*
X197105Y106789D01*
X193805Y106789D01*
X193805Y109354D02*
X197105Y109354D01*
X193805Y100849D02*
X193805Y98149D01*
X193805Y100849D02*
X197105Y100849D01*
X197105Y98149D01*
X193805Y98149D01*
X193805Y100714D02*
X197105Y100714D01*
X212848Y126679D02*
X215547Y126670D01*
X212848Y126679D02*
X212859Y129978D01*
X215558Y129969D01*
X215547Y126670D01*
X215556Y129235D02*
X212857Y129235D01*
X221488Y126649D02*
X224187Y126640D01*
X221488Y126649D02*
X221499Y129948D01*
X224198Y129939D01*
X224187Y126640D01*
X224196Y129205D02*
X221497Y129205D01*
X169778Y101264D02*
X167078Y101264D01*
X167078Y104564D01*
X169778Y104564D01*
X169778Y101264D01*
X169778Y103829D02*
X167078Y103829D01*
X175718Y101264D02*
X178418Y101264D01*
X175718Y101264D02*
X175718Y104564D01*
X178418Y104564D01*
X178418Y101264D01*
X178418Y103829D02*
X175718Y103829D01*
X185188Y116460D02*
X187888Y116460D01*
X185188Y116460D02*
X185188Y119760D01*
X187888Y119760D01*
X187888Y116460D01*
X187888Y119025D02*
X185188Y119025D01*
X193828Y116460D02*
X196528Y116460D01*
X193828Y116460D02*
X193828Y119760D01*
X196528Y119760D01*
X196528Y116460D01*
X196528Y119025D02*
X193828Y119025D01*
X193794Y126756D02*
X196493Y126727D01*
X193794Y126756D02*
X193829Y130055D01*
X196528Y130026D01*
X196493Y126727D01*
X196520Y129292D02*
X193821Y129292D01*
X202434Y126665D02*
X205133Y126636D01*
X202434Y126665D02*
X202469Y129964D01*
X205168Y129935D01*
X205133Y126636D01*
X205160Y129201D02*
X202461Y129201D01*
X117476Y203630D02*
X117476Y206330D01*
X120776Y206330D01*
X120776Y203630D01*
X117476Y203630D01*
X117476Y206195D02*
X120776Y206195D01*
X117476Y197690D02*
X117476Y194990D01*
X117476Y197690D02*
X120776Y197690D01*
X120776Y194990D01*
X117476Y194990D01*
X117476Y197555D02*
X120776Y197555D01*
D19*
X239054Y97296D03*
D20*
X239054Y118296D03*
D18*
X224102Y116746D02*
X221403Y116755D01*
X221414Y120054D01*
X224113Y120045D01*
X224102Y116746D01*
X224111Y119311D02*
X221412Y119311D01*
X230043Y116725D02*
X232742Y116716D01*
X230043Y116725D02*
X230054Y120024D01*
X232753Y120015D01*
X232742Y116716D01*
X232751Y119281D02*
X230052Y119281D01*
D20*
X239980Y118308D03*
D19*
X238918Y97324D03*
D21*
X67765Y238789D03*
X130189Y238789D03*
D20*
X33836Y51341D03*
X33836Y61341D03*
X33836Y71341D03*
X8836Y51341D03*
X8836Y61341D03*
X8836Y71341D03*
D22*
X21209Y61325D03*
D13*
X66885Y38917D02*
X69477Y38917D01*
X66885Y38917D02*
X66885Y42109D01*
X69477Y42109D01*
X69477Y38917D01*
X69477Y41585D02*
X66885Y41585D01*
X60877Y42109D02*
X58285Y42109D01*
X60877Y42109D02*
X60877Y38917D01*
X58285Y38917D01*
X58285Y42109D01*
X58285Y41585D02*
X60877Y41585D01*
D23*
X55678Y28284D03*
X62178Y28284D03*
X68678Y28284D03*
X49178Y28284D03*
X62178Y7784D03*
X55678Y7784D03*
X49178Y7784D03*
X68678Y7784D03*
D13*
X17316Y85416D02*
X14724Y85416D01*
X17316Y85416D02*
X17316Y82224D01*
X14724Y82224D01*
X14724Y85416D01*
X14724Y84892D02*
X17316Y84892D01*
X23324Y82224D02*
X25916Y82224D01*
X23324Y82224D02*
X23324Y85416D01*
X25916Y85416D01*
X25916Y82224D01*
X25916Y84892D02*
X23324Y84892D01*
D24*
X109220Y16510D03*
X236220Y16510D03*
D18*
X123272Y43687D02*
X120572Y43687D01*
X123272Y43687D02*
X123272Y40387D01*
X120572Y40387D01*
X120572Y43687D01*
X120572Y42952D02*
X123272Y42952D01*
X114632Y43687D02*
X111932Y43687D01*
X114632Y43687D02*
X114632Y40387D01*
X111932Y40387D01*
X111932Y43687D01*
X111932Y42952D02*
X114632Y42952D01*
X50545Y59354D02*
X50545Y62054D01*
X50545Y59354D02*
X47245Y59354D01*
X47245Y62054D01*
X50545Y62054D01*
X50545Y61919D02*
X47245Y61919D01*
X50545Y67994D02*
X50545Y70694D01*
X50545Y67994D02*
X47245Y67994D01*
X47245Y70694D01*
X50545Y70694D01*
X50545Y70559D02*
X47245Y70559D01*
X62229Y62054D02*
X62229Y59354D01*
X58929Y59354D01*
X58929Y62054D01*
X62229Y62054D01*
X62229Y61919D02*
X58929Y61919D01*
X62229Y67994D02*
X62229Y70694D01*
X62229Y67994D02*
X58929Y67994D01*
X58929Y70694D01*
X62229Y70694D01*
X62229Y70559D02*
X58929Y70559D01*
D25*
X200660Y245540D03*
X191160Y267540D03*
X210160Y267540D03*
X166370Y245540D03*
X156870Y267540D03*
X175870Y267540D03*
D26*
X137816Y109010D02*
X137795Y108989D01*
X137922Y108862D01*
X137816Y109010D02*
X137816Y103158D01*
X141914Y99060D01*
X144780Y99060D01*
X148663Y95177D01*
X148663Y81827D02*
X142381Y75545D01*
X142381Y74275D01*
X148663Y81827D02*
X148663Y95177D01*
X132816Y109010D02*
X132562Y108756D01*
X132816Y109010D02*
X132816Y99210D01*
X130702Y97097D01*
X130702Y88954D01*
X130881Y88775D01*
X149816Y131010D02*
X149943Y131137D01*
X160147Y182481D02*
X160165Y182499D01*
X160165Y182880D01*
X160165Y197303D01*
X160982Y198120D01*
X156410Y131010D02*
X149816Y131010D01*
X160020Y137989D02*
X163166Y141135D01*
X163166Y168910D01*
X163166Y169516D01*
X160020Y134620D02*
X156410Y131010D01*
X160020Y134620D02*
X160020Y137989D01*
X163166Y169516D02*
X163166Y174654D01*
X160165Y177655D02*
X160165Y182499D01*
X160165Y177655D02*
X163166Y174654D01*
X152807Y126010D02*
X149816Y126010D01*
X186672Y182499D02*
X186672Y197430D01*
X185982Y198120D01*
X179832Y171577D02*
X170434Y171577D01*
X179832Y171577D02*
X186672Y178417D01*
X186672Y182499D01*
X155361Y126010D02*
X149816Y126010D01*
X162814Y133463D02*
X162814Y136832D01*
X162814Y133463D02*
X155361Y126010D01*
X162814Y136832D02*
X166370Y140388D01*
X166370Y167513D01*
X170434Y171577D01*
X93345Y91295D02*
X83693Y91295D01*
X83566Y91168D01*
X80618Y120812D02*
X80816Y121010D01*
X80618Y120812D02*
X75549Y120812D01*
X73317Y118580D01*
X73317Y107785D01*
D27*
X83693Y97663D03*
D26*
X83439Y97663D02*
X73317Y107785D01*
X83439Y97663D02*
X83693Y97663D01*
X83693Y97409D01*
X83566Y97282D01*
X83566Y91168D01*
D28*
X80816Y131010D02*
X73660Y131010D01*
D29*
X63252Y131010D01*
X61420Y132842D01*
D30*
X122564Y85607D03*
D28*
X127816Y99622D02*
X127816Y109010D01*
X117584Y89390D02*
X116586Y89390D01*
X117584Y89390D02*
X127816Y99622D01*
X118782Y89390D02*
X116586Y89390D01*
D31*
X118782Y89390D02*
X122564Y85607D01*
D28*
X142816Y109010D02*
X144718Y109010D01*
X154178Y99550D01*
D29*
X159155Y104527D01*
X159225Y104527D01*
D30*
X159225Y104527D03*
D32*
X31496Y142875D03*
D33*
X42593Y152908D02*
X42720Y152781D01*
X42720Y142875D01*
X42720Y132842D01*
X42720Y142875D02*
X31496Y142875D01*
D32*
X36830Y142875D03*
D30*
X71120Y193802D03*
D28*
X68398Y191080D02*
X60706Y191080D01*
D29*
X68398Y191080D02*
X71120Y193802D01*
D28*
X74448Y126010D02*
X80816Y126010D01*
X74448Y126010D02*
X73279Y124841D01*
D34*
X69977Y102568D02*
X69977Y102235D01*
X69977Y102568D02*
X63325Y109220D01*
D28*
X61166Y109220D01*
D30*
X69977Y102235D03*
X73660Y98298D03*
D34*
X73660Y91422D01*
D28*
X73406Y91168D01*
X122816Y101226D02*
X122816Y109010D01*
D30*
X100076Y89281D03*
X71120Y188087D03*
D29*
X69596Y189611D01*
D35*
X62175Y189611D01*
D26*
X60706Y191080D01*
D34*
X73660Y98552D02*
X73660Y98298D01*
X73660Y98552D02*
X69977Y102235D01*
D28*
X100076Y89281D02*
X100185Y89390D01*
D31*
X106934Y89390D01*
D28*
X113124Y94884D02*
X116474Y94884D01*
X107630Y89390D02*
X106934Y89390D01*
X107630Y89390D02*
X113124Y94884D01*
X116474Y94884D02*
X122816Y101226D01*
X142816Y178010D02*
X142816Y189307D01*
X142494Y189629D01*
D36*
X149479Y189230D03*
D29*
X142893Y189230D02*
X142494Y189629D01*
X142893Y189230D02*
X149479Y189230D01*
D28*
X97816Y178010D02*
X97790Y178036D01*
X97790Y195979D01*
D29*
X95994Y195979D01*
D36*
X91694Y200152D03*
D29*
X91821Y200152D01*
X95994Y195979D01*
X61166Y112728D02*
X61166Y109220D01*
X61166Y112728D02*
X73279Y124841D01*
D30*
X128651Y156845D03*
X115316Y143510D03*
X101981Y156845D03*
X115316Y156845D03*
X128651Y143510D03*
X128651Y130175D03*
X115316Y130175D03*
X101981Y130175D03*
X101981Y143510D03*
D27*
X173609Y176149D03*
D30*
X69088Y182245D03*
X153844Y82225D03*
X113284Y210820D03*
X101981Y167259D03*
X114935Y167386D03*
X128651Y167259D03*
X101854Y119634D03*
X115316Y119634D03*
X128905Y119634D03*
X91440Y167259D03*
X91567Y156972D03*
X91440Y143637D03*
X91440Y130302D03*
X91440Y119634D03*
X139192Y119634D03*
X139192Y130302D03*
X139065Y143510D03*
X139065Y156845D03*
X139192Y167259D03*
D32*
X238895Y97299D03*
D26*
X68678Y13618D02*
X68678Y7784D01*
X68678Y13618D02*
X62103Y20193D01*
X21447Y61341D02*
X21209Y61325D01*
X21225Y61341D01*
X33836Y61341D01*
D36*
X50546Y22225D03*
D26*
X49178Y23593D01*
X49178Y28284D01*
D36*
X62103Y22225D03*
D26*
X40259Y61341D02*
X33836Y61341D01*
X40259Y61341D02*
X40640Y60960D01*
D36*
X40640Y60960D03*
X19050Y186690D03*
D26*
X33836Y71341D02*
X33836Y61341D01*
X62103Y22225D02*
X62103Y20193D01*
X62103Y22225D02*
X62103Y28209D01*
X62178Y28284D01*
D36*
X238379Y280543D03*
X238760Y194310D03*
X238760Y187960D03*
X238760Y181610D03*
X238760Y175260D03*
X238760Y168910D03*
X238760Y162560D03*
X238760Y156210D03*
X238760Y149860D03*
X238760Y143510D03*
X238760Y80010D03*
X238760Y73660D03*
X232410Y73660D03*
X226060Y73660D03*
X219710Y73660D03*
X213360Y73660D03*
X207010Y73660D03*
X200660Y73660D03*
X238760Y201930D03*
X238506Y287020D03*
X238379Y274447D03*
X238252Y267970D03*
X238252Y261620D03*
X238506Y255270D03*
X238379Y248920D03*
X232410Y287020D03*
X226060Y287020D03*
X219710Y287020D03*
X181610Y73660D03*
X175260Y73660D03*
X175260Y80010D03*
X168910Y80010D03*
X168923Y85204D03*
X187960Y73660D03*
X194310Y73660D03*
X232410Y248920D03*
D26*
X31750Y83820D02*
X24620Y83820D01*
X31750Y83820D02*
X33836Y81734D01*
X33836Y71341D01*
D36*
X213360Y287020D03*
X207010Y287020D03*
X200660Y287020D03*
X194310Y287020D03*
X187960Y287020D03*
X181610Y287020D03*
X175260Y287020D03*
X168910Y287020D03*
X162560Y287020D03*
X156210Y287020D03*
X149860Y287020D03*
X143510Y287020D03*
X137160Y287020D03*
X130810Y287020D03*
X124460Y287020D03*
X118110Y287020D03*
X111760Y287020D03*
X105410Y287020D03*
X74930Y287020D03*
X67310Y287020D03*
X59690Y287020D03*
X52070Y287020D03*
X44450Y287020D03*
X44450Y279400D03*
X44450Y271780D03*
X43180Y264160D03*
X39370Y257810D03*
X101600Y35560D03*
X97790Y40640D03*
X92710Y45720D03*
X87630Y50800D03*
X82550Y55880D03*
X59690Y78740D03*
X54610Y83820D03*
X49530Y88900D03*
X6350Y99060D03*
X21590Y99060D03*
X29210Y99060D03*
X6350Y106680D03*
X6350Y114300D03*
X6350Y121920D03*
X6350Y129540D03*
X6350Y137160D03*
X6350Y144780D03*
X6350Y152400D03*
X6350Y160020D03*
X6350Y168910D03*
X227330Y34290D03*
X218440Y34290D03*
X209550Y34290D03*
X199390Y34290D03*
X189230Y34290D03*
X179070Y34290D03*
X168910Y34290D03*
X158750Y34290D03*
X148590Y34290D03*
X138430Y34290D03*
X130810Y34290D03*
X77089Y61341D03*
D26*
X62305Y28411D02*
X62178Y28284D01*
X62305Y28411D02*
X62305Y31081D01*
X68181Y36957D02*
X68181Y40513D01*
X68181Y36957D02*
X62305Y31081D01*
D36*
X232410Y280670D03*
X232410Y274320D03*
X232410Y267970D03*
X232410Y261620D03*
X232410Y255270D03*
X238760Y58420D03*
X238760Y52070D03*
X232410Y58420D03*
X232410Y52070D03*
X226060Y58420D03*
X226060Y52070D03*
X238760Y43180D03*
X238760Y34290D03*
X175260Y67310D03*
X181610Y67310D03*
X187960Y67310D03*
X194310Y67310D03*
X200660Y67310D03*
X168910Y73660D03*
X226060Y66040D03*
X232410Y66040D03*
X238760Y66040D03*
X207010Y67310D03*
X132080Y49530D03*
X16510Y243840D03*
X16510Y229870D03*
X16510Y217170D03*
X16510Y204470D03*
X16510Y193040D03*
X114300Y59690D03*
X102870Y59690D03*
X74930Y209550D03*
X87630Y209550D03*
D30*
X154559Y67818D03*
D36*
X121920Y34290D03*
X232410Y143510D03*
X232410Y149860D03*
X232410Y156210D03*
X232410Y162560D03*
X232410Y168910D03*
X232410Y175260D03*
X80010Y107950D03*
X90170Y99060D03*
X105410Y97790D03*
X181610Y60960D03*
X181610Y54610D03*
X187960Y60960D03*
X194310Y60960D03*
X200660Y60960D03*
X187960Y54610D03*
X194310Y54610D03*
X200660Y54610D03*
X207010Y54610D03*
X238760Y209550D03*
X238760Y217170D03*
X238760Y224790D03*
X238760Y232410D03*
X238760Y240030D03*
X232410Y241300D03*
X232410Y233680D03*
X232410Y226060D03*
X232410Y218440D03*
X232410Y210820D03*
X232410Y203200D03*
X232410Y195580D03*
X232410Y187960D03*
X232410Y180340D03*
X238760Y87630D03*
X238760Y135890D03*
X238710Y125666D03*
X232811Y135833D03*
X233061Y125716D03*
X238710Y111592D03*
X238760Y106762D03*
X232861Y130924D03*
X238760Y130974D03*
D37*
X239051Y97299D02*
X239054Y97296D01*
X239051Y97299D02*
X238895Y97299D01*
D36*
X181610Y80010D03*
X187960Y80010D03*
X194310Y80010D03*
X200660Y80010D03*
X207010Y80010D03*
X213360Y80010D03*
X219710Y80010D03*
X226060Y80010D03*
X232410Y80010D03*
X175260Y85090D03*
X181610Y85090D03*
X187960Y85090D03*
X194310Y85090D03*
X200660Y85090D03*
X207010Y85090D03*
X213360Y85090D03*
X219710Y85090D03*
X226060Y85090D03*
X232410Y85090D03*
X226060Y280670D03*
X226060Y274320D03*
X226060Y267970D03*
X226060Y261620D03*
X226060Y255270D03*
X226060Y248920D03*
X226060Y241300D03*
X226060Y233680D03*
X226060Y226060D03*
X226060Y218440D03*
X226060Y210820D03*
X226060Y203200D03*
X226060Y195580D03*
X226060Y187960D03*
X226060Y180340D03*
X226060Y175260D03*
X226060Y168910D03*
X226060Y162560D03*
X226060Y156210D03*
X226060Y149860D03*
X226060Y143510D03*
X226060Y135890D03*
X188248Y92089D03*
X194310Y91440D03*
X200660Y91440D03*
X207010Y91440D03*
X207010Y97790D03*
X207010Y104140D03*
X207010Y110490D03*
X204470Y118110D03*
X215900Y118110D03*
X213360Y110490D03*
X213360Y104140D03*
X213360Y97790D03*
X213360Y91440D03*
X219710Y91440D03*
X219710Y97790D03*
X219710Y104140D03*
X219710Y110490D03*
X226060Y110490D03*
X232410Y110490D03*
X219710Y135890D03*
X213360Y135890D03*
X207010Y135890D03*
X200660Y135890D03*
X194310Y135890D03*
X187960Y135890D03*
X187960Y142240D03*
X181610Y142240D03*
X173990Y142240D03*
X173990Y148590D03*
X173990Y154940D03*
X173990Y161290D03*
X174115Y167056D03*
X226060Y91440D03*
X226060Y97790D03*
X226060Y104140D03*
X231521Y91457D03*
X231541Y97755D03*
X231505Y104157D03*
X188146Y125949D03*
X188191Y110207D03*
X188248Y99049D03*
X194310Y142240D03*
X200660Y142240D03*
X207010Y142240D03*
X213360Y142240D03*
X219710Y142240D03*
X208280Y187960D03*
X193040Y160020D03*
X212090Y156210D03*
X214630Y176530D03*
X201930Y168910D03*
X204470Y208280D03*
X213360Y224790D03*
X214630Y203200D03*
X199390Y193040D03*
X196850Y177800D03*
X181610Y153670D03*
X201930Y151130D03*
X215900Y166370D03*
X189230Y213360D03*
X213360Y213360D03*
X111760Y226060D03*
X149860Y224790D03*
X85090Y255270D03*
X57150Y257810D03*
X201930Y219710D03*
X217170Y189230D03*
X207010Y161290D03*
X190500Y149860D03*
X185420Y167640D03*
X215900Y233680D03*
X210047Y118110D03*
X163216Y85246D03*
X163307Y80017D03*
X163210Y73654D03*
X183785Y95752D03*
X184185Y104108D03*
X184202Y130646D03*
X161408Y92037D03*
X161180Y98218D03*
D30*
X137050Y96944D03*
X117358Y73399D03*
X135170Y62872D03*
X142721Y47551D03*
X123232Y66995D03*
D36*
X96520Y64770D03*
X153670Y49530D03*
X163830Y60960D03*
D30*
X144822Y58105D03*
D28*
X92816Y178010D02*
X92816Y185677D01*
X86723Y191770D01*
D31*
X60706Y174680D02*
X60452Y174934D01*
X44505Y174934D01*
X44450Y174879D01*
D30*
X44450Y174879D03*
X38862Y174752D03*
D31*
X43688Y174752D02*
X45339Y174752D01*
X43688Y174752D02*
X38862Y174752D01*
D29*
X35814Y184803D02*
X46101Y184803D01*
D31*
X46101Y175514D01*
D29*
X45339Y174752D01*
X44450Y174879D02*
X43815Y174879D01*
X43688Y174752D01*
D31*
X35687Y184676D02*
X35814Y184803D01*
X28938Y184676D02*
X28702Y184912D01*
X28938Y184676D02*
X35687Y184676D01*
D32*
X28702Y184912D03*
X44450Y212090D03*
D38*
X93345Y82695D02*
X93345Y76835D01*
X92710Y76200D01*
D36*
X92710Y76200D03*
X40640Y97790D03*
D26*
X48895Y69344D02*
X60579Y69344D01*
X113030Y42289D02*
X113282Y42037D01*
X113282Y54630D01*
X110002Y57910D01*
X110002Y65258D01*
X98425Y76835D02*
X93345Y76835D01*
X98425Y76835D02*
X110002Y65258D01*
X48895Y69344D02*
X48895Y83185D01*
X40640Y91440D01*
X40640Y97790D01*
D32*
X44450Y205740D03*
D33*
X44450Y212090D01*
X44450Y215474D01*
X67765Y238789D01*
X90199Y238789D01*
X119380Y267970D01*
X156440Y267970D01*
X156870Y267540D01*
D36*
X9268Y198693D03*
D26*
X72712Y171010D02*
X80816Y171010D01*
X72712Y171010D02*
X72517Y170815D01*
D27*
X72517Y170815D03*
D36*
X9323Y236995D03*
D26*
X82125Y178010D02*
X87816Y178010D01*
X82125Y178010D02*
X82042Y177927D01*
D27*
X82042Y177927D03*
D36*
X9244Y249618D03*
D38*
X149816Y116010D02*
X159580Y116010D01*
X162560Y113030D01*
X168041Y113030D01*
X168288Y113277D01*
D28*
X168288Y103055D01*
X168428Y102914D01*
D38*
X160380Y121010D02*
X149816Y121010D01*
X162967Y123597D02*
X168209Y123597D01*
X162967Y123597D02*
X160380Y121010D01*
D28*
X168209Y123597D02*
X168209Y133810D01*
X168257Y133858D01*
X176849Y123597D02*
X176928Y123519D01*
X176849Y123597D02*
X186538Y118110D01*
X176928Y113277D01*
X177068Y102914D02*
X177068Y92589D01*
X177155Y92502D01*
X195303Y117985D02*
X195178Y118110D01*
X194795Y118493D01*
X195178Y118110D02*
X195302Y117986D01*
X195455Y117833D02*
X195455Y108139D01*
X195455Y117833D02*
X195178Y118110D01*
X195161Y118127D01*
X195161Y128391D01*
X203801Y128300D02*
X203825Y128324D01*
X214203Y128324D01*
D26*
X155782Y146010D02*
X149816Y146010D01*
X155782Y146010D02*
X158884Y142908D01*
D27*
X158884Y142908D03*
D26*
X121922Y48262D02*
X121922Y42037D01*
X121922Y48262D02*
X125730Y52070D01*
D36*
X125730Y52070D03*
D26*
X8836Y51341D02*
X8836Y45774D01*
X41021Y33006D02*
X41021Y21576D01*
X49178Y13419D02*
X49178Y7784D01*
X49178Y13419D02*
X41021Y21576D01*
X11684Y42926D02*
X8836Y45774D01*
X11684Y42926D02*
X31482Y42926D01*
D36*
X35560Y38481D03*
D26*
X35560Y38848D01*
X31482Y42926D01*
X35560Y38481D02*
X35560Y38467D01*
X41021Y33006D01*
X149816Y156010D02*
X157680Y156010D01*
X158750Y154940D01*
D27*
X158750Y154940D03*
D26*
X60579Y60704D02*
X60579Y56134D01*
X58039Y53594D01*
X54116Y53594D01*
X49403Y48881D02*
X49403Y38481D01*
X49403Y48881D02*
X54116Y53594D01*
D36*
X49403Y38481D03*
D26*
X33836Y46809D02*
X33836Y51341D01*
X43815Y22733D02*
X55678Y10870D01*
X55678Y7784D01*
D36*
X42037Y38735D03*
D26*
X41910Y38735D02*
X33836Y46809D01*
X41910Y38735D02*
X42037Y38735D01*
X43815Y36957D01*
X43815Y22733D01*
X149816Y161010D02*
X158470Y161010D01*
X158750Y161290D01*
D27*
X158750Y161290D03*
D26*
X44991Y51341D02*
X33836Y51341D01*
X48895Y55245D02*
X48895Y60704D01*
X48895Y55245D02*
X44991Y51341D01*
X55678Y28284D02*
X55678Y20268D01*
X62178Y13768D02*
X62178Y7784D01*
X62178Y13768D02*
X55678Y20268D01*
X68678Y28284D02*
X68834Y28440D01*
X8836Y61341D02*
X5570Y61341D01*
X3411Y63500D01*
X3411Y80881D02*
X6350Y83820D01*
X16020Y83820D01*
X3411Y80881D02*
X3411Y63500D01*
X16020Y83820D02*
X16020Y105410D01*
X16510Y105410D01*
D36*
X16510Y105410D03*
D26*
X55678Y31167D02*
X55678Y28284D01*
X55678Y31167D02*
X59384Y34873D01*
X59384Y40316D02*
X59581Y40513D01*
X59384Y40316D02*
X59384Y34873D01*
X41910Y5080D02*
X44450Y2540D01*
D36*
X41910Y5080D03*
D27*
X123190Y186690D03*
D26*
X122816Y186316D02*
X122816Y178010D01*
X122816Y186316D02*
X123190Y186690D01*
X68678Y28284D02*
X68678Y21492D01*
X73660Y16510D01*
X73660Y3810D01*
X72390Y2540D01*
X62230Y2540D02*
X44450Y2540D01*
X62230Y2540D02*
X72390Y2540D01*
X62230Y7732D02*
X62178Y7784D01*
X62230Y7732D02*
X62230Y2540D01*
X112816Y178010D02*
X112816Y185761D01*
X112776Y185801D01*
D27*
X112776Y185801D03*
D26*
X112776Y185815D01*
X112776Y185801D02*
X112776Y193419D01*
X115697Y196340D02*
X119126Y196340D01*
X115697Y196340D02*
X112776Y193419D01*
X80816Y166010D02*
X80689Y166137D01*
X69617Y166137D02*
X68834Y165354D01*
X69617Y166137D02*
X80689Y166137D01*
D27*
X68834Y165354D03*
D36*
X9298Y224138D03*
D26*
X72872Y161010D02*
X80816Y161010D01*
X72872Y161010D02*
X72644Y160782D01*
D27*
X72644Y160782D03*
D36*
X9722Y211793D03*
D26*
X87816Y109010D02*
X86756Y107950D01*
D37*
X149816Y171010D02*
X156786Y171010D01*
X158115Y172339D01*
D27*
X158115Y172339D03*
D36*
X102616Y273050D03*
D27*
X106426Y205740D03*
D26*
X118874Y205232D02*
X119126Y204980D01*
X118874Y205232D02*
X106934Y205232D01*
X106426Y205740D01*
D36*
X205740Y48260D03*
D28*
X239054Y118296D02*
X239025Y118325D01*
X231443Y118325D01*
X231398Y118370D01*
X222843Y118485D02*
X222843Y128294D01*
X222843Y118485D02*
X222758Y118400D01*
D33*
X174420Y245540D02*
X166370Y245540D01*
X174420Y245540D02*
X191770Y262890D01*
X191770Y266930D01*
X191160Y267540D01*
D32*
X167640Y220980D03*
X171450Y226060D03*
D33*
X190251Y245540D02*
X200660Y245540D01*
X190251Y245540D02*
X190160Y245450D01*
X190251Y245540D02*
X167640Y220980D01*
M02*
