G04 EAGLE Gerber RS-274X export*
G75*
%MOMM*%
%FSLAX34Y34*%
%LPD*%
%IN*%
%IPPOS*%
%AMOC8*
5,1,8,0,0,1.08239X$1,22.5*%
G01*
%ADD10C,0.254000*%


D10*
X2000Y34000D02*
X21000Y34000D01*
X22223Y33947D01*
X23437Y33787D01*
X24632Y33522D01*
X25800Y33154D01*
X26931Y32685D01*
X28017Y32120D01*
X29049Y31462D01*
X30020Y30717D01*
X30923Y29890D01*
X31750Y28987D01*
X32495Y28016D01*
X33153Y26983D01*
X33719Y25897D01*
X34187Y24766D01*
X34555Y23599D01*
X34820Y22404D01*
X34980Y21190D01*
X35033Y19967D01*
X35000Y19000D01*
X35000Y1000D01*
X86000Y1000D01*
X86000Y9000D01*
X95000Y9000D01*
X95000Y1000D01*
X259000Y1000D01*
X259000Y21000D01*
X259046Y22046D01*
X259182Y23084D01*
X259409Y24106D01*
X259724Y25104D01*
X260124Y26071D01*
X260608Y27000D01*
X261170Y27883D01*
X261807Y28713D01*
X262515Y29485D01*
X263287Y30193D01*
X264117Y30830D01*
X265000Y31392D01*
X265929Y31876D01*
X266896Y32276D01*
X267894Y32591D01*
X268916Y32818D01*
X269954Y32954D01*
X271000Y33000D01*
X292000Y33000D01*
X292000Y258000D01*
X274000Y258000D01*
X272780Y258053D01*
X271569Y258213D01*
X270377Y258477D01*
X269212Y258844D01*
X268083Y259312D01*
X267000Y259876D01*
X265970Y260532D01*
X265001Y261275D01*
X264101Y262101D01*
X263275Y263001D01*
X262532Y263970D01*
X261876Y265000D01*
X261312Y266083D01*
X260844Y267212D01*
X260477Y268377D01*
X260213Y269569D01*
X260053Y270780D01*
X260000Y272000D01*
X260000Y291000D01*
X95000Y291000D01*
X95000Y282000D01*
X86000Y282000D01*
X86000Y291000D01*
X37000Y291000D01*
X37000Y270000D01*
X36954Y268954D01*
X36818Y267916D01*
X36591Y266894D01*
X36276Y265896D01*
X35876Y264929D01*
X35392Y264000D01*
X34830Y263117D01*
X34193Y262287D01*
X33485Y261515D01*
X32713Y260807D01*
X31883Y260170D01*
X31000Y259608D01*
X30071Y259124D01*
X29104Y258724D01*
X28106Y258409D01*
X27084Y258182D01*
X26046Y258046D01*
X25000Y258000D01*
X2000Y258000D01*
X2000Y34000D01*
X125730Y21590D02*
X125290Y21515D01*
X124858Y21403D01*
X124437Y21253D01*
X124031Y21066D01*
X123643Y20846D01*
X123275Y20592D01*
X122931Y20307D01*
X122613Y19993D01*
X122324Y19653D01*
X122065Y19289D01*
X121840Y18904D01*
X121648Y18500D01*
X121493Y18081D01*
X121374Y17651D01*
X121294Y17211D01*
X121252Y16767D01*
X121249Y16320D01*
X121285Y15875D01*
X121360Y15435D01*
X121472Y15003D01*
X121622Y14582D01*
X121809Y14176D01*
X122029Y13788D01*
X122283Y13420D01*
X122568Y13076D01*
X122882Y12758D01*
X123222Y12469D01*
X123586Y12210D01*
X123971Y11985D01*
X124375Y11793D01*
X124794Y11638D01*
X125224Y11519D01*
X125664Y11439D01*
X126108Y11397D01*
X126555Y11394D01*
X127000Y11430D01*
X219710Y11430D01*
X220155Y11394D01*
X220602Y11397D01*
X221046Y11439D01*
X221486Y11519D01*
X221916Y11638D01*
X222335Y11793D01*
X222739Y11985D01*
X223124Y12210D01*
X223488Y12469D01*
X223828Y12758D01*
X224142Y13076D01*
X224427Y13420D01*
X224681Y13788D01*
X224901Y14176D01*
X225088Y14582D01*
X225238Y15003D01*
X225350Y15435D01*
X225425Y15875D01*
X225461Y16320D01*
X225458Y16767D01*
X225416Y17211D01*
X225336Y17651D01*
X225217Y18081D01*
X225062Y18500D01*
X224871Y18904D01*
X224645Y19289D01*
X224386Y19653D01*
X224097Y19993D01*
X223779Y20307D01*
X223435Y20592D01*
X223067Y20846D01*
X222679Y21066D01*
X222273Y21253D01*
X221853Y21403D01*
X221420Y21515D01*
X220980Y21590D01*
X125730Y21590D01*
M02*
