G04 EAGLE Gerber RS-274X export*
G75*
%MOMM*%
%FSLAX34Y34*%
%LPD*%
%INSilkscreen Top*%
%IPPOS*%
%AMOC8*
5,1,8,0,0,1.08239X$1,22.5*%
G01*
%ADD10C,0.203200*%
%ADD11C,0.250000*%
%ADD12C,0.076200*%
%ADD13C,0.120000*%
%ADD14C,0.100000*%
%ADD15C,0.200000*%
%ADD16C,0.050800*%
%ADD17C,0.050000*%
%ADD18C,0.020000*%
%ADD19C,0.127000*%


D10*
X40236Y50303D02*
X40236Y51601D01*
X41534Y51601D01*
X41534Y50303D01*
X40236Y50303D01*
D11*
X152816Y108510D02*
X152818Y108580D01*
X152824Y108650D01*
X152834Y108719D01*
X152847Y108788D01*
X152865Y108856D01*
X152886Y108923D01*
X152911Y108988D01*
X152940Y109052D01*
X152972Y109115D01*
X153008Y109175D01*
X153047Y109233D01*
X153089Y109289D01*
X153134Y109343D01*
X153182Y109394D01*
X153233Y109442D01*
X153287Y109487D01*
X153343Y109529D01*
X153401Y109568D01*
X153461Y109604D01*
X153524Y109636D01*
X153588Y109665D01*
X153653Y109690D01*
X153720Y109711D01*
X153788Y109729D01*
X153857Y109742D01*
X153926Y109752D01*
X153996Y109758D01*
X154066Y109760D01*
X154136Y109758D01*
X154206Y109752D01*
X154275Y109742D01*
X154344Y109729D01*
X154412Y109711D01*
X154479Y109690D01*
X154544Y109665D01*
X154608Y109636D01*
X154671Y109604D01*
X154731Y109568D01*
X154789Y109529D01*
X154845Y109487D01*
X154899Y109442D01*
X154950Y109394D01*
X154998Y109343D01*
X155043Y109289D01*
X155085Y109233D01*
X155124Y109175D01*
X155160Y109115D01*
X155192Y109052D01*
X155221Y108988D01*
X155246Y108923D01*
X155267Y108856D01*
X155285Y108788D01*
X155298Y108719D01*
X155308Y108650D01*
X155314Y108580D01*
X155316Y108510D01*
X155314Y108440D01*
X155308Y108370D01*
X155298Y108301D01*
X155285Y108232D01*
X155267Y108164D01*
X155246Y108097D01*
X155221Y108032D01*
X155192Y107968D01*
X155160Y107905D01*
X155124Y107845D01*
X155085Y107787D01*
X155043Y107731D01*
X154998Y107677D01*
X154950Y107626D01*
X154899Y107578D01*
X154845Y107533D01*
X154789Y107491D01*
X154731Y107452D01*
X154671Y107416D01*
X154608Y107384D01*
X154544Y107355D01*
X154479Y107330D01*
X154412Y107309D01*
X154344Y107291D01*
X154275Y107278D01*
X154206Y107268D01*
X154136Y107262D01*
X154066Y107260D01*
X153996Y107262D01*
X153926Y107268D01*
X153857Y107278D01*
X153788Y107291D01*
X153720Y107309D01*
X153653Y107330D01*
X153588Y107355D01*
X153524Y107384D01*
X153461Y107416D01*
X153401Y107452D01*
X153343Y107491D01*
X153287Y107533D01*
X153233Y107578D01*
X153182Y107626D01*
X153134Y107677D01*
X153089Y107731D01*
X153047Y107787D01*
X153008Y107845D01*
X152972Y107905D01*
X152940Y107968D01*
X152911Y108032D01*
X152886Y108097D01*
X152865Y108164D01*
X152847Y108232D01*
X152834Y108301D01*
X152824Y108370D01*
X152818Y108440D01*
X152816Y108510D01*
D12*
X48768Y201281D02*
X48768Y202918D01*
X48768Y201281D02*
X48766Y201203D01*
X48761Y201125D01*
X48751Y201048D01*
X48738Y200971D01*
X48722Y200895D01*
X48702Y200820D01*
X48678Y200746D01*
X48651Y200673D01*
X48620Y200601D01*
X48586Y200531D01*
X48549Y200463D01*
X48508Y200396D01*
X48464Y200331D01*
X48418Y200269D01*
X48368Y200209D01*
X48316Y200151D01*
X48261Y200096D01*
X48203Y200044D01*
X48143Y199994D01*
X48081Y199948D01*
X48016Y199904D01*
X47950Y199863D01*
X47881Y199826D01*
X47811Y199792D01*
X47739Y199761D01*
X47666Y199734D01*
X47592Y199710D01*
X47517Y199690D01*
X47441Y199674D01*
X47364Y199661D01*
X47287Y199651D01*
X47209Y199646D01*
X47131Y199644D01*
X43039Y199644D01*
X42959Y199646D01*
X42879Y199652D01*
X42799Y199662D01*
X42720Y199675D01*
X42641Y199693D01*
X42564Y199714D01*
X42488Y199740D01*
X42413Y199769D01*
X42339Y199801D01*
X42267Y199837D01*
X42197Y199877D01*
X42130Y199920D01*
X42064Y199966D01*
X42001Y200016D01*
X41940Y200068D01*
X41881Y200123D01*
X41826Y200182D01*
X41774Y200242D01*
X41724Y200306D01*
X41678Y200371D01*
X41635Y200439D01*
X41595Y200509D01*
X41559Y200581D01*
X41527Y200655D01*
X41498Y200729D01*
X41473Y200806D01*
X41451Y200883D01*
X41433Y200962D01*
X41420Y201041D01*
X41410Y201120D01*
X41404Y201201D01*
X41402Y201281D01*
X41402Y202918D01*
X43039Y205763D02*
X41402Y207809D01*
X48768Y207809D01*
X48768Y205763D02*
X48768Y209855D01*
X39497Y202612D02*
X39497Y200976D01*
X39495Y200898D01*
X39490Y200820D01*
X39480Y200743D01*
X39467Y200666D01*
X39451Y200590D01*
X39431Y200515D01*
X39407Y200441D01*
X39380Y200368D01*
X39349Y200296D01*
X39315Y200226D01*
X39278Y200158D01*
X39237Y200091D01*
X39193Y200026D01*
X39147Y199964D01*
X39097Y199904D01*
X39045Y199846D01*
X38990Y199791D01*
X38932Y199739D01*
X38872Y199689D01*
X38810Y199643D01*
X38745Y199599D01*
X38679Y199558D01*
X38610Y199521D01*
X38540Y199487D01*
X38468Y199456D01*
X38395Y199429D01*
X38321Y199405D01*
X38246Y199385D01*
X38170Y199369D01*
X38093Y199356D01*
X38016Y199346D01*
X37938Y199341D01*
X37860Y199339D01*
X33768Y199339D01*
X33688Y199341D01*
X33608Y199347D01*
X33528Y199357D01*
X33449Y199370D01*
X33370Y199388D01*
X33293Y199409D01*
X33217Y199435D01*
X33142Y199464D01*
X33068Y199496D01*
X32996Y199532D01*
X32926Y199572D01*
X32859Y199615D01*
X32793Y199661D01*
X32730Y199711D01*
X32669Y199763D01*
X32610Y199818D01*
X32555Y199877D01*
X32503Y199937D01*
X32453Y200001D01*
X32407Y200066D01*
X32364Y200134D01*
X32324Y200204D01*
X32288Y200276D01*
X32256Y200350D01*
X32227Y200424D01*
X32202Y200501D01*
X32180Y200578D01*
X32162Y200657D01*
X32149Y200736D01*
X32139Y200815D01*
X32133Y200896D01*
X32131Y200976D01*
X32131Y202612D01*
X32131Y207709D02*
X32133Y207794D01*
X32139Y207879D01*
X32149Y207963D01*
X32162Y208047D01*
X32180Y208131D01*
X32201Y208213D01*
X32226Y208294D01*
X32255Y208374D01*
X32288Y208453D01*
X32324Y208530D01*
X32364Y208605D01*
X32407Y208679D01*
X32453Y208750D01*
X32503Y208819D01*
X32556Y208886D01*
X32612Y208950D01*
X32671Y209011D01*
X32732Y209070D01*
X32796Y209126D01*
X32863Y209179D01*
X32932Y209229D01*
X33003Y209275D01*
X33077Y209318D01*
X33152Y209358D01*
X33229Y209394D01*
X33308Y209427D01*
X33388Y209456D01*
X33469Y209481D01*
X33551Y209502D01*
X33635Y209520D01*
X33719Y209533D01*
X33803Y209543D01*
X33888Y209549D01*
X33973Y209551D01*
X32131Y207709D02*
X32133Y207613D01*
X32139Y207517D01*
X32149Y207422D01*
X32162Y207327D01*
X32180Y207232D01*
X32201Y207139D01*
X32226Y207046D01*
X32255Y206955D01*
X32287Y206864D01*
X32323Y206775D01*
X32363Y206688D01*
X32406Y206602D01*
X32452Y206518D01*
X32502Y206436D01*
X32556Y206356D01*
X32612Y206279D01*
X32672Y206204D01*
X32734Y206131D01*
X32800Y206061D01*
X32868Y205993D01*
X32939Y205928D01*
X33012Y205867D01*
X33088Y205808D01*
X33167Y205752D01*
X33247Y205700D01*
X33330Y205651D01*
X33414Y205605D01*
X33500Y205563D01*
X33588Y205525D01*
X33677Y205490D01*
X33768Y205458D01*
X35405Y208936D02*
X35346Y208996D01*
X35284Y209053D01*
X35220Y209108D01*
X35153Y209159D01*
X35084Y209208D01*
X35014Y209254D01*
X34941Y209297D01*
X34867Y209337D01*
X34791Y209373D01*
X34713Y209406D01*
X34634Y209436D01*
X34554Y209463D01*
X34473Y209486D01*
X34391Y209505D01*
X34309Y209521D01*
X34225Y209534D01*
X34141Y209543D01*
X34057Y209548D01*
X33973Y209550D01*
X35405Y208936D02*
X39497Y205458D01*
X39497Y209550D01*
X94520Y76706D02*
X94520Y69340D01*
X94520Y76706D02*
X96566Y76706D01*
X96655Y76704D01*
X96744Y76698D01*
X96833Y76688D01*
X96921Y76675D01*
X97009Y76658D01*
X97096Y76636D01*
X97181Y76611D01*
X97266Y76583D01*
X97349Y76550D01*
X97431Y76514D01*
X97511Y76475D01*
X97589Y76432D01*
X97665Y76386D01*
X97740Y76336D01*
X97812Y76283D01*
X97881Y76227D01*
X97948Y76168D01*
X98013Y76107D01*
X98074Y76042D01*
X98133Y75975D01*
X98189Y75906D01*
X98242Y75834D01*
X98292Y75759D01*
X98338Y75683D01*
X98381Y75605D01*
X98420Y75525D01*
X98456Y75443D01*
X98489Y75360D01*
X98517Y75275D01*
X98542Y75190D01*
X98564Y75103D01*
X98581Y75015D01*
X98594Y74927D01*
X98604Y74838D01*
X98610Y74749D01*
X98612Y74660D01*
X98610Y74571D01*
X98604Y74482D01*
X98594Y74393D01*
X98581Y74305D01*
X98564Y74217D01*
X98542Y74130D01*
X98517Y74045D01*
X98489Y73960D01*
X98456Y73877D01*
X98420Y73795D01*
X98381Y73715D01*
X98338Y73637D01*
X98292Y73561D01*
X98242Y73486D01*
X98189Y73414D01*
X98133Y73345D01*
X98074Y73278D01*
X98013Y73213D01*
X97948Y73152D01*
X97881Y73093D01*
X97812Y73037D01*
X97740Y72984D01*
X97665Y72934D01*
X97589Y72888D01*
X97511Y72845D01*
X97431Y72806D01*
X97349Y72770D01*
X97266Y72737D01*
X97181Y72709D01*
X97096Y72684D01*
X97009Y72662D01*
X96921Y72645D01*
X96833Y72632D01*
X96744Y72622D01*
X96655Y72616D01*
X96566Y72614D01*
X94520Y72614D01*
X96976Y72614D02*
X98612Y69340D01*
X101784Y75069D02*
X103830Y76706D01*
X103830Y69340D01*
X101784Y69340D02*
X105877Y69340D01*
X79252Y69214D02*
X77615Y69214D01*
X77537Y69216D01*
X77459Y69221D01*
X77382Y69231D01*
X77305Y69244D01*
X77229Y69260D01*
X77154Y69280D01*
X77080Y69304D01*
X77007Y69331D01*
X76935Y69362D01*
X76865Y69396D01*
X76797Y69433D01*
X76730Y69474D01*
X76665Y69518D01*
X76603Y69564D01*
X76543Y69614D01*
X76485Y69666D01*
X76430Y69721D01*
X76378Y69779D01*
X76328Y69839D01*
X76282Y69901D01*
X76238Y69966D01*
X76197Y70033D01*
X76160Y70101D01*
X76126Y70171D01*
X76095Y70243D01*
X76068Y70316D01*
X76044Y70390D01*
X76024Y70465D01*
X76008Y70541D01*
X75995Y70618D01*
X75985Y70695D01*
X75980Y70773D01*
X75978Y70851D01*
X75978Y74943D01*
X75980Y75023D01*
X75986Y75103D01*
X75996Y75183D01*
X76009Y75262D01*
X76027Y75341D01*
X76048Y75418D01*
X76074Y75494D01*
X76103Y75569D01*
X76135Y75643D01*
X76171Y75715D01*
X76211Y75785D01*
X76254Y75852D01*
X76300Y75918D01*
X76350Y75981D01*
X76402Y76042D01*
X76457Y76101D01*
X76516Y76156D01*
X76576Y76208D01*
X76640Y76258D01*
X76706Y76304D01*
X76773Y76347D01*
X76843Y76387D01*
X76915Y76423D01*
X76989Y76455D01*
X77063Y76484D01*
X77140Y76510D01*
X77217Y76531D01*
X77296Y76549D01*
X77375Y76562D01*
X77455Y76572D01*
X77535Y76578D01*
X77615Y76580D01*
X79252Y76580D01*
X82097Y69214D02*
X84552Y69214D01*
X84630Y69216D01*
X84708Y69221D01*
X84785Y69231D01*
X84862Y69244D01*
X84938Y69260D01*
X85013Y69280D01*
X85087Y69304D01*
X85160Y69331D01*
X85232Y69362D01*
X85302Y69396D01*
X85371Y69433D01*
X85437Y69474D01*
X85502Y69518D01*
X85564Y69564D01*
X85624Y69614D01*
X85682Y69666D01*
X85737Y69721D01*
X85789Y69779D01*
X85839Y69839D01*
X85885Y69901D01*
X85929Y69966D01*
X85970Y70033D01*
X86007Y70101D01*
X86041Y70171D01*
X86072Y70243D01*
X86099Y70316D01*
X86123Y70390D01*
X86143Y70465D01*
X86159Y70541D01*
X86172Y70618D01*
X86182Y70695D01*
X86187Y70773D01*
X86189Y70851D01*
X86189Y71669D01*
X86187Y71747D01*
X86182Y71825D01*
X86172Y71902D01*
X86159Y71979D01*
X86143Y72055D01*
X86123Y72130D01*
X86099Y72204D01*
X86072Y72277D01*
X86041Y72349D01*
X86007Y72419D01*
X85970Y72488D01*
X85929Y72554D01*
X85885Y72619D01*
X85839Y72681D01*
X85789Y72741D01*
X85737Y72799D01*
X85682Y72854D01*
X85624Y72906D01*
X85564Y72956D01*
X85502Y73002D01*
X85437Y73046D01*
X85371Y73087D01*
X85302Y73124D01*
X85232Y73158D01*
X85160Y73189D01*
X85087Y73216D01*
X85013Y73240D01*
X84938Y73260D01*
X84862Y73276D01*
X84785Y73289D01*
X84708Y73299D01*
X84630Y73304D01*
X84552Y73306D01*
X82097Y73306D01*
X82097Y76580D01*
X86189Y76580D01*
X80236Y199136D02*
X78599Y199136D01*
X78521Y199138D01*
X78443Y199143D01*
X78366Y199153D01*
X78289Y199166D01*
X78213Y199182D01*
X78138Y199202D01*
X78064Y199226D01*
X77991Y199253D01*
X77919Y199284D01*
X77849Y199318D01*
X77781Y199355D01*
X77714Y199396D01*
X77649Y199440D01*
X77587Y199486D01*
X77527Y199536D01*
X77469Y199588D01*
X77414Y199643D01*
X77362Y199701D01*
X77312Y199761D01*
X77266Y199823D01*
X77222Y199888D01*
X77181Y199955D01*
X77144Y200023D01*
X77110Y200093D01*
X77079Y200165D01*
X77052Y200238D01*
X77028Y200312D01*
X77008Y200387D01*
X76992Y200463D01*
X76979Y200540D01*
X76969Y200617D01*
X76964Y200695D01*
X76962Y200773D01*
X76962Y204865D01*
X76964Y204945D01*
X76970Y205025D01*
X76980Y205105D01*
X76993Y205184D01*
X77011Y205263D01*
X77032Y205340D01*
X77058Y205416D01*
X77087Y205491D01*
X77119Y205565D01*
X77155Y205637D01*
X77195Y205707D01*
X77238Y205774D01*
X77284Y205840D01*
X77334Y205903D01*
X77386Y205964D01*
X77441Y206023D01*
X77500Y206078D01*
X77560Y206130D01*
X77624Y206180D01*
X77690Y206226D01*
X77757Y206269D01*
X77827Y206309D01*
X77899Y206345D01*
X77973Y206377D01*
X78047Y206406D01*
X78124Y206432D01*
X78201Y206453D01*
X78280Y206471D01*
X78359Y206484D01*
X78439Y206494D01*
X78519Y206500D01*
X78599Y206502D01*
X80236Y206502D01*
X83081Y201182D02*
X83083Y201271D01*
X83089Y201360D01*
X83099Y201449D01*
X83112Y201537D01*
X83129Y201625D01*
X83151Y201712D01*
X83176Y201797D01*
X83204Y201882D01*
X83237Y201965D01*
X83273Y202047D01*
X83312Y202127D01*
X83355Y202205D01*
X83401Y202281D01*
X83451Y202356D01*
X83504Y202428D01*
X83560Y202497D01*
X83619Y202564D01*
X83680Y202629D01*
X83745Y202690D01*
X83812Y202749D01*
X83881Y202805D01*
X83953Y202858D01*
X84028Y202908D01*
X84104Y202954D01*
X84182Y202997D01*
X84262Y203036D01*
X84344Y203072D01*
X84427Y203105D01*
X84512Y203133D01*
X84597Y203158D01*
X84684Y203180D01*
X84772Y203197D01*
X84860Y203210D01*
X84949Y203220D01*
X85038Y203226D01*
X85127Y203228D01*
X85216Y203226D01*
X85305Y203220D01*
X85394Y203210D01*
X85482Y203197D01*
X85570Y203180D01*
X85657Y203158D01*
X85742Y203133D01*
X85827Y203105D01*
X85910Y203072D01*
X85992Y203036D01*
X86072Y202997D01*
X86150Y202954D01*
X86226Y202908D01*
X86301Y202858D01*
X86373Y202805D01*
X86442Y202749D01*
X86509Y202690D01*
X86574Y202629D01*
X86635Y202564D01*
X86694Y202497D01*
X86750Y202428D01*
X86803Y202356D01*
X86853Y202281D01*
X86899Y202205D01*
X86942Y202127D01*
X86981Y202047D01*
X87017Y201965D01*
X87050Y201882D01*
X87078Y201797D01*
X87103Y201712D01*
X87125Y201625D01*
X87142Y201537D01*
X87155Y201449D01*
X87165Y201360D01*
X87171Y201271D01*
X87173Y201182D01*
X87171Y201093D01*
X87165Y201004D01*
X87155Y200915D01*
X87142Y200827D01*
X87125Y200739D01*
X87103Y200652D01*
X87078Y200567D01*
X87050Y200482D01*
X87017Y200399D01*
X86981Y200317D01*
X86942Y200237D01*
X86899Y200159D01*
X86853Y200083D01*
X86803Y200008D01*
X86750Y199936D01*
X86694Y199867D01*
X86635Y199800D01*
X86574Y199735D01*
X86509Y199674D01*
X86442Y199615D01*
X86373Y199559D01*
X86301Y199506D01*
X86226Y199456D01*
X86150Y199410D01*
X86072Y199367D01*
X85992Y199328D01*
X85910Y199292D01*
X85827Y199259D01*
X85742Y199231D01*
X85657Y199206D01*
X85570Y199184D01*
X85482Y199167D01*
X85394Y199154D01*
X85305Y199144D01*
X85216Y199138D01*
X85127Y199136D01*
X85038Y199138D01*
X84949Y199144D01*
X84860Y199154D01*
X84772Y199167D01*
X84684Y199184D01*
X84597Y199206D01*
X84512Y199231D01*
X84427Y199259D01*
X84344Y199292D01*
X84262Y199328D01*
X84182Y199367D01*
X84104Y199410D01*
X84028Y199456D01*
X83953Y199506D01*
X83881Y199559D01*
X83812Y199615D01*
X83745Y199674D01*
X83680Y199735D01*
X83619Y199800D01*
X83560Y199867D01*
X83504Y199936D01*
X83451Y200008D01*
X83401Y200083D01*
X83355Y200159D01*
X83312Y200237D01*
X83273Y200317D01*
X83237Y200399D01*
X83204Y200482D01*
X83176Y200567D01*
X83151Y200652D01*
X83129Y200739D01*
X83112Y200827D01*
X83099Y200915D01*
X83089Y201004D01*
X83083Y201093D01*
X83081Y201182D01*
X83490Y204865D02*
X83492Y204944D01*
X83498Y205023D01*
X83507Y205102D01*
X83520Y205180D01*
X83538Y205257D01*
X83558Y205333D01*
X83583Y205408D01*
X83611Y205482D01*
X83642Y205555D01*
X83678Y205626D01*
X83716Y205695D01*
X83758Y205762D01*
X83803Y205827D01*
X83851Y205890D01*
X83902Y205951D01*
X83956Y206008D01*
X84012Y206064D01*
X84071Y206116D01*
X84133Y206166D01*
X84197Y206212D01*
X84263Y206256D01*
X84331Y206296D01*
X84401Y206332D01*
X84473Y206366D01*
X84547Y206396D01*
X84621Y206422D01*
X84697Y206445D01*
X84774Y206463D01*
X84851Y206479D01*
X84930Y206490D01*
X85008Y206498D01*
X85087Y206502D01*
X85167Y206502D01*
X85246Y206498D01*
X85324Y206490D01*
X85403Y206479D01*
X85480Y206463D01*
X85557Y206445D01*
X85633Y206422D01*
X85707Y206396D01*
X85781Y206366D01*
X85853Y206332D01*
X85923Y206296D01*
X85991Y206256D01*
X86057Y206212D01*
X86121Y206166D01*
X86183Y206116D01*
X86242Y206064D01*
X86298Y206008D01*
X86352Y205951D01*
X86403Y205890D01*
X86451Y205827D01*
X86496Y205762D01*
X86538Y205695D01*
X86576Y205626D01*
X86612Y205555D01*
X86643Y205482D01*
X86671Y205408D01*
X86696Y205333D01*
X86716Y205257D01*
X86734Y205180D01*
X86747Y205102D01*
X86756Y205023D01*
X86762Y204944D01*
X86764Y204865D01*
X86762Y204786D01*
X86756Y204707D01*
X86747Y204628D01*
X86734Y204550D01*
X86716Y204473D01*
X86696Y204397D01*
X86671Y204322D01*
X86643Y204248D01*
X86612Y204175D01*
X86576Y204104D01*
X86538Y204035D01*
X86496Y203968D01*
X86451Y203903D01*
X86403Y203840D01*
X86352Y203779D01*
X86298Y203722D01*
X86242Y203666D01*
X86183Y203614D01*
X86121Y203564D01*
X86057Y203518D01*
X85991Y203474D01*
X85923Y203434D01*
X85853Y203398D01*
X85781Y203364D01*
X85707Y203334D01*
X85633Y203308D01*
X85557Y203285D01*
X85480Y203267D01*
X85403Y203251D01*
X85324Y203240D01*
X85246Y203232D01*
X85167Y203228D01*
X85087Y203228D01*
X85008Y203232D01*
X84930Y203240D01*
X84851Y203251D01*
X84774Y203267D01*
X84697Y203285D01*
X84621Y203308D01*
X84547Y203334D01*
X84473Y203364D01*
X84401Y203398D01*
X84331Y203434D01*
X84263Y203474D01*
X84197Y203518D01*
X84133Y203564D01*
X84071Y203614D01*
X84012Y203666D01*
X83956Y203722D01*
X83902Y203779D01*
X83851Y203840D01*
X83803Y203903D01*
X83758Y203968D01*
X83716Y204035D01*
X83678Y204104D01*
X83642Y204175D01*
X83611Y204248D01*
X83583Y204322D01*
X83558Y204397D01*
X83538Y204473D01*
X83520Y204550D01*
X83507Y204628D01*
X83498Y204707D01*
X83492Y204786D01*
X83490Y204865D01*
X178497Y169291D02*
X180133Y169291D01*
X178497Y169291D02*
X178419Y169293D01*
X178341Y169298D01*
X178264Y169308D01*
X178187Y169321D01*
X178111Y169337D01*
X178036Y169357D01*
X177962Y169381D01*
X177889Y169408D01*
X177817Y169439D01*
X177747Y169473D01*
X177679Y169510D01*
X177612Y169551D01*
X177547Y169595D01*
X177485Y169641D01*
X177425Y169691D01*
X177367Y169743D01*
X177312Y169798D01*
X177260Y169856D01*
X177210Y169916D01*
X177164Y169978D01*
X177120Y170043D01*
X177079Y170110D01*
X177042Y170178D01*
X177008Y170248D01*
X176977Y170320D01*
X176950Y170393D01*
X176926Y170467D01*
X176906Y170542D01*
X176890Y170618D01*
X176877Y170695D01*
X176867Y170772D01*
X176862Y170850D01*
X176860Y170928D01*
X176860Y175020D01*
X176862Y175100D01*
X176868Y175180D01*
X176878Y175260D01*
X176891Y175339D01*
X176909Y175418D01*
X176930Y175495D01*
X176956Y175571D01*
X176985Y175646D01*
X177017Y175720D01*
X177053Y175792D01*
X177093Y175862D01*
X177136Y175929D01*
X177182Y175995D01*
X177232Y176058D01*
X177284Y176119D01*
X177339Y176178D01*
X177398Y176233D01*
X177458Y176285D01*
X177522Y176335D01*
X177588Y176381D01*
X177655Y176424D01*
X177725Y176464D01*
X177797Y176500D01*
X177871Y176532D01*
X177945Y176561D01*
X178022Y176587D01*
X178099Y176608D01*
X178178Y176626D01*
X178257Y176639D01*
X178337Y176649D01*
X178417Y176655D01*
X178497Y176657D01*
X180133Y176657D01*
X182979Y173383D02*
X185434Y173383D01*
X185512Y173381D01*
X185590Y173376D01*
X185667Y173366D01*
X185744Y173353D01*
X185820Y173337D01*
X185895Y173317D01*
X185969Y173293D01*
X186042Y173266D01*
X186114Y173235D01*
X186184Y173201D01*
X186253Y173164D01*
X186319Y173123D01*
X186384Y173079D01*
X186446Y173033D01*
X186506Y172983D01*
X186564Y172931D01*
X186619Y172876D01*
X186671Y172818D01*
X186721Y172758D01*
X186767Y172696D01*
X186811Y172631D01*
X186852Y172565D01*
X186889Y172496D01*
X186923Y172426D01*
X186954Y172354D01*
X186981Y172281D01*
X187005Y172207D01*
X187025Y172132D01*
X187041Y172056D01*
X187054Y171979D01*
X187064Y171902D01*
X187069Y171824D01*
X187071Y171746D01*
X187071Y171337D01*
X187069Y171248D01*
X187063Y171159D01*
X187053Y171070D01*
X187040Y170982D01*
X187023Y170894D01*
X187001Y170807D01*
X186976Y170722D01*
X186948Y170637D01*
X186915Y170554D01*
X186879Y170472D01*
X186840Y170392D01*
X186797Y170314D01*
X186751Y170238D01*
X186701Y170163D01*
X186648Y170091D01*
X186592Y170022D01*
X186533Y169955D01*
X186472Y169890D01*
X186407Y169829D01*
X186340Y169770D01*
X186271Y169714D01*
X186199Y169661D01*
X186124Y169611D01*
X186048Y169565D01*
X185970Y169522D01*
X185890Y169483D01*
X185808Y169447D01*
X185725Y169414D01*
X185640Y169386D01*
X185555Y169361D01*
X185468Y169339D01*
X185380Y169322D01*
X185292Y169309D01*
X185203Y169299D01*
X185114Y169293D01*
X185025Y169291D01*
X184936Y169293D01*
X184847Y169299D01*
X184758Y169309D01*
X184670Y169322D01*
X184582Y169339D01*
X184495Y169361D01*
X184410Y169386D01*
X184325Y169414D01*
X184242Y169447D01*
X184160Y169483D01*
X184080Y169522D01*
X184002Y169565D01*
X183926Y169611D01*
X183851Y169661D01*
X183779Y169714D01*
X183710Y169770D01*
X183643Y169829D01*
X183578Y169890D01*
X183517Y169955D01*
X183458Y170022D01*
X183402Y170091D01*
X183349Y170163D01*
X183299Y170238D01*
X183253Y170314D01*
X183210Y170392D01*
X183171Y170472D01*
X183135Y170554D01*
X183102Y170637D01*
X183074Y170722D01*
X183049Y170807D01*
X183027Y170894D01*
X183010Y170982D01*
X182997Y171070D01*
X182987Y171159D01*
X182981Y171248D01*
X182979Y171337D01*
X182979Y173383D01*
X182981Y173497D01*
X182987Y173611D01*
X182997Y173725D01*
X183011Y173839D01*
X183029Y173952D01*
X183051Y174064D01*
X183076Y174175D01*
X183106Y174285D01*
X183139Y174395D01*
X183176Y174503D01*
X183217Y174609D01*
X183262Y174715D01*
X183310Y174818D01*
X183362Y174920D01*
X183418Y175020D01*
X183476Y175118D01*
X183539Y175214D01*
X183604Y175307D01*
X183673Y175399D01*
X183745Y175487D01*
X183820Y175574D01*
X183898Y175657D01*
X183979Y175738D01*
X184062Y175816D01*
X184149Y175891D01*
X184237Y175963D01*
X184329Y176032D01*
X184422Y176097D01*
X184518Y176159D01*
X184616Y176218D01*
X184716Y176274D01*
X184818Y176326D01*
X184921Y176374D01*
X185027Y176419D01*
X185133Y176460D01*
X185241Y176497D01*
X185351Y176530D01*
X185461Y176560D01*
X185572Y176585D01*
X185684Y176607D01*
X185797Y176625D01*
X185911Y176639D01*
X186025Y176649D01*
X186139Y176655D01*
X186253Y176657D01*
X164056Y169037D02*
X162419Y169037D01*
X162341Y169039D01*
X162263Y169044D01*
X162186Y169054D01*
X162109Y169067D01*
X162033Y169083D01*
X161958Y169103D01*
X161884Y169127D01*
X161811Y169154D01*
X161739Y169185D01*
X161669Y169219D01*
X161601Y169256D01*
X161534Y169297D01*
X161469Y169341D01*
X161407Y169387D01*
X161347Y169437D01*
X161289Y169489D01*
X161234Y169544D01*
X161182Y169602D01*
X161132Y169662D01*
X161086Y169724D01*
X161042Y169789D01*
X161001Y169856D01*
X160964Y169924D01*
X160930Y169994D01*
X160899Y170066D01*
X160872Y170139D01*
X160848Y170213D01*
X160828Y170288D01*
X160812Y170364D01*
X160799Y170441D01*
X160789Y170518D01*
X160784Y170596D01*
X160782Y170674D01*
X160782Y174766D01*
X160784Y174846D01*
X160790Y174926D01*
X160800Y175006D01*
X160813Y175085D01*
X160831Y175164D01*
X160852Y175241D01*
X160878Y175317D01*
X160907Y175392D01*
X160939Y175466D01*
X160975Y175538D01*
X161015Y175608D01*
X161058Y175675D01*
X161104Y175741D01*
X161154Y175804D01*
X161206Y175865D01*
X161261Y175924D01*
X161320Y175979D01*
X161380Y176031D01*
X161444Y176081D01*
X161510Y176127D01*
X161577Y176170D01*
X161647Y176210D01*
X161719Y176246D01*
X161793Y176278D01*
X161867Y176307D01*
X161944Y176333D01*
X162021Y176354D01*
X162100Y176372D01*
X162179Y176385D01*
X162259Y176395D01*
X162339Y176401D01*
X162419Y176403D01*
X164056Y176403D01*
X166901Y176403D02*
X166901Y175585D01*
X166901Y176403D02*
X170993Y176403D01*
X168947Y169037D01*
X137287Y205359D02*
X135763Y205359D01*
X135686Y205361D01*
X135609Y205367D01*
X135532Y205377D01*
X135456Y205390D01*
X135381Y205408D01*
X135307Y205429D01*
X135234Y205454D01*
X135162Y205483D01*
X135092Y205515D01*
X135023Y205550D01*
X134957Y205590D01*
X134892Y205632D01*
X134830Y205678D01*
X134770Y205727D01*
X134713Y205778D01*
X134658Y205833D01*
X134607Y205890D01*
X134558Y205950D01*
X134512Y206012D01*
X134470Y206077D01*
X134430Y206143D01*
X134395Y206212D01*
X134363Y206282D01*
X134334Y206354D01*
X134309Y206427D01*
X134288Y206501D01*
X134270Y206576D01*
X134257Y206652D01*
X134247Y206729D01*
X134241Y206806D01*
X134239Y206883D01*
X134239Y210693D01*
X134241Y210770D01*
X134247Y210847D01*
X134257Y210924D01*
X134270Y211000D01*
X134288Y211075D01*
X134309Y211149D01*
X134334Y211222D01*
X134363Y211294D01*
X134395Y211364D01*
X134430Y211433D01*
X134470Y211499D01*
X134512Y211564D01*
X134558Y211626D01*
X134607Y211686D01*
X134658Y211743D01*
X134713Y211798D01*
X134770Y211849D01*
X134830Y211898D01*
X134892Y211944D01*
X134957Y211986D01*
X135023Y212026D01*
X135092Y212061D01*
X135162Y212093D01*
X135234Y212122D01*
X135307Y212147D01*
X135381Y212168D01*
X135456Y212186D01*
X135532Y212199D01*
X135609Y212209D01*
X135686Y212215D01*
X135763Y212217D01*
X137287Y212217D01*
X139976Y210693D02*
X141881Y212217D01*
X141881Y205359D01*
X139976Y205359D02*
X143786Y205359D01*
X146834Y210693D02*
X148739Y212217D01*
X148739Y205359D01*
X146834Y205359D02*
X150644Y205359D01*
X110744Y196060D02*
X110744Y194423D01*
X110742Y194345D01*
X110737Y194267D01*
X110727Y194190D01*
X110714Y194113D01*
X110698Y194037D01*
X110678Y193962D01*
X110654Y193888D01*
X110627Y193815D01*
X110596Y193743D01*
X110562Y193673D01*
X110525Y193605D01*
X110484Y193538D01*
X110440Y193473D01*
X110394Y193411D01*
X110344Y193351D01*
X110292Y193293D01*
X110237Y193238D01*
X110179Y193186D01*
X110119Y193136D01*
X110057Y193090D01*
X109992Y193046D01*
X109926Y193005D01*
X109857Y192968D01*
X109787Y192934D01*
X109715Y192903D01*
X109642Y192876D01*
X109568Y192852D01*
X109493Y192832D01*
X109417Y192816D01*
X109340Y192803D01*
X109263Y192793D01*
X109185Y192788D01*
X109107Y192786D01*
X105015Y192786D01*
X104935Y192788D01*
X104855Y192794D01*
X104775Y192804D01*
X104696Y192817D01*
X104617Y192835D01*
X104540Y192856D01*
X104464Y192882D01*
X104389Y192911D01*
X104315Y192943D01*
X104243Y192979D01*
X104173Y193019D01*
X104106Y193062D01*
X104040Y193108D01*
X103977Y193158D01*
X103916Y193210D01*
X103857Y193265D01*
X103802Y193324D01*
X103750Y193384D01*
X103700Y193448D01*
X103654Y193513D01*
X103611Y193581D01*
X103571Y193651D01*
X103535Y193723D01*
X103503Y193797D01*
X103474Y193871D01*
X103449Y193948D01*
X103427Y194025D01*
X103409Y194104D01*
X103396Y194183D01*
X103386Y194262D01*
X103380Y194343D01*
X103378Y194423D01*
X103378Y196060D01*
X105015Y198905D02*
X103378Y200951D01*
X110744Y200951D01*
X110744Y198905D02*
X110744Y202997D01*
X105220Y210313D02*
X105135Y210311D01*
X105050Y210305D01*
X104966Y210295D01*
X104882Y210282D01*
X104798Y210264D01*
X104716Y210243D01*
X104635Y210218D01*
X104555Y210189D01*
X104476Y210156D01*
X104399Y210120D01*
X104324Y210080D01*
X104250Y210037D01*
X104179Y209991D01*
X104110Y209941D01*
X104043Y209888D01*
X103979Y209832D01*
X103918Y209773D01*
X103859Y209712D01*
X103803Y209648D01*
X103750Y209581D01*
X103700Y209512D01*
X103654Y209441D01*
X103611Y209367D01*
X103571Y209292D01*
X103535Y209215D01*
X103502Y209136D01*
X103473Y209056D01*
X103448Y208975D01*
X103427Y208893D01*
X103409Y208809D01*
X103396Y208725D01*
X103386Y208641D01*
X103380Y208556D01*
X103378Y208471D01*
X103380Y208375D01*
X103386Y208279D01*
X103396Y208184D01*
X103409Y208089D01*
X103427Y207994D01*
X103448Y207901D01*
X103473Y207808D01*
X103502Y207717D01*
X103534Y207626D01*
X103570Y207537D01*
X103610Y207450D01*
X103653Y207364D01*
X103699Y207280D01*
X103749Y207198D01*
X103803Y207118D01*
X103859Y207041D01*
X103919Y206966D01*
X103981Y206893D01*
X104047Y206823D01*
X104115Y206755D01*
X104186Y206690D01*
X104259Y206629D01*
X104335Y206570D01*
X104414Y206514D01*
X104494Y206462D01*
X104577Y206413D01*
X104661Y206367D01*
X104747Y206325D01*
X104835Y206287D01*
X104924Y206252D01*
X105015Y206220D01*
X106652Y209699D02*
X106593Y209759D01*
X106531Y209816D01*
X106467Y209871D01*
X106400Y209922D01*
X106331Y209971D01*
X106261Y210017D01*
X106188Y210060D01*
X106114Y210100D01*
X106038Y210136D01*
X105960Y210169D01*
X105881Y210199D01*
X105801Y210226D01*
X105720Y210249D01*
X105638Y210268D01*
X105556Y210284D01*
X105472Y210297D01*
X105388Y210306D01*
X105304Y210311D01*
X105220Y210313D01*
X106652Y209699D02*
X110744Y206220D01*
X110744Y210313D01*
X95475Y94742D02*
X93838Y94742D01*
X93760Y94744D01*
X93682Y94749D01*
X93605Y94759D01*
X93528Y94772D01*
X93452Y94788D01*
X93377Y94808D01*
X93303Y94832D01*
X93230Y94859D01*
X93158Y94890D01*
X93088Y94924D01*
X93020Y94961D01*
X92953Y95002D01*
X92888Y95046D01*
X92826Y95092D01*
X92766Y95142D01*
X92708Y95194D01*
X92653Y95249D01*
X92601Y95307D01*
X92551Y95367D01*
X92505Y95429D01*
X92461Y95494D01*
X92420Y95561D01*
X92383Y95629D01*
X92349Y95699D01*
X92318Y95771D01*
X92291Y95844D01*
X92267Y95918D01*
X92247Y95993D01*
X92231Y96069D01*
X92218Y96146D01*
X92208Y96223D01*
X92203Y96301D01*
X92201Y96379D01*
X92202Y96379D02*
X92202Y100471D01*
X92201Y100471D02*
X92203Y100551D01*
X92209Y100631D01*
X92219Y100711D01*
X92232Y100790D01*
X92250Y100869D01*
X92271Y100946D01*
X92297Y101022D01*
X92326Y101097D01*
X92358Y101171D01*
X92394Y101243D01*
X92434Y101313D01*
X92477Y101380D01*
X92523Y101446D01*
X92573Y101509D01*
X92625Y101570D01*
X92680Y101629D01*
X92739Y101684D01*
X92799Y101736D01*
X92863Y101786D01*
X92929Y101832D01*
X92996Y101875D01*
X93066Y101915D01*
X93138Y101951D01*
X93212Y101983D01*
X93286Y102012D01*
X93363Y102038D01*
X93440Y102059D01*
X93519Y102077D01*
X93598Y102090D01*
X93678Y102100D01*
X93758Y102106D01*
X93838Y102108D01*
X95475Y102108D01*
X98321Y100471D02*
X100367Y102108D01*
X100367Y94742D01*
X98321Y94742D02*
X102413Y94742D01*
X105636Y94742D02*
X107682Y94742D01*
X107771Y94744D01*
X107860Y94750D01*
X107949Y94760D01*
X108037Y94773D01*
X108125Y94790D01*
X108212Y94812D01*
X108297Y94837D01*
X108382Y94865D01*
X108465Y94898D01*
X108547Y94934D01*
X108627Y94973D01*
X108705Y95016D01*
X108781Y95062D01*
X108856Y95112D01*
X108928Y95165D01*
X108997Y95221D01*
X109064Y95280D01*
X109129Y95341D01*
X109190Y95406D01*
X109249Y95473D01*
X109305Y95542D01*
X109358Y95614D01*
X109408Y95689D01*
X109454Y95765D01*
X109497Y95843D01*
X109536Y95923D01*
X109572Y96005D01*
X109605Y96088D01*
X109633Y96173D01*
X109658Y96258D01*
X109680Y96345D01*
X109697Y96433D01*
X109710Y96521D01*
X109720Y96610D01*
X109726Y96699D01*
X109728Y96788D01*
X109726Y96877D01*
X109720Y96966D01*
X109710Y97055D01*
X109697Y97143D01*
X109680Y97231D01*
X109658Y97318D01*
X109633Y97403D01*
X109605Y97488D01*
X109572Y97571D01*
X109536Y97653D01*
X109497Y97733D01*
X109454Y97811D01*
X109408Y97887D01*
X109358Y97962D01*
X109305Y98034D01*
X109249Y98103D01*
X109190Y98170D01*
X109129Y98235D01*
X109064Y98296D01*
X108997Y98355D01*
X108928Y98411D01*
X108856Y98464D01*
X108781Y98514D01*
X108705Y98560D01*
X108627Y98603D01*
X108547Y98642D01*
X108465Y98678D01*
X108382Y98711D01*
X108297Y98739D01*
X108212Y98764D01*
X108125Y98786D01*
X108037Y98803D01*
X107949Y98816D01*
X107860Y98826D01*
X107771Y98832D01*
X107682Y98834D01*
X108091Y102108D02*
X105636Y102108D01*
X108091Y102108D02*
X108170Y102106D01*
X108249Y102100D01*
X108328Y102091D01*
X108406Y102078D01*
X108483Y102060D01*
X108559Y102040D01*
X108634Y102015D01*
X108708Y101987D01*
X108781Y101956D01*
X108852Y101920D01*
X108921Y101882D01*
X108988Y101840D01*
X109053Y101795D01*
X109116Y101747D01*
X109177Y101696D01*
X109234Y101642D01*
X109290Y101586D01*
X109342Y101527D01*
X109392Y101465D01*
X109438Y101401D01*
X109482Y101335D01*
X109522Y101267D01*
X109558Y101197D01*
X109592Y101125D01*
X109622Y101051D01*
X109648Y100977D01*
X109671Y100901D01*
X109689Y100824D01*
X109705Y100747D01*
X109716Y100668D01*
X109724Y100590D01*
X109728Y100511D01*
X109728Y100431D01*
X109724Y100352D01*
X109716Y100274D01*
X109705Y100195D01*
X109689Y100118D01*
X109671Y100041D01*
X109648Y99965D01*
X109622Y99891D01*
X109592Y99817D01*
X109558Y99745D01*
X109522Y99675D01*
X109482Y99607D01*
X109438Y99541D01*
X109392Y99477D01*
X109342Y99415D01*
X109290Y99356D01*
X109234Y99300D01*
X109177Y99246D01*
X109116Y99195D01*
X109053Y99147D01*
X108988Y99102D01*
X108921Y99060D01*
X108852Y99022D01*
X108781Y98986D01*
X108708Y98955D01*
X108634Y98927D01*
X108559Y98902D01*
X108483Y98882D01*
X108406Y98864D01*
X108328Y98851D01*
X108249Y98842D01*
X108170Y98836D01*
X108091Y98834D01*
X106454Y98834D01*
X53820Y87249D02*
X52183Y87249D01*
X52105Y87251D01*
X52027Y87256D01*
X51950Y87266D01*
X51873Y87279D01*
X51797Y87295D01*
X51722Y87315D01*
X51648Y87339D01*
X51575Y87366D01*
X51503Y87397D01*
X51433Y87431D01*
X51365Y87468D01*
X51298Y87509D01*
X51233Y87553D01*
X51171Y87599D01*
X51111Y87649D01*
X51053Y87701D01*
X50998Y87756D01*
X50946Y87814D01*
X50896Y87874D01*
X50850Y87936D01*
X50806Y88001D01*
X50765Y88068D01*
X50728Y88136D01*
X50694Y88206D01*
X50663Y88278D01*
X50636Y88351D01*
X50612Y88425D01*
X50592Y88500D01*
X50576Y88576D01*
X50563Y88653D01*
X50553Y88730D01*
X50548Y88808D01*
X50546Y88886D01*
X50546Y92978D01*
X50548Y93058D01*
X50554Y93138D01*
X50564Y93218D01*
X50577Y93297D01*
X50595Y93376D01*
X50616Y93453D01*
X50642Y93529D01*
X50671Y93604D01*
X50703Y93678D01*
X50739Y93750D01*
X50779Y93820D01*
X50822Y93887D01*
X50868Y93953D01*
X50918Y94016D01*
X50970Y94077D01*
X51025Y94136D01*
X51084Y94191D01*
X51144Y94243D01*
X51208Y94293D01*
X51274Y94339D01*
X51341Y94382D01*
X51411Y94422D01*
X51483Y94458D01*
X51557Y94490D01*
X51631Y94519D01*
X51708Y94545D01*
X51785Y94566D01*
X51864Y94584D01*
X51943Y94597D01*
X52023Y94607D01*
X52103Y94613D01*
X52183Y94615D01*
X53820Y94615D01*
X56665Y92978D02*
X58711Y94615D01*
X58711Y87249D01*
X56665Y87249D02*
X60757Y87249D01*
X63980Y87249D02*
X66436Y87249D01*
X66514Y87251D01*
X66592Y87256D01*
X66669Y87266D01*
X66746Y87279D01*
X66822Y87295D01*
X66897Y87315D01*
X66971Y87339D01*
X67044Y87366D01*
X67116Y87397D01*
X67186Y87431D01*
X67255Y87468D01*
X67321Y87509D01*
X67386Y87553D01*
X67448Y87599D01*
X67508Y87649D01*
X67566Y87701D01*
X67621Y87756D01*
X67673Y87814D01*
X67723Y87874D01*
X67769Y87936D01*
X67813Y88001D01*
X67854Y88068D01*
X67891Y88136D01*
X67925Y88206D01*
X67956Y88278D01*
X67983Y88351D01*
X68007Y88425D01*
X68027Y88500D01*
X68043Y88576D01*
X68056Y88653D01*
X68066Y88730D01*
X68071Y88808D01*
X68073Y88886D01*
X68073Y89704D01*
X68071Y89782D01*
X68066Y89860D01*
X68056Y89937D01*
X68043Y90014D01*
X68027Y90090D01*
X68007Y90165D01*
X67983Y90239D01*
X67956Y90312D01*
X67925Y90384D01*
X67891Y90454D01*
X67854Y90523D01*
X67813Y90589D01*
X67769Y90654D01*
X67723Y90716D01*
X67673Y90776D01*
X67621Y90834D01*
X67566Y90889D01*
X67508Y90941D01*
X67448Y90991D01*
X67386Y91037D01*
X67321Y91081D01*
X67255Y91122D01*
X67186Y91159D01*
X67116Y91193D01*
X67044Y91224D01*
X66971Y91251D01*
X66897Y91275D01*
X66822Y91295D01*
X66746Y91311D01*
X66669Y91324D01*
X66592Y91334D01*
X66514Y91339D01*
X66436Y91341D01*
X63980Y91341D01*
X63980Y94615D01*
X68073Y94615D01*
D13*
X54366Y102220D02*
X49266Y102220D01*
X49266Y116220D02*
X54366Y116220D01*
D12*
X21181Y105283D02*
X19544Y105283D01*
X19466Y105285D01*
X19388Y105290D01*
X19311Y105300D01*
X19234Y105313D01*
X19158Y105329D01*
X19083Y105349D01*
X19009Y105373D01*
X18936Y105400D01*
X18864Y105431D01*
X18794Y105465D01*
X18725Y105502D01*
X18659Y105543D01*
X18594Y105587D01*
X18532Y105633D01*
X18472Y105683D01*
X18414Y105735D01*
X18359Y105790D01*
X18307Y105848D01*
X18257Y105908D01*
X18211Y105970D01*
X18167Y106035D01*
X18126Y106102D01*
X18089Y106170D01*
X18055Y106240D01*
X18024Y106312D01*
X17997Y106385D01*
X17973Y106459D01*
X17953Y106534D01*
X17937Y106610D01*
X17924Y106687D01*
X17914Y106764D01*
X17909Y106842D01*
X17907Y106920D01*
X17907Y111012D01*
X17909Y111092D01*
X17915Y111172D01*
X17925Y111252D01*
X17938Y111331D01*
X17956Y111410D01*
X17977Y111487D01*
X18003Y111563D01*
X18032Y111638D01*
X18064Y111712D01*
X18100Y111784D01*
X18140Y111854D01*
X18183Y111921D01*
X18229Y111987D01*
X18279Y112050D01*
X18331Y112111D01*
X18386Y112170D01*
X18445Y112225D01*
X18505Y112277D01*
X18569Y112327D01*
X18635Y112373D01*
X18702Y112416D01*
X18772Y112456D01*
X18844Y112492D01*
X18918Y112524D01*
X18992Y112553D01*
X19069Y112579D01*
X19146Y112600D01*
X19225Y112618D01*
X19304Y112631D01*
X19384Y112641D01*
X19464Y112647D01*
X19544Y112649D01*
X21181Y112649D01*
X24026Y111012D02*
X26072Y112649D01*
X26072Y105283D01*
X24026Y105283D02*
X28118Y105283D01*
X31341Y106920D02*
X32978Y112649D01*
X31341Y106920D02*
X35434Y106920D01*
X34206Y108557D02*
X34206Y105283D01*
D13*
X49393Y159908D02*
X54493Y159908D01*
X54493Y145908D02*
X49393Y145908D01*
D12*
X20165Y150114D02*
X18528Y150114D01*
X18450Y150116D01*
X18372Y150121D01*
X18295Y150131D01*
X18218Y150144D01*
X18142Y150160D01*
X18067Y150180D01*
X17993Y150204D01*
X17920Y150231D01*
X17848Y150262D01*
X17778Y150296D01*
X17709Y150333D01*
X17643Y150374D01*
X17578Y150418D01*
X17516Y150464D01*
X17456Y150514D01*
X17398Y150566D01*
X17343Y150621D01*
X17291Y150679D01*
X17241Y150739D01*
X17195Y150801D01*
X17151Y150866D01*
X17110Y150933D01*
X17073Y151001D01*
X17039Y151071D01*
X17008Y151143D01*
X16981Y151216D01*
X16957Y151290D01*
X16937Y151365D01*
X16921Y151441D01*
X16908Y151518D01*
X16898Y151595D01*
X16893Y151673D01*
X16891Y151751D01*
X16891Y155843D01*
X16893Y155923D01*
X16899Y156003D01*
X16909Y156083D01*
X16922Y156162D01*
X16940Y156241D01*
X16961Y156318D01*
X16987Y156394D01*
X17016Y156469D01*
X17048Y156543D01*
X17084Y156615D01*
X17124Y156685D01*
X17167Y156752D01*
X17213Y156818D01*
X17263Y156881D01*
X17315Y156942D01*
X17370Y157001D01*
X17429Y157056D01*
X17489Y157108D01*
X17553Y157158D01*
X17619Y157204D01*
X17686Y157247D01*
X17756Y157287D01*
X17828Y157323D01*
X17902Y157355D01*
X17976Y157384D01*
X18053Y157410D01*
X18130Y157431D01*
X18209Y157449D01*
X18288Y157462D01*
X18368Y157472D01*
X18448Y157478D01*
X18528Y157480D01*
X20165Y157480D01*
X23010Y155843D02*
X25056Y157480D01*
X25056Y150114D01*
X23010Y150114D02*
X27102Y150114D01*
X30325Y154206D02*
X32781Y154206D01*
X32859Y154204D01*
X32937Y154199D01*
X33014Y154189D01*
X33091Y154176D01*
X33167Y154160D01*
X33242Y154140D01*
X33316Y154116D01*
X33389Y154089D01*
X33461Y154058D01*
X33531Y154024D01*
X33600Y153987D01*
X33666Y153946D01*
X33731Y153902D01*
X33793Y153856D01*
X33853Y153806D01*
X33911Y153754D01*
X33966Y153699D01*
X34018Y153641D01*
X34068Y153581D01*
X34114Y153519D01*
X34158Y153454D01*
X34199Y153388D01*
X34236Y153319D01*
X34270Y153249D01*
X34301Y153177D01*
X34328Y153104D01*
X34352Y153030D01*
X34372Y152955D01*
X34388Y152879D01*
X34401Y152802D01*
X34411Y152725D01*
X34416Y152647D01*
X34418Y152569D01*
X34418Y152160D01*
X34417Y152160D02*
X34415Y152071D01*
X34409Y151982D01*
X34399Y151893D01*
X34386Y151805D01*
X34369Y151717D01*
X34347Y151630D01*
X34322Y151545D01*
X34294Y151460D01*
X34261Y151377D01*
X34225Y151295D01*
X34186Y151215D01*
X34143Y151137D01*
X34097Y151061D01*
X34047Y150986D01*
X33994Y150914D01*
X33938Y150845D01*
X33879Y150778D01*
X33818Y150713D01*
X33753Y150652D01*
X33686Y150593D01*
X33617Y150537D01*
X33545Y150484D01*
X33470Y150434D01*
X33394Y150388D01*
X33316Y150345D01*
X33236Y150306D01*
X33154Y150270D01*
X33071Y150237D01*
X32986Y150209D01*
X32901Y150184D01*
X32814Y150162D01*
X32726Y150145D01*
X32638Y150132D01*
X32549Y150122D01*
X32460Y150116D01*
X32371Y150114D01*
X32282Y150116D01*
X32193Y150122D01*
X32104Y150132D01*
X32016Y150145D01*
X31928Y150162D01*
X31841Y150184D01*
X31756Y150209D01*
X31671Y150237D01*
X31588Y150270D01*
X31506Y150306D01*
X31426Y150345D01*
X31348Y150388D01*
X31272Y150434D01*
X31197Y150484D01*
X31125Y150537D01*
X31056Y150593D01*
X30989Y150652D01*
X30924Y150713D01*
X30863Y150778D01*
X30804Y150845D01*
X30748Y150914D01*
X30695Y150986D01*
X30645Y151061D01*
X30599Y151137D01*
X30556Y151215D01*
X30517Y151295D01*
X30481Y151377D01*
X30448Y151460D01*
X30420Y151545D01*
X30395Y151630D01*
X30373Y151717D01*
X30356Y151805D01*
X30343Y151893D01*
X30333Y151982D01*
X30327Y152071D01*
X30325Y152160D01*
X30325Y154206D01*
X30327Y154318D01*
X30333Y154429D01*
X30342Y154541D01*
X30355Y154652D01*
X30373Y154762D01*
X30393Y154872D01*
X30418Y154981D01*
X30446Y155089D01*
X30478Y155196D01*
X30514Y155302D01*
X30553Y155407D01*
X30596Y155510D01*
X30642Y155612D01*
X30692Y155712D01*
X30745Y155811D01*
X30802Y155907D01*
X30861Y156002D01*
X30924Y156094D01*
X30990Y156184D01*
X31059Y156272D01*
X31131Y156358D01*
X31206Y156441D01*
X31284Y156521D01*
X31364Y156599D01*
X31447Y156674D01*
X31533Y156746D01*
X31621Y156815D01*
X31711Y156881D01*
X31803Y156944D01*
X31898Y157003D01*
X31994Y157060D01*
X32093Y157113D01*
X32193Y157163D01*
X32295Y157209D01*
X32398Y157252D01*
X32503Y157291D01*
X32609Y157327D01*
X32716Y157359D01*
X32824Y157387D01*
X32933Y157412D01*
X33043Y157432D01*
X33153Y157450D01*
X33264Y157463D01*
X33376Y157472D01*
X33487Y157478D01*
X33599Y157480D01*
X114793Y94869D02*
X116430Y94869D01*
X114793Y94869D02*
X114715Y94871D01*
X114637Y94876D01*
X114560Y94886D01*
X114483Y94899D01*
X114407Y94915D01*
X114332Y94935D01*
X114258Y94959D01*
X114185Y94986D01*
X114113Y95017D01*
X114043Y95051D01*
X113975Y95088D01*
X113908Y95129D01*
X113843Y95173D01*
X113781Y95219D01*
X113721Y95269D01*
X113663Y95321D01*
X113608Y95376D01*
X113556Y95434D01*
X113506Y95494D01*
X113460Y95556D01*
X113416Y95621D01*
X113375Y95688D01*
X113338Y95756D01*
X113304Y95826D01*
X113273Y95898D01*
X113246Y95971D01*
X113222Y96045D01*
X113202Y96120D01*
X113186Y96196D01*
X113173Y96273D01*
X113163Y96350D01*
X113158Y96428D01*
X113156Y96506D01*
X113157Y96506D02*
X113157Y100598D01*
X113156Y100598D02*
X113158Y100678D01*
X113164Y100758D01*
X113174Y100838D01*
X113187Y100917D01*
X113205Y100996D01*
X113226Y101073D01*
X113252Y101149D01*
X113281Y101224D01*
X113313Y101298D01*
X113349Y101370D01*
X113389Y101440D01*
X113432Y101507D01*
X113478Y101573D01*
X113528Y101636D01*
X113580Y101697D01*
X113635Y101756D01*
X113694Y101811D01*
X113754Y101863D01*
X113818Y101913D01*
X113884Y101959D01*
X113951Y102002D01*
X114021Y102042D01*
X114093Y102078D01*
X114167Y102110D01*
X114241Y102139D01*
X114318Y102165D01*
X114395Y102186D01*
X114474Y102204D01*
X114553Y102217D01*
X114633Y102227D01*
X114713Y102233D01*
X114793Y102235D01*
X116430Y102235D01*
X119276Y100598D02*
X121322Y102235D01*
X121322Y94869D01*
X119276Y94869D02*
X123368Y94869D01*
X126591Y101417D02*
X126591Y102235D01*
X130683Y102235D01*
X128637Y94869D01*
X153402Y78613D02*
X155039Y78613D01*
X153402Y78613D02*
X153324Y78615D01*
X153246Y78620D01*
X153169Y78630D01*
X153092Y78643D01*
X153016Y78659D01*
X152941Y78679D01*
X152867Y78703D01*
X152794Y78730D01*
X152722Y78761D01*
X152652Y78795D01*
X152584Y78832D01*
X152517Y78873D01*
X152452Y78917D01*
X152390Y78963D01*
X152330Y79013D01*
X152272Y79065D01*
X152217Y79120D01*
X152165Y79178D01*
X152115Y79238D01*
X152069Y79300D01*
X152025Y79365D01*
X151984Y79432D01*
X151947Y79500D01*
X151913Y79570D01*
X151882Y79642D01*
X151855Y79715D01*
X151831Y79789D01*
X151811Y79864D01*
X151795Y79940D01*
X151782Y80017D01*
X151772Y80094D01*
X151767Y80172D01*
X151765Y80250D01*
X151765Y84342D01*
X151767Y84422D01*
X151773Y84502D01*
X151783Y84582D01*
X151796Y84661D01*
X151814Y84740D01*
X151835Y84817D01*
X151861Y84893D01*
X151890Y84968D01*
X151922Y85042D01*
X151958Y85114D01*
X151998Y85184D01*
X152041Y85251D01*
X152087Y85317D01*
X152137Y85380D01*
X152189Y85441D01*
X152244Y85500D01*
X152303Y85555D01*
X152363Y85607D01*
X152427Y85657D01*
X152493Y85703D01*
X152560Y85746D01*
X152630Y85786D01*
X152702Y85822D01*
X152776Y85854D01*
X152850Y85883D01*
X152927Y85909D01*
X153004Y85930D01*
X153083Y85948D01*
X153162Y85961D01*
X153242Y85971D01*
X153322Y85977D01*
X153402Y85979D01*
X155039Y85979D01*
X157884Y84342D02*
X159930Y85979D01*
X159930Y78613D01*
X157884Y78613D02*
X161976Y78613D01*
X165199Y80659D02*
X165201Y80748D01*
X165207Y80837D01*
X165217Y80926D01*
X165230Y81014D01*
X165247Y81102D01*
X165269Y81189D01*
X165294Y81274D01*
X165322Y81359D01*
X165355Y81442D01*
X165391Y81524D01*
X165430Y81604D01*
X165473Y81682D01*
X165519Y81758D01*
X165569Y81833D01*
X165622Y81905D01*
X165678Y81974D01*
X165737Y82041D01*
X165798Y82106D01*
X165863Y82167D01*
X165930Y82226D01*
X165999Y82282D01*
X166071Y82335D01*
X166146Y82385D01*
X166222Y82431D01*
X166300Y82474D01*
X166380Y82513D01*
X166462Y82549D01*
X166545Y82582D01*
X166630Y82610D01*
X166715Y82635D01*
X166802Y82657D01*
X166890Y82674D01*
X166978Y82687D01*
X167067Y82697D01*
X167156Y82703D01*
X167245Y82705D01*
X167334Y82703D01*
X167423Y82697D01*
X167512Y82687D01*
X167600Y82674D01*
X167688Y82657D01*
X167775Y82635D01*
X167860Y82610D01*
X167945Y82582D01*
X168028Y82549D01*
X168110Y82513D01*
X168190Y82474D01*
X168268Y82431D01*
X168344Y82385D01*
X168419Y82335D01*
X168491Y82282D01*
X168560Y82226D01*
X168627Y82167D01*
X168692Y82106D01*
X168753Y82041D01*
X168812Y81974D01*
X168868Y81905D01*
X168921Y81833D01*
X168971Y81758D01*
X169017Y81682D01*
X169060Y81604D01*
X169099Y81524D01*
X169135Y81442D01*
X169168Y81359D01*
X169196Y81274D01*
X169221Y81189D01*
X169243Y81102D01*
X169260Y81014D01*
X169273Y80926D01*
X169283Y80837D01*
X169289Y80748D01*
X169291Y80659D01*
X169289Y80570D01*
X169283Y80481D01*
X169273Y80392D01*
X169260Y80304D01*
X169243Y80216D01*
X169221Y80129D01*
X169196Y80044D01*
X169168Y79959D01*
X169135Y79876D01*
X169099Y79794D01*
X169060Y79714D01*
X169017Y79636D01*
X168971Y79560D01*
X168921Y79485D01*
X168868Y79413D01*
X168812Y79344D01*
X168753Y79277D01*
X168692Y79212D01*
X168627Y79151D01*
X168560Y79092D01*
X168491Y79036D01*
X168419Y78983D01*
X168344Y78933D01*
X168268Y78887D01*
X168190Y78844D01*
X168110Y78805D01*
X168028Y78769D01*
X167945Y78736D01*
X167860Y78708D01*
X167775Y78683D01*
X167688Y78661D01*
X167600Y78644D01*
X167512Y78631D01*
X167423Y78621D01*
X167334Y78615D01*
X167245Y78613D01*
X167156Y78615D01*
X167067Y78621D01*
X166978Y78631D01*
X166890Y78644D01*
X166802Y78661D01*
X166715Y78683D01*
X166630Y78708D01*
X166545Y78736D01*
X166462Y78769D01*
X166380Y78805D01*
X166300Y78844D01*
X166222Y78887D01*
X166146Y78933D01*
X166071Y78983D01*
X165999Y79036D01*
X165930Y79092D01*
X165863Y79151D01*
X165798Y79212D01*
X165737Y79277D01*
X165678Y79344D01*
X165622Y79413D01*
X165569Y79485D01*
X165519Y79560D01*
X165473Y79636D01*
X165430Y79714D01*
X165391Y79794D01*
X165355Y79876D01*
X165322Y79959D01*
X165294Y80044D01*
X165269Y80129D01*
X165247Y80216D01*
X165230Y80304D01*
X165217Y80392D01*
X165207Y80481D01*
X165201Y80570D01*
X165199Y80659D01*
X165608Y84342D02*
X165610Y84421D01*
X165616Y84500D01*
X165625Y84579D01*
X165638Y84657D01*
X165656Y84734D01*
X165676Y84810D01*
X165701Y84885D01*
X165729Y84959D01*
X165760Y85032D01*
X165796Y85103D01*
X165834Y85172D01*
X165876Y85239D01*
X165921Y85304D01*
X165969Y85367D01*
X166020Y85428D01*
X166074Y85485D01*
X166130Y85541D01*
X166189Y85593D01*
X166251Y85643D01*
X166315Y85689D01*
X166381Y85733D01*
X166449Y85773D01*
X166519Y85809D01*
X166591Y85843D01*
X166665Y85873D01*
X166739Y85899D01*
X166815Y85922D01*
X166892Y85940D01*
X166969Y85956D01*
X167048Y85967D01*
X167126Y85975D01*
X167205Y85979D01*
X167285Y85979D01*
X167364Y85975D01*
X167442Y85967D01*
X167521Y85956D01*
X167598Y85940D01*
X167675Y85922D01*
X167751Y85899D01*
X167825Y85873D01*
X167899Y85843D01*
X167971Y85809D01*
X168041Y85773D01*
X168109Y85733D01*
X168175Y85689D01*
X168239Y85643D01*
X168301Y85593D01*
X168360Y85541D01*
X168416Y85485D01*
X168470Y85428D01*
X168521Y85367D01*
X168569Y85304D01*
X168614Y85239D01*
X168656Y85172D01*
X168694Y85103D01*
X168730Y85032D01*
X168761Y84959D01*
X168789Y84885D01*
X168814Y84810D01*
X168834Y84734D01*
X168852Y84657D01*
X168865Y84579D01*
X168874Y84500D01*
X168880Y84421D01*
X168882Y84342D01*
X168880Y84263D01*
X168874Y84184D01*
X168865Y84105D01*
X168852Y84027D01*
X168834Y83950D01*
X168814Y83874D01*
X168789Y83799D01*
X168761Y83725D01*
X168730Y83652D01*
X168694Y83581D01*
X168656Y83512D01*
X168614Y83445D01*
X168569Y83380D01*
X168521Y83317D01*
X168470Y83256D01*
X168416Y83199D01*
X168360Y83143D01*
X168301Y83091D01*
X168239Y83041D01*
X168175Y82995D01*
X168109Y82951D01*
X168041Y82911D01*
X167971Y82875D01*
X167899Y82841D01*
X167825Y82811D01*
X167751Y82785D01*
X167675Y82762D01*
X167598Y82744D01*
X167521Y82728D01*
X167442Y82717D01*
X167364Y82709D01*
X167285Y82705D01*
X167205Y82705D01*
X167126Y82709D01*
X167048Y82717D01*
X166969Y82728D01*
X166892Y82744D01*
X166815Y82762D01*
X166739Y82785D01*
X166665Y82811D01*
X166591Y82841D01*
X166519Y82875D01*
X166449Y82911D01*
X166381Y82951D01*
X166315Y82995D01*
X166251Y83041D01*
X166189Y83091D01*
X166130Y83143D01*
X166074Y83199D01*
X166020Y83256D01*
X165969Y83317D01*
X165921Y83380D01*
X165876Y83445D01*
X165834Y83512D01*
X165796Y83581D01*
X165760Y83652D01*
X165729Y83725D01*
X165701Y83799D01*
X165676Y83874D01*
X165656Y83950D01*
X165638Y84027D01*
X165625Y84105D01*
X165616Y84184D01*
X165610Y84263D01*
X165608Y84342D01*
D13*
X65206Y180429D02*
X65206Y185331D01*
X56206Y185331D02*
X56206Y180429D01*
D12*
X56642Y199517D02*
X56642Y206883D01*
X56642Y199517D02*
X59916Y199517D01*
X62722Y205246D02*
X64768Y206883D01*
X64768Y199517D01*
X62722Y199517D02*
X66815Y199517D01*
D13*
X54620Y125842D02*
X49520Y125842D01*
X49520Y139842D02*
X54620Y139842D01*
D12*
X24257Y134620D02*
X24257Y127254D01*
X27531Y127254D01*
X34430Y132779D02*
X34428Y132864D01*
X34422Y132949D01*
X34412Y133033D01*
X34399Y133117D01*
X34381Y133201D01*
X34360Y133283D01*
X34335Y133364D01*
X34306Y133444D01*
X34273Y133523D01*
X34237Y133600D01*
X34197Y133675D01*
X34154Y133749D01*
X34108Y133820D01*
X34058Y133889D01*
X34005Y133956D01*
X33949Y134020D01*
X33890Y134081D01*
X33829Y134140D01*
X33765Y134196D01*
X33698Y134249D01*
X33629Y134299D01*
X33558Y134345D01*
X33484Y134388D01*
X33409Y134428D01*
X33332Y134464D01*
X33253Y134497D01*
X33173Y134526D01*
X33092Y134551D01*
X33010Y134572D01*
X32926Y134590D01*
X32842Y134603D01*
X32758Y134613D01*
X32673Y134619D01*
X32588Y134621D01*
X32588Y134620D02*
X32492Y134618D01*
X32396Y134612D01*
X32301Y134602D01*
X32206Y134589D01*
X32111Y134571D01*
X32018Y134550D01*
X31925Y134525D01*
X31834Y134496D01*
X31743Y134464D01*
X31654Y134428D01*
X31567Y134388D01*
X31481Y134345D01*
X31397Y134299D01*
X31315Y134249D01*
X31235Y134195D01*
X31158Y134139D01*
X31083Y134079D01*
X31010Y134017D01*
X30940Y133951D01*
X30872Y133883D01*
X30807Y133812D01*
X30746Y133739D01*
X30687Y133663D01*
X30631Y133584D01*
X30579Y133504D01*
X30530Y133421D01*
X30484Y133337D01*
X30442Y133251D01*
X30404Y133163D01*
X30369Y133074D01*
X30337Y132983D01*
X33816Y131347D02*
X33876Y131406D01*
X33933Y131468D01*
X33988Y131532D01*
X34039Y131599D01*
X34088Y131668D01*
X34134Y131738D01*
X34177Y131811D01*
X34217Y131885D01*
X34253Y131961D01*
X34286Y132039D01*
X34316Y132118D01*
X34343Y132198D01*
X34366Y132279D01*
X34385Y132361D01*
X34401Y132443D01*
X34414Y132527D01*
X34423Y132611D01*
X34428Y132695D01*
X34430Y132779D01*
X33816Y131346D02*
X30337Y127254D01*
X34430Y127254D01*
D14*
X169482Y190620D02*
X177482Y190620D01*
X177482Y205620D02*
X169482Y205620D01*
D12*
X167727Y213170D02*
X165441Y216408D01*
X167727Y213170D02*
X170013Y216408D01*
X167727Y213170D02*
X167727Y209550D01*
X174776Y216409D02*
X174858Y216407D01*
X174939Y216401D01*
X175020Y216392D01*
X175101Y216378D01*
X175180Y216361D01*
X175259Y216340D01*
X175337Y216315D01*
X175413Y216286D01*
X175488Y216254D01*
X175562Y216218D01*
X175634Y216179D01*
X175703Y216137D01*
X175771Y216091D01*
X175836Y216042D01*
X175899Y215990D01*
X175959Y215935D01*
X176017Y215877D01*
X176072Y215817D01*
X176124Y215754D01*
X176173Y215689D01*
X176219Y215621D01*
X176261Y215552D01*
X176300Y215480D01*
X176336Y215406D01*
X176368Y215331D01*
X176397Y215255D01*
X176422Y215177D01*
X176443Y215098D01*
X176460Y215019D01*
X176474Y214938D01*
X176483Y214857D01*
X176489Y214776D01*
X176491Y214694D01*
X174776Y216408D02*
X174684Y216406D01*
X174592Y216400D01*
X174500Y216391D01*
X174408Y216377D01*
X174318Y216360D01*
X174228Y216339D01*
X174139Y216314D01*
X174051Y216285D01*
X173964Y216253D01*
X173879Y216217D01*
X173796Y216178D01*
X173714Y216135D01*
X173634Y216089D01*
X173556Y216039D01*
X173480Y215987D01*
X173407Y215931D01*
X173336Y215872D01*
X173267Y215810D01*
X173201Y215745D01*
X173138Y215678D01*
X173078Y215608D01*
X173020Y215536D01*
X172966Y215461D01*
X172915Y215384D01*
X172867Y215305D01*
X172823Y215224D01*
X172782Y215141D01*
X172744Y215057D01*
X172710Y214971D01*
X172680Y214884D01*
X175919Y213360D02*
X175978Y213419D01*
X176034Y213480D01*
X176087Y213543D01*
X176138Y213609D01*
X176185Y213677D01*
X176229Y213747D01*
X176270Y213819D01*
X176308Y213893D01*
X176342Y213968D01*
X176373Y214045D01*
X176400Y214123D01*
X176424Y214203D01*
X176445Y214283D01*
X176461Y214364D01*
X176474Y214446D01*
X176484Y214528D01*
X176489Y214611D01*
X176491Y214694D01*
X175919Y213360D02*
X172680Y209550D01*
X176490Y209550D01*
D15*
X142631Y68065D02*
X142693Y68063D01*
X142754Y68057D01*
X142815Y68048D01*
X142875Y68035D01*
X142934Y68018D01*
X142992Y67997D01*
X143049Y67973D01*
X143104Y67946D01*
X143157Y67915D01*
X143209Y67881D01*
X143258Y67844D01*
X143305Y67804D01*
X143349Y67761D01*
X143390Y67716D01*
X143429Y67668D01*
X143465Y67617D01*
X143497Y67565D01*
X143526Y67511D01*
X143552Y67455D01*
X143574Y67397D01*
X143593Y67339D01*
X143608Y67279D01*
X143619Y67218D01*
X143627Y67157D01*
X143631Y67096D01*
X143631Y67034D01*
X143627Y66973D01*
X143619Y66912D01*
X143608Y66851D01*
X143593Y66791D01*
X143574Y66733D01*
X143552Y66675D01*
X143526Y66619D01*
X143497Y66565D01*
X143465Y66513D01*
X143429Y66462D01*
X143390Y66414D01*
X143349Y66369D01*
X143305Y66326D01*
X143258Y66286D01*
X143209Y66249D01*
X143157Y66215D01*
X143104Y66184D01*
X143049Y66157D01*
X142992Y66133D01*
X142934Y66112D01*
X142875Y66095D01*
X142815Y66082D01*
X142754Y66073D01*
X142693Y66067D01*
X142631Y66065D01*
X142569Y66067D01*
X142508Y66073D01*
X142447Y66082D01*
X142387Y66095D01*
X142328Y66112D01*
X142270Y66133D01*
X142213Y66157D01*
X142158Y66184D01*
X142105Y66215D01*
X142053Y66249D01*
X142004Y66286D01*
X141957Y66326D01*
X141913Y66369D01*
X141872Y66414D01*
X141833Y66462D01*
X141797Y66513D01*
X141765Y66565D01*
X141736Y66619D01*
X141710Y66675D01*
X141688Y66733D01*
X141669Y66791D01*
X141654Y66851D01*
X141643Y66912D01*
X141635Y66973D01*
X141631Y67034D01*
X141631Y67096D01*
X141635Y67157D01*
X141643Y67218D01*
X141654Y67279D01*
X141669Y67339D01*
X141688Y67397D01*
X141710Y67455D01*
X141736Y67511D01*
X141765Y67565D01*
X141797Y67617D01*
X141833Y67668D01*
X141872Y67716D01*
X141913Y67761D01*
X141957Y67804D01*
X142004Y67844D01*
X142053Y67881D01*
X142105Y67915D01*
X142158Y67946D01*
X142213Y67973D01*
X142270Y67997D01*
X142328Y68018D01*
X142387Y68035D01*
X142447Y68048D01*
X142508Y68057D01*
X142569Y68063D01*
X142631Y68065D01*
D12*
X131678Y62665D02*
X129392Y65904D01*
X131678Y62665D02*
X133964Y65904D01*
X131678Y62665D02*
X131678Y59046D01*
X136631Y64380D02*
X138536Y65904D01*
X138536Y59046D01*
X136631Y59046D02*
X140441Y59046D01*
X168490Y149455D02*
X168490Y156821D01*
X168490Y149455D02*
X171764Y149455D01*
X174571Y149455D02*
X176617Y149455D01*
X176706Y149457D01*
X176795Y149463D01*
X176884Y149473D01*
X176972Y149486D01*
X177060Y149503D01*
X177147Y149525D01*
X177232Y149550D01*
X177317Y149578D01*
X177400Y149611D01*
X177482Y149647D01*
X177562Y149686D01*
X177640Y149729D01*
X177716Y149775D01*
X177791Y149825D01*
X177863Y149878D01*
X177932Y149934D01*
X177999Y149993D01*
X178064Y150054D01*
X178125Y150119D01*
X178184Y150186D01*
X178240Y150255D01*
X178293Y150327D01*
X178343Y150402D01*
X178389Y150478D01*
X178432Y150556D01*
X178471Y150636D01*
X178507Y150718D01*
X178540Y150801D01*
X178568Y150886D01*
X178593Y150971D01*
X178615Y151058D01*
X178632Y151146D01*
X178645Y151234D01*
X178655Y151323D01*
X178661Y151412D01*
X178663Y151501D01*
X178661Y151590D01*
X178655Y151679D01*
X178645Y151768D01*
X178632Y151856D01*
X178615Y151944D01*
X178593Y152031D01*
X178568Y152116D01*
X178540Y152201D01*
X178507Y152284D01*
X178471Y152366D01*
X178432Y152446D01*
X178389Y152524D01*
X178343Y152600D01*
X178293Y152675D01*
X178240Y152747D01*
X178184Y152816D01*
X178125Y152883D01*
X178064Y152948D01*
X177999Y153009D01*
X177932Y153068D01*
X177863Y153124D01*
X177791Y153177D01*
X177716Y153227D01*
X177640Y153273D01*
X177562Y153316D01*
X177482Y153355D01*
X177400Y153391D01*
X177317Y153424D01*
X177232Y153452D01*
X177147Y153477D01*
X177060Y153499D01*
X176972Y153516D01*
X176884Y153529D01*
X176795Y153539D01*
X176706Y153545D01*
X176617Y153547D01*
X177026Y156821D02*
X174571Y156821D01*
X177026Y156821D02*
X177105Y156819D01*
X177184Y156813D01*
X177263Y156804D01*
X177341Y156791D01*
X177418Y156773D01*
X177494Y156753D01*
X177569Y156728D01*
X177643Y156700D01*
X177716Y156669D01*
X177787Y156633D01*
X177856Y156595D01*
X177923Y156553D01*
X177988Y156508D01*
X178051Y156460D01*
X178112Y156409D01*
X178169Y156355D01*
X178225Y156299D01*
X178277Y156240D01*
X178327Y156178D01*
X178373Y156114D01*
X178417Y156048D01*
X178457Y155980D01*
X178493Y155910D01*
X178527Y155838D01*
X178557Y155764D01*
X178583Y155690D01*
X178606Y155614D01*
X178624Y155537D01*
X178640Y155460D01*
X178651Y155381D01*
X178659Y155303D01*
X178663Y155224D01*
X178663Y155144D01*
X178659Y155065D01*
X178651Y154987D01*
X178640Y154908D01*
X178624Y154831D01*
X178606Y154754D01*
X178583Y154678D01*
X178557Y154604D01*
X178527Y154530D01*
X178493Y154458D01*
X178457Y154388D01*
X178417Y154320D01*
X178373Y154254D01*
X178327Y154190D01*
X178277Y154128D01*
X178225Y154069D01*
X178169Y154013D01*
X178112Y153959D01*
X178051Y153908D01*
X177988Y153860D01*
X177923Y153815D01*
X177856Y153773D01*
X177787Y153735D01*
X177716Y153699D01*
X177643Y153668D01*
X177569Y153640D01*
X177494Y153615D01*
X177418Y153595D01*
X177341Y153577D01*
X177263Y153564D01*
X177184Y153555D01*
X177105Y153549D01*
X177026Y153547D01*
X175389Y153547D01*
X171939Y158827D02*
X170302Y158827D01*
X170224Y158829D01*
X170146Y158834D01*
X170069Y158844D01*
X169992Y158857D01*
X169916Y158873D01*
X169841Y158893D01*
X169767Y158917D01*
X169694Y158944D01*
X169622Y158975D01*
X169552Y159009D01*
X169484Y159046D01*
X169417Y159087D01*
X169352Y159131D01*
X169290Y159177D01*
X169230Y159227D01*
X169172Y159279D01*
X169117Y159334D01*
X169065Y159392D01*
X169015Y159452D01*
X168969Y159514D01*
X168925Y159579D01*
X168884Y159646D01*
X168847Y159714D01*
X168813Y159784D01*
X168782Y159856D01*
X168755Y159929D01*
X168731Y160003D01*
X168711Y160078D01*
X168695Y160154D01*
X168682Y160231D01*
X168672Y160308D01*
X168667Y160386D01*
X168665Y160464D01*
X168665Y164556D01*
X168667Y164636D01*
X168673Y164716D01*
X168683Y164796D01*
X168696Y164875D01*
X168714Y164954D01*
X168735Y165031D01*
X168761Y165107D01*
X168790Y165182D01*
X168822Y165256D01*
X168858Y165328D01*
X168898Y165398D01*
X168941Y165465D01*
X168987Y165531D01*
X169037Y165594D01*
X169089Y165655D01*
X169144Y165714D01*
X169203Y165769D01*
X169263Y165821D01*
X169327Y165871D01*
X169393Y165917D01*
X169460Y165960D01*
X169530Y166000D01*
X169602Y166036D01*
X169676Y166068D01*
X169750Y166097D01*
X169827Y166123D01*
X169904Y166144D01*
X169983Y166162D01*
X170062Y166175D01*
X170142Y166185D01*
X170222Y166191D01*
X170302Y166193D01*
X171939Y166193D01*
X174785Y158827D02*
X176831Y158827D01*
X176920Y158829D01*
X177009Y158835D01*
X177098Y158845D01*
X177186Y158858D01*
X177274Y158875D01*
X177361Y158897D01*
X177446Y158922D01*
X177531Y158950D01*
X177614Y158983D01*
X177696Y159019D01*
X177776Y159058D01*
X177854Y159101D01*
X177930Y159147D01*
X178005Y159197D01*
X178077Y159250D01*
X178146Y159306D01*
X178213Y159365D01*
X178278Y159426D01*
X178339Y159491D01*
X178398Y159558D01*
X178454Y159627D01*
X178507Y159699D01*
X178557Y159774D01*
X178603Y159850D01*
X178646Y159928D01*
X178685Y160008D01*
X178721Y160090D01*
X178754Y160173D01*
X178782Y160258D01*
X178807Y160343D01*
X178829Y160430D01*
X178846Y160518D01*
X178859Y160606D01*
X178869Y160695D01*
X178875Y160784D01*
X178877Y160873D01*
X178875Y160962D01*
X178869Y161051D01*
X178859Y161140D01*
X178846Y161228D01*
X178829Y161316D01*
X178807Y161403D01*
X178782Y161488D01*
X178754Y161573D01*
X178721Y161656D01*
X178685Y161738D01*
X178646Y161818D01*
X178603Y161896D01*
X178557Y161972D01*
X178507Y162047D01*
X178454Y162119D01*
X178398Y162188D01*
X178339Y162255D01*
X178278Y162320D01*
X178213Y162381D01*
X178146Y162440D01*
X178077Y162496D01*
X178005Y162549D01*
X177930Y162599D01*
X177854Y162645D01*
X177776Y162688D01*
X177696Y162727D01*
X177614Y162763D01*
X177531Y162796D01*
X177446Y162824D01*
X177361Y162849D01*
X177274Y162871D01*
X177186Y162888D01*
X177098Y162901D01*
X177009Y162911D01*
X176920Y162917D01*
X176831Y162919D01*
X177240Y166193D02*
X174785Y166193D01*
X177240Y166193D02*
X177319Y166191D01*
X177398Y166185D01*
X177477Y166176D01*
X177555Y166163D01*
X177632Y166145D01*
X177708Y166125D01*
X177783Y166100D01*
X177857Y166072D01*
X177930Y166041D01*
X178001Y166005D01*
X178070Y165967D01*
X178137Y165925D01*
X178202Y165880D01*
X178265Y165832D01*
X178326Y165781D01*
X178383Y165727D01*
X178439Y165671D01*
X178491Y165612D01*
X178541Y165550D01*
X178587Y165486D01*
X178631Y165420D01*
X178671Y165352D01*
X178707Y165282D01*
X178741Y165210D01*
X178771Y165136D01*
X178797Y165062D01*
X178820Y164986D01*
X178838Y164909D01*
X178854Y164832D01*
X178865Y164753D01*
X178873Y164675D01*
X178877Y164596D01*
X178877Y164516D01*
X178873Y164437D01*
X178865Y164359D01*
X178854Y164280D01*
X178838Y164203D01*
X178820Y164126D01*
X178797Y164050D01*
X178771Y163976D01*
X178741Y163902D01*
X178707Y163830D01*
X178671Y163760D01*
X178631Y163692D01*
X178587Y163626D01*
X178541Y163562D01*
X178491Y163500D01*
X178439Y163441D01*
X178383Y163385D01*
X178326Y163331D01*
X178265Y163280D01*
X178202Y163232D01*
X178137Y163187D01*
X178070Y163145D01*
X178001Y163107D01*
X177930Y163071D01*
X177857Y163040D01*
X177783Y163012D01*
X177708Y162987D01*
X177632Y162967D01*
X177555Y162949D01*
X177477Y162936D01*
X177398Y162927D01*
X177319Y162921D01*
X177240Y162919D01*
X175603Y162919D01*
X175906Y77947D02*
X174269Y77947D01*
X174191Y77949D01*
X174113Y77954D01*
X174036Y77964D01*
X173959Y77977D01*
X173883Y77993D01*
X173808Y78013D01*
X173734Y78037D01*
X173661Y78064D01*
X173589Y78095D01*
X173519Y78129D01*
X173451Y78166D01*
X173384Y78207D01*
X173319Y78251D01*
X173257Y78297D01*
X173197Y78347D01*
X173139Y78399D01*
X173084Y78454D01*
X173032Y78512D01*
X172982Y78572D01*
X172936Y78634D01*
X172892Y78699D01*
X172851Y78766D01*
X172814Y78834D01*
X172780Y78904D01*
X172749Y78976D01*
X172722Y79049D01*
X172698Y79123D01*
X172678Y79198D01*
X172662Y79274D01*
X172649Y79351D01*
X172639Y79428D01*
X172634Y79506D01*
X172632Y79584D01*
X172632Y83676D01*
X172634Y83756D01*
X172640Y83836D01*
X172650Y83916D01*
X172663Y83995D01*
X172681Y84074D01*
X172702Y84151D01*
X172728Y84227D01*
X172757Y84302D01*
X172789Y84376D01*
X172825Y84448D01*
X172865Y84518D01*
X172908Y84585D01*
X172954Y84651D01*
X173004Y84714D01*
X173056Y84775D01*
X173111Y84834D01*
X173170Y84889D01*
X173230Y84941D01*
X173294Y84991D01*
X173360Y85037D01*
X173427Y85080D01*
X173497Y85120D01*
X173569Y85156D01*
X173643Y85188D01*
X173717Y85217D01*
X173794Y85243D01*
X173871Y85264D01*
X173950Y85282D01*
X174029Y85295D01*
X174109Y85305D01*
X174189Y85311D01*
X174269Y85313D01*
X175906Y85313D01*
X180388Y85313D02*
X178751Y79584D01*
X182843Y79584D01*
X181616Y81221D02*
X181616Y77947D01*
X171969Y139516D02*
X170333Y139516D01*
X170255Y139518D01*
X170177Y139523D01*
X170100Y139533D01*
X170023Y139546D01*
X169947Y139562D01*
X169872Y139582D01*
X169798Y139606D01*
X169725Y139633D01*
X169653Y139664D01*
X169583Y139698D01*
X169515Y139735D01*
X169448Y139776D01*
X169383Y139820D01*
X169321Y139866D01*
X169261Y139916D01*
X169203Y139968D01*
X169148Y140023D01*
X169096Y140081D01*
X169046Y140141D01*
X169000Y140203D01*
X168956Y140268D01*
X168915Y140335D01*
X168878Y140403D01*
X168844Y140473D01*
X168813Y140545D01*
X168786Y140618D01*
X168762Y140692D01*
X168742Y140767D01*
X168726Y140843D01*
X168713Y140920D01*
X168703Y140997D01*
X168698Y141075D01*
X168696Y141153D01*
X168696Y145245D01*
X168698Y145325D01*
X168704Y145405D01*
X168714Y145485D01*
X168727Y145564D01*
X168745Y145643D01*
X168766Y145720D01*
X168792Y145796D01*
X168821Y145871D01*
X168853Y145945D01*
X168889Y146017D01*
X168929Y146087D01*
X168972Y146154D01*
X169018Y146220D01*
X169068Y146283D01*
X169120Y146344D01*
X169175Y146403D01*
X169234Y146458D01*
X169294Y146510D01*
X169358Y146560D01*
X169424Y146606D01*
X169491Y146649D01*
X169561Y146689D01*
X169633Y146725D01*
X169707Y146757D01*
X169781Y146786D01*
X169858Y146812D01*
X169935Y146833D01*
X170014Y146851D01*
X170093Y146864D01*
X170173Y146874D01*
X170253Y146880D01*
X170333Y146882D01*
X171969Y146882D01*
X176452Y142789D02*
X178907Y142789D01*
X176452Y142789D02*
X176374Y142791D01*
X176296Y142796D01*
X176219Y142806D01*
X176142Y142819D01*
X176066Y142835D01*
X175991Y142855D01*
X175917Y142879D01*
X175844Y142906D01*
X175772Y142937D01*
X175702Y142971D01*
X175633Y143008D01*
X175567Y143049D01*
X175502Y143093D01*
X175440Y143139D01*
X175380Y143189D01*
X175322Y143241D01*
X175267Y143296D01*
X175215Y143354D01*
X175165Y143414D01*
X175119Y143476D01*
X175075Y143541D01*
X175034Y143608D01*
X174997Y143676D01*
X174963Y143746D01*
X174932Y143818D01*
X174905Y143891D01*
X174881Y143965D01*
X174861Y144040D01*
X174845Y144116D01*
X174832Y144193D01*
X174822Y144270D01*
X174817Y144348D01*
X174815Y144426D01*
X174815Y144836D01*
X174817Y144925D01*
X174823Y145014D01*
X174833Y145103D01*
X174846Y145191D01*
X174863Y145279D01*
X174885Y145366D01*
X174910Y145451D01*
X174938Y145536D01*
X174971Y145619D01*
X175007Y145701D01*
X175046Y145781D01*
X175089Y145859D01*
X175135Y145935D01*
X175185Y146010D01*
X175238Y146082D01*
X175294Y146151D01*
X175353Y146218D01*
X175414Y146283D01*
X175479Y146344D01*
X175546Y146403D01*
X175615Y146459D01*
X175687Y146512D01*
X175762Y146562D01*
X175838Y146608D01*
X175916Y146651D01*
X175996Y146690D01*
X176078Y146726D01*
X176161Y146759D01*
X176246Y146787D01*
X176331Y146812D01*
X176418Y146834D01*
X176506Y146851D01*
X176594Y146864D01*
X176683Y146874D01*
X176772Y146880D01*
X176861Y146882D01*
X176950Y146880D01*
X177039Y146874D01*
X177128Y146864D01*
X177216Y146851D01*
X177304Y146834D01*
X177391Y146812D01*
X177476Y146787D01*
X177561Y146759D01*
X177644Y146726D01*
X177726Y146690D01*
X177806Y146651D01*
X177884Y146608D01*
X177960Y146562D01*
X178035Y146512D01*
X178107Y146459D01*
X178176Y146403D01*
X178243Y146344D01*
X178308Y146283D01*
X178369Y146218D01*
X178428Y146151D01*
X178484Y146082D01*
X178537Y146010D01*
X178587Y145935D01*
X178633Y145859D01*
X178676Y145781D01*
X178715Y145701D01*
X178751Y145619D01*
X178784Y145536D01*
X178812Y145451D01*
X178837Y145366D01*
X178859Y145279D01*
X178876Y145191D01*
X178889Y145103D01*
X178899Y145014D01*
X178905Y144925D01*
X178907Y144836D01*
X178907Y142789D01*
X178905Y142677D01*
X178899Y142566D01*
X178890Y142454D01*
X178877Y142343D01*
X178859Y142233D01*
X178839Y142123D01*
X178814Y142014D01*
X178786Y141906D01*
X178754Y141799D01*
X178718Y141693D01*
X178679Y141588D01*
X178636Y141485D01*
X178590Y141383D01*
X178540Y141283D01*
X178487Y141184D01*
X178430Y141088D01*
X178371Y140993D01*
X178308Y140901D01*
X178242Y140811D01*
X178173Y140723D01*
X178101Y140637D01*
X178026Y140554D01*
X177948Y140474D01*
X177868Y140396D01*
X177785Y140321D01*
X177699Y140249D01*
X177611Y140180D01*
X177521Y140114D01*
X177429Y140051D01*
X177334Y139992D01*
X177238Y139935D01*
X177139Y139882D01*
X177039Y139832D01*
X176937Y139786D01*
X176834Y139743D01*
X176729Y139704D01*
X176623Y139668D01*
X176516Y139636D01*
X176408Y139608D01*
X176299Y139583D01*
X176189Y139563D01*
X176079Y139545D01*
X175968Y139532D01*
X175856Y139523D01*
X175745Y139517D01*
X175633Y139515D01*
X209396Y94501D02*
X209396Y92864D01*
X209394Y92786D01*
X209389Y92708D01*
X209379Y92631D01*
X209366Y92554D01*
X209350Y92478D01*
X209330Y92403D01*
X209306Y92329D01*
X209279Y92256D01*
X209248Y92184D01*
X209214Y92114D01*
X209177Y92046D01*
X209136Y91979D01*
X209092Y91914D01*
X209046Y91852D01*
X208996Y91792D01*
X208944Y91734D01*
X208889Y91679D01*
X208831Y91627D01*
X208771Y91577D01*
X208709Y91531D01*
X208644Y91487D01*
X208578Y91446D01*
X208509Y91409D01*
X208439Y91375D01*
X208367Y91344D01*
X208294Y91317D01*
X208220Y91293D01*
X208145Y91273D01*
X208069Y91257D01*
X207992Y91244D01*
X207915Y91234D01*
X207837Y91229D01*
X207759Y91227D01*
X203667Y91227D01*
X203587Y91229D01*
X203507Y91235D01*
X203427Y91245D01*
X203348Y91258D01*
X203269Y91276D01*
X203192Y91297D01*
X203116Y91323D01*
X203041Y91352D01*
X202967Y91384D01*
X202895Y91420D01*
X202825Y91460D01*
X202758Y91503D01*
X202692Y91549D01*
X202629Y91599D01*
X202568Y91651D01*
X202509Y91706D01*
X202454Y91765D01*
X202402Y91825D01*
X202352Y91889D01*
X202306Y91954D01*
X202263Y92022D01*
X202223Y92092D01*
X202187Y92164D01*
X202155Y92238D01*
X202126Y92312D01*
X202101Y92389D01*
X202079Y92466D01*
X202061Y92545D01*
X202048Y92624D01*
X202038Y92703D01*
X202032Y92784D01*
X202030Y92864D01*
X202030Y94501D01*
X203667Y97346D02*
X202030Y99393D01*
X209396Y99393D01*
X209396Y101439D02*
X209396Y97346D01*
X205713Y104662D02*
X205560Y104664D01*
X205407Y104670D01*
X205255Y104679D01*
X205102Y104693D01*
X204950Y104710D01*
X204799Y104731D01*
X204648Y104756D01*
X204498Y104785D01*
X204348Y104817D01*
X204200Y104854D01*
X204052Y104894D01*
X203905Y104937D01*
X203760Y104985D01*
X203616Y105036D01*
X203473Y105090D01*
X203331Y105149D01*
X203192Y105210D01*
X203053Y105276D01*
X202983Y105302D01*
X202913Y105332D01*
X202846Y105365D01*
X202780Y105401D01*
X202716Y105440D01*
X202654Y105483D01*
X202595Y105529D01*
X202537Y105577D01*
X202483Y105628D01*
X202430Y105682D01*
X202381Y105739D01*
X202334Y105798D01*
X202291Y105859D01*
X202250Y105922D01*
X202213Y105987D01*
X202178Y106054D01*
X202148Y106123D01*
X202120Y106193D01*
X202097Y106264D01*
X202076Y106336D01*
X202060Y106409D01*
X202047Y106483D01*
X202037Y106558D01*
X202032Y106633D01*
X202030Y106708D01*
X202032Y106783D01*
X202037Y106858D01*
X202047Y106933D01*
X202060Y107007D01*
X202076Y107080D01*
X202097Y107152D01*
X202120Y107223D01*
X202148Y107293D01*
X202178Y107362D01*
X202213Y107429D01*
X202250Y107494D01*
X202291Y107557D01*
X202334Y107618D01*
X202381Y107677D01*
X202430Y107734D01*
X202483Y107788D01*
X202537Y107839D01*
X202595Y107888D01*
X202654Y107933D01*
X202716Y107976D01*
X202780Y108015D01*
X202846Y108052D01*
X202914Y108084D01*
X202983Y108114D01*
X203053Y108140D01*
X203191Y108205D01*
X203331Y108267D01*
X203473Y108325D01*
X203616Y108380D01*
X203760Y108431D01*
X203905Y108479D01*
X204052Y108522D01*
X204199Y108562D01*
X204348Y108599D01*
X204498Y108631D01*
X204648Y108660D01*
X204799Y108685D01*
X204950Y108706D01*
X205102Y108723D01*
X205255Y108737D01*
X205407Y108746D01*
X205560Y108752D01*
X205713Y108754D01*
X205713Y104662D02*
X205866Y104664D01*
X206019Y104670D01*
X206171Y104679D01*
X206324Y104693D01*
X206476Y104710D01*
X206627Y104731D01*
X206778Y104756D01*
X206928Y104785D01*
X207078Y104817D01*
X207226Y104854D01*
X207374Y104894D01*
X207521Y104937D01*
X207666Y104985D01*
X207810Y105036D01*
X207953Y105090D01*
X208095Y105149D01*
X208234Y105210D01*
X208373Y105276D01*
X208444Y105302D01*
X208513Y105332D01*
X208580Y105365D01*
X208646Y105401D01*
X208710Y105440D01*
X208772Y105483D01*
X208831Y105529D01*
X208889Y105577D01*
X208943Y105628D01*
X208996Y105682D01*
X209045Y105739D01*
X209092Y105798D01*
X209135Y105859D01*
X209176Y105922D01*
X209213Y105987D01*
X209248Y106054D01*
X209278Y106123D01*
X209306Y106193D01*
X209329Y106264D01*
X209350Y106336D01*
X209366Y106409D01*
X209379Y106483D01*
X209389Y106558D01*
X209394Y106633D01*
X209396Y106708D01*
X208373Y108140D02*
X208235Y108205D01*
X208095Y108267D01*
X207953Y108325D01*
X207810Y108380D01*
X207666Y108431D01*
X207521Y108479D01*
X207374Y108522D01*
X207227Y108562D01*
X207078Y108599D01*
X206928Y108631D01*
X206778Y108660D01*
X206627Y108685D01*
X206476Y108706D01*
X206324Y108723D01*
X206171Y108737D01*
X206019Y108746D01*
X205866Y108752D01*
X205713Y108754D01*
X208373Y108140D02*
X208443Y108114D01*
X208513Y108084D01*
X208580Y108051D01*
X208646Y108015D01*
X208710Y107976D01*
X208772Y107933D01*
X208831Y107887D01*
X208889Y107839D01*
X208943Y107788D01*
X208996Y107734D01*
X209045Y107677D01*
X209092Y107618D01*
X209135Y107557D01*
X209176Y107494D01*
X209213Y107429D01*
X209248Y107362D01*
X209278Y107293D01*
X209306Y107223D01*
X209329Y107152D01*
X209350Y107080D01*
X209366Y107007D01*
X209379Y106933D01*
X209389Y106858D01*
X209394Y106783D01*
X209396Y106708D01*
X207759Y105071D02*
X203667Y108345D01*
X210337Y133845D02*
X211974Y133839D01*
X210337Y133845D02*
X210257Y133847D01*
X210177Y133853D01*
X210097Y133864D01*
X210018Y133878D01*
X209940Y133895D01*
X209862Y133917D01*
X209786Y133943D01*
X209711Y133972D01*
X209638Y134005D01*
X209566Y134041D01*
X209497Y134081D01*
X209429Y134124D01*
X209363Y134171D01*
X209300Y134220D01*
X209239Y134273D01*
X209181Y134329D01*
X209126Y134387D01*
X209074Y134448D01*
X209025Y134511D01*
X208979Y134577D01*
X208936Y134645D01*
X208897Y134715D01*
X208861Y134787D01*
X208828Y134861D01*
X208800Y134936D01*
X208775Y135012D01*
X208754Y135090D01*
X208736Y135168D01*
X208723Y135247D01*
X208713Y135327D01*
X208708Y135407D01*
X208706Y135488D01*
X208706Y135487D02*
X208721Y139580D01*
X208720Y139580D02*
X208722Y139660D01*
X208728Y139740D01*
X208739Y139820D01*
X208753Y139899D01*
X208770Y139977D01*
X208792Y140055D01*
X208818Y140131D01*
X208847Y140206D01*
X208880Y140279D01*
X208916Y140351D01*
X208956Y140420D01*
X208999Y140488D01*
X209046Y140554D01*
X209095Y140617D01*
X209148Y140678D01*
X209204Y140736D01*
X209262Y140791D01*
X209323Y140843D01*
X209386Y140892D01*
X209452Y140938D01*
X209520Y140981D01*
X209590Y141020D01*
X209662Y141056D01*
X209736Y141089D01*
X209811Y141117D01*
X209887Y141142D01*
X209965Y141163D01*
X210043Y141181D01*
X210122Y141194D01*
X210202Y141204D01*
X210282Y141209D01*
X210363Y141211D01*
X212000Y141205D01*
X214840Y139558D02*
X216891Y141188D01*
X216866Y133822D01*
X214820Y133829D02*
X218912Y133815D01*
X223783Y137072D02*
X226238Y137063D01*
X223783Y137071D02*
X223705Y137073D01*
X223628Y137079D01*
X223550Y137088D01*
X223474Y137102D01*
X223398Y137119D01*
X223322Y137139D01*
X223248Y137163D01*
X223175Y137190D01*
X223104Y137221D01*
X223034Y137256D01*
X222966Y137293D01*
X222899Y137334D01*
X222835Y137378D01*
X222773Y137425D01*
X222713Y137475D01*
X222655Y137527D01*
X222600Y137582D01*
X222548Y137640D01*
X222499Y137701D01*
X222452Y137763D01*
X222409Y137828D01*
X222368Y137894D01*
X222331Y137963D01*
X222298Y138033D01*
X222267Y138105D01*
X222240Y138178D01*
X222217Y138252D01*
X222197Y138328D01*
X222181Y138404D01*
X222168Y138481D01*
X222159Y138558D01*
X222154Y138636D01*
X222152Y138714D01*
X222153Y139123D01*
X222155Y139212D01*
X222161Y139301D01*
X222171Y139390D01*
X222185Y139478D01*
X222203Y139566D01*
X222225Y139652D01*
X222250Y139738D01*
X222279Y139823D01*
X222312Y139906D01*
X222348Y139987D01*
X222387Y140067D01*
X222431Y140145D01*
X222477Y140221D01*
X222527Y140295D01*
X222580Y140367D01*
X222636Y140437D01*
X222695Y140504D01*
X222757Y140568D01*
X222822Y140629D01*
X222889Y140688D01*
X222959Y140744D01*
X223031Y140796D01*
X223106Y140845D01*
X223182Y140891D01*
X223261Y140934D01*
X223341Y140973D01*
X223423Y141009D01*
X223506Y141041D01*
X223591Y141069D01*
X223676Y141094D01*
X223763Y141115D01*
X223851Y141132D01*
X223939Y141145D01*
X224028Y141155D01*
X224117Y141160D01*
X224206Y141162D01*
X224295Y141160D01*
X224384Y141154D01*
X224473Y141144D01*
X224561Y141130D01*
X224649Y141112D01*
X224735Y141090D01*
X224821Y141065D01*
X224905Y141036D01*
X224989Y141004D01*
X225070Y140967D01*
X225150Y140928D01*
X225228Y140884D01*
X225304Y140838D01*
X225378Y140788D01*
X225450Y140735D01*
X225520Y140679D01*
X225586Y140620D01*
X225651Y140558D01*
X225712Y140493D01*
X225771Y140426D01*
X225827Y140356D01*
X225879Y140284D01*
X225928Y140209D01*
X225974Y140133D01*
X226017Y140054D01*
X226056Y139974D01*
X226092Y139892D01*
X226124Y139809D01*
X226152Y139724D01*
X226177Y139639D01*
X226198Y139552D01*
X226215Y139464D01*
X226228Y139376D01*
X226238Y139287D01*
X226243Y139198D01*
X226245Y139109D01*
X226238Y137063D01*
X226239Y137063D02*
X226237Y136948D01*
X226230Y136834D01*
X226220Y136720D01*
X226206Y136607D01*
X226187Y136494D01*
X226165Y136382D01*
X226139Y136271D01*
X226109Y136161D01*
X226075Y136051D01*
X226038Y135943D01*
X225996Y135837D01*
X225951Y135732D01*
X225903Y135629D01*
X225850Y135527D01*
X225795Y135427D01*
X225735Y135329D01*
X225673Y135234D01*
X225607Y135140D01*
X225538Y135049D01*
X225466Y134961D01*
X225390Y134875D01*
X225312Y134791D01*
X225231Y134711D01*
X225147Y134633D01*
X225061Y134559D01*
X224972Y134487D01*
X224880Y134419D01*
X224786Y134353D01*
X224690Y134291D01*
X224592Y134233D01*
X224492Y134178D01*
X224390Y134126D01*
X224286Y134078D01*
X224181Y134034D01*
X224074Y133994D01*
X223966Y133957D01*
X223856Y133924D01*
X223746Y133895D01*
X223635Y133869D01*
X223522Y133848D01*
X223409Y133830D01*
X223296Y133817D01*
X223182Y133807D01*
X223068Y133802D01*
X222954Y133800D01*
X189321Y96843D02*
X181955Y96843D01*
X189321Y96843D02*
X189321Y100116D01*
X187684Y102923D02*
X181955Y104560D01*
X187684Y102923D02*
X187684Y107015D01*
X186047Y105787D02*
X189321Y105787D01*
X200144Y114949D02*
X200144Y122315D01*
X200144Y114949D02*
X203418Y114949D01*
X206224Y114949D02*
X208679Y114949D01*
X208757Y114951D01*
X208835Y114956D01*
X208912Y114966D01*
X208989Y114979D01*
X209065Y114995D01*
X209140Y115015D01*
X209214Y115039D01*
X209287Y115066D01*
X209359Y115097D01*
X209429Y115131D01*
X209498Y115168D01*
X209564Y115209D01*
X209629Y115253D01*
X209691Y115299D01*
X209751Y115349D01*
X209809Y115401D01*
X209864Y115456D01*
X209916Y115514D01*
X209966Y115574D01*
X210012Y115636D01*
X210056Y115701D01*
X210097Y115768D01*
X210134Y115836D01*
X210168Y115906D01*
X210199Y115978D01*
X210226Y116051D01*
X210250Y116125D01*
X210270Y116200D01*
X210286Y116276D01*
X210299Y116353D01*
X210309Y116430D01*
X210314Y116508D01*
X210316Y116586D01*
X210316Y117404D01*
X210314Y117482D01*
X210309Y117560D01*
X210299Y117637D01*
X210286Y117714D01*
X210270Y117790D01*
X210250Y117865D01*
X210226Y117939D01*
X210199Y118012D01*
X210168Y118084D01*
X210134Y118154D01*
X210097Y118223D01*
X210056Y118289D01*
X210012Y118354D01*
X209966Y118416D01*
X209916Y118476D01*
X209864Y118534D01*
X209809Y118589D01*
X209751Y118641D01*
X209691Y118691D01*
X209629Y118737D01*
X209564Y118781D01*
X209498Y118822D01*
X209429Y118859D01*
X209359Y118893D01*
X209287Y118924D01*
X209214Y118951D01*
X209140Y118975D01*
X209065Y118995D01*
X208989Y119011D01*
X208912Y119024D01*
X208835Y119034D01*
X208757Y119039D01*
X208679Y119041D01*
X206224Y119041D01*
X206224Y122315D01*
X210316Y122315D01*
X195043Y133541D02*
X195120Y140907D01*
X195043Y133541D02*
X198316Y133507D01*
X201166Y137569D02*
X203621Y137544D01*
X203699Y137541D01*
X203777Y137535D01*
X203854Y137525D01*
X203931Y137511D01*
X204007Y137494D01*
X204082Y137473D01*
X204156Y137448D01*
X204228Y137420D01*
X204300Y137389D01*
X204369Y137354D01*
X204437Y137316D01*
X204503Y137275D01*
X204567Y137230D01*
X204629Y137183D01*
X204689Y137133D01*
X204746Y137080D01*
X204801Y137024D01*
X204852Y136966D01*
X204901Y136905D01*
X204947Y136843D01*
X204990Y136778D01*
X205030Y136711D01*
X205067Y136642D01*
X205100Y136571D01*
X205130Y136499D01*
X205156Y136426D01*
X205179Y136352D01*
X205199Y136276D01*
X205215Y136200D01*
X205227Y136123D01*
X205235Y136046D01*
X205240Y135968D01*
X205241Y135890D01*
X205236Y135480D01*
X205236Y135481D02*
X205233Y135391D01*
X205226Y135302D01*
X205216Y135214D01*
X205201Y135126D01*
X205183Y135038D01*
X205161Y134952D01*
X205135Y134866D01*
X205105Y134782D01*
X205072Y134699D01*
X205035Y134618D01*
X204995Y134538D01*
X204951Y134461D01*
X204904Y134385D01*
X204854Y134311D01*
X204800Y134240D01*
X204743Y134171D01*
X204684Y134104D01*
X204622Y134040D01*
X204556Y133979D01*
X204489Y133921D01*
X204418Y133866D01*
X204346Y133814D01*
X204271Y133765D01*
X204194Y133720D01*
X204116Y133677D01*
X204035Y133639D01*
X203953Y133604D01*
X203870Y133572D01*
X203785Y133544D01*
X203699Y133520D01*
X203612Y133500D01*
X203524Y133483D01*
X203436Y133471D01*
X203347Y133462D01*
X203258Y133457D01*
X203169Y133456D01*
X203079Y133459D01*
X202990Y133466D01*
X202902Y133476D01*
X202814Y133491D01*
X202726Y133509D01*
X202640Y133531D01*
X202554Y133557D01*
X202470Y133587D01*
X202387Y133620D01*
X202306Y133657D01*
X202226Y133697D01*
X202149Y133741D01*
X202073Y133788D01*
X201999Y133838D01*
X201928Y133892D01*
X201859Y133949D01*
X201792Y134008D01*
X201728Y134070D01*
X201667Y134136D01*
X201609Y134203D01*
X201554Y134274D01*
X201502Y134346D01*
X201453Y134421D01*
X201407Y134498D01*
X201365Y134576D01*
X201327Y134657D01*
X201292Y134739D01*
X201260Y134822D01*
X201232Y134907D01*
X201208Y134993D01*
X201188Y135080D01*
X201171Y135168D01*
X201159Y135256D01*
X201150Y135345D01*
X201145Y135434D01*
X201144Y135523D01*
X201166Y137569D01*
X201165Y137569D02*
X201168Y137684D01*
X201176Y137798D01*
X201187Y137911D01*
X201202Y138025D01*
X201221Y138137D01*
X201244Y138249D01*
X201271Y138360D01*
X201301Y138470D01*
X201336Y138579D01*
X201374Y138687D01*
X201416Y138793D01*
X201462Y138898D01*
X201512Y139001D01*
X201564Y139102D01*
X201621Y139202D01*
X201681Y139299D01*
X201744Y139394D01*
X201811Y139487D01*
X201880Y139578D01*
X201953Y139666D01*
X202029Y139751D01*
X202108Y139834D01*
X202189Y139914D01*
X202274Y139991D01*
X202361Y140065D01*
X202450Y140136D01*
X202542Y140204D01*
X202637Y140268D01*
X202733Y140330D01*
X202832Y140387D01*
X202932Y140442D01*
X203035Y140493D01*
X203139Y140540D01*
X203244Y140583D01*
X203351Y140623D01*
X203460Y140659D01*
X203570Y140691D01*
X203680Y140720D01*
X203792Y140744D01*
X203904Y140765D01*
X204017Y140782D01*
X204131Y140794D01*
X204245Y140803D01*
X204359Y140808D01*
X204473Y140809D01*
X132538Y189586D02*
X125172Y189586D01*
X125172Y191632D01*
X125174Y191721D01*
X125180Y191810D01*
X125190Y191899D01*
X125203Y191987D01*
X125220Y192075D01*
X125242Y192162D01*
X125267Y192247D01*
X125295Y192332D01*
X125328Y192415D01*
X125364Y192497D01*
X125403Y192577D01*
X125446Y192655D01*
X125492Y192731D01*
X125542Y192806D01*
X125595Y192878D01*
X125651Y192947D01*
X125710Y193014D01*
X125771Y193079D01*
X125836Y193140D01*
X125903Y193199D01*
X125972Y193255D01*
X126044Y193308D01*
X126119Y193358D01*
X126195Y193404D01*
X126273Y193447D01*
X126353Y193486D01*
X126435Y193522D01*
X126518Y193555D01*
X126603Y193583D01*
X126688Y193608D01*
X126775Y193630D01*
X126863Y193647D01*
X126951Y193660D01*
X127040Y193670D01*
X127129Y193676D01*
X127218Y193678D01*
X127307Y193676D01*
X127396Y193670D01*
X127485Y193660D01*
X127573Y193647D01*
X127661Y193630D01*
X127748Y193608D01*
X127833Y193583D01*
X127918Y193555D01*
X128001Y193522D01*
X128083Y193486D01*
X128163Y193447D01*
X128241Y193404D01*
X128317Y193358D01*
X128392Y193308D01*
X128464Y193255D01*
X128533Y193199D01*
X128600Y193140D01*
X128665Y193079D01*
X128726Y193014D01*
X128785Y192947D01*
X128841Y192878D01*
X128894Y192806D01*
X128944Y192731D01*
X128990Y192655D01*
X129033Y192577D01*
X129072Y192497D01*
X129108Y192415D01*
X129141Y192332D01*
X129169Y192247D01*
X129194Y192162D01*
X129216Y192075D01*
X129233Y191987D01*
X129246Y191899D01*
X129256Y191810D01*
X129262Y191721D01*
X129264Y191632D01*
X129264Y189586D01*
X129264Y192041D02*
X132538Y193678D01*
X130901Y196850D02*
X125172Y198487D01*
X130901Y196850D02*
X130901Y200942D01*
X129264Y199715D02*
X132538Y199715D01*
X218970Y104441D02*
X220607Y104435D01*
X218970Y104441D02*
X218890Y104443D01*
X218810Y104449D01*
X218730Y104460D01*
X218651Y104474D01*
X218573Y104491D01*
X218495Y104513D01*
X218419Y104539D01*
X218344Y104568D01*
X218271Y104601D01*
X218199Y104637D01*
X218130Y104677D01*
X218062Y104720D01*
X217996Y104767D01*
X217933Y104816D01*
X217872Y104869D01*
X217814Y104925D01*
X217759Y104983D01*
X217707Y105044D01*
X217658Y105107D01*
X217612Y105173D01*
X217569Y105241D01*
X217530Y105311D01*
X217494Y105383D01*
X217461Y105457D01*
X217433Y105532D01*
X217408Y105608D01*
X217387Y105686D01*
X217369Y105764D01*
X217356Y105843D01*
X217346Y105923D01*
X217341Y106003D01*
X217339Y106084D01*
X217353Y110176D01*
X217355Y110256D01*
X217361Y110336D01*
X217372Y110416D01*
X217386Y110495D01*
X217403Y110573D01*
X217425Y110651D01*
X217451Y110727D01*
X217480Y110802D01*
X217513Y110875D01*
X217549Y110947D01*
X217589Y111016D01*
X217632Y111084D01*
X217679Y111150D01*
X217728Y111213D01*
X217781Y111274D01*
X217837Y111332D01*
X217895Y111387D01*
X217956Y111439D01*
X218019Y111488D01*
X218085Y111534D01*
X218153Y111577D01*
X218223Y111616D01*
X218295Y111652D01*
X218369Y111685D01*
X218444Y111713D01*
X218520Y111738D01*
X218598Y111759D01*
X218676Y111777D01*
X218755Y111790D01*
X218835Y111800D01*
X218915Y111805D01*
X218996Y111807D01*
X220633Y111801D01*
X225728Y111783D02*
X225813Y111781D01*
X225898Y111775D01*
X225983Y111764D01*
X226067Y111750D01*
X226150Y111733D01*
X226232Y111711D01*
X226313Y111686D01*
X226393Y111656D01*
X226471Y111624D01*
X226548Y111587D01*
X226623Y111547D01*
X226697Y111504D01*
X226768Y111457D01*
X226837Y111407D01*
X226903Y111354D01*
X226967Y111298D01*
X227028Y111239D01*
X227087Y111178D01*
X227142Y111113D01*
X227195Y111046D01*
X227244Y110977D01*
X227291Y110906D01*
X227333Y110832D01*
X227373Y110757D01*
X227409Y110680D01*
X227441Y110601D01*
X227470Y110521D01*
X227494Y110440D01*
X227516Y110357D01*
X227533Y110274D01*
X227546Y110190D01*
X227556Y110105D01*
X227561Y110021D01*
X227563Y109936D01*
X225728Y111784D02*
X225632Y111782D01*
X225536Y111777D01*
X225441Y111767D01*
X225346Y111754D01*
X225251Y111737D01*
X225158Y111716D01*
X225065Y111692D01*
X224973Y111663D01*
X224883Y111631D01*
X224794Y111595D01*
X224706Y111556D01*
X224620Y111513D01*
X224536Y111467D01*
X224454Y111417D01*
X224374Y111364D01*
X224296Y111308D01*
X224221Y111249D01*
X224148Y111186D01*
X224078Y111121D01*
X224010Y111053D01*
X223945Y110982D01*
X223883Y110909D01*
X223824Y110833D01*
X223768Y110755D01*
X223716Y110675D01*
X223666Y110593D01*
X223620Y110508D01*
X223578Y110422D01*
X223539Y110335D01*
X223503Y110245D01*
X223472Y110155D01*
X226945Y108505D02*
X227005Y108564D01*
X227063Y108626D01*
X227117Y108690D01*
X227169Y108756D01*
X227218Y108825D01*
X227264Y108895D01*
X227308Y108968D01*
X227347Y109042D01*
X227384Y109118D01*
X227418Y109195D01*
X227448Y109274D01*
X227475Y109354D01*
X227498Y109435D01*
X227518Y109517D01*
X227534Y109600D01*
X227547Y109683D01*
X227556Y109767D01*
X227562Y109851D01*
X227564Y109935D01*
X226945Y108505D02*
X223452Y104425D01*
X227544Y104411D01*
X230787Y110129D02*
X232839Y111759D01*
X232813Y104393D01*
X230767Y104400D02*
X234859Y104385D01*
D10*
X143837Y268199D02*
X117867Y268199D01*
D16*
X122491Y271964D02*
X124072Y271964D01*
X122491Y271964D02*
X122413Y271966D01*
X122336Y271972D01*
X122259Y271981D01*
X122183Y271994D01*
X122107Y272011D01*
X122032Y272032D01*
X121959Y272056D01*
X121886Y272084D01*
X121815Y272116D01*
X121746Y272151D01*
X121679Y272189D01*
X121613Y272230D01*
X121550Y272275D01*
X121489Y272323D01*
X121430Y272373D01*
X121374Y272427D01*
X121320Y272483D01*
X121270Y272542D01*
X121222Y272603D01*
X121177Y272666D01*
X121136Y272732D01*
X121098Y272799D01*
X121063Y272868D01*
X121031Y272939D01*
X121003Y273012D01*
X120979Y273085D01*
X120958Y273160D01*
X120941Y273236D01*
X120928Y273312D01*
X120919Y273389D01*
X120913Y273466D01*
X120911Y273544D01*
X120911Y277495D01*
X120913Y277573D01*
X120919Y277650D01*
X120928Y277727D01*
X120941Y277803D01*
X120958Y277879D01*
X120979Y277954D01*
X121003Y278027D01*
X121031Y278100D01*
X121063Y278171D01*
X121098Y278240D01*
X121136Y278307D01*
X121177Y278373D01*
X121222Y278436D01*
X121270Y278497D01*
X121320Y278556D01*
X121374Y278612D01*
X121430Y278666D01*
X121489Y278716D01*
X121550Y278764D01*
X121613Y278809D01*
X121679Y278850D01*
X121746Y278888D01*
X121815Y278923D01*
X121886Y278955D01*
X121959Y278983D01*
X122032Y279007D01*
X122107Y279028D01*
X122183Y279045D01*
X122259Y279058D01*
X122336Y279067D01*
X122413Y279073D01*
X122491Y279075D01*
X122491Y279076D02*
X124072Y279076D01*
X128817Y279076D02*
X128899Y279074D01*
X128981Y279068D01*
X129063Y279059D01*
X129144Y279046D01*
X129224Y279029D01*
X129304Y279008D01*
X129382Y278984D01*
X129459Y278956D01*
X129535Y278925D01*
X129610Y278890D01*
X129682Y278851D01*
X129753Y278810D01*
X129822Y278765D01*
X129888Y278717D01*
X129953Y278666D01*
X130015Y278612D01*
X130074Y278555D01*
X130131Y278496D01*
X130185Y278434D01*
X130236Y278369D01*
X130284Y278303D01*
X130329Y278234D01*
X130370Y278163D01*
X130409Y278091D01*
X130444Y278016D01*
X130475Y277940D01*
X130503Y277863D01*
X130527Y277785D01*
X130548Y277705D01*
X130565Y277625D01*
X130578Y277544D01*
X130587Y277462D01*
X130593Y277380D01*
X130595Y277298D01*
X128817Y279075D02*
X128724Y279073D01*
X128632Y279067D01*
X128540Y279058D01*
X128448Y279045D01*
X128357Y279028D01*
X128267Y279008D01*
X128177Y278984D01*
X128089Y278956D01*
X128001Y278924D01*
X127916Y278890D01*
X127831Y278851D01*
X127749Y278810D01*
X127668Y278765D01*
X127588Y278716D01*
X127511Y278665D01*
X127436Y278611D01*
X127364Y278553D01*
X127294Y278493D01*
X127226Y278429D01*
X127161Y278364D01*
X127098Y278295D01*
X127039Y278224D01*
X126982Y278151D01*
X126928Y278075D01*
X126878Y277998D01*
X126830Y277918D01*
X126786Y277837D01*
X126746Y277753D01*
X126708Y277669D01*
X126674Y277582D01*
X126644Y277495D01*
X130002Y275915D02*
X130063Y275976D01*
X130121Y276039D01*
X130176Y276105D01*
X130229Y276173D01*
X130278Y276244D01*
X130323Y276316D01*
X130366Y276391D01*
X130405Y276467D01*
X130441Y276546D01*
X130473Y276625D01*
X130501Y276706D01*
X130526Y276789D01*
X130547Y276872D01*
X130564Y276956D01*
X130578Y277041D01*
X130587Y277126D01*
X130593Y277212D01*
X130595Y277298D01*
X130002Y275915D02*
X126644Y271964D01*
X130595Y271964D01*
X133502Y271964D02*
X135478Y271964D01*
X135478Y271963D02*
X135565Y271965D01*
X135653Y271971D01*
X135740Y271980D01*
X135826Y271994D01*
X135912Y272011D01*
X135996Y272032D01*
X136080Y272057D01*
X136163Y272086D01*
X136244Y272118D01*
X136324Y272153D01*
X136402Y272192D01*
X136479Y272235D01*
X136553Y272281D01*
X136625Y272330D01*
X136695Y272382D01*
X136763Y272438D01*
X136828Y272496D01*
X136891Y272557D01*
X136950Y272621D01*
X137007Y272688D01*
X137061Y272756D01*
X137112Y272828D01*
X137159Y272901D01*
X137204Y272976D01*
X137245Y273054D01*
X137282Y273133D01*
X137316Y273213D01*
X137346Y273295D01*
X137373Y273378D01*
X137396Y273463D01*
X137415Y273548D01*
X137430Y273634D01*
X137442Y273721D01*
X137450Y273808D01*
X137454Y273895D01*
X137454Y273983D01*
X137450Y274070D01*
X137442Y274157D01*
X137430Y274244D01*
X137415Y274330D01*
X137396Y274415D01*
X137373Y274500D01*
X137346Y274583D01*
X137316Y274665D01*
X137282Y274745D01*
X137245Y274824D01*
X137204Y274902D01*
X137159Y274977D01*
X137112Y275050D01*
X137061Y275122D01*
X137007Y275190D01*
X136950Y275257D01*
X136891Y275321D01*
X136828Y275382D01*
X136763Y275440D01*
X136695Y275496D01*
X136625Y275548D01*
X136553Y275597D01*
X136479Y275643D01*
X136402Y275686D01*
X136324Y275725D01*
X136244Y275760D01*
X136163Y275792D01*
X136080Y275821D01*
X135996Y275846D01*
X135912Y275867D01*
X135826Y275884D01*
X135740Y275898D01*
X135653Y275907D01*
X135565Y275913D01*
X135478Y275915D01*
X135873Y279076D02*
X133502Y279076D01*
X135873Y279075D02*
X135952Y279073D01*
X136030Y279067D01*
X136108Y279057D01*
X136186Y279044D01*
X136263Y279026D01*
X136339Y279005D01*
X136413Y278980D01*
X136487Y278951D01*
X136559Y278919D01*
X136629Y278883D01*
X136697Y278843D01*
X136763Y278800D01*
X136827Y278754D01*
X136889Y278705D01*
X136948Y278653D01*
X137004Y278598D01*
X137058Y278540D01*
X137108Y278480D01*
X137156Y278417D01*
X137200Y278352D01*
X137241Y278285D01*
X137279Y278216D01*
X137313Y278145D01*
X137344Y278072D01*
X137371Y277998D01*
X137394Y277923D01*
X137413Y277847D01*
X137429Y277769D01*
X137441Y277691D01*
X137449Y277613D01*
X137453Y277534D01*
X137453Y277456D01*
X137449Y277377D01*
X137441Y277299D01*
X137429Y277221D01*
X137413Y277143D01*
X137394Y277067D01*
X137371Y276992D01*
X137344Y276918D01*
X137313Y276845D01*
X137279Y276774D01*
X137241Y276705D01*
X137200Y276638D01*
X137156Y276573D01*
X137108Y276510D01*
X137058Y276450D01*
X137004Y276392D01*
X136948Y276337D01*
X136889Y276285D01*
X136827Y276236D01*
X136763Y276190D01*
X136697Y276147D01*
X136629Y276107D01*
X136559Y276071D01*
X136487Y276039D01*
X136413Y276010D01*
X136339Y275985D01*
X136263Y275964D01*
X136186Y275946D01*
X136108Y275933D01*
X136030Y275923D01*
X135952Y275917D01*
X135873Y275915D01*
X134292Y275915D01*
D12*
X19076Y89291D02*
X11710Y89291D01*
X14983Y89291D02*
X14983Y93383D01*
X11710Y93383D02*
X19076Y93383D01*
X19076Y98409D02*
X11710Y98409D01*
X11710Y96363D02*
X11710Y100455D01*
X11710Y103434D02*
X17029Y103434D01*
X17118Y103436D01*
X17207Y103442D01*
X17296Y103452D01*
X17384Y103465D01*
X17472Y103482D01*
X17559Y103504D01*
X17644Y103529D01*
X17729Y103557D01*
X17812Y103590D01*
X17894Y103626D01*
X17974Y103665D01*
X18052Y103708D01*
X18128Y103754D01*
X18203Y103804D01*
X18275Y103857D01*
X18344Y103913D01*
X18411Y103972D01*
X18476Y104033D01*
X18537Y104098D01*
X18596Y104165D01*
X18652Y104234D01*
X18705Y104306D01*
X18755Y104381D01*
X18801Y104457D01*
X18844Y104535D01*
X18883Y104615D01*
X18919Y104697D01*
X18952Y104780D01*
X18980Y104865D01*
X19005Y104950D01*
X19027Y105037D01*
X19044Y105125D01*
X19057Y105213D01*
X19067Y105302D01*
X19073Y105391D01*
X19075Y105480D01*
X19073Y105569D01*
X19067Y105658D01*
X19057Y105747D01*
X19044Y105835D01*
X19027Y105923D01*
X19005Y106010D01*
X18980Y106095D01*
X18952Y106180D01*
X18919Y106263D01*
X18883Y106345D01*
X18844Y106425D01*
X18801Y106503D01*
X18755Y106579D01*
X18705Y106654D01*
X18652Y106726D01*
X18596Y106795D01*
X18537Y106862D01*
X18476Y106927D01*
X18411Y106988D01*
X18344Y107047D01*
X18275Y107103D01*
X18203Y107156D01*
X18128Y107206D01*
X18052Y107252D01*
X17974Y107295D01*
X17894Y107334D01*
X17812Y107370D01*
X17729Y107403D01*
X17644Y107431D01*
X17559Y107456D01*
X17472Y107478D01*
X17384Y107495D01*
X17296Y107508D01*
X17207Y107518D01*
X17118Y107524D01*
X17029Y107526D01*
X11710Y107526D01*
X11709Y113244D02*
X11711Y113329D01*
X11717Y113414D01*
X11727Y113498D01*
X11740Y113582D01*
X11758Y113666D01*
X11779Y113748D01*
X11804Y113829D01*
X11833Y113909D01*
X11866Y113988D01*
X11902Y114065D01*
X11942Y114140D01*
X11985Y114214D01*
X12031Y114285D01*
X12081Y114354D01*
X12134Y114421D01*
X12190Y114485D01*
X12249Y114546D01*
X12310Y114605D01*
X12374Y114661D01*
X12441Y114714D01*
X12510Y114764D01*
X12581Y114810D01*
X12655Y114853D01*
X12730Y114893D01*
X12807Y114929D01*
X12886Y114962D01*
X12966Y114991D01*
X13047Y115016D01*
X13129Y115037D01*
X13213Y115055D01*
X13297Y115068D01*
X13381Y115078D01*
X13466Y115084D01*
X13551Y115086D01*
X11709Y113244D02*
X11711Y113148D01*
X11717Y113052D01*
X11727Y112957D01*
X11740Y112862D01*
X11758Y112767D01*
X11779Y112674D01*
X11804Y112581D01*
X11833Y112490D01*
X11865Y112399D01*
X11901Y112310D01*
X11941Y112223D01*
X11984Y112137D01*
X12030Y112053D01*
X12080Y111971D01*
X12134Y111891D01*
X12190Y111814D01*
X12250Y111739D01*
X12312Y111666D01*
X12378Y111596D01*
X12446Y111528D01*
X12517Y111463D01*
X12590Y111402D01*
X12666Y111343D01*
X12745Y111287D01*
X12825Y111235D01*
X12908Y111186D01*
X12992Y111140D01*
X13078Y111098D01*
X13166Y111060D01*
X13255Y111025D01*
X13346Y110993D01*
X14983Y114471D02*
X14924Y114531D01*
X14862Y114588D01*
X14798Y114643D01*
X14731Y114694D01*
X14662Y114743D01*
X14592Y114789D01*
X14519Y114832D01*
X14445Y114872D01*
X14369Y114908D01*
X14291Y114941D01*
X14212Y114971D01*
X14132Y114998D01*
X14051Y115021D01*
X13969Y115040D01*
X13887Y115056D01*
X13803Y115069D01*
X13719Y115078D01*
X13635Y115083D01*
X13551Y115085D01*
X14983Y114471D02*
X19076Y110993D01*
X19076Y115085D01*
X13346Y118308D02*
X11710Y120354D01*
X19076Y120354D01*
X19076Y118308D02*
X19076Y122400D01*
D16*
X57428Y45339D02*
X59009Y45339D01*
X57428Y45339D02*
X57350Y45341D01*
X57273Y45347D01*
X57196Y45356D01*
X57120Y45369D01*
X57044Y45386D01*
X56969Y45407D01*
X56896Y45431D01*
X56823Y45459D01*
X56752Y45491D01*
X56683Y45526D01*
X56616Y45564D01*
X56550Y45605D01*
X56487Y45650D01*
X56426Y45698D01*
X56367Y45748D01*
X56311Y45802D01*
X56257Y45858D01*
X56207Y45917D01*
X56159Y45978D01*
X56114Y46041D01*
X56073Y46107D01*
X56035Y46174D01*
X56000Y46243D01*
X55968Y46314D01*
X55940Y46387D01*
X55916Y46460D01*
X55895Y46535D01*
X55878Y46611D01*
X55865Y46687D01*
X55856Y46764D01*
X55850Y46841D01*
X55848Y46919D01*
X55848Y50871D01*
X55850Y50949D01*
X55856Y51026D01*
X55865Y51103D01*
X55878Y51179D01*
X55895Y51255D01*
X55916Y51330D01*
X55940Y51403D01*
X55968Y51476D01*
X56000Y51547D01*
X56035Y51616D01*
X56073Y51683D01*
X56114Y51749D01*
X56159Y51812D01*
X56207Y51873D01*
X56257Y51932D01*
X56311Y51988D01*
X56367Y52042D01*
X56426Y52092D01*
X56487Y52140D01*
X56550Y52185D01*
X56616Y52226D01*
X56683Y52264D01*
X56752Y52299D01*
X56823Y52331D01*
X56896Y52359D01*
X56969Y52383D01*
X57044Y52404D01*
X57120Y52421D01*
X57196Y52434D01*
X57273Y52443D01*
X57350Y52449D01*
X57428Y52451D01*
X59009Y52451D01*
X63754Y52451D02*
X63836Y52449D01*
X63918Y52443D01*
X64000Y52434D01*
X64081Y52421D01*
X64161Y52404D01*
X64241Y52383D01*
X64319Y52359D01*
X64396Y52331D01*
X64472Y52300D01*
X64547Y52265D01*
X64619Y52226D01*
X64690Y52185D01*
X64759Y52140D01*
X64825Y52092D01*
X64890Y52041D01*
X64952Y51987D01*
X65011Y51930D01*
X65068Y51871D01*
X65122Y51809D01*
X65173Y51744D01*
X65221Y51678D01*
X65266Y51609D01*
X65307Y51538D01*
X65346Y51466D01*
X65381Y51391D01*
X65412Y51315D01*
X65440Y51238D01*
X65464Y51160D01*
X65485Y51080D01*
X65502Y51000D01*
X65515Y50919D01*
X65524Y50837D01*
X65530Y50755D01*
X65532Y50673D01*
X63754Y52451D02*
X63661Y52449D01*
X63569Y52443D01*
X63477Y52434D01*
X63385Y52421D01*
X63294Y52404D01*
X63204Y52384D01*
X63114Y52360D01*
X63026Y52332D01*
X62938Y52300D01*
X62853Y52266D01*
X62768Y52227D01*
X62686Y52186D01*
X62605Y52141D01*
X62525Y52092D01*
X62448Y52041D01*
X62373Y51987D01*
X62301Y51929D01*
X62231Y51869D01*
X62163Y51805D01*
X62098Y51740D01*
X62035Y51671D01*
X61976Y51600D01*
X61919Y51527D01*
X61865Y51451D01*
X61815Y51374D01*
X61767Y51294D01*
X61723Y51213D01*
X61683Y51129D01*
X61645Y51045D01*
X61611Y50958D01*
X61581Y50871D01*
X64939Y49290D02*
X65000Y49351D01*
X65058Y49414D01*
X65113Y49480D01*
X65166Y49548D01*
X65215Y49619D01*
X65260Y49691D01*
X65303Y49766D01*
X65342Y49842D01*
X65378Y49921D01*
X65410Y50000D01*
X65438Y50081D01*
X65463Y50164D01*
X65484Y50247D01*
X65501Y50331D01*
X65515Y50416D01*
X65524Y50501D01*
X65530Y50587D01*
X65532Y50673D01*
X64939Y49290D02*
X61581Y45339D01*
X65532Y45339D01*
X68439Y46919D02*
X70019Y52451D01*
X68439Y46919D02*
X72390Y46919D01*
X71205Y48500D02*
X71205Y45339D01*
D17*
X48213Y33099D02*
X48137Y33097D01*
X48061Y33091D01*
X47986Y33082D01*
X47911Y33068D01*
X47837Y33051D01*
X47764Y33030D01*
X47692Y33006D01*
X47621Y32977D01*
X47552Y32946D01*
X47485Y32911D01*
X47420Y32872D01*
X47356Y32830D01*
X47295Y32785D01*
X47236Y32737D01*
X47180Y32686D01*
X47126Y32632D01*
X47075Y32576D01*
X47027Y32517D01*
X46982Y32456D01*
X46940Y32392D01*
X46901Y32327D01*
X46866Y32260D01*
X46835Y32191D01*
X46806Y32120D01*
X46782Y32048D01*
X46761Y31975D01*
X46744Y31901D01*
X46730Y31826D01*
X46721Y31751D01*
X46715Y31675D01*
X46713Y31599D01*
X48213Y33099D02*
X69713Y33099D01*
X70213Y33099D01*
X70289Y33097D01*
X70365Y33091D01*
X70440Y33082D01*
X70515Y33068D01*
X70589Y33051D01*
X70662Y33030D01*
X70734Y33006D01*
X70805Y32977D01*
X70874Y32946D01*
X70941Y32911D01*
X71006Y32872D01*
X71070Y32830D01*
X71131Y32785D01*
X71190Y32737D01*
X71246Y32686D01*
X71300Y32632D01*
X71351Y32576D01*
X71399Y32517D01*
X71444Y32456D01*
X71486Y32392D01*
X71525Y32327D01*
X71560Y32260D01*
X71591Y32191D01*
X71620Y32120D01*
X71644Y32048D01*
X71665Y31975D01*
X71682Y31901D01*
X71696Y31826D01*
X71705Y31751D01*
X71711Y31675D01*
X71713Y31599D01*
X71713Y10099D01*
X71713Y9599D01*
X71711Y9523D01*
X71705Y9447D01*
X71696Y9372D01*
X71682Y9297D01*
X71665Y9223D01*
X71644Y9150D01*
X71620Y9078D01*
X71591Y9007D01*
X71560Y8938D01*
X71525Y8871D01*
X71486Y8806D01*
X71444Y8742D01*
X71399Y8681D01*
X71351Y8622D01*
X71300Y8566D01*
X71246Y8512D01*
X71190Y8461D01*
X71131Y8413D01*
X71070Y8368D01*
X71006Y8326D01*
X70941Y8287D01*
X70874Y8252D01*
X70805Y8221D01*
X70734Y8192D01*
X70662Y8168D01*
X70589Y8147D01*
X70515Y8130D01*
X70440Y8116D01*
X70365Y8107D01*
X70289Y8101D01*
X70213Y8099D01*
X48713Y8099D01*
X48213Y8099D01*
X48137Y8101D01*
X48061Y8107D01*
X47986Y8116D01*
X47911Y8130D01*
X47837Y8147D01*
X47764Y8168D01*
X47692Y8192D01*
X47621Y8221D01*
X47552Y8252D01*
X47485Y8287D01*
X47420Y8326D01*
X47356Y8368D01*
X47295Y8413D01*
X47236Y8461D01*
X47180Y8512D01*
X47126Y8566D01*
X47075Y8622D01*
X47027Y8681D01*
X46982Y8742D01*
X46940Y8806D01*
X46901Y8871D01*
X46866Y8938D01*
X46835Y9007D01*
X46806Y9078D01*
X46782Y9150D01*
X46761Y9223D01*
X46744Y9297D01*
X46730Y9372D01*
X46721Y9447D01*
X46715Y9523D01*
X46713Y9599D01*
X46713Y31599D01*
D18*
X48213Y30599D02*
X48215Y30659D01*
X48220Y30720D01*
X48229Y30779D01*
X48242Y30838D01*
X48258Y30897D01*
X48278Y30954D01*
X48301Y31009D01*
X48328Y31064D01*
X48357Y31116D01*
X48390Y31167D01*
X48426Y31216D01*
X48464Y31262D01*
X48506Y31306D01*
X48550Y31348D01*
X48596Y31386D01*
X48645Y31422D01*
X48696Y31455D01*
X48748Y31484D01*
X48803Y31511D01*
X48858Y31534D01*
X48915Y31554D01*
X48974Y31570D01*
X49033Y31583D01*
X49092Y31592D01*
X49153Y31597D01*
X49213Y31599D01*
X48213Y10599D02*
X48215Y10539D01*
X48220Y10478D01*
X48229Y10419D01*
X48242Y10360D01*
X48258Y10301D01*
X48278Y10244D01*
X48301Y10189D01*
X48328Y10134D01*
X48357Y10082D01*
X48390Y10031D01*
X48426Y9982D01*
X48464Y9936D01*
X48506Y9892D01*
X48550Y9850D01*
X48596Y9812D01*
X48645Y9776D01*
X48696Y9743D01*
X48748Y9714D01*
X48803Y9687D01*
X48858Y9664D01*
X48915Y9644D01*
X48974Y9628D01*
X49033Y9615D01*
X49092Y9606D01*
X49153Y9601D01*
X49213Y9599D01*
X69213Y9599D02*
X69273Y9601D01*
X69334Y9606D01*
X69393Y9615D01*
X69452Y9628D01*
X69511Y9644D01*
X69568Y9664D01*
X69623Y9687D01*
X69678Y9714D01*
X69730Y9743D01*
X69781Y9776D01*
X69830Y9812D01*
X69876Y9850D01*
X69920Y9892D01*
X69962Y9936D01*
X70000Y9982D01*
X70036Y10031D01*
X70069Y10082D01*
X70098Y10134D01*
X70125Y10189D01*
X70148Y10244D01*
X70168Y10301D01*
X70184Y10360D01*
X70197Y10419D01*
X70206Y10478D01*
X70211Y10539D01*
X70213Y10599D01*
X70213Y30599D02*
X70211Y30659D01*
X70206Y30720D01*
X70197Y30779D01*
X70184Y30838D01*
X70168Y30897D01*
X70148Y30954D01*
X70125Y31009D01*
X70098Y31064D01*
X70069Y31116D01*
X70036Y31167D01*
X70000Y31216D01*
X69962Y31262D01*
X69920Y31306D01*
X69876Y31348D01*
X69830Y31386D01*
X69781Y31422D01*
X69730Y31455D01*
X69678Y31484D01*
X69623Y31511D01*
X69568Y31534D01*
X69511Y31554D01*
X69452Y31570D01*
X69393Y31583D01*
X69334Y31592D01*
X69273Y31597D01*
X69213Y31599D01*
D17*
X67713Y15599D02*
X67715Y15662D01*
X67721Y15724D01*
X67731Y15786D01*
X67744Y15848D01*
X67762Y15908D01*
X67783Y15967D01*
X67808Y16025D01*
X67837Y16081D01*
X67869Y16135D01*
X67904Y16187D01*
X67942Y16236D01*
X67984Y16284D01*
X68028Y16328D01*
X68076Y16370D01*
X68125Y16408D01*
X68177Y16443D01*
X68231Y16475D01*
X68287Y16504D01*
X68345Y16529D01*
X68404Y16550D01*
X68464Y16568D01*
X68526Y16581D01*
X68588Y16591D01*
X68650Y16597D01*
X68713Y16599D01*
X68776Y16597D01*
X68838Y16591D01*
X68900Y16581D01*
X68962Y16568D01*
X69022Y16550D01*
X69081Y16529D01*
X69139Y16504D01*
X69195Y16475D01*
X69249Y16443D01*
X69301Y16408D01*
X69350Y16370D01*
X69398Y16328D01*
X69442Y16284D01*
X69484Y16236D01*
X69522Y16187D01*
X69557Y16135D01*
X69589Y16081D01*
X69618Y16025D01*
X69643Y15967D01*
X69664Y15908D01*
X69682Y15848D01*
X69695Y15786D01*
X69705Y15724D01*
X69711Y15662D01*
X69713Y15599D01*
X69711Y15536D01*
X69705Y15474D01*
X69695Y15412D01*
X69682Y15350D01*
X69664Y15290D01*
X69643Y15231D01*
X69618Y15173D01*
X69589Y15117D01*
X69557Y15063D01*
X69522Y15011D01*
X69484Y14962D01*
X69442Y14914D01*
X69398Y14870D01*
X69350Y14828D01*
X69301Y14790D01*
X69249Y14755D01*
X69195Y14723D01*
X69139Y14694D01*
X69081Y14669D01*
X69022Y14648D01*
X68962Y14630D01*
X68900Y14617D01*
X68838Y14607D01*
X68776Y14601D01*
X68713Y14599D01*
X68650Y14601D01*
X68588Y14607D01*
X68526Y14617D01*
X68464Y14630D01*
X68404Y14648D01*
X68345Y14669D01*
X68287Y14694D01*
X68231Y14723D01*
X68177Y14755D01*
X68125Y14790D01*
X68076Y14828D01*
X68028Y14870D01*
X67984Y14914D01*
X67942Y14962D01*
X67904Y15011D01*
X67869Y15063D01*
X67837Y15117D01*
X67808Y15173D01*
X67783Y15231D01*
X67762Y15290D01*
X67744Y15350D01*
X67731Y15412D01*
X67721Y15474D01*
X67715Y15536D01*
X67713Y15599D01*
D12*
X77968Y7084D02*
X77968Y5038D01*
X77968Y7084D02*
X77970Y7173D01*
X77976Y7262D01*
X77986Y7351D01*
X77999Y7439D01*
X78016Y7527D01*
X78038Y7614D01*
X78063Y7699D01*
X78091Y7784D01*
X78124Y7867D01*
X78160Y7949D01*
X78199Y8029D01*
X78242Y8107D01*
X78288Y8183D01*
X78338Y8258D01*
X78391Y8330D01*
X78447Y8399D01*
X78506Y8466D01*
X78567Y8531D01*
X78632Y8592D01*
X78699Y8651D01*
X78768Y8707D01*
X78840Y8760D01*
X78915Y8810D01*
X78991Y8856D01*
X79069Y8899D01*
X79149Y8938D01*
X79231Y8974D01*
X79314Y9007D01*
X79399Y9035D01*
X79484Y9060D01*
X79571Y9082D01*
X79659Y9099D01*
X79747Y9112D01*
X79836Y9122D01*
X79925Y9128D01*
X80014Y9130D01*
X80103Y9128D01*
X80192Y9122D01*
X80281Y9112D01*
X80369Y9099D01*
X80457Y9082D01*
X80544Y9060D01*
X80629Y9035D01*
X80714Y9007D01*
X80797Y8974D01*
X80879Y8938D01*
X80959Y8899D01*
X81037Y8856D01*
X81113Y8810D01*
X81188Y8760D01*
X81260Y8707D01*
X81329Y8651D01*
X81396Y8592D01*
X81461Y8531D01*
X81522Y8466D01*
X81581Y8399D01*
X81637Y8330D01*
X81690Y8258D01*
X81740Y8183D01*
X81786Y8107D01*
X81829Y8029D01*
X81868Y7949D01*
X81904Y7867D01*
X81937Y7784D01*
X81965Y7699D01*
X81990Y7614D01*
X82012Y7527D01*
X82029Y7439D01*
X82042Y7351D01*
X82052Y7262D01*
X82058Y7173D01*
X82060Y7084D01*
X82061Y7084D02*
X82061Y5038D01*
X74695Y5038D01*
X74695Y7084D01*
X74694Y7084D02*
X74696Y7163D01*
X74702Y7242D01*
X74711Y7321D01*
X74724Y7399D01*
X74742Y7476D01*
X74762Y7552D01*
X74787Y7627D01*
X74815Y7701D01*
X74846Y7774D01*
X74882Y7845D01*
X74920Y7914D01*
X74962Y7981D01*
X75007Y8046D01*
X75055Y8109D01*
X75106Y8170D01*
X75160Y8227D01*
X75216Y8283D01*
X75275Y8335D01*
X75337Y8385D01*
X75401Y8431D01*
X75467Y8475D01*
X75535Y8515D01*
X75605Y8551D01*
X75677Y8585D01*
X75751Y8615D01*
X75825Y8641D01*
X75901Y8664D01*
X75978Y8682D01*
X76055Y8698D01*
X76134Y8709D01*
X76212Y8717D01*
X76291Y8721D01*
X76371Y8721D01*
X76450Y8717D01*
X76528Y8709D01*
X76607Y8698D01*
X76684Y8682D01*
X76761Y8664D01*
X76837Y8641D01*
X76911Y8615D01*
X76985Y8585D01*
X77057Y8551D01*
X77127Y8515D01*
X77195Y8475D01*
X77261Y8431D01*
X77325Y8385D01*
X77387Y8335D01*
X77446Y8283D01*
X77502Y8227D01*
X77556Y8170D01*
X77607Y8109D01*
X77655Y8046D01*
X77700Y7981D01*
X77742Y7914D01*
X77780Y7845D01*
X77816Y7774D01*
X77847Y7701D01*
X77875Y7627D01*
X77900Y7552D01*
X77920Y7476D01*
X77938Y7399D01*
X77951Y7321D01*
X77960Y7242D01*
X77966Y7163D01*
X77968Y7084D01*
X74695Y12314D02*
X82061Y12314D01*
X78787Y14769D02*
X74695Y12314D01*
X78787Y14769D02*
X74695Y17225D01*
X82061Y17225D01*
X82061Y21030D02*
X82061Y24303D01*
X82061Y21030D02*
X74695Y21030D01*
X74695Y24303D01*
X77968Y23485D02*
X77968Y21030D01*
X74694Y29361D02*
X74696Y29446D01*
X74702Y29531D01*
X74712Y29615D01*
X74725Y29699D01*
X74743Y29783D01*
X74764Y29865D01*
X74789Y29946D01*
X74818Y30026D01*
X74851Y30105D01*
X74887Y30182D01*
X74927Y30257D01*
X74970Y30331D01*
X75016Y30402D01*
X75066Y30471D01*
X75119Y30538D01*
X75175Y30602D01*
X75234Y30663D01*
X75295Y30722D01*
X75359Y30778D01*
X75426Y30831D01*
X75495Y30881D01*
X75566Y30927D01*
X75640Y30970D01*
X75715Y31010D01*
X75792Y31046D01*
X75871Y31079D01*
X75951Y31108D01*
X76032Y31133D01*
X76114Y31154D01*
X76198Y31172D01*
X76282Y31185D01*
X76366Y31195D01*
X76451Y31201D01*
X76536Y31203D01*
X74694Y29361D02*
X74696Y29265D01*
X74702Y29169D01*
X74712Y29074D01*
X74725Y28979D01*
X74743Y28884D01*
X74764Y28791D01*
X74789Y28698D01*
X74818Y28607D01*
X74850Y28516D01*
X74886Y28427D01*
X74926Y28340D01*
X74969Y28254D01*
X75015Y28170D01*
X75065Y28088D01*
X75119Y28008D01*
X75175Y27931D01*
X75235Y27856D01*
X75297Y27783D01*
X75363Y27713D01*
X75431Y27645D01*
X75502Y27580D01*
X75575Y27519D01*
X75651Y27460D01*
X75730Y27404D01*
X75810Y27352D01*
X75893Y27303D01*
X75977Y27257D01*
X76063Y27215D01*
X76151Y27177D01*
X76240Y27142D01*
X76331Y27110D01*
X77968Y30588D02*
X77909Y30648D01*
X77847Y30705D01*
X77783Y30760D01*
X77716Y30811D01*
X77647Y30860D01*
X77577Y30906D01*
X77504Y30949D01*
X77430Y30989D01*
X77354Y31025D01*
X77276Y31058D01*
X77197Y31088D01*
X77117Y31115D01*
X77036Y31138D01*
X76954Y31157D01*
X76872Y31173D01*
X76788Y31186D01*
X76704Y31195D01*
X76620Y31200D01*
X76536Y31202D01*
X77968Y30588D02*
X82061Y27110D01*
X82061Y31202D01*
X80014Y34425D02*
X79925Y34427D01*
X79836Y34433D01*
X79747Y34443D01*
X79659Y34456D01*
X79571Y34473D01*
X79484Y34495D01*
X79399Y34520D01*
X79314Y34548D01*
X79231Y34581D01*
X79149Y34617D01*
X79069Y34656D01*
X78991Y34699D01*
X78915Y34745D01*
X78840Y34795D01*
X78768Y34848D01*
X78699Y34904D01*
X78632Y34963D01*
X78567Y35024D01*
X78506Y35089D01*
X78447Y35156D01*
X78391Y35225D01*
X78338Y35297D01*
X78288Y35372D01*
X78242Y35448D01*
X78199Y35526D01*
X78160Y35606D01*
X78124Y35688D01*
X78091Y35771D01*
X78063Y35856D01*
X78038Y35941D01*
X78016Y36028D01*
X77999Y36116D01*
X77986Y36204D01*
X77976Y36293D01*
X77970Y36382D01*
X77968Y36471D01*
X77970Y36560D01*
X77976Y36649D01*
X77986Y36738D01*
X77999Y36826D01*
X78016Y36914D01*
X78038Y37001D01*
X78063Y37086D01*
X78091Y37171D01*
X78124Y37254D01*
X78160Y37336D01*
X78199Y37416D01*
X78242Y37494D01*
X78288Y37570D01*
X78338Y37645D01*
X78391Y37717D01*
X78447Y37786D01*
X78506Y37853D01*
X78567Y37918D01*
X78632Y37979D01*
X78699Y38038D01*
X78768Y38094D01*
X78840Y38147D01*
X78915Y38197D01*
X78991Y38243D01*
X79069Y38286D01*
X79149Y38325D01*
X79231Y38361D01*
X79314Y38394D01*
X79399Y38422D01*
X79484Y38447D01*
X79571Y38469D01*
X79659Y38486D01*
X79747Y38499D01*
X79836Y38509D01*
X79925Y38515D01*
X80014Y38517D01*
X80103Y38515D01*
X80192Y38509D01*
X80281Y38499D01*
X80369Y38486D01*
X80457Y38469D01*
X80544Y38447D01*
X80629Y38422D01*
X80714Y38394D01*
X80797Y38361D01*
X80879Y38325D01*
X80959Y38286D01*
X81037Y38243D01*
X81113Y38197D01*
X81188Y38147D01*
X81260Y38094D01*
X81329Y38038D01*
X81396Y37979D01*
X81461Y37918D01*
X81522Y37853D01*
X81581Y37786D01*
X81637Y37717D01*
X81690Y37645D01*
X81740Y37570D01*
X81786Y37494D01*
X81829Y37416D01*
X81868Y37336D01*
X81904Y37254D01*
X81937Y37171D01*
X81965Y37086D01*
X81990Y37001D01*
X82012Y36914D01*
X82029Y36826D01*
X82042Y36738D01*
X82052Y36649D01*
X82058Y36560D01*
X82060Y36471D01*
X82058Y36382D01*
X82052Y36293D01*
X82042Y36204D01*
X82029Y36116D01*
X82012Y36028D01*
X81990Y35941D01*
X81965Y35856D01*
X81937Y35771D01*
X81904Y35688D01*
X81868Y35606D01*
X81829Y35526D01*
X81786Y35448D01*
X81740Y35372D01*
X81690Y35297D01*
X81637Y35225D01*
X81581Y35156D01*
X81522Y35089D01*
X81461Y35024D01*
X81396Y34963D01*
X81329Y34904D01*
X81260Y34848D01*
X81188Y34795D01*
X81113Y34745D01*
X81037Y34699D01*
X80959Y34656D01*
X80879Y34617D01*
X80797Y34581D01*
X80714Y34548D01*
X80629Y34520D01*
X80544Y34495D01*
X80457Y34473D01*
X80369Y34456D01*
X80281Y34443D01*
X80192Y34433D01*
X80103Y34427D01*
X80014Y34425D01*
X76331Y34834D02*
X76252Y34836D01*
X76173Y34842D01*
X76094Y34851D01*
X76016Y34864D01*
X75939Y34882D01*
X75863Y34902D01*
X75788Y34927D01*
X75714Y34955D01*
X75641Y34986D01*
X75570Y35022D01*
X75501Y35060D01*
X75434Y35102D01*
X75369Y35147D01*
X75306Y35195D01*
X75245Y35246D01*
X75188Y35300D01*
X75132Y35356D01*
X75080Y35415D01*
X75030Y35477D01*
X74984Y35541D01*
X74940Y35607D01*
X74900Y35675D01*
X74864Y35745D01*
X74830Y35817D01*
X74800Y35891D01*
X74774Y35965D01*
X74751Y36041D01*
X74733Y36118D01*
X74717Y36195D01*
X74706Y36274D01*
X74698Y36352D01*
X74694Y36431D01*
X74694Y36511D01*
X74698Y36590D01*
X74706Y36668D01*
X74717Y36747D01*
X74733Y36824D01*
X74751Y36901D01*
X74774Y36977D01*
X74800Y37051D01*
X74830Y37125D01*
X74864Y37197D01*
X74900Y37267D01*
X74940Y37335D01*
X74984Y37401D01*
X75030Y37465D01*
X75080Y37527D01*
X75132Y37586D01*
X75188Y37642D01*
X75245Y37696D01*
X75306Y37747D01*
X75369Y37795D01*
X75434Y37840D01*
X75501Y37882D01*
X75570Y37920D01*
X75641Y37956D01*
X75714Y37987D01*
X75788Y38015D01*
X75863Y38040D01*
X75939Y38060D01*
X76016Y38078D01*
X76094Y38091D01*
X76173Y38100D01*
X76252Y38106D01*
X76331Y38108D01*
X76410Y38106D01*
X76489Y38100D01*
X76568Y38091D01*
X76646Y38078D01*
X76723Y38060D01*
X76799Y38040D01*
X76874Y38015D01*
X76948Y37987D01*
X77021Y37956D01*
X77092Y37920D01*
X77161Y37882D01*
X77228Y37840D01*
X77293Y37795D01*
X77356Y37747D01*
X77417Y37696D01*
X77474Y37642D01*
X77530Y37586D01*
X77582Y37527D01*
X77632Y37465D01*
X77678Y37401D01*
X77722Y37335D01*
X77762Y37267D01*
X77798Y37197D01*
X77832Y37125D01*
X77862Y37051D01*
X77888Y36977D01*
X77911Y36901D01*
X77929Y36824D01*
X77945Y36747D01*
X77956Y36668D01*
X77964Y36590D01*
X77968Y36511D01*
X77968Y36431D01*
X77964Y36352D01*
X77956Y36274D01*
X77945Y36195D01*
X77929Y36118D01*
X77911Y36041D01*
X77888Y35965D01*
X77862Y35891D01*
X77832Y35817D01*
X77798Y35745D01*
X77762Y35675D01*
X77722Y35607D01*
X77678Y35541D01*
X77632Y35477D01*
X77582Y35415D01*
X77530Y35356D01*
X77474Y35300D01*
X77417Y35246D01*
X77356Y35195D01*
X77293Y35147D01*
X77228Y35102D01*
X77161Y35060D01*
X77092Y35022D01*
X77021Y34986D01*
X76948Y34955D01*
X76874Y34927D01*
X76799Y34902D01*
X76723Y34882D01*
X76646Y34864D01*
X76568Y34851D01*
X76489Y34842D01*
X76410Y34836D01*
X76331Y34834D01*
X78378Y41741D02*
X78225Y41743D01*
X78072Y41749D01*
X77920Y41758D01*
X77767Y41772D01*
X77615Y41789D01*
X77464Y41810D01*
X77313Y41835D01*
X77163Y41864D01*
X77013Y41896D01*
X76865Y41933D01*
X76717Y41973D01*
X76570Y42016D01*
X76425Y42064D01*
X76281Y42115D01*
X76138Y42169D01*
X75996Y42228D01*
X75857Y42289D01*
X75718Y42355D01*
X75718Y42354D02*
X75648Y42380D01*
X75578Y42410D01*
X75511Y42443D01*
X75445Y42479D01*
X75381Y42518D01*
X75319Y42561D01*
X75260Y42607D01*
X75202Y42655D01*
X75148Y42706D01*
X75095Y42760D01*
X75046Y42817D01*
X74999Y42876D01*
X74956Y42937D01*
X74915Y43000D01*
X74878Y43065D01*
X74843Y43132D01*
X74813Y43201D01*
X74785Y43271D01*
X74762Y43342D01*
X74741Y43414D01*
X74725Y43487D01*
X74712Y43561D01*
X74702Y43636D01*
X74697Y43711D01*
X74695Y43786D01*
X74697Y43861D01*
X74702Y43936D01*
X74712Y44011D01*
X74725Y44085D01*
X74741Y44158D01*
X74762Y44230D01*
X74785Y44301D01*
X74813Y44371D01*
X74843Y44440D01*
X74878Y44507D01*
X74915Y44572D01*
X74956Y44635D01*
X74999Y44696D01*
X75046Y44755D01*
X75095Y44812D01*
X75148Y44866D01*
X75202Y44917D01*
X75260Y44966D01*
X75319Y45011D01*
X75381Y45054D01*
X75445Y45093D01*
X75511Y45130D01*
X75579Y45162D01*
X75648Y45192D01*
X75718Y45218D01*
X75718Y45219D02*
X75856Y45284D01*
X75996Y45346D01*
X76138Y45404D01*
X76281Y45459D01*
X76425Y45510D01*
X76570Y45558D01*
X76717Y45601D01*
X76864Y45641D01*
X77013Y45678D01*
X77163Y45710D01*
X77313Y45739D01*
X77464Y45764D01*
X77615Y45785D01*
X77767Y45802D01*
X77920Y45816D01*
X78072Y45825D01*
X78225Y45831D01*
X78378Y45833D01*
X78378Y41741D02*
X78531Y41743D01*
X78684Y41749D01*
X78836Y41758D01*
X78989Y41772D01*
X79141Y41789D01*
X79292Y41810D01*
X79443Y41835D01*
X79593Y41864D01*
X79743Y41896D01*
X79891Y41933D01*
X80039Y41973D01*
X80186Y42016D01*
X80331Y42064D01*
X80475Y42115D01*
X80618Y42169D01*
X80760Y42228D01*
X80899Y42289D01*
X81038Y42355D01*
X81037Y42354D02*
X81108Y42380D01*
X81177Y42410D01*
X81244Y42443D01*
X81310Y42479D01*
X81374Y42518D01*
X81436Y42561D01*
X81495Y42607D01*
X81553Y42655D01*
X81607Y42706D01*
X81660Y42760D01*
X81709Y42817D01*
X81756Y42876D01*
X81799Y42937D01*
X81840Y43000D01*
X81877Y43065D01*
X81912Y43132D01*
X81942Y43201D01*
X81970Y43271D01*
X81993Y43342D01*
X82014Y43414D01*
X82030Y43487D01*
X82043Y43561D01*
X82053Y43636D01*
X82058Y43711D01*
X82060Y43786D01*
X81038Y45218D02*
X80900Y45283D01*
X80760Y45345D01*
X80618Y45403D01*
X80475Y45458D01*
X80331Y45509D01*
X80186Y45557D01*
X80039Y45600D01*
X79892Y45640D01*
X79743Y45677D01*
X79593Y45709D01*
X79443Y45738D01*
X79292Y45763D01*
X79141Y45784D01*
X78989Y45801D01*
X78836Y45815D01*
X78684Y45824D01*
X78531Y45830D01*
X78378Y45832D01*
X81037Y45218D02*
X81107Y45192D01*
X81177Y45162D01*
X81244Y45129D01*
X81310Y45093D01*
X81374Y45054D01*
X81436Y45011D01*
X81495Y44965D01*
X81553Y44917D01*
X81607Y44866D01*
X81660Y44812D01*
X81709Y44755D01*
X81756Y44696D01*
X81799Y44635D01*
X81840Y44572D01*
X81877Y44507D01*
X81912Y44440D01*
X81942Y44371D01*
X81970Y44301D01*
X81993Y44230D01*
X82014Y44158D01*
X82030Y44085D01*
X82043Y44011D01*
X82053Y43936D01*
X82058Y43861D01*
X82060Y43786D01*
X80424Y42150D02*
X76331Y45423D01*
X22705Y89281D02*
X21068Y89281D01*
X20990Y89283D01*
X20912Y89288D01*
X20835Y89298D01*
X20758Y89311D01*
X20682Y89327D01*
X20607Y89347D01*
X20533Y89371D01*
X20460Y89398D01*
X20388Y89429D01*
X20318Y89463D01*
X20249Y89500D01*
X20183Y89541D01*
X20118Y89585D01*
X20056Y89631D01*
X19996Y89681D01*
X19938Y89733D01*
X19883Y89788D01*
X19831Y89846D01*
X19781Y89906D01*
X19735Y89968D01*
X19691Y90033D01*
X19650Y90100D01*
X19613Y90168D01*
X19579Y90238D01*
X19548Y90310D01*
X19521Y90383D01*
X19497Y90457D01*
X19477Y90532D01*
X19461Y90608D01*
X19448Y90685D01*
X19438Y90762D01*
X19433Y90840D01*
X19431Y90918D01*
X19431Y95010D01*
X19433Y95090D01*
X19439Y95170D01*
X19449Y95250D01*
X19462Y95329D01*
X19480Y95408D01*
X19501Y95485D01*
X19527Y95561D01*
X19556Y95636D01*
X19588Y95710D01*
X19624Y95782D01*
X19664Y95852D01*
X19707Y95919D01*
X19753Y95985D01*
X19803Y96048D01*
X19855Y96109D01*
X19910Y96168D01*
X19969Y96223D01*
X20029Y96275D01*
X20093Y96325D01*
X20159Y96371D01*
X20226Y96414D01*
X20296Y96454D01*
X20368Y96490D01*
X20442Y96522D01*
X20516Y96551D01*
X20593Y96577D01*
X20670Y96598D01*
X20749Y96616D01*
X20828Y96629D01*
X20908Y96639D01*
X20988Y96645D01*
X21068Y96647D01*
X22705Y96647D01*
X27801Y96648D02*
X27886Y96646D01*
X27971Y96640D01*
X28055Y96630D01*
X28139Y96617D01*
X28223Y96599D01*
X28305Y96578D01*
X28386Y96553D01*
X28466Y96524D01*
X28545Y96491D01*
X28622Y96455D01*
X28697Y96415D01*
X28771Y96372D01*
X28842Y96326D01*
X28911Y96276D01*
X28978Y96223D01*
X29042Y96167D01*
X29103Y96108D01*
X29162Y96047D01*
X29218Y95983D01*
X29271Y95916D01*
X29321Y95847D01*
X29367Y95776D01*
X29410Y95702D01*
X29450Y95627D01*
X29486Y95550D01*
X29519Y95471D01*
X29548Y95391D01*
X29573Y95310D01*
X29594Y95228D01*
X29612Y95144D01*
X29625Y95060D01*
X29635Y94976D01*
X29641Y94891D01*
X29643Y94806D01*
X27801Y96647D02*
X27705Y96645D01*
X27609Y96639D01*
X27514Y96629D01*
X27419Y96616D01*
X27324Y96598D01*
X27231Y96577D01*
X27138Y96552D01*
X27047Y96523D01*
X26956Y96491D01*
X26867Y96455D01*
X26780Y96415D01*
X26694Y96372D01*
X26610Y96326D01*
X26528Y96276D01*
X26448Y96222D01*
X26371Y96166D01*
X26296Y96106D01*
X26223Y96044D01*
X26153Y95978D01*
X26085Y95910D01*
X26020Y95839D01*
X25959Y95766D01*
X25900Y95690D01*
X25844Y95611D01*
X25792Y95531D01*
X25743Y95448D01*
X25697Y95364D01*
X25655Y95278D01*
X25617Y95190D01*
X25582Y95101D01*
X25550Y95010D01*
X29028Y93374D02*
X29088Y93433D01*
X29145Y93495D01*
X29200Y93559D01*
X29251Y93626D01*
X29300Y93695D01*
X29346Y93765D01*
X29389Y93838D01*
X29429Y93912D01*
X29465Y93988D01*
X29498Y94066D01*
X29528Y94145D01*
X29555Y94225D01*
X29578Y94306D01*
X29597Y94388D01*
X29613Y94470D01*
X29626Y94554D01*
X29635Y94638D01*
X29640Y94722D01*
X29642Y94806D01*
X29028Y93373D02*
X25550Y89281D01*
X29642Y89281D01*
X32865Y89281D02*
X35321Y89281D01*
X35399Y89283D01*
X35477Y89288D01*
X35554Y89298D01*
X35631Y89311D01*
X35707Y89327D01*
X35782Y89347D01*
X35856Y89371D01*
X35929Y89398D01*
X36001Y89429D01*
X36071Y89463D01*
X36140Y89500D01*
X36206Y89541D01*
X36271Y89585D01*
X36333Y89631D01*
X36393Y89681D01*
X36451Y89733D01*
X36506Y89788D01*
X36558Y89846D01*
X36608Y89906D01*
X36654Y89968D01*
X36698Y90033D01*
X36739Y90100D01*
X36776Y90168D01*
X36810Y90238D01*
X36841Y90310D01*
X36868Y90383D01*
X36892Y90457D01*
X36912Y90532D01*
X36928Y90608D01*
X36941Y90685D01*
X36951Y90762D01*
X36956Y90840D01*
X36958Y90918D01*
X36958Y91736D01*
X36956Y91814D01*
X36951Y91892D01*
X36941Y91969D01*
X36928Y92046D01*
X36912Y92122D01*
X36892Y92197D01*
X36868Y92271D01*
X36841Y92344D01*
X36810Y92416D01*
X36776Y92486D01*
X36739Y92555D01*
X36698Y92621D01*
X36654Y92686D01*
X36608Y92748D01*
X36558Y92808D01*
X36506Y92866D01*
X36451Y92921D01*
X36393Y92973D01*
X36333Y93023D01*
X36271Y93069D01*
X36206Y93113D01*
X36140Y93154D01*
X36071Y93191D01*
X36001Y93225D01*
X35929Y93256D01*
X35856Y93283D01*
X35782Y93307D01*
X35707Y93327D01*
X35631Y93343D01*
X35554Y93356D01*
X35477Y93366D01*
X35399Y93371D01*
X35321Y93373D01*
X32865Y93373D01*
X32865Y96647D01*
X36958Y96647D01*
D10*
X117270Y35010D02*
X227670Y35010D01*
X228047Y35005D01*
X228425Y34992D01*
X228801Y34969D01*
X229178Y34937D01*
X229553Y34895D01*
X229927Y34845D01*
X230300Y34785D01*
X230671Y34717D01*
X231040Y34639D01*
X231408Y34553D01*
X231773Y34457D01*
X232136Y34353D01*
X232496Y34240D01*
X232853Y34118D01*
X233207Y33987D01*
X233558Y33848D01*
X233905Y33700D01*
X234249Y33544D01*
X234589Y33380D01*
X234925Y33207D01*
X235256Y33027D01*
X235583Y32838D01*
X235905Y32641D01*
X236222Y32437D01*
X236535Y32225D01*
X236842Y32005D01*
X237143Y31778D01*
X237439Y31544D01*
X237729Y31302D01*
X238013Y31054D01*
X238291Y30799D01*
X238563Y30537D01*
X238829Y30268D01*
X239087Y29993D01*
X239339Y29712D01*
X239584Y29425D01*
X239822Y29132D01*
X240053Y28833D01*
X240276Y28529D01*
X240492Y28219D01*
X240700Y27904D01*
X240901Y27585D01*
X241093Y27260D01*
X241278Y26931D01*
X241455Y26597D01*
X241623Y26259D01*
X241784Y25918D01*
X241935Y25572D01*
X242079Y25223D01*
X242214Y24870D01*
X242340Y24515D01*
X242457Y24156D01*
X242566Y23794D01*
X242666Y23430D01*
X242757Y23064D01*
X242839Y22696D01*
X242912Y22325D01*
X242976Y21953D01*
X243031Y21580D01*
X243077Y21205D01*
X243114Y20830D01*
X243141Y20453D01*
X243160Y20076D01*
X243169Y19699D01*
X243169Y19321D01*
X243160Y18944D01*
X243141Y18567D01*
X243114Y18190D01*
X243077Y17815D01*
X243031Y17440D01*
X242976Y17067D01*
X242912Y16695D01*
X242839Y16324D01*
X242757Y15956D01*
X242666Y15590D01*
X242566Y15226D01*
X242457Y14864D01*
X242340Y14505D01*
X242214Y14150D01*
X242079Y13797D01*
X241935Y13448D01*
X241784Y13102D01*
X241623Y12761D01*
X241455Y12423D01*
X241278Y12089D01*
X241093Y11760D01*
X240901Y11435D01*
X240700Y11116D01*
X240492Y10801D01*
X240276Y10491D01*
X240053Y10187D01*
X239822Y9888D01*
X239584Y9595D01*
X239339Y9308D01*
X239087Y9027D01*
X238829Y8752D01*
X238563Y8483D01*
X238291Y8221D01*
X238013Y7966D01*
X237729Y7718D01*
X237439Y7476D01*
X237143Y7242D01*
X236842Y7015D01*
X236535Y6795D01*
X236222Y6583D01*
X235905Y6379D01*
X235583Y6182D01*
X235256Y5993D01*
X234925Y5813D01*
X234589Y5640D01*
X234249Y5476D01*
X233905Y5320D01*
X233558Y5172D01*
X233207Y5033D01*
X232853Y4902D01*
X232496Y4780D01*
X232136Y4667D01*
X231773Y4563D01*
X231408Y4467D01*
X231040Y4381D01*
X230671Y4303D01*
X230300Y4235D01*
X229927Y4175D01*
X229553Y4125D01*
X229178Y4083D01*
X228801Y4051D01*
X228425Y4028D01*
X228047Y4015D01*
X227670Y4010D01*
X117270Y4010D01*
X116893Y4015D01*
X116515Y4028D01*
X116139Y4051D01*
X115762Y4083D01*
X115387Y4125D01*
X115013Y4175D01*
X114640Y4235D01*
X114269Y4303D01*
X113900Y4381D01*
X113532Y4467D01*
X113167Y4563D01*
X112804Y4667D01*
X112444Y4780D01*
X112087Y4902D01*
X111733Y5033D01*
X111382Y5172D01*
X111035Y5320D01*
X110691Y5476D01*
X110351Y5640D01*
X110015Y5813D01*
X109684Y5993D01*
X109357Y6182D01*
X109035Y6379D01*
X108718Y6583D01*
X108405Y6795D01*
X108098Y7015D01*
X107797Y7242D01*
X107501Y7476D01*
X107211Y7718D01*
X106927Y7966D01*
X106649Y8221D01*
X106377Y8483D01*
X106111Y8752D01*
X105853Y9027D01*
X105601Y9308D01*
X105356Y9595D01*
X105118Y9888D01*
X104887Y10187D01*
X104664Y10491D01*
X104448Y10801D01*
X104240Y11116D01*
X104039Y11435D01*
X103847Y11760D01*
X103662Y12089D01*
X103485Y12423D01*
X103317Y12761D01*
X103156Y13102D01*
X103005Y13448D01*
X102861Y13797D01*
X102726Y14150D01*
X102600Y14505D01*
X102483Y14864D01*
X102374Y15226D01*
X102274Y15590D01*
X102183Y15956D01*
X102101Y16324D01*
X102028Y16695D01*
X101964Y17067D01*
X101909Y17440D01*
X101863Y17815D01*
X101826Y18190D01*
X101799Y18567D01*
X101780Y18944D01*
X101771Y19321D01*
X101771Y19699D01*
X101780Y20076D01*
X101799Y20453D01*
X101826Y20830D01*
X101863Y21205D01*
X101909Y21580D01*
X101964Y21953D01*
X102028Y22325D01*
X102101Y22696D01*
X102183Y23064D01*
X102274Y23430D01*
X102374Y23794D01*
X102483Y24156D01*
X102600Y24515D01*
X102726Y24870D01*
X102861Y25223D01*
X103005Y25572D01*
X103156Y25918D01*
X103317Y26259D01*
X103485Y26597D01*
X103662Y26931D01*
X103847Y27260D01*
X104039Y27585D01*
X104240Y27904D01*
X104448Y28219D01*
X104664Y28529D01*
X104887Y28833D01*
X105118Y29132D01*
X105356Y29425D01*
X105601Y29712D01*
X105853Y29993D01*
X106111Y30268D01*
X106377Y30537D01*
X106649Y30799D01*
X106927Y31054D01*
X107211Y31302D01*
X107501Y31544D01*
X107797Y31778D01*
X108098Y32005D01*
X108405Y32225D01*
X108718Y32437D01*
X109035Y32641D01*
X109357Y32838D01*
X109684Y33027D01*
X110015Y33207D01*
X110351Y33380D01*
X110691Y33544D01*
X111035Y33700D01*
X111382Y33848D01*
X111733Y33987D01*
X112087Y34118D01*
X112444Y34240D01*
X112804Y34353D01*
X113167Y34457D01*
X113532Y34553D01*
X113900Y34639D01*
X114269Y34717D01*
X114640Y34785D01*
X115013Y34845D01*
X115387Y34895D01*
X115762Y34937D01*
X116139Y34969D01*
X116515Y34992D01*
X116893Y35005D01*
X117270Y35010D01*
D12*
X138430Y40084D02*
X138430Y47450D01*
X140476Y47450D01*
X140565Y47448D01*
X140654Y47442D01*
X140743Y47432D01*
X140831Y47419D01*
X140919Y47402D01*
X141006Y47380D01*
X141091Y47355D01*
X141176Y47327D01*
X141259Y47294D01*
X141341Y47258D01*
X141421Y47219D01*
X141499Y47176D01*
X141575Y47130D01*
X141650Y47080D01*
X141722Y47027D01*
X141791Y46971D01*
X141858Y46912D01*
X141923Y46851D01*
X141984Y46786D01*
X142043Y46719D01*
X142099Y46650D01*
X142152Y46578D01*
X142202Y46503D01*
X142248Y46427D01*
X142291Y46349D01*
X142330Y46269D01*
X142366Y46187D01*
X142399Y46104D01*
X142427Y46019D01*
X142452Y45934D01*
X142474Y45847D01*
X142491Y45759D01*
X142504Y45671D01*
X142514Y45582D01*
X142520Y45493D01*
X142522Y45404D01*
X142520Y45315D01*
X142514Y45226D01*
X142504Y45137D01*
X142491Y45049D01*
X142474Y44961D01*
X142452Y44874D01*
X142427Y44789D01*
X142399Y44704D01*
X142366Y44621D01*
X142330Y44539D01*
X142291Y44459D01*
X142248Y44381D01*
X142202Y44305D01*
X142152Y44230D01*
X142099Y44158D01*
X142043Y44089D01*
X141984Y44022D01*
X141923Y43957D01*
X141858Y43896D01*
X141791Y43837D01*
X141722Y43781D01*
X141650Y43728D01*
X141575Y43678D01*
X141499Y43632D01*
X141421Y43589D01*
X141341Y43550D01*
X141259Y43514D01*
X141176Y43481D01*
X141091Y43453D01*
X141006Y43428D01*
X140919Y43406D01*
X140831Y43389D01*
X140743Y43376D01*
X140654Y43366D01*
X140565Y43360D01*
X140476Y43358D01*
X138430Y43358D01*
X140885Y43358D02*
X142522Y40084D01*
X145954Y40084D02*
X149227Y40084D01*
X145954Y40084D02*
X145954Y47450D01*
X149227Y47450D01*
X148409Y44176D02*
X145954Y44176D01*
X152293Y40084D02*
X155567Y40084D01*
X152293Y40084D02*
X152293Y47450D01*
X155567Y47450D01*
X154749Y44176D02*
X152293Y44176D01*
X158617Y47450D02*
X158617Y40084D01*
X158617Y47450D02*
X160664Y47450D01*
X160753Y47448D01*
X160842Y47442D01*
X160931Y47432D01*
X161019Y47419D01*
X161107Y47402D01*
X161194Y47380D01*
X161279Y47355D01*
X161364Y47327D01*
X161447Y47294D01*
X161529Y47258D01*
X161609Y47219D01*
X161687Y47176D01*
X161763Y47130D01*
X161838Y47080D01*
X161910Y47027D01*
X161979Y46971D01*
X162046Y46912D01*
X162111Y46851D01*
X162172Y46786D01*
X162231Y46719D01*
X162287Y46650D01*
X162340Y46578D01*
X162390Y46503D01*
X162436Y46427D01*
X162479Y46349D01*
X162518Y46269D01*
X162554Y46187D01*
X162587Y46104D01*
X162615Y46019D01*
X162640Y45934D01*
X162662Y45847D01*
X162679Y45759D01*
X162692Y45671D01*
X162702Y45582D01*
X162708Y45493D01*
X162710Y45404D01*
X162710Y42130D01*
X162708Y42041D01*
X162702Y41952D01*
X162692Y41863D01*
X162679Y41775D01*
X162662Y41687D01*
X162640Y41600D01*
X162615Y41515D01*
X162587Y41430D01*
X162554Y41347D01*
X162518Y41265D01*
X162479Y41185D01*
X162436Y41107D01*
X162390Y41031D01*
X162340Y40956D01*
X162287Y40884D01*
X162231Y40815D01*
X162172Y40748D01*
X162111Y40683D01*
X162046Y40622D01*
X161979Y40563D01*
X161910Y40507D01*
X161838Y40454D01*
X161763Y40404D01*
X161687Y40358D01*
X161609Y40315D01*
X161529Y40276D01*
X161447Y40240D01*
X161364Y40207D01*
X161279Y40179D01*
X161194Y40154D01*
X161107Y40132D01*
X161019Y40115D01*
X160931Y40102D01*
X160842Y40092D01*
X160753Y40086D01*
X160664Y40084D01*
X158617Y40084D01*
X168388Y40084D02*
X168466Y40086D01*
X168544Y40091D01*
X168621Y40101D01*
X168698Y40114D01*
X168774Y40130D01*
X168849Y40150D01*
X168923Y40174D01*
X168996Y40201D01*
X169068Y40232D01*
X169138Y40266D01*
X169207Y40303D01*
X169273Y40344D01*
X169338Y40388D01*
X169400Y40434D01*
X169460Y40484D01*
X169518Y40536D01*
X169573Y40591D01*
X169625Y40649D01*
X169675Y40709D01*
X169721Y40771D01*
X169765Y40836D01*
X169806Y40903D01*
X169843Y40971D01*
X169877Y41041D01*
X169908Y41113D01*
X169935Y41186D01*
X169959Y41260D01*
X169979Y41335D01*
X169995Y41411D01*
X170008Y41488D01*
X170018Y41565D01*
X170023Y41643D01*
X170025Y41721D01*
X168388Y40084D02*
X168274Y40086D01*
X168161Y40091D01*
X168047Y40101D01*
X167934Y40114D01*
X167822Y40131D01*
X167710Y40151D01*
X167599Y40175D01*
X167488Y40203D01*
X167379Y40234D01*
X167271Y40269D01*
X167164Y40308D01*
X167058Y40350D01*
X166954Y40395D01*
X166851Y40444D01*
X166750Y40497D01*
X166651Y40552D01*
X166553Y40611D01*
X166458Y40673D01*
X166365Y40738D01*
X166273Y40806D01*
X166185Y40877D01*
X166098Y40951D01*
X166014Y41028D01*
X165933Y41107D01*
X166137Y45813D02*
X166139Y45891D01*
X166144Y45969D01*
X166154Y46046D01*
X166167Y46123D01*
X166183Y46199D01*
X166203Y46274D01*
X166227Y46348D01*
X166254Y46421D01*
X166285Y46493D01*
X166319Y46563D01*
X166356Y46632D01*
X166397Y46698D01*
X166441Y46763D01*
X166487Y46825D01*
X166537Y46885D01*
X166589Y46943D01*
X166644Y46998D01*
X166702Y47050D01*
X166762Y47100D01*
X166824Y47146D01*
X166889Y47190D01*
X166956Y47231D01*
X167024Y47268D01*
X167094Y47302D01*
X167166Y47333D01*
X167239Y47360D01*
X167313Y47384D01*
X167388Y47404D01*
X167464Y47420D01*
X167541Y47433D01*
X167618Y47443D01*
X167696Y47448D01*
X167774Y47450D01*
X167884Y47448D01*
X167993Y47442D01*
X168103Y47432D01*
X168211Y47419D01*
X168320Y47401D01*
X168427Y47380D01*
X168534Y47354D01*
X168640Y47325D01*
X168745Y47293D01*
X168848Y47256D01*
X168950Y47216D01*
X169051Y47172D01*
X169150Y47124D01*
X169247Y47074D01*
X169342Y47019D01*
X169435Y46961D01*
X169526Y46900D01*
X169615Y46836D01*
X166956Y44380D02*
X166889Y44422D01*
X166824Y44466D01*
X166762Y44514D01*
X166702Y44564D01*
X166644Y44617D01*
X166589Y44673D01*
X166537Y44732D01*
X166487Y44792D01*
X166440Y44856D01*
X166397Y44921D01*
X166356Y44988D01*
X166319Y45057D01*
X166285Y45128D01*
X166254Y45200D01*
X166227Y45274D01*
X166203Y45348D01*
X166183Y45424D01*
X166167Y45501D01*
X166154Y45578D01*
X166144Y45656D01*
X166139Y45735D01*
X166137Y45813D01*
X169206Y43153D02*
X169272Y43111D01*
X169337Y43067D01*
X169399Y43020D01*
X169459Y42969D01*
X169517Y42916D01*
X169572Y42860D01*
X169625Y42802D01*
X169674Y42741D01*
X169721Y42678D01*
X169764Y42613D01*
X169805Y42546D01*
X169842Y42477D01*
X169876Y42406D01*
X169907Y42334D01*
X169934Y42260D01*
X169958Y42185D01*
X169978Y42110D01*
X169994Y42033D01*
X170007Y41956D01*
X170017Y41878D01*
X170022Y41799D01*
X170024Y41721D01*
X169206Y43153D02*
X166956Y44381D01*
X172752Y47450D02*
X174389Y40084D01*
X176025Y44995D01*
X177662Y40084D01*
X179299Y47450D01*
X182853Y47450D02*
X182853Y40084D01*
X182035Y40084D02*
X183671Y40084D01*
X183671Y47450D02*
X182035Y47450D01*
X188217Y47450D02*
X188217Y40084D01*
X186171Y47450D02*
X190264Y47450D01*
X194613Y40084D02*
X196250Y40084D01*
X194613Y40084D02*
X194535Y40086D01*
X194457Y40091D01*
X194380Y40101D01*
X194303Y40114D01*
X194227Y40130D01*
X194152Y40150D01*
X194078Y40174D01*
X194005Y40201D01*
X193933Y40232D01*
X193863Y40266D01*
X193795Y40303D01*
X193728Y40344D01*
X193663Y40388D01*
X193601Y40434D01*
X193541Y40484D01*
X193483Y40536D01*
X193428Y40591D01*
X193376Y40649D01*
X193326Y40709D01*
X193280Y40771D01*
X193236Y40836D01*
X193195Y40903D01*
X193158Y40971D01*
X193124Y41041D01*
X193093Y41113D01*
X193066Y41186D01*
X193042Y41260D01*
X193022Y41335D01*
X193006Y41411D01*
X192993Y41488D01*
X192983Y41565D01*
X192978Y41643D01*
X192976Y41721D01*
X192976Y45813D01*
X192978Y45893D01*
X192984Y45973D01*
X192994Y46053D01*
X193007Y46132D01*
X193025Y46211D01*
X193046Y46288D01*
X193072Y46364D01*
X193101Y46439D01*
X193133Y46513D01*
X193169Y46585D01*
X193209Y46655D01*
X193252Y46722D01*
X193298Y46788D01*
X193348Y46851D01*
X193400Y46912D01*
X193455Y46971D01*
X193514Y47026D01*
X193574Y47078D01*
X193638Y47128D01*
X193704Y47174D01*
X193771Y47217D01*
X193841Y47257D01*
X193913Y47293D01*
X193987Y47325D01*
X194061Y47354D01*
X194138Y47380D01*
X194215Y47401D01*
X194294Y47419D01*
X194373Y47432D01*
X194453Y47442D01*
X194533Y47448D01*
X194613Y47450D01*
X196250Y47450D01*
X199339Y47450D02*
X199339Y40084D01*
X199339Y44176D02*
X203431Y44176D01*
X203431Y47450D02*
X203431Y40084D01*
X112952Y49072D02*
X112952Y56438D01*
X114998Y56438D01*
X115087Y56436D01*
X115176Y56430D01*
X115265Y56420D01*
X115353Y56407D01*
X115441Y56390D01*
X115528Y56368D01*
X115613Y56343D01*
X115698Y56315D01*
X115781Y56282D01*
X115863Y56246D01*
X115943Y56207D01*
X116021Y56164D01*
X116097Y56118D01*
X116172Y56068D01*
X116244Y56015D01*
X116313Y55959D01*
X116380Y55900D01*
X116445Y55839D01*
X116506Y55774D01*
X116565Y55707D01*
X116621Y55638D01*
X116674Y55566D01*
X116724Y55491D01*
X116770Y55415D01*
X116813Y55337D01*
X116852Y55257D01*
X116888Y55175D01*
X116921Y55092D01*
X116949Y55007D01*
X116974Y54922D01*
X116996Y54835D01*
X117013Y54747D01*
X117026Y54659D01*
X117036Y54570D01*
X117042Y54481D01*
X117044Y54392D01*
X117042Y54303D01*
X117036Y54214D01*
X117026Y54125D01*
X117013Y54037D01*
X116996Y53949D01*
X116974Y53862D01*
X116949Y53777D01*
X116921Y53692D01*
X116888Y53609D01*
X116852Y53527D01*
X116813Y53447D01*
X116770Y53369D01*
X116724Y53293D01*
X116674Y53218D01*
X116621Y53146D01*
X116565Y53077D01*
X116506Y53010D01*
X116445Y52945D01*
X116380Y52884D01*
X116313Y52825D01*
X116244Y52769D01*
X116172Y52716D01*
X116097Y52666D01*
X116021Y52620D01*
X115943Y52577D01*
X115863Y52538D01*
X115781Y52502D01*
X115698Y52469D01*
X115613Y52441D01*
X115528Y52416D01*
X115441Y52394D01*
X115353Y52377D01*
X115265Y52364D01*
X115176Y52354D01*
X115087Y52348D01*
X114998Y52346D01*
X112952Y52346D01*
X115407Y52346D02*
X117044Y49072D01*
X120216Y49072D02*
X122262Y49072D01*
X122351Y49074D01*
X122440Y49080D01*
X122529Y49090D01*
X122617Y49103D01*
X122705Y49120D01*
X122792Y49142D01*
X122877Y49167D01*
X122962Y49195D01*
X123045Y49228D01*
X123127Y49264D01*
X123207Y49303D01*
X123285Y49346D01*
X123361Y49392D01*
X123436Y49442D01*
X123508Y49495D01*
X123577Y49551D01*
X123644Y49610D01*
X123709Y49671D01*
X123770Y49736D01*
X123829Y49803D01*
X123885Y49872D01*
X123938Y49944D01*
X123988Y50019D01*
X124034Y50095D01*
X124077Y50173D01*
X124116Y50253D01*
X124152Y50335D01*
X124185Y50418D01*
X124213Y50503D01*
X124238Y50588D01*
X124260Y50675D01*
X124277Y50763D01*
X124290Y50851D01*
X124300Y50940D01*
X124306Y51029D01*
X124308Y51118D01*
X124306Y51207D01*
X124300Y51296D01*
X124290Y51385D01*
X124277Y51473D01*
X124260Y51561D01*
X124238Y51648D01*
X124213Y51733D01*
X124185Y51818D01*
X124152Y51901D01*
X124116Y51983D01*
X124077Y52063D01*
X124034Y52141D01*
X123988Y52217D01*
X123938Y52292D01*
X123885Y52364D01*
X123829Y52433D01*
X123770Y52500D01*
X123709Y52565D01*
X123644Y52626D01*
X123577Y52685D01*
X123508Y52741D01*
X123436Y52794D01*
X123361Y52844D01*
X123285Y52890D01*
X123207Y52933D01*
X123127Y52972D01*
X123045Y53008D01*
X122962Y53041D01*
X122877Y53069D01*
X122792Y53094D01*
X122705Y53116D01*
X122617Y53133D01*
X122529Y53146D01*
X122440Y53156D01*
X122351Y53162D01*
X122262Y53164D01*
X122671Y56438D02*
X120216Y56438D01*
X122671Y56438D02*
X122750Y56436D01*
X122829Y56430D01*
X122908Y56421D01*
X122986Y56408D01*
X123063Y56390D01*
X123139Y56370D01*
X123214Y56345D01*
X123288Y56317D01*
X123361Y56286D01*
X123432Y56250D01*
X123501Y56212D01*
X123568Y56170D01*
X123633Y56125D01*
X123696Y56077D01*
X123757Y56026D01*
X123814Y55972D01*
X123870Y55916D01*
X123922Y55857D01*
X123972Y55795D01*
X124018Y55731D01*
X124062Y55665D01*
X124102Y55597D01*
X124138Y55527D01*
X124172Y55455D01*
X124202Y55381D01*
X124228Y55307D01*
X124251Y55231D01*
X124269Y55154D01*
X124285Y55077D01*
X124296Y54998D01*
X124304Y54920D01*
X124308Y54841D01*
X124308Y54761D01*
X124304Y54682D01*
X124296Y54604D01*
X124285Y54525D01*
X124269Y54448D01*
X124251Y54371D01*
X124228Y54295D01*
X124202Y54221D01*
X124172Y54147D01*
X124138Y54075D01*
X124102Y54005D01*
X124062Y53937D01*
X124018Y53871D01*
X123972Y53807D01*
X123922Y53745D01*
X123870Y53686D01*
X123814Y53630D01*
X123757Y53576D01*
X123696Y53525D01*
X123633Y53477D01*
X123568Y53432D01*
X123501Y53390D01*
X123432Y53352D01*
X123361Y53316D01*
X123288Y53285D01*
X123214Y53257D01*
X123139Y53232D01*
X123063Y53212D01*
X122986Y53194D01*
X122908Y53181D01*
X122829Y53172D01*
X122750Y53166D01*
X122671Y53164D01*
X121034Y53164D01*
X48818Y75590D02*
X48818Y82956D01*
X50864Y82956D01*
X50953Y82954D01*
X51042Y82948D01*
X51131Y82938D01*
X51219Y82925D01*
X51307Y82908D01*
X51394Y82886D01*
X51479Y82861D01*
X51564Y82833D01*
X51647Y82800D01*
X51729Y82764D01*
X51809Y82725D01*
X51887Y82682D01*
X51963Y82636D01*
X52038Y82586D01*
X52110Y82533D01*
X52179Y82477D01*
X52246Y82418D01*
X52311Y82357D01*
X52372Y82292D01*
X52431Y82225D01*
X52487Y82156D01*
X52540Y82084D01*
X52590Y82009D01*
X52636Y81933D01*
X52679Y81855D01*
X52718Y81775D01*
X52754Y81693D01*
X52787Y81610D01*
X52815Y81525D01*
X52840Y81440D01*
X52862Y81353D01*
X52879Y81265D01*
X52892Y81177D01*
X52902Y81088D01*
X52908Y80999D01*
X52910Y80910D01*
X52908Y80821D01*
X52902Y80732D01*
X52892Y80643D01*
X52879Y80555D01*
X52862Y80467D01*
X52840Y80380D01*
X52815Y80295D01*
X52787Y80210D01*
X52754Y80127D01*
X52718Y80045D01*
X52679Y79965D01*
X52636Y79887D01*
X52590Y79811D01*
X52540Y79736D01*
X52487Y79664D01*
X52431Y79595D01*
X52372Y79528D01*
X52311Y79463D01*
X52246Y79402D01*
X52179Y79343D01*
X52110Y79287D01*
X52038Y79234D01*
X51963Y79184D01*
X51887Y79138D01*
X51809Y79095D01*
X51729Y79056D01*
X51647Y79020D01*
X51564Y78987D01*
X51479Y78959D01*
X51394Y78934D01*
X51307Y78912D01*
X51219Y78895D01*
X51131Y78882D01*
X51042Y78872D01*
X50953Y78866D01*
X50864Y78864D01*
X48818Y78864D01*
X51273Y78864D02*
X52910Y75590D01*
X56082Y75590D02*
X58537Y75590D01*
X58615Y75592D01*
X58693Y75597D01*
X58770Y75607D01*
X58847Y75620D01*
X58923Y75636D01*
X58998Y75656D01*
X59072Y75680D01*
X59145Y75707D01*
X59217Y75738D01*
X59287Y75772D01*
X59356Y75809D01*
X59422Y75850D01*
X59487Y75894D01*
X59549Y75940D01*
X59609Y75990D01*
X59667Y76042D01*
X59722Y76097D01*
X59774Y76155D01*
X59824Y76215D01*
X59870Y76277D01*
X59914Y76342D01*
X59955Y76409D01*
X59992Y76477D01*
X60026Y76547D01*
X60057Y76619D01*
X60084Y76692D01*
X60108Y76766D01*
X60128Y76841D01*
X60144Y76917D01*
X60157Y76994D01*
X60167Y77071D01*
X60172Y77149D01*
X60174Y77227D01*
X60174Y78045D01*
X60172Y78123D01*
X60167Y78201D01*
X60157Y78278D01*
X60144Y78355D01*
X60128Y78431D01*
X60108Y78506D01*
X60084Y78580D01*
X60057Y78653D01*
X60026Y78725D01*
X59992Y78795D01*
X59955Y78864D01*
X59914Y78930D01*
X59870Y78995D01*
X59824Y79057D01*
X59774Y79117D01*
X59722Y79175D01*
X59667Y79230D01*
X59609Y79282D01*
X59549Y79332D01*
X59487Y79378D01*
X59422Y79422D01*
X59356Y79463D01*
X59287Y79500D01*
X59217Y79534D01*
X59145Y79565D01*
X59072Y79592D01*
X58998Y79616D01*
X58923Y79636D01*
X58847Y79652D01*
X58770Y79665D01*
X58693Y79675D01*
X58615Y79680D01*
X58537Y79682D01*
X56082Y79682D01*
X56082Y82956D01*
X60174Y82956D01*
X73583Y62890D02*
X73583Y55524D01*
X73583Y62890D02*
X75629Y62890D01*
X75718Y62888D01*
X75807Y62882D01*
X75896Y62872D01*
X75984Y62859D01*
X76072Y62842D01*
X76159Y62820D01*
X76244Y62795D01*
X76329Y62767D01*
X76412Y62734D01*
X76494Y62698D01*
X76574Y62659D01*
X76652Y62616D01*
X76728Y62570D01*
X76803Y62520D01*
X76875Y62467D01*
X76944Y62411D01*
X77011Y62352D01*
X77076Y62291D01*
X77137Y62226D01*
X77196Y62159D01*
X77252Y62090D01*
X77305Y62018D01*
X77355Y61943D01*
X77401Y61867D01*
X77444Y61789D01*
X77483Y61709D01*
X77519Y61627D01*
X77552Y61544D01*
X77580Y61459D01*
X77605Y61374D01*
X77627Y61287D01*
X77644Y61199D01*
X77657Y61111D01*
X77667Y61022D01*
X77673Y60933D01*
X77675Y60844D01*
X77673Y60755D01*
X77667Y60666D01*
X77657Y60577D01*
X77644Y60489D01*
X77627Y60401D01*
X77605Y60314D01*
X77580Y60229D01*
X77552Y60144D01*
X77519Y60061D01*
X77483Y59979D01*
X77444Y59899D01*
X77401Y59821D01*
X77355Y59745D01*
X77305Y59670D01*
X77252Y59598D01*
X77196Y59529D01*
X77137Y59462D01*
X77076Y59397D01*
X77011Y59336D01*
X76944Y59277D01*
X76875Y59221D01*
X76803Y59168D01*
X76728Y59118D01*
X76652Y59072D01*
X76574Y59029D01*
X76494Y58990D01*
X76412Y58954D01*
X76329Y58921D01*
X76244Y58893D01*
X76159Y58868D01*
X76072Y58846D01*
X75984Y58829D01*
X75896Y58816D01*
X75807Y58806D01*
X75718Y58800D01*
X75629Y58798D01*
X73583Y58798D01*
X76038Y58798D02*
X77675Y55524D01*
X80847Y59616D02*
X83302Y59616D01*
X83380Y59614D01*
X83458Y59609D01*
X83535Y59599D01*
X83612Y59586D01*
X83688Y59570D01*
X83763Y59550D01*
X83837Y59526D01*
X83910Y59499D01*
X83982Y59468D01*
X84052Y59434D01*
X84121Y59397D01*
X84187Y59356D01*
X84252Y59312D01*
X84314Y59266D01*
X84374Y59216D01*
X84432Y59164D01*
X84487Y59109D01*
X84539Y59051D01*
X84589Y58991D01*
X84635Y58929D01*
X84679Y58864D01*
X84720Y58798D01*
X84757Y58729D01*
X84791Y58659D01*
X84822Y58587D01*
X84849Y58514D01*
X84873Y58440D01*
X84893Y58365D01*
X84909Y58289D01*
X84922Y58212D01*
X84932Y58135D01*
X84937Y58057D01*
X84939Y57979D01*
X84939Y57570D01*
X84937Y57481D01*
X84931Y57392D01*
X84921Y57303D01*
X84908Y57215D01*
X84891Y57127D01*
X84869Y57040D01*
X84844Y56955D01*
X84816Y56870D01*
X84783Y56787D01*
X84747Y56705D01*
X84708Y56625D01*
X84665Y56547D01*
X84619Y56471D01*
X84569Y56396D01*
X84516Y56324D01*
X84460Y56255D01*
X84401Y56188D01*
X84340Y56123D01*
X84275Y56062D01*
X84208Y56003D01*
X84139Y55947D01*
X84067Y55894D01*
X83992Y55844D01*
X83916Y55798D01*
X83838Y55755D01*
X83758Y55716D01*
X83676Y55680D01*
X83593Y55647D01*
X83508Y55619D01*
X83423Y55594D01*
X83336Y55572D01*
X83248Y55555D01*
X83160Y55542D01*
X83071Y55532D01*
X82982Y55526D01*
X82893Y55524D01*
X82804Y55526D01*
X82715Y55532D01*
X82626Y55542D01*
X82538Y55555D01*
X82450Y55572D01*
X82363Y55594D01*
X82278Y55619D01*
X82193Y55647D01*
X82110Y55680D01*
X82028Y55716D01*
X81948Y55755D01*
X81870Y55798D01*
X81794Y55844D01*
X81719Y55894D01*
X81647Y55947D01*
X81578Y56003D01*
X81511Y56062D01*
X81446Y56123D01*
X81385Y56188D01*
X81326Y56255D01*
X81270Y56324D01*
X81217Y56396D01*
X81167Y56471D01*
X81121Y56547D01*
X81078Y56625D01*
X81039Y56705D01*
X81003Y56787D01*
X80970Y56870D01*
X80942Y56955D01*
X80917Y57040D01*
X80895Y57127D01*
X80878Y57215D01*
X80865Y57303D01*
X80855Y57392D01*
X80849Y57481D01*
X80847Y57570D01*
X80847Y59616D01*
X80849Y59730D01*
X80855Y59844D01*
X80865Y59958D01*
X80879Y60072D01*
X80897Y60185D01*
X80919Y60297D01*
X80944Y60408D01*
X80974Y60518D01*
X81007Y60628D01*
X81044Y60736D01*
X81085Y60842D01*
X81130Y60948D01*
X81178Y61051D01*
X81230Y61153D01*
X81286Y61253D01*
X81344Y61351D01*
X81407Y61447D01*
X81472Y61540D01*
X81541Y61632D01*
X81613Y61720D01*
X81688Y61807D01*
X81766Y61890D01*
X81847Y61971D01*
X81930Y62049D01*
X82017Y62124D01*
X82105Y62196D01*
X82197Y62265D01*
X82290Y62330D01*
X82386Y62392D01*
X82484Y62451D01*
X82584Y62507D01*
X82686Y62559D01*
X82789Y62607D01*
X82895Y62652D01*
X83001Y62693D01*
X83109Y62730D01*
X83219Y62763D01*
X83329Y62793D01*
X83440Y62818D01*
X83552Y62840D01*
X83665Y62858D01*
X83779Y62872D01*
X83893Y62882D01*
X84007Y62888D01*
X84121Y62890D01*
D10*
X214884Y240936D02*
X214884Y249064D01*
X214884Y240936D02*
X208296Y240936D01*
X186436Y240936D02*
X186436Y249064D01*
X186436Y240936D02*
X193024Y240936D01*
D19*
X210333Y236237D02*
X210333Y233415D01*
X210333Y236237D02*
X210335Y236320D01*
X210341Y236402D01*
X210350Y236484D01*
X210364Y236566D01*
X210381Y236647D01*
X210402Y236727D01*
X210427Y236806D01*
X210456Y236883D01*
X210488Y236960D01*
X210523Y237034D01*
X210562Y237107D01*
X210605Y237178D01*
X210651Y237247D01*
X210700Y237314D01*
X210752Y237378D01*
X210807Y237440D01*
X210864Y237499D01*
X210925Y237555D01*
X210988Y237609D01*
X211053Y237659D01*
X211121Y237707D01*
X211191Y237751D01*
X211263Y237791D01*
X211337Y237829D01*
X211412Y237863D01*
X211489Y237893D01*
X211568Y237920D01*
X211647Y237943D01*
X211728Y237962D01*
X211809Y237977D01*
X211891Y237989D01*
X211973Y237997D01*
X212056Y238001D01*
X212138Y238001D01*
X212221Y237997D01*
X212303Y237989D01*
X212385Y237977D01*
X212466Y237962D01*
X212547Y237943D01*
X212626Y237920D01*
X212705Y237893D01*
X212782Y237863D01*
X212857Y237829D01*
X212931Y237791D01*
X213003Y237751D01*
X213073Y237707D01*
X213141Y237659D01*
X213206Y237609D01*
X213269Y237555D01*
X213330Y237499D01*
X213387Y237440D01*
X213442Y237378D01*
X213494Y237314D01*
X213543Y237247D01*
X213589Y237178D01*
X213632Y237107D01*
X213671Y237034D01*
X213706Y236960D01*
X213738Y236883D01*
X213767Y236806D01*
X213792Y236727D01*
X213813Y236647D01*
X213830Y236566D01*
X213844Y236484D01*
X213853Y236402D01*
X213859Y236320D01*
X213861Y236237D01*
X213861Y233415D01*
X213859Y233332D01*
X213853Y233250D01*
X213844Y233168D01*
X213830Y233086D01*
X213813Y233005D01*
X213792Y232925D01*
X213767Y232846D01*
X213738Y232769D01*
X213706Y232692D01*
X213671Y232618D01*
X213632Y232545D01*
X213589Y232474D01*
X213543Y232405D01*
X213494Y232338D01*
X213442Y232274D01*
X213387Y232212D01*
X213330Y232153D01*
X213269Y232097D01*
X213206Y232043D01*
X213141Y231993D01*
X213073Y231945D01*
X213003Y231901D01*
X212931Y231861D01*
X212857Y231823D01*
X212782Y231789D01*
X212705Y231759D01*
X212626Y231732D01*
X212547Y231709D01*
X212466Y231690D01*
X212385Y231675D01*
X212303Y231663D01*
X212221Y231655D01*
X212138Y231651D01*
X212056Y231651D01*
X211973Y231655D01*
X211891Y231663D01*
X211809Y231675D01*
X211728Y231690D01*
X211647Y231709D01*
X211568Y231732D01*
X211489Y231759D01*
X211412Y231789D01*
X211337Y231823D01*
X211263Y231861D01*
X211191Y231901D01*
X211121Y231945D01*
X211053Y231993D01*
X210988Y232043D01*
X210925Y232097D01*
X210864Y232153D01*
X210807Y232212D01*
X210752Y232274D01*
X210700Y232338D01*
X210651Y232405D01*
X210605Y232474D01*
X210562Y232545D01*
X210523Y232618D01*
X210488Y232692D01*
X210456Y232769D01*
X210427Y232846D01*
X210402Y232925D01*
X210381Y233005D01*
X210364Y233086D01*
X210350Y233168D01*
X210341Y233250D01*
X210335Y233332D01*
X210333Y233415D01*
X213156Y233062D02*
X214567Y231651D01*
X216803Y236590D02*
X218567Y238001D01*
X218567Y231651D01*
X216803Y231651D02*
X220331Y231651D01*
D10*
X181594Y240936D02*
X181594Y249064D01*
X181594Y240936D02*
X175006Y240936D01*
X153146Y240936D02*
X153146Y249064D01*
X153146Y240936D02*
X159734Y240936D01*
D19*
X178313Y236237D02*
X178313Y233415D01*
X178313Y236237D02*
X178315Y236320D01*
X178321Y236402D01*
X178330Y236484D01*
X178344Y236566D01*
X178361Y236647D01*
X178382Y236727D01*
X178407Y236806D01*
X178436Y236883D01*
X178468Y236960D01*
X178503Y237034D01*
X178542Y237107D01*
X178585Y237178D01*
X178631Y237247D01*
X178680Y237314D01*
X178732Y237378D01*
X178787Y237440D01*
X178844Y237499D01*
X178905Y237555D01*
X178968Y237609D01*
X179033Y237659D01*
X179101Y237707D01*
X179171Y237751D01*
X179243Y237791D01*
X179317Y237829D01*
X179392Y237863D01*
X179469Y237893D01*
X179548Y237920D01*
X179627Y237943D01*
X179708Y237962D01*
X179789Y237977D01*
X179871Y237989D01*
X179953Y237997D01*
X180036Y238001D01*
X180118Y238001D01*
X180201Y237997D01*
X180283Y237989D01*
X180365Y237977D01*
X180446Y237962D01*
X180527Y237943D01*
X180606Y237920D01*
X180685Y237893D01*
X180762Y237863D01*
X180837Y237829D01*
X180911Y237791D01*
X180983Y237751D01*
X181053Y237707D01*
X181121Y237659D01*
X181186Y237609D01*
X181249Y237555D01*
X181310Y237499D01*
X181367Y237440D01*
X181422Y237378D01*
X181474Y237314D01*
X181523Y237247D01*
X181569Y237178D01*
X181612Y237107D01*
X181651Y237034D01*
X181686Y236960D01*
X181718Y236883D01*
X181747Y236806D01*
X181772Y236727D01*
X181793Y236647D01*
X181810Y236566D01*
X181824Y236484D01*
X181833Y236402D01*
X181839Y236320D01*
X181841Y236237D01*
X181841Y233415D01*
X181839Y233332D01*
X181833Y233250D01*
X181824Y233168D01*
X181810Y233086D01*
X181793Y233005D01*
X181772Y232925D01*
X181747Y232846D01*
X181718Y232769D01*
X181686Y232692D01*
X181651Y232618D01*
X181612Y232545D01*
X181569Y232474D01*
X181523Y232405D01*
X181474Y232338D01*
X181422Y232274D01*
X181367Y232212D01*
X181310Y232153D01*
X181249Y232097D01*
X181186Y232043D01*
X181121Y231993D01*
X181053Y231945D01*
X180983Y231901D01*
X180911Y231861D01*
X180837Y231823D01*
X180762Y231789D01*
X180685Y231759D01*
X180606Y231732D01*
X180527Y231709D01*
X180446Y231690D01*
X180365Y231675D01*
X180283Y231663D01*
X180201Y231655D01*
X180118Y231651D01*
X180036Y231651D01*
X179953Y231655D01*
X179871Y231663D01*
X179789Y231675D01*
X179708Y231690D01*
X179627Y231709D01*
X179548Y231732D01*
X179469Y231759D01*
X179392Y231789D01*
X179317Y231823D01*
X179243Y231861D01*
X179171Y231901D01*
X179101Y231945D01*
X179033Y231993D01*
X178968Y232043D01*
X178905Y232097D01*
X178844Y232153D01*
X178787Y232212D01*
X178732Y232274D01*
X178680Y232338D01*
X178631Y232405D01*
X178585Y232474D01*
X178542Y232545D01*
X178503Y232618D01*
X178468Y232692D01*
X178436Y232769D01*
X178407Y232846D01*
X178382Y232925D01*
X178361Y233005D01*
X178344Y233086D01*
X178330Y233168D01*
X178321Y233250D01*
X178315Y233332D01*
X178313Y233415D01*
X181136Y233062D02*
X182547Y231651D01*
X188311Y236413D02*
X188309Y236491D01*
X188303Y236569D01*
X188294Y236646D01*
X188280Y236723D01*
X188263Y236799D01*
X188243Y236874D01*
X188218Y236948D01*
X188190Y237021D01*
X188159Y237092D01*
X188123Y237162D01*
X188085Y237229D01*
X188043Y237295D01*
X187998Y237359D01*
X187951Y237420D01*
X187900Y237479D01*
X187846Y237536D01*
X187789Y237590D01*
X187730Y237641D01*
X187669Y237688D01*
X187605Y237733D01*
X187539Y237775D01*
X187472Y237813D01*
X187402Y237849D01*
X187331Y237880D01*
X187258Y237908D01*
X187184Y237933D01*
X187109Y237953D01*
X187033Y237970D01*
X186956Y237984D01*
X186879Y237993D01*
X186801Y237999D01*
X186723Y238001D01*
X186723Y238000D02*
X186635Y237998D01*
X186546Y237992D01*
X186458Y237983D01*
X186371Y237969D01*
X186284Y237952D01*
X186198Y237931D01*
X186113Y237907D01*
X186030Y237879D01*
X185947Y237847D01*
X185866Y237811D01*
X185787Y237772D01*
X185709Y237730D01*
X185633Y237684D01*
X185560Y237636D01*
X185488Y237584D01*
X185419Y237529D01*
X185352Y237471D01*
X185288Y237410D01*
X185227Y237346D01*
X185168Y237280D01*
X185112Y237211D01*
X185060Y237140D01*
X185010Y237067D01*
X184964Y236992D01*
X184921Y236915D01*
X184881Y236836D01*
X184845Y236755D01*
X184812Y236673D01*
X184783Y236589D01*
X187782Y235178D02*
X187839Y235236D01*
X187894Y235296D01*
X187946Y235358D01*
X187994Y235423D01*
X188040Y235491D01*
X188082Y235560D01*
X188121Y235631D01*
X188157Y235704D01*
X188189Y235779D01*
X188217Y235855D01*
X188242Y235932D01*
X188263Y236011D01*
X188280Y236090D01*
X188294Y236170D01*
X188303Y236251D01*
X188309Y236332D01*
X188311Y236413D01*
X187782Y235178D02*
X184783Y231651D01*
X188311Y231651D01*
M02*
