G04 EAGLE Gerber RS-274X export*
G75*
%MOMM*%
%FSLAX34Y34*%
%LPD*%
%INSilkscreen Top*%
%IPPOS*%
%AMOC8*
5,1,8,0,0,1.08239X$1,22.5*%
G01*
%ADD10C,0.203200*%
%ADD11C,0.250000*%
%ADD12C,0.076200*%
%ADD13C,0.120000*%
%ADD14C,0.100000*%
%ADD15C,0.200000*%
%ADD16C,0.127000*%
%ADD17C,0.050000*%
%ADD18C,0.020000*%


D10*
X40236Y50303D02*
X40236Y51601D01*
X41534Y51601D01*
X41534Y50303D01*
X40236Y50303D01*
D11*
X152816Y108510D02*
X152818Y108580D01*
X152824Y108650D01*
X152834Y108719D01*
X152847Y108788D01*
X152865Y108856D01*
X152886Y108923D01*
X152911Y108988D01*
X152940Y109052D01*
X152972Y109115D01*
X153008Y109175D01*
X153047Y109233D01*
X153089Y109289D01*
X153134Y109343D01*
X153182Y109394D01*
X153233Y109442D01*
X153287Y109487D01*
X153343Y109529D01*
X153401Y109568D01*
X153461Y109604D01*
X153524Y109636D01*
X153588Y109665D01*
X153653Y109690D01*
X153720Y109711D01*
X153788Y109729D01*
X153857Y109742D01*
X153926Y109752D01*
X153996Y109758D01*
X154066Y109760D01*
X154136Y109758D01*
X154206Y109752D01*
X154275Y109742D01*
X154344Y109729D01*
X154412Y109711D01*
X154479Y109690D01*
X154544Y109665D01*
X154608Y109636D01*
X154671Y109604D01*
X154731Y109568D01*
X154789Y109529D01*
X154845Y109487D01*
X154899Y109442D01*
X154950Y109394D01*
X154998Y109343D01*
X155043Y109289D01*
X155085Y109233D01*
X155124Y109175D01*
X155160Y109115D01*
X155192Y109052D01*
X155221Y108988D01*
X155246Y108923D01*
X155267Y108856D01*
X155285Y108788D01*
X155298Y108719D01*
X155308Y108650D01*
X155314Y108580D01*
X155316Y108510D01*
X155314Y108440D01*
X155308Y108370D01*
X155298Y108301D01*
X155285Y108232D01*
X155267Y108164D01*
X155246Y108097D01*
X155221Y108032D01*
X155192Y107968D01*
X155160Y107905D01*
X155124Y107845D01*
X155085Y107787D01*
X155043Y107731D01*
X154998Y107677D01*
X154950Y107626D01*
X154899Y107578D01*
X154845Y107533D01*
X154789Y107491D01*
X154731Y107452D01*
X154671Y107416D01*
X154608Y107384D01*
X154544Y107355D01*
X154479Y107330D01*
X154412Y107309D01*
X154344Y107291D01*
X154275Y107278D01*
X154206Y107268D01*
X154136Y107262D01*
X154066Y107260D01*
X153996Y107262D01*
X153926Y107268D01*
X153857Y107278D01*
X153788Y107291D01*
X153720Y107309D01*
X153653Y107330D01*
X153588Y107355D01*
X153524Y107384D01*
X153461Y107416D01*
X153401Y107452D01*
X153343Y107491D01*
X153287Y107533D01*
X153233Y107578D01*
X153182Y107626D01*
X153134Y107677D01*
X153089Y107731D01*
X153047Y107787D01*
X153008Y107845D01*
X152972Y107905D01*
X152940Y107968D01*
X152911Y108032D01*
X152886Y108097D01*
X152865Y108164D01*
X152847Y108232D01*
X152834Y108301D01*
X152824Y108370D01*
X152818Y108440D01*
X152816Y108510D01*
D12*
X48768Y201281D02*
X48768Y202918D01*
X48768Y201281D02*
X48766Y201203D01*
X48761Y201125D01*
X48751Y201048D01*
X48738Y200971D01*
X48722Y200895D01*
X48702Y200820D01*
X48678Y200746D01*
X48651Y200673D01*
X48620Y200601D01*
X48586Y200531D01*
X48549Y200463D01*
X48508Y200396D01*
X48464Y200331D01*
X48418Y200269D01*
X48368Y200209D01*
X48316Y200151D01*
X48261Y200096D01*
X48203Y200044D01*
X48143Y199994D01*
X48081Y199948D01*
X48016Y199904D01*
X47950Y199863D01*
X47881Y199826D01*
X47811Y199792D01*
X47739Y199761D01*
X47666Y199734D01*
X47592Y199710D01*
X47517Y199690D01*
X47441Y199674D01*
X47364Y199661D01*
X47287Y199651D01*
X47209Y199646D01*
X47131Y199644D01*
X43039Y199644D01*
X42959Y199646D01*
X42879Y199652D01*
X42799Y199662D01*
X42720Y199675D01*
X42641Y199693D01*
X42564Y199714D01*
X42488Y199740D01*
X42413Y199769D01*
X42339Y199801D01*
X42267Y199837D01*
X42197Y199877D01*
X42130Y199920D01*
X42064Y199966D01*
X42001Y200016D01*
X41940Y200068D01*
X41881Y200123D01*
X41826Y200182D01*
X41774Y200242D01*
X41724Y200306D01*
X41678Y200371D01*
X41635Y200439D01*
X41595Y200509D01*
X41559Y200581D01*
X41527Y200655D01*
X41498Y200729D01*
X41473Y200806D01*
X41451Y200883D01*
X41433Y200962D01*
X41420Y201041D01*
X41410Y201120D01*
X41404Y201201D01*
X41402Y201281D01*
X41402Y202918D01*
X43039Y205763D02*
X41402Y207809D01*
X48768Y207809D01*
X48768Y205763D02*
X48768Y209855D01*
X39497Y202612D02*
X39497Y200976D01*
X39495Y200898D01*
X39490Y200820D01*
X39480Y200743D01*
X39467Y200666D01*
X39451Y200590D01*
X39431Y200515D01*
X39407Y200441D01*
X39380Y200368D01*
X39349Y200296D01*
X39315Y200226D01*
X39278Y200158D01*
X39237Y200091D01*
X39193Y200026D01*
X39147Y199964D01*
X39097Y199904D01*
X39045Y199846D01*
X38990Y199791D01*
X38932Y199739D01*
X38872Y199689D01*
X38810Y199643D01*
X38745Y199599D01*
X38679Y199558D01*
X38610Y199521D01*
X38540Y199487D01*
X38468Y199456D01*
X38395Y199429D01*
X38321Y199405D01*
X38246Y199385D01*
X38170Y199369D01*
X38093Y199356D01*
X38016Y199346D01*
X37938Y199341D01*
X37860Y199339D01*
X33768Y199339D01*
X33688Y199341D01*
X33608Y199347D01*
X33528Y199357D01*
X33449Y199370D01*
X33370Y199388D01*
X33293Y199409D01*
X33217Y199435D01*
X33142Y199464D01*
X33068Y199496D01*
X32996Y199532D01*
X32926Y199572D01*
X32859Y199615D01*
X32793Y199661D01*
X32730Y199711D01*
X32669Y199763D01*
X32610Y199818D01*
X32555Y199877D01*
X32503Y199937D01*
X32453Y200001D01*
X32407Y200066D01*
X32364Y200134D01*
X32324Y200204D01*
X32288Y200276D01*
X32256Y200350D01*
X32227Y200424D01*
X32202Y200501D01*
X32180Y200578D01*
X32162Y200657D01*
X32149Y200736D01*
X32139Y200815D01*
X32133Y200896D01*
X32131Y200976D01*
X32131Y202612D01*
X32131Y207709D02*
X32133Y207794D01*
X32139Y207879D01*
X32149Y207963D01*
X32162Y208047D01*
X32180Y208131D01*
X32201Y208213D01*
X32226Y208294D01*
X32255Y208374D01*
X32288Y208453D01*
X32324Y208530D01*
X32364Y208605D01*
X32407Y208679D01*
X32453Y208750D01*
X32503Y208819D01*
X32556Y208886D01*
X32612Y208950D01*
X32671Y209011D01*
X32732Y209070D01*
X32796Y209126D01*
X32863Y209179D01*
X32932Y209229D01*
X33003Y209275D01*
X33077Y209318D01*
X33152Y209358D01*
X33229Y209394D01*
X33308Y209427D01*
X33388Y209456D01*
X33469Y209481D01*
X33551Y209502D01*
X33635Y209520D01*
X33719Y209533D01*
X33803Y209543D01*
X33888Y209549D01*
X33973Y209551D01*
X32131Y207709D02*
X32133Y207613D01*
X32139Y207517D01*
X32149Y207422D01*
X32162Y207327D01*
X32180Y207232D01*
X32201Y207139D01*
X32226Y207046D01*
X32255Y206955D01*
X32287Y206864D01*
X32323Y206775D01*
X32363Y206688D01*
X32406Y206602D01*
X32452Y206518D01*
X32502Y206436D01*
X32556Y206356D01*
X32612Y206279D01*
X32672Y206204D01*
X32734Y206131D01*
X32800Y206061D01*
X32868Y205993D01*
X32939Y205928D01*
X33012Y205867D01*
X33088Y205808D01*
X33167Y205752D01*
X33247Y205700D01*
X33330Y205651D01*
X33414Y205605D01*
X33500Y205563D01*
X33588Y205525D01*
X33677Y205490D01*
X33768Y205458D01*
X35405Y208936D02*
X35346Y208996D01*
X35284Y209053D01*
X35220Y209108D01*
X35153Y209159D01*
X35084Y209208D01*
X35014Y209254D01*
X34941Y209297D01*
X34867Y209337D01*
X34791Y209373D01*
X34713Y209406D01*
X34634Y209436D01*
X34554Y209463D01*
X34473Y209486D01*
X34391Y209505D01*
X34309Y209521D01*
X34225Y209534D01*
X34141Y209543D01*
X34057Y209548D01*
X33973Y209550D01*
X35405Y208936D02*
X39497Y205458D01*
X39497Y209550D01*
X94520Y76706D02*
X94520Y69340D01*
X94520Y76706D02*
X96566Y76706D01*
X96655Y76704D01*
X96744Y76698D01*
X96833Y76688D01*
X96921Y76675D01*
X97009Y76658D01*
X97096Y76636D01*
X97181Y76611D01*
X97266Y76583D01*
X97349Y76550D01*
X97431Y76514D01*
X97511Y76475D01*
X97589Y76432D01*
X97665Y76386D01*
X97740Y76336D01*
X97812Y76283D01*
X97881Y76227D01*
X97948Y76168D01*
X98013Y76107D01*
X98074Y76042D01*
X98133Y75975D01*
X98189Y75906D01*
X98242Y75834D01*
X98292Y75759D01*
X98338Y75683D01*
X98381Y75605D01*
X98420Y75525D01*
X98456Y75443D01*
X98489Y75360D01*
X98517Y75275D01*
X98542Y75190D01*
X98564Y75103D01*
X98581Y75015D01*
X98594Y74927D01*
X98604Y74838D01*
X98610Y74749D01*
X98612Y74660D01*
X98610Y74571D01*
X98604Y74482D01*
X98594Y74393D01*
X98581Y74305D01*
X98564Y74217D01*
X98542Y74130D01*
X98517Y74045D01*
X98489Y73960D01*
X98456Y73877D01*
X98420Y73795D01*
X98381Y73715D01*
X98338Y73637D01*
X98292Y73561D01*
X98242Y73486D01*
X98189Y73414D01*
X98133Y73345D01*
X98074Y73278D01*
X98013Y73213D01*
X97948Y73152D01*
X97881Y73093D01*
X97812Y73037D01*
X97740Y72984D01*
X97665Y72934D01*
X97589Y72888D01*
X97511Y72845D01*
X97431Y72806D01*
X97349Y72770D01*
X97266Y72737D01*
X97181Y72709D01*
X97096Y72684D01*
X97009Y72662D01*
X96921Y72645D01*
X96833Y72632D01*
X96744Y72622D01*
X96655Y72616D01*
X96566Y72614D01*
X94520Y72614D01*
X96976Y72614D02*
X98612Y69340D01*
X101784Y75069D02*
X103830Y76706D01*
X103830Y69340D01*
X101784Y69340D02*
X105877Y69340D01*
X79252Y69214D02*
X77615Y69214D01*
X77537Y69216D01*
X77459Y69221D01*
X77382Y69231D01*
X77305Y69244D01*
X77229Y69260D01*
X77154Y69280D01*
X77080Y69304D01*
X77007Y69331D01*
X76935Y69362D01*
X76865Y69396D01*
X76797Y69433D01*
X76730Y69474D01*
X76665Y69518D01*
X76603Y69564D01*
X76543Y69614D01*
X76485Y69666D01*
X76430Y69721D01*
X76378Y69779D01*
X76328Y69839D01*
X76282Y69901D01*
X76238Y69966D01*
X76197Y70033D01*
X76160Y70101D01*
X76126Y70171D01*
X76095Y70243D01*
X76068Y70316D01*
X76044Y70390D01*
X76024Y70465D01*
X76008Y70541D01*
X75995Y70618D01*
X75985Y70695D01*
X75980Y70773D01*
X75978Y70851D01*
X75978Y74943D01*
X75980Y75023D01*
X75986Y75103D01*
X75996Y75183D01*
X76009Y75262D01*
X76027Y75341D01*
X76048Y75418D01*
X76074Y75494D01*
X76103Y75569D01*
X76135Y75643D01*
X76171Y75715D01*
X76211Y75785D01*
X76254Y75852D01*
X76300Y75918D01*
X76350Y75981D01*
X76402Y76042D01*
X76457Y76101D01*
X76516Y76156D01*
X76576Y76208D01*
X76640Y76258D01*
X76706Y76304D01*
X76773Y76347D01*
X76843Y76387D01*
X76915Y76423D01*
X76989Y76455D01*
X77063Y76484D01*
X77140Y76510D01*
X77217Y76531D01*
X77296Y76549D01*
X77375Y76562D01*
X77455Y76572D01*
X77535Y76578D01*
X77615Y76580D01*
X79252Y76580D01*
X82097Y69214D02*
X84552Y69214D01*
X84630Y69216D01*
X84708Y69221D01*
X84785Y69231D01*
X84862Y69244D01*
X84938Y69260D01*
X85013Y69280D01*
X85087Y69304D01*
X85160Y69331D01*
X85232Y69362D01*
X85302Y69396D01*
X85371Y69433D01*
X85437Y69474D01*
X85502Y69518D01*
X85564Y69564D01*
X85624Y69614D01*
X85682Y69666D01*
X85737Y69721D01*
X85789Y69779D01*
X85839Y69839D01*
X85885Y69901D01*
X85929Y69966D01*
X85970Y70033D01*
X86007Y70101D01*
X86041Y70171D01*
X86072Y70243D01*
X86099Y70316D01*
X86123Y70390D01*
X86143Y70465D01*
X86159Y70541D01*
X86172Y70618D01*
X86182Y70695D01*
X86187Y70773D01*
X86189Y70851D01*
X86189Y71669D01*
X86187Y71747D01*
X86182Y71825D01*
X86172Y71902D01*
X86159Y71979D01*
X86143Y72055D01*
X86123Y72130D01*
X86099Y72204D01*
X86072Y72277D01*
X86041Y72349D01*
X86007Y72419D01*
X85970Y72488D01*
X85929Y72554D01*
X85885Y72619D01*
X85839Y72681D01*
X85789Y72741D01*
X85737Y72799D01*
X85682Y72854D01*
X85624Y72906D01*
X85564Y72956D01*
X85502Y73002D01*
X85437Y73046D01*
X85371Y73087D01*
X85302Y73124D01*
X85232Y73158D01*
X85160Y73189D01*
X85087Y73216D01*
X85013Y73240D01*
X84938Y73260D01*
X84862Y73276D01*
X84785Y73289D01*
X84708Y73299D01*
X84630Y73304D01*
X84552Y73306D01*
X82097Y73306D01*
X82097Y76580D01*
X86189Y76580D01*
X80236Y199136D02*
X78599Y199136D01*
X78521Y199138D01*
X78443Y199143D01*
X78366Y199153D01*
X78289Y199166D01*
X78213Y199182D01*
X78138Y199202D01*
X78064Y199226D01*
X77991Y199253D01*
X77919Y199284D01*
X77849Y199318D01*
X77781Y199355D01*
X77714Y199396D01*
X77649Y199440D01*
X77587Y199486D01*
X77527Y199536D01*
X77469Y199588D01*
X77414Y199643D01*
X77362Y199701D01*
X77312Y199761D01*
X77266Y199823D01*
X77222Y199888D01*
X77181Y199955D01*
X77144Y200023D01*
X77110Y200093D01*
X77079Y200165D01*
X77052Y200238D01*
X77028Y200312D01*
X77008Y200387D01*
X76992Y200463D01*
X76979Y200540D01*
X76969Y200617D01*
X76964Y200695D01*
X76962Y200773D01*
X76962Y204865D01*
X76964Y204945D01*
X76970Y205025D01*
X76980Y205105D01*
X76993Y205184D01*
X77011Y205263D01*
X77032Y205340D01*
X77058Y205416D01*
X77087Y205491D01*
X77119Y205565D01*
X77155Y205637D01*
X77195Y205707D01*
X77238Y205774D01*
X77284Y205840D01*
X77334Y205903D01*
X77386Y205964D01*
X77441Y206023D01*
X77500Y206078D01*
X77560Y206130D01*
X77624Y206180D01*
X77690Y206226D01*
X77757Y206269D01*
X77827Y206309D01*
X77899Y206345D01*
X77973Y206377D01*
X78047Y206406D01*
X78124Y206432D01*
X78201Y206453D01*
X78280Y206471D01*
X78359Y206484D01*
X78439Y206494D01*
X78519Y206500D01*
X78599Y206502D01*
X80236Y206502D01*
X83081Y201182D02*
X83083Y201271D01*
X83089Y201360D01*
X83099Y201449D01*
X83112Y201537D01*
X83129Y201625D01*
X83151Y201712D01*
X83176Y201797D01*
X83204Y201882D01*
X83237Y201965D01*
X83273Y202047D01*
X83312Y202127D01*
X83355Y202205D01*
X83401Y202281D01*
X83451Y202356D01*
X83504Y202428D01*
X83560Y202497D01*
X83619Y202564D01*
X83680Y202629D01*
X83745Y202690D01*
X83812Y202749D01*
X83881Y202805D01*
X83953Y202858D01*
X84028Y202908D01*
X84104Y202954D01*
X84182Y202997D01*
X84262Y203036D01*
X84344Y203072D01*
X84427Y203105D01*
X84512Y203133D01*
X84597Y203158D01*
X84684Y203180D01*
X84772Y203197D01*
X84860Y203210D01*
X84949Y203220D01*
X85038Y203226D01*
X85127Y203228D01*
X85216Y203226D01*
X85305Y203220D01*
X85394Y203210D01*
X85482Y203197D01*
X85570Y203180D01*
X85657Y203158D01*
X85742Y203133D01*
X85827Y203105D01*
X85910Y203072D01*
X85992Y203036D01*
X86072Y202997D01*
X86150Y202954D01*
X86226Y202908D01*
X86301Y202858D01*
X86373Y202805D01*
X86442Y202749D01*
X86509Y202690D01*
X86574Y202629D01*
X86635Y202564D01*
X86694Y202497D01*
X86750Y202428D01*
X86803Y202356D01*
X86853Y202281D01*
X86899Y202205D01*
X86942Y202127D01*
X86981Y202047D01*
X87017Y201965D01*
X87050Y201882D01*
X87078Y201797D01*
X87103Y201712D01*
X87125Y201625D01*
X87142Y201537D01*
X87155Y201449D01*
X87165Y201360D01*
X87171Y201271D01*
X87173Y201182D01*
X87171Y201093D01*
X87165Y201004D01*
X87155Y200915D01*
X87142Y200827D01*
X87125Y200739D01*
X87103Y200652D01*
X87078Y200567D01*
X87050Y200482D01*
X87017Y200399D01*
X86981Y200317D01*
X86942Y200237D01*
X86899Y200159D01*
X86853Y200083D01*
X86803Y200008D01*
X86750Y199936D01*
X86694Y199867D01*
X86635Y199800D01*
X86574Y199735D01*
X86509Y199674D01*
X86442Y199615D01*
X86373Y199559D01*
X86301Y199506D01*
X86226Y199456D01*
X86150Y199410D01*
X86072Y199367D01*
X85992Y199328D01*
X85910Y199292D01*
X85827Y199259D01*
X85742Y199231D01*
X85657Y199206D01*
X85570Y199184D01*
X85482Y199167D01*
X85394Y199154D01*
X85305Y199144D01*
X85216Y199138D01*
X85127Y199136D01*
X85038Y199138D01*
X84949Y199144D01*
X84860Y199154D01*
X84772Y199167D01*
X84684Y199184D01*
X84597Y199206D01*
X84512Y199231D01*
X84427Y199259D01*
X84344Y199292D01*
X84262Y199328D01*
X84182Y199367D01*
X84104Y199410D01*
X84028Y199456D01*
X83953Y199506D01*
X83881Y199559D01*
X83812Y199615D01*
X83745Y199674D01*
X83680Y199735D01*
X83619Y199800D01*
X83560Y199867D01*
X83504Y199936D01*
X83451Y200008D01*
X83401Y200083D01*
X83355Y200159D01*
X83312Y200237D01*
X83273Y200317D01*
X83237Y200399D01*
X83204Y200482D01*
X83176Y200567D01*
X83151Y200652D01*
X83129Y200739D01*
X83112Y200827D01*
X83099Y200915D01*
X83089Y201004D01*
X83083Y201093D01*
X83081Y201182D01*
X83490Y204865D02*
X83492Y204944D01*
X83498Y205023D01*
X83507Y205102D01*
X83520Y205180D01*
X83538Y205257D01*
X83558Y205333D01*
X83583Y205408D01*
X83611Y205482D01*
X83642Y205555D01*
X83678Y205626D01*
X83716Y205695D01*
X83758Y205762D01*
X83803Y205827D01*
X83851Y205890D01*
X83902Y205951D01*
X83956Y206008D01*
X84012Y206064D01*
X84071Y206116D01*
X84133Y206166D01*
X84197Y206212D01*
X84263Y206256D01*
X84331Y206296D01*
X84401Y206332D01*
X84473Y206366D01*
X84547Y206396D01*
X84621Y206422D01*
X84697Y206445D01*
X84774Y206463D01*
X84851Y206479D01*
X84930Y206490D01*
X85008Y206498D01*
X85087Y206502D01*
X85167Y206502D01*
X85246Y206498D01*
X85324Y206490D01*
X85403Y206479D01*
X85480Y206463D01*
X85557Y206445D01*
X85633Y206422D01*
X85707Y206396D01*
X85781Y206366D01*
X85853Y206332D01*
X85923Y206296D01*
X85991Y206256D01*
X86057Y206212D01*
X86121Y206166D01*
X86183Y206116D01*
X86242Y206064D01*
X86298Y206008D01*
X86352Y205951D01*
X86403Y205890D01*
X86451Y205827D01*
X86496Y205762D01*
X86538Y205695D01*
X86576Y205626D01*
X86612Y205555D01*
X86643Y205482D01*
X86671Y205408D01*
X86696Y205333D01*
X86716Y205257D01*
X86734Y205180D01*
X86747Y205102D01*
X86756Y205023D01*
X86762Y204944D01*
X86764Y204865D01*
X86762Y204786D01*
X86756Y204707D01*
X86747Y204628D01*
X86734Y204550D01*
X86716Y204473D01*
X86696Y204397D01*
X86671Y204322D01*
X86643Y204248D01*
X86612Y204175D01*
X86576Y204104D01*
X86538Y204035D01*
X86496Y203968D01*
X86451Y203903D01*
X86403Y203840D01*
X86352Y203779D01*
X86298Y203722D01*
X86242Y203666D01*
X86183Y203614D01*
X86121Y203564D01*
X86057Y203518D01*
X85991Y203474D01*
X85923Y203434D01*
X85853Y203398D01*
X85781Y203364D01*
X85707Y203334D01*
X85633Y203308D01*
X85557Y203285D01*
X85480Y203267D01*
X85403Y203251D01*
X85324Y203240D01*
X85246Y203232D01*
X85167Y203228D01*
X85087Y203228D01*
X85008Y203232D01*
X84930Y203240D01*
X84851Y203251D01*
X84774Y203267D01*
X84697Y203285D01*
X84621Y203308D01*
X84547Y203334D01*
X84473Y203364D01*
X84401Y203398D01*
X84331Y203434D01*
X84263Y203474D01*
X84197Y203518D01*
X84133Y203564D01*
X84071Y203614D01*
X84012Y203666D01*
X83956Y203722D01*
X83902Y203779D01*
X83851Y203840D01*
X83803Y203903D01*
X83758Y203968D01*
X83716Y204035D01*
X83678Y204104D01*
X83642Y204175D01*
X83611Y204248D01*
X83583Y204322D01*
X83558Y204397D01*
X83538Y204473D01*
X83520Y204550D01*
X83507Y204628D01*
X83498Y204707D01*
X83492Y204786D01*
X83490Y204865D01*
X178497Y169291D02*
X180133Y169291D01*
X178497Y169291D02*
X178419Y169293D01*
X178341Y169298D01*
X178264Y169308D01*
X178187Y169321D01*
X178111Y169337D01*
X178036Y169357D01*
X177962Y169381D01*
X177889Y169408D01*
X177817Y169439D01*
X177747Y169473D01*
X177679Y169510D01*
X177612Y169551D01*
X177547Y169595D01*
X177485Y169641D01*
X177425Y169691D01*
X177367Y169743D01*
X177312Y169798D01*
X177260Y169856D01*
X177210Y169916D01*
X177164Y169978D01*
X177120Y170043D01*
X177079Y170110D01*
X177042Y170178D01*
X177008Y170248D01*
X176977Y170320D01*
X176950Y170393D01*
X176926Y170467D01*
X176906Y170542D01*
X176890Y170618D01*
X176877Y170695D01*
X176867Y170772D01*
X176862Y170850D01*
X176860Y170928D01*
X176860Y175020D01*
X176862Y175100D01*
X176868Y175180D01*
X176878Y175260D01*
X176891Y175339D01*
X176909Y175418D01*
X176930Y175495D01*
X176956Y175571D01*
X176985Y175646D01*
X177017Y175720D01*
X177053Y175792D01*
X177093Y175862D01*
X177136Y175929D01*
X177182Y175995D01*
X177232Y176058D01*
X177284Y176119D01*
X177339Y176178D01*
X177398Y176233D01*
X177458Y176285D01*
X177522Y176335D01*
X177588Y176381D01*
X177655Y176424D01*
X177725Y176464D01*
X177797Y176500D01*
X177871Y176532D01*
X177945Y176561D01*
X178022Y176587D01*
X178099Y176608D01*
X178178Y176626D01*
X178257Y176639D01*
X178337Y176649D01*
X178417Y176655D01*
X178497Y176657D01*
X180133Y176657D01*
X182979Y173383D02*
X185434Y173383D01*
X185512Y173381D01*
X185590Y173376D01*
X185667Y173366D01*
X185744Y173353D01*
X185820Y173337D01*
X185895Y173317D01*
X185969Y173293D01*
X186042Y173266D01*
X186114Y173235D01*
X186184Y173201D01*
X186253Y173164D01*
X186319Y173123D01*
X186384Y173079D01*
X186446Y173033D01*
X186506Y172983D01*
X186564Y172931D01*
X186619Y172876D01*
X186671Y172818D01*
X186721Y172758D01*
X186767Y172696D01*
X186811Y172631D01*
X186852Y172565D01*
X186889Y172496D01*
X186923Y172426D01*
X186954Y172354D01*
X186981Y172281D01*
X187005Y172207D01*
X187025Y172132D01*
X187041Y172056D01*
X187054Y171979D01*
X187064Y171902D01*
X187069Y171824D01*
X187071Y171746D01*
X187071Y171337D01*
X187069Y171248D01*
X187063Y171159D01*
X187053Y171070D01*
X187040Y170982D01*
X187023Y170894D01*
X187001Y170807D01*
X186976Y170722D01*
X186948Y170637D01*
X186915Y170554D01*
X186879Y170472D01*
X186840Y170392D01*
X186797Y170314D01*
X186751Y170238D01*
X186701Y170163D01*
X186648Y170091D01*
X186592Y170022D01*
X186533Y169955D01*
X186472Y169890D01*
X186407Y169829D01*
X186340Y169770D01*
X186271Y169714D01*
X186199Y169661D01*
X186124Y169611D01*
X186048Y169565D01*
X185970Y169522D01*
X185890Y169483D01*
X185808Y169447D01*
X185725Y169414D01*
X185640Y169386D01*
X185555Y169361D01*
X185468Y169339D01*
X185380Y169322D01*
X185292Y169309D01*
X185203Y169299D01*
X185114Y169293D01*
X185025Y169291D01*
X184936Y169293D01*
X184847Y169299D01*
X184758Y169309D01*
X184670Y169322D01*
X184582Y169339D01*
X184495Y169361D01*
X184410Y169386D01*
X184325Y169414D01*
X184242Y169447D01*
X184160Y169483D01*
X184080Y169522D01*
X184002Y169565D01*
X183926Y169611D01*
X183851Y169661D01*
X183779Y169714D01*
X183710Y169770D01*
X183643Y169829D01*
X183578Y169890D01*
X183517Y169955D01*
X183458Y170022D01*
X183402Y170091D01*
X183349Y170163D01*
X183299Y170238D01*
X183253Y170314D01*
X183210Y170392D01*
X183171Y170472D01*
X183135Y170554D01*
X183102Y170637D01*
X183074Y170722D01*
X183049Y170807D01*
X183027Y170894D01*
X183010Y170982D01*
X182997Y171070D01*
X182987Y171159D01*
X182981Y171248D01*
X182979Y171337D01*
X182979Y173383D01*
X182981Y173497D01*
X182987Y173611D01*
X182997Y173725D01*
X183011Y173839D01*
X183029Y173952D01*
X183051Y174064D01*
X183076Y174175D01*
X183106Y174285D01*
X183139Y174395D01*
X183176Y174503D01*
X183217Y174609D01*
X183262Y174715D01*
X183310Y174818D01*
X183362Y174920D01*
X183418Y175020D01*
X183476Y175118D01*
X183539Y175214D01*
X183604Y175307D01*
X183673Y175399D01*
X183745Y175487D01*
X183820Y175574D01*
X183898Y175657D01*
X183979Y175738D01*
X184062Y175816D01*
X184149Y175891D01*
X184237Y175963D01*
X184329Y176032D01*
X184422Y176097D01*
X184518Y176159D01*
X184616Y176218D01*
X184716Y176274D01*
X184818Y176326D01*
X184921Y176374D01*
X185027Y176419D01*
X185133Y176460D01*
X185241Y176497D01*
X185351Y176530D01*
X185461Y176560D01*
X185572Y176585D01*
X185684Y176607D01*
X185797Y176625D01*
X185911Y176639D01*
X186025Y176649D01*
X186139Y176655D01*
X186253Y176657D01*
X164056Y169037D02*
X162419Y169037D01*
X162341Y169039D01*
X162263Y169044D01*
X162186Y169054D01*
X162109Y169067D01*
X162033Y169083D01*
X161958Y169103D01*
X161884Y169127D01*
X161811Y169154D01*
X161739Y169185D01*
X161669Y169219D01*
X161601Y169256D01*
X161534Y169297D01*
X161469Y169341D01*
X161407Y169387D01*
X161347Y169437D01*
X161289Y169489D01*
X161234Y169544D01*
X161182Y169602D01*
X161132Y169662D01*
X161086Y169724D01*
X161042Y169789D01*
X161001Y169856D01*
X160964Y169924D01*
X160930Y169994D01*
X160899Y170066D01*
X160872Y170139D01*
X160848Y170213D01*
X160828Y170288D01*
X160812Y170364D01*
X160799Y170441D01*
X160789Y170518D01*
X160784Y170596D01*
X160782Y170674D01*
X160782Y174766D01*
X160784Y174846D01*
X160790Y174926D01*
X160800Y175006D01*
X160813Y175085D01*
X160831Y175164D01*
X160852Y175241D01*
X160878Y175317D01*
X160907Y175392D01*
X160939Y175466D01*
X160975Y175538D01*
X161015Y175608D01*
X161058Y175675D01*
X161104Y175741D01*
X161154Y175804D01*
X161206Y175865D01*
X161261Y175924D01*
X161320Y175979D01*
X161380Y176031D01*
X161444Y176081D01*
X161510Y176127D01*
X161577Y176170D01*
X161647Y176210D01*
X161719Y176246D01*
X161793Y176278D01*
X161867Y176307D01*
X161944Y176333D01*
X162021Y176354D01*
X162100Y176372D01*
X162179Y176385D01*
X162259Y176395D01*
X162339Y176401D01*
X162419Y176403D01*
X164056Y176403D01*
X166901Y176403D02*
X166901Y175585D01*
X166901Y176403D02*
X170993Y176403D01*
X168947Y169037D01*
X137287Y205359D02*
X135763Y205359D01*
X135686Y205361D01*
X135609Y205367D01*
X135532Y205377D01*
X135456Y205390D01*
X135381Y205408D01*
X135307Y205429D01*
X135234Y205454D01*
X135162Y205483D01*
X135092Y205515D01*
X135023Y205550D01*
X134957Y205590D01*
X134892Y205632D01*
X134830Y205678D01*
X134770Y205727D01*
X134713Y205778D01*
X134658Y205833D01*
X134607Y205890D01*
X134558Y205950D01*
X134512Y206012D01*
X134470Y206077D01*
X134430Y206143D01*
X134395Y206212D01*
X134363Y206282D01*
X134334Y206354D01*
X134309Y206427D01*
X134288Y206501D01*
X134270Y206576D01*
X134257Y206652D01*
X134247Y206729D01*
X134241Y206806D01*
X134239Y206883D01*
X134239Y210693D01*
X134241Y210770D01*
X134247Y210847D01*
X134257Y210924D01*
X134270Y211000D01*
X134288Y211075D01*
X134309Y211149D01*
X134334Y211222D01*
X134363Y211294D01*
X134395Y211364D01*
X134430Y211433D01*
X134470Y211499D01*
X134512Y211564D01*
X134558Y211626D01*
X134607Y211686D01*
X134658Y211743D01*
X134713Y211798D01*
X134770Y211849D01*
X134830Y211898D01*
X134892Y211944D01*
X134957Y211986D01*
X135023Y212026D01*
X135092Y212061D01*
X135162Y212093D01*
X135234Y212122D01*
X135307Y212147D01*
X135381Y212168D01*
X135456Y212186D01*
X135532Y212199D01*
X135609Y212209D01*
X135686Y212215D01*
X135763Y212217D01*
X137287Y212217D01*
X139976Y210693D02*
X141881Y212217D01*
X141881Y205359D01*
X139976Y205359D02*
X143786Y205359D01*
X146834Y210693D02*
X148739Y212217D01*
X148739Y205359D01*
X146834Y205359D02*
X150644Y205359D01*
X110744Y196060D02*
X110744Y194423D01*
X110742Y194345D01*
X110737Y194267D01*
X110727Y194190D01*
X110714Y194113D01*
X110698Y194037D01*
X110678Y193962D01*
X110654Y193888D01*
X110627Y193815D01*
X110596Y193743D01*
X110562Y193673D01*
X110525Y193605D01*
X110484Y193538D01*
X110440Y193473D01*
X110394Y193411D01*
X110344Y193351D01*
X110292Y193293D01*
X110237Y193238D01*
X110179Y193186D01*
X110119Y193136D01*
X110057Y193090D01*
X109992Y193046D01*
X109926Y193005D01*
X109857Y192968D01*
X109787Y192934D01*
X109715Y192903D01*
X109642Y192876D01*
X109568Y192852D01*
X109493Y192832D01*
X109417Y192816D01*
X109340Y192803D01*
X109263Y192793D01*
X109185Y192788D01*
X109107Y192786D01*
X105015Y192786D01*
X104935Y192788D01*
X104855Y192794D01*
X104775Y192804D01*
X104696Y192817D01*
X104617Y192835D01*
X104540Y192856D01*
X104464Y192882D01*
X104389Y192911D01*
X104315Y192943D01*
X104243Y192979D01*
X104173Y193019D01*
X104106Y193062D01*
X104040Y193108D01*
X103977Y193158D01*
X103916Y193210D01*
X103857Y193265D01*
X103802Y193324D01*
X103750Y193384D01*
X103700Y193448D01*
X103654Y193513D01*
X103611Y193581D01*
X103571Y193651D01*
X103535Y193723D01*
X103503Y193797D01*
X103474Y193871D01*
X103449Y193948D01*
X103427Y194025D01*
X103409Y194104D01*
X103396Y194183D01*
X103386Y194262D01*
X103380Y194343D01*
X103378Y194423D01*
X103378Y196060D01*
X105015Y198905D02*
X103378Y200951D01*
X110744Y200951D01*
X110744Y198905D02*
X110744Y202997D01*
X105220Y210313D02*
X105135Y210311D01*
X105050Y210305D01*
X104966Y210295D01*
X104882Y210282D01*
X104798Y210264D01*
X104716Y210243D01*
X104635Y210218D01*
X104555Y210189D01*
X104476Y210156D01*
X104399Y210120D01*
X104324Y210080D01*
X104250Y210037D01*
X104179Y209991D01*
X104110Y209941D01*
X104043Y209888D01*
X103979Y209832D01*
X103918Y209773D01*
X103859Y209712D01*
X103803Y209648D01*
X103750Y209581D01*
X103700Y209512D01*
X103654Y209441D01*
X103611Y209367D01*
X103571Y209292D01*
X103535Y209215D01*
X103502Y209136D01*
X103473Y209056D01*
X103448Y208975D01*
X103427Y208893D01*
X103409Y208809D01*
X103396Y208725D01*
X103386Y208641D01*
X103380Y208556D01*
X103378Y208471D01*
X103380Y208375D01*
X103386Y208279D01*
X103396Y208184D01*
X103409Y208089D01*
X103427Y207994D01*
X103448Y207901D01*
X103473Y207808D01*
X103502Y207717D01*
X103534Y207626D01*
X103570Y207537D01*
X103610Y207450D01*
X103653Y207364D01*
X103699Y207280D01*
X103749Y207198D01*
X103803Y207118D01*
X103859Y207041D01*
X103919Y206966D01*
X103981Y206893D01*
X104047Y206823D01*
X104115Y206755D01*
X104186Y206690D01*
X104259Y206629D01*
X104335Y206570D01*
X104414Y206514D01*
X104494Y206462D01*
X104577Y206413D01*
X104661Y206367D01*
X104747Y206325D01*
X104835Y206287D01*
X104924Y206252D01*
X105015Y206220D01*
X106652Y209699D02*
X106593Y209759D01*
X106531Y209816D01*
X106467Y209871D01*
X106400Y209922D01*
X106331Y209971D01*
X106261Y210017D01*
X106188Y210060D01*
X106114Y210100D01*
X106038Y210136D01*
X105960Y210169D01*
X105881Y210199D01*
X105801Y210226D01*
X105720Y210249D01*
X105638Y210268D01*
X105556Y210284D01*
X105472Y210297D01*
X105388Y210306D01*
X105304Y210311D01*
X105220Y210313D01*
X106652Y209699D02*
X110744Y206220D01*
X110744Y210313D01*
X95475Y94742D02*
X93838Y94742D01*
X93760Y94744D01*
X93682Y94749D01*
X93605Y94759D01*
X93528Y94772D01*
X93452Y94788D01*
X93377Y94808D01*
X93303Y94832D01*
X93230Y94859D01*
X93158Y94890D01*
X93088Y94924D01*
X93020Y94961D01*
X92953Y95002D01*
X92888Y95046D01*
X92826Y95092D01*
X92766Y95142D01*
X92708Y95194D01*
X92653Y95249D01*
X92601Y95307D01*
X92551Y95367D01*
X92505Y95429D01*
X92461Y95494D01*
X92420Y95561D01*
X92383Y95629D01*
X92349Y95699D01*
X92318Y95771D01*
X92291Y95844D01*
X92267Y95918D01*
X92247Y95993D01*
X92231Y96069D01*
X92218Y96146D01*
X92208Y96223D01*
X92203Y96301D01*
X92201Y96379D01*
X92202Y96379D02*
X92202Y100471D01*
X92201Y100471D02*
X92203Y100551D01*
X92209Y100631D01*
X92219Y100711D01*
X92232Y100790D01*
X92250Y100869D01*
X92271Y100946D01*
X92297Y101022D01*
X92326Y101097D01*
X92358Y101171D01*
X92394Y101243D01*
X92434Y101313D01*
X92477Y101380D01*
X92523Y101446D01*
X92573Y101509D01*
X92625Y101570D01*
X92680Y101629D01*
X92739Y101684D01*
X92799Y101736D01*
X92863Y101786D01*
X92929Y101832D01*
X92996Y101875D01*
X93066Y101915D01*
X93138Y101951D01*
X93212Y101983D01*
X93286Y102012D01*
X93363Y102038D01*
X93440Y102059D01*
X93519Y102077D01*
X93598Y102090D01*
X93678Y102100D01*
X93758Y102106D01*
X93838Y102108D01*
X95475Y102108D01*
X98321Y100471D02*
X100367Y102108D01*
X100367Y94742D01*
X98321Y94742D02*
X102413Y94742D01*
X105636Y94742D02*
X107682Y94742D01*
X107771Y94744D01*
X107860Y94750D01*
X107949Y94760D01*
X108037Y94773D01*
X108125Y94790D01*
X108212Y94812D01*
X108297Y94837D01*
X108382Y94865D01*
X108465Y94898D01*
X108547Y94934D01*
X108627Y94973D01*
X108705Y95016D01*
X108781Y95062D01*
X108856Y95112D01*
X108928Y95165D01*
X108997Y95221D01*
X109064Y95280D01*
X109129Y95341D01*
X109190Y95406D01*
X109249Y95473D01*
X109305Y95542D01*
X109358Y95614D01*
X109408Y95689D01*
X109454Y95765D01*
X109497Y95843D01*
X109536Y95923D01*
X109572Y96005D01*
X109605Y96088D01*
X109633Y96173D01*
X109658Y96258D01*
X109680Y96345D01*
X109697Y96433D01*
X109710Y96521D01*
X109720Y96610D01*
X109726Y96699D01*
X109728Y96788D01*
X109726Y96877D01*
X109720Y96966D01*
X109710Y97055D01*
X109697Y97143D01*
X109680Y97231D01*
X109658Y97318D01*
X109633Y97403D01*
X109605Y97488D01*
X109572Y97571D01*
X109536Y97653D01*
X109497Y97733D01*
X109454Y97811D01*
X109408Y97887D01*
X109358Y97962D01*
X109305Y98034D01*
X109249Y98103D01*
X109190Y98170D01*
X109129Y98235D01*
X109064Y98296D01*
X108997Y98355D01*
X108928Y98411D01*
X108856Y98464D01*
X108781Y98514D01*
X108705Y98560D01*
X108627Y98603D01*
X108547Y98642D01*
X108465Y98678D01*
X108382Y98711D01*
X108297Y98739D01*
X108212Y98764D01*
X108125Y98786D01*
X108037Y98803D01*
X107949Y98816D01*
X107860Y98826D01*
X107771Y98832D01*
X107682Y98834D01*
X108091Y102108D02*
X105636Y102108D01*
X108091Y102108D02*
X108170Y102106D01*
X108249Y102100D01*
X108328Y102091D01*
X108406Y102078D01*
X108483Y102060D01*
X108559Y102040D01*
X108634Y102015D01*
X108708Y101987D01*
X108781Y101956D01*
X108852Y101920D01*
X108921Y101882D01*
X108988Y101840D01*
X109053Y101795D01*
X109116Y101747D01*
X109177Y101696D01*
X109234Y101642D01*
X109290Y101586D01*
X109342Y101527D01*
X109392Y101465D01*
X109438Y101401D01*
X109482Y101335D01*
X109522Y101267D01*
X109558Y101197D01*
X109592Y101125D01*
X109622Y101051D01*
X109648Y100977D01*
X109671Y100901D01*
X109689Y100824D01*
X109705Y100747D01*
X109716Y100668D01*
X109724Y100590D01*
X109728Y100511D01*
X109728Y100431D01*
X109724Y100352D01*
X109716Y100274D01*
X109705Y100195D01*
X109689Y100118D01*
X109671Y100041D01*
X109648Y99965D01*
X109622Y99891D01*
X109592Y99817D01*
X109558Y99745D01*
X109522Y99675D01*
X109482Y99607D01*
X109438Y99541D01*
X109392Y99477D01*
X109342Y99415D01*
X109290Y99356D01*
X109234Y99300D01*
X109177Y99246D01*
X109116Y99195D01*
X109053Y99147D01*
X108988Y99102D01*
X108921Y99060D01*
X108852Y99022D01*
X108781Y98986D01*
X108708Y98955D01*
X108634Y98927D01*
X108559Y98902D01*
X108483Y98882D01*
X108406Y98864D01*
X108328Y98851D01*
X108249Y98842D01*
X108170Y98836D01*
X108091Y98834D01*
X106454Y98834D01*
X53820Y87249D02*
X52183Y87249D01*
X52105Y87251D01*
X52027Y87256D01*
X51950Y87266D01*
X51873Y87279D01*
X51797Y87295D01*
X51722Y87315D01*
X51648Y87339D01*
X51575Y87366D01*
X51503Y87397D01*
X51433Y87431D01*
X51365Y87468D01*
X51298Y87509D01*
X51233Y87553D01*
X51171Y87599D01*
X51111Y87649D01*
X51053Y87701D01*
X50998Y87756D01*
X50946Y87814D01*
X50896Y87874D01*
X50850Y87936D01*
X50806Y88001D01*
X50765Y88068D01*
X50728Y88136D01*
X50694Y88206D01*
X50663Y88278D01*
X50636Y88351D01*
X50612Y88425D01*
X50592Y88500D01*
X50576Y88576D01*
X50563Y88653D01*
X50553Y88730D01*
X50548Y88808D01*
X50546Y88886D01*
X50546Y92978D01*
X50548Y93058D01*
X50554Y93138D01*
X50564Y93218D01*
X50577Y93297D01*
X50595Y93376D01*
X50616Y93453D01*
X50642Y93529D01*
X50671Y93604D01*
X50703Y93678D01*
X50739Y93750D01*
X50779Y93820D01*
X50822Y93887D01*
X50868Y93953D01*
X50918Y94016D01*
X50970Y94077D01*
X51025Y94136D01*
X51084Y94191D01*
X51144Y94243D01*
X51208Y94293D01*
X51274Y94339D01*
X51341Y94382D01*
X51411Y94422D01*
X51483Y94458D01*
X51557Y94490D01*
X51631Y94519D01*
X51708Y94545D01*
X51785Y94566D01*
X51864Y94584D01*
X51943Y94597D01*
X52023Y94607D01*
X52103Y94613D01*
X52183Y94615D01*
X53820Y94615D01*
X56665Y92978D02*
X58711Y94615D01*
X58711Y87249D01*
X56665Y87249D02*
X60757Y87249D01*
X63980Y87249D02*
X66436Y87249D01*
X66514Y87251D01*
X66592Y87256D01*
X66669Y87266D01*
X66746Y87279D01*
X66822Y87295D01*
X66897Y87315D01*
X66971Y87339D01*
X67044Y87366D01*
X67116Y87397D01*
X67186Y87431D01*
X67255Y87468D01*
X67321Y87509D01*
X67386Y87553D01*
X67448Y87599D01*
X67508Y87649D01*
X67566Y87701D01*
X67621Y87756D01*
X67673Y87814D01*
X67723Y87874D01*
X67769Y87936D01*
X67813Y88001D01*
X67854Y88068D01*
X67891Y88136D01*
X67925Y88206D01*
X67956Y88278D01*
X67983Y88351D01*
X68007Y88425D01*
X68027Y88500D01*
X68043Y88576D01*
X68056Y88653D01*
X68066Y88730D01*
X68071Y88808D01*
X68073Y88886D01*
X68073Y89704D01*
X68071Y89782D01*
X68066Y89860D01*
X68056Y89937D01*
X68043Y90014D01*
X68027Y90090D01*
X68007Y90165D01*
X67983Y90239D01*
X67956Y90312D01*
X67925Y90384D01*
X67891Y90454D01*
X67854Y90523D01*
X67813Y90589D01*
X67769Y90654D01*
X67723Y90716D01*
X67673Y90776D01*
X67621Y90834D01*
X67566Y90889D01*
X67508Y90941D01*
X67448Y90991D01*
X67386Y91037D01*
X67321Y91081D01*
X67255Y91122D01*
X67186Y91159D01*
X67116Y91193D01*
X67044Y91224D01*
X66971Y91251D01*
X66897Y91275D01*
X66822Y91295D01*
X66746Y91311D01*
X66669Y91324D01*
X66592Y91334D01*
X66514Y91339D01*
X66436Y91341D01*
X63980Y91341D01*
X63980Y94615D01*
X68073Y94615D01*
D13*
X54366Y102220D02*
X49266Y102220D01*
X49266Y116220D02*
X54366Y116220D01*
D12*
X21181Y105283D02*
X19544Y105283D01*
X19466Y105285D01*
X19388Y105290D01*
X19311Y105300D01*
X19234Y105313D01*
X19158Y105329D01*
X19083Y105349D01*
X19009Y105373D01*
X18936Y105400D01*
X18864Y105431D01*
X18794Y105465D01*
X18725Y105502D01*
X18659Y105543D01*
X18594Y105587D01*
X18532Y105633D01*
X18472Y105683D01*
X18414Y105735D01*
X18359Y105790D01*
X18307Y105848D01*
X18257Y105908D01*
X18211Y105970D01*
X18167Y106035D01*
X18126Y106102D01*
X18089Y106170D01*
X18055Y106240D01*
X18024Y106312D01*
X17997Y106385D01*
X17973Y106459D01*
X17953Y106534D01*
X17937Y106610D01*
X17924Y106687D01*
X17914Y106764D01*
X17909Y106842D01*
X17907Y106920D01*
X17907Y111012D01*
X17909Y111092D01*
X17915Y111172D01*
X17925Y111252D01*
X17938Y111331D01*
X17956Y111410D01*
X17977Y111487D01*
X18003Y111563D01*
X18032Y111638D01*
X18064Y111712D01*
X18100Y111784D01*
X18140Y111854D01*
X18183Y111921D01*
X18229Y111987D01*
X18279Y112050D01*
X18331Y112111D01*
X18386Y112170D01*
X18445Y112225D01*
X18505Y112277D01*
X18569Y112327D01*
X18635Y112373D01*
X18702Y112416D01*
X18772Y112456D01*
X18844Y112492D01*
X18918Y112524D01*
X18992Y112553D01*
X19069Y112579D01*
X19146Y112600D01*
X19225Y112618D01*
X19304Y112631D01*
X19384Y112641D01*
X19464Y112647D01*
X19544Y112649D01*
X21181Y112649D01*
X24026Y111012D02*
X26072Y112649D01*
X26072Y105283D01*
X24026Y105283D02*
X28118Y105283D01*
X31341Y106920D02*
X32978Y112649D01*
X31341Y106920D02*
X35434Y106920D01*
X34206Y108557D02*
X34206Y105283D01*
D13*
X49393Y159908D02*
X54493Y159908D01*
X54493Y145908D02*
X49393Y145908D01*
D12*
X20165Y150114D02*
X18528Y150114D01*
X18450Y150116D01*
X18372Y150121D01*
X18295Y150131D01*
X18218Y150144D01*
X18142Y150160D01*
X18067Y150180D01*
X17993Y150204D01*
X17920Y150231D01*
X17848Y150262D01*
X17778Y150296D01*
X17709Y150333D01*
X17643Y150374D01*
X17578Y150418D01*
X17516Y150464D01*
X17456Y150514D01*
X17398Y150566D01*
X17343Y150621D01*
X17291Y150679D01*
X17241Y150739D01*
X17195Y150801D01*
X17151Y150866D01*
X17110Y150933D01*
X17073Y151001D01*
X17039Y151071D01*
X17008Y151143D01*
X16981Y151216D01*
X16957Y151290D01*
X16937Y151365D01*
X16921Y151441D01*
X16908Y151518D01*
X16898Y151595D01*
X16893Y151673D01*
X16891Y151751D01*
X16891Y155843D01*
X16893Y155923D01*
X16899Y156003D01*
X16909Y156083D01*
X16922Y156162D01*
X16940Y156241D01*
X16961Y156318D01*
X16987Y156394D01*
X17016Y156469D01*
X17048Y156543D01*
X17084Y156615D01*
X17124Y156685D01*
X17167Y156752D01*
X17213Y156818D01*
X17263Y156881D01*
X17315Y156942D01*
X17370Y157001D01*
X17429Y157056D01*
X17489Y157108D01*
X17553Y157158D01*
X17619Y157204D01*
X17686Y157247D01*
X17756Y157287D01*
X17828Y157323D01*
X17902Y157355D01*
X17976Y157384D01*
X18053Y157410D01*
X18130Y157431D01*
X18209Y157449D01*
X18288Y157462D01*
X18368Y157472D01*
X18448Y157478D01*
X18528Y157480D01*
X20165Y157480D01*
X23010Y155843D02*
X25056Y157480D01*
X25056Y150114D01*
X23010Y150114D02*
X27102Y150114D01*
X30325Y154206D02*
X32781Y154206D01*
X32859Y154204D01*
X32937Y154199D01*
X33014Y154189D01*
X33091Y154176D01*
X33167Y154160D01*
X33242Y154140D01*
X33316Y154116D01*
X33389Y154089D01*
X33461Y154058D01*
X33531Y154024D01*
X33600Y153987D01*
X33666Y153946D01*
X33731Y153902D01*
X33793Y153856D01*
X33853Y153806D01*
X33911Y153754D01*
X33966Y153699D01*
X34018Y153641D01*
X34068Y153581D01*
X34114Y153519D01*
X34158Y153454D01*
X34199Y153388D01*
X34236Y153319D01*
X34270Y153249D01*
X34301Y153177D01*
X34328Y153104D01*
X34352Y153030D01*
X34372Y152955D01*
X34388Y152879D01*
X34401Y152802D01*
X34411Y152725D01*
X34416Y152647D01*
X34418Y152569D01*
X34418Y152160D01*
X34417Y152160D02*
X34415Y152071D01*
X34409Y151982D01*
X34399Y151893D01*
X34386Y151805D01*
X34369Y151717D01*
X34347Y151630D01*
X34322Y151545D01*
X34294Y151460D01*
X34261Y151377D01*
X34225Y151295D01*
X34186Y151215D01*
X34143Y151137D01*
X34097Y151061D01*
X34047Y150986D01*
X33994Y150914D01*
X33938Y150845D01*
X33879Y150778D01*
X33818Y150713D01*
X33753Y150652D01*
X33686Y150593D01*
X33617Y150537D01*
X33545Y150484D01*
X33470Y150434D01*
X33394Y150388D01*
X33316Y150345D01*
X33236Y150306D01*
X33154Y150270D01*
X33071Y150237D01*
X32986Y150209D01*
X32901Y150184D01*
X32814Y150162D01*
X32726Y150145D01*
X32638Y150132D01*
X32549Y150122D01*
X32460Y150116D01*
X32371Y150114D01*
X32282Y150116D01*
X32193Y150122D01*
X32104Y150132D01*
X32016Y150145D01*
X31928Y150162D01*
X31841Y150184D01*
X31756Y150209D01*
X31671Y150237D01*
X31588Y150270D01*
X31506Y150306D01*
X31426Y150345D01*
X31348Y150388D01*
X31272Y150434D01*
X31197Y150484D01*
X31125Y150537D01*
X31056Y150593D01*
X30989Y150652D01*
X30924Y150713D01*
X30863Y150778D01*
X30804Y150845D01*
X30748Y150914D01*
X30695Y150986D01*
X30645Y151061D01*
X30599Y151137D01*
X30556Y151215D01*
X30517Y151295D01*
X30481Y151377D01*
X30448Y151460D01*
X30420Y151545D01*
X30395Y151630D01*
X30373Y151717D01*
X30356Y151805D01*
X30343Y151893D01*
X30333Y151982D01*
X30327Y152071D01*
X30325Y152160D01*
X30325Y154206D01*
X30327Y154318D01*
X30333Y154429D01*
X30342Y154541D01*
X30355Y154652D01*
X30373Y154762D01*
X30393Y154872D01*
X30418Y154981D01*
X30446Y155089D01*
X30478Y155196D01*
X30514Y155302D01*
X30553Y155407D01*
X30596Y155510D01*
X30642Y155612D01*
X30692Y155712D01*
X30745Y155811D01*
X30802Y155907D01*
X30861Y156002D01*
X30924Y156094D01*
X30990Y156184D01*
X31059Y156272D01*
X31131Y156358D01*
X31206Y156441D01*
X31284Y156521D01*
X31364Y156599D01*
X31447Y156674D01*
X31533Y156746D01*
X31621Y156815D01*
X31711Y156881D01*
X31803Y156944D01*
X31898Y157003D01*
X31994Y157060D01*
X32093Y157113D01*
X32193Y157163D01*
X32295Y157209D01*
X32398Y157252D01*
X32503Y157291D01*
X32609Y157327D01*
X32716Y157359D01*
X32824Y157387D01*
X32933Y157412D01*
X33043Y157432D01*
X33153Y157450D01*
X33264Y157463D01*
X33376Y157472D01*
X33487Y157478D01*
X33599Y157480D01*
X114793Y94869D02*
X116430Y94869D01*
X114793Y94869D02*
X114715Y94871D01*
X114637Y94876D01*
X114560Y94886D01*
X114483Y94899D01*
X114407Y94915D01*
X114332Y94935D01*
X114258Y94959D01*
X114185Y94986D01*
X114113Y95017D01*
X114043Y95051D01*
X113975Y95088D01*
X113908Y95129D01*
X113843Y95173D01*
X113781Y95219D01*
X113721Y95269D01*
X113663Y95321D01*
X113608Y95376D01*
X113556Y95434D01*
X113506Y95494D01*
X113460Y95556D01*
X113416Y95621D01*
X113375Y95688D01*
X113338Y95756D01*
X113304Y95826D01*
X113273Y95898D01*
X113246Y95971D01*
X113222Y96045D01*
X113202Y96120D01*
X113186Y96196D01*
X113173Y96273D01*
X113163Y96350D01*
X113158Y96428D01*
X113156Y96506D01*
X113157Y96506D02*
X113157Y100598D01*
X113156Y100598D02*
X113158Y100678D01*
X113164Y100758D01*
X113174Y100838D01*
X113187Y100917D01*
X113205Y100996D01*
X113226Y101073D01*
X113252Y101149D01*
X113281Y101224D01*
X113313Y101298D01*
X113349Y101370D01*
X113389Y101440D01*
X113432Y101507D01*
X113478Y101573D01*
X113528Y101636D01*
X113580Y101697D01*
X113635Y101756D01*
X113694Y101811D01*
X113754Y101863D01*
X113818Y101913D01*
X113884Y101959D01*
X113951Y102002D01*
X114021Y102042D01*
X114093Y102078D01*
X114167Y102110D01*
X114241Y102139D01*
X114318Y102165D01*
X114395Y102186D01*
X114474Y102204D01*
X114553Y102217D01*
X114633Y102227D01*
X114713Y102233D01*
X114793Y102235D01*
X116430Y102235D01*
X119276Y100598D02*
X121322Y102235D01*
X121322Y94869D01*
X119276Y94869D02*
X123368Y94869D01*
X126591Y101417D02*
X126591Y102235D01*
X130683Y102235D01*
X128637Y94869D01*
X153402Y78613D02*
X155039Y78613D01*
X153402Y78613D02*
X153324Y78615D01*
X153246Y78620D01*
X153169Y78630D01*
X153092Y78643D01*
X153016Y78659D01*
X152941Y78679D01*
X152867Y78703D01*
X152794Y78730D01*
X152722Y78761D01*
X152652Y78795D01*
X152584Y78832D01*
X152517Y78873D01*
X152452Y78917D01*
X152390Y78963D01*
X152330Y79013D01*
X152272Y79065D01*
X152217Y79120D01*
X152165Y79178D01*
X152115Y79238D01*
X152069Y79300D01*
X152025Y79365D01*
X151984Y79432D01*
X151947Y79500D01*
X151913Y79570D01*
X151882Y79642D01*
X151855Y79715D01*
X151831Y79789D01*
X151811Y79864D01*
X151795Y79940D01*
X151782Y80017D01*
X151772Y80094D01*
X151767Y80172D01*
X151765Y80250D01*
X151765Y84342D01*
X151767Y84422D01*
X151773Y84502D01*
X151783Y84582D01*
X151796Y84661D01*
X151814Y84740D01*
X151835Y84817D01*
X151861Y84893D01*
X151890Y84968D01*
X151922Y85042D01*
X151958Y85114D01*
X151998Y85184D01*
X152041Y85251D01*
X152087Y85317D01*
X152137Y85380D01*
X152189Y85441D01*
X152244Y85500D01*
X152303Y85555D01*
X152363Y85607D01*
X152427Y85657D01*
X152493Y85703D01*
X152560Y85746D01*
X152630Y85786D01*
X152702Y85822D01*
X152776Y85854D01*
X152850Y85883D01*
X152927Y85909D01*
X153004Y85930D01*
X153083Y85948D01*
X153162Y85961D01*
X153242Y85971D01*
X153322Y85977D01*
X153402Y85979D01*
X155039Y85979D01*
X157884Y84342D02*
X159930Y85979D01*
X159930Y78613D01*
X157884Y78613D02*
X161976Y78613D01*
X165199Y80659D02*
X165201Y80748D01*
X165207Y80837D01*
X165217Y80926D01*
X165230Y81014D01*
X165247Y81102D01*
X165269Y81189D01*
X165294Y81274D01*
X165322Y81359D01*
X165355Y81442D01*
X165391Y81524D01*
X165430Y81604D01*
X165473Y81682D01*
X165519Y81758D01*
X165569Y81833D01*
X165622Y81905D01*
X165678Y81974D01*
X165737Y82041D01*
X165798Y82106D01*
X165863Y82167D01*
X165930Y82226D01*
X165999Y82282D01*
X166071Y82335D01*
X166146Y82385D01*
X166222Y82431D01*
X166300Y82474D01*
X166380Y82513D01*
X166462Y82549D01*
X166545Y82582D01*
X166630Y82610D01*
X166715Y82635D01*
X166802Y82657D01*
X166890Y82674D01*
X166978Y82687D01*
X167067Y82697D01*
X167156Y82703D01*
X167245Y82705D01*
X167334Y82703D01*
X167423Y82697D01*
X167512Y82687D01*
X167600Y82674D01*
X167688Y82657D01*
X167775Y82635D01*
X167860Y82610D01*
X167945Y82582D01*
X168028Y82549D01*
X168110Y82513D01*
X168190Y82474D01*
X168268Y82431D01*
X168344Y82385D01*
X168419Y82335D01*
X168491Y82282D01*
X168560Y82226D01*
X168627Y82167D01*
X168692Y82106D01*
X168753Y82041D01*
X168812Y81974D01*
X168868Y81905D01*
X168921Y81833D01*
X168971Y81758D01*
X169017Y81682D01*
X169060Y81604D01*
X169099Y81524D01*
X169135Y81442D01*
X169168Y81359D01*
X169196Y81274D01*
X169221Y81189D01*
X169243Y81102D01*
X169260Y81014D01*
X169273Y80926D01*
X169283Y80837D01*
X169289Y80748D01*
X169291Y80659D01*
X169289Y80570D01*
X169283Y80481D01*
X169273Y80392D01*
X169260Y80304D01*
X169243Y80216D01*
X169221Y80129D01*
X169196Y80044D01*
X169168Y79959D01*
X169135Y79876D01*
X169099Y79794D01*
X169060Y79714D01*
X169017Y79636D01*
X168971Y79560D01*
X168921Y79485D01*
X168868Y79413D01*
X168812Y79344D01*
X168753Y79277D01*
X168692Y79212D01*
X168627Y79151D01*
X168560Y79092D01*
X168491Y79036D01*
X168419Y78983D01*
X168344Y78933D01*
X168268Y78887D01*
X168190Y78844D01*
X168110Y78805D01*
X168028Y78769D01*
X167945Y78736D01*
X167860Y78708D01*
X167775Y78683D01*
X167688Y78661D01*
X167600Y78644D01*
X167512Y78631D01*
X167423Y78621D01*
X167334Y78615D01*
X167245Y78613D01*
X167156Y78615D01*
X167067Y78621D01*
X166978Y78631D01*
X166890Y78644D01*
X166802Y78661D01*
X166715Y78683D01*
X166630Y78708D01*
X166545Y78736D01*
X166462Y78769D01*
X166380Y78805D01*
X166300Y78844D01*
X166222Y78887D01*
X166146Y78933D01*
X166071Y78983D01*
X165999Y79036D01*
X165930Y79092D01*
X165863Y79151D01*
X165798Y79212D01*
X165737Y79277D01*
X165678Y79344D01*
X165622Y79413D01*
X165569Y79485D01*
X165519Y79560D01*
X165473Y79636D01*
X165430Y79714D01*
X165391Y79794D01*
X165355Y79876D01*
X165322Y79959D01*
X165294Y80044D01*
X165269Y80129D01*
X165247Y80216D01*
X165230Y80304D01*
X165217Y80392D01*
X165207Y80481D01*
X165201Y80570D01*
X165199Y80659D01*
X165608Y84342D02*
X165610Y84421D01*
X165616Y84500D01*
X165625Y84579D01*
X165638Y84657D01*
X165656Y84734D01*
X165676Y84810D01*
X165701Y84885D01*
X165729Y84959D01*
X165760Y85032D01*
X165796Y85103D01*
X165834Y85172D01*
X165876Y85239D01*
X165921Y85304D01*
X165969Y85367D01*
X166020Y85428D01*
X166074Y85485D01*
X166130Y85541D01*
X166189Y85593D01*
X166251Y85643D01*
X166315Y85689D01*
X166381Y85733D01*
X166449Y85773D01*
X166519Y85809D01*
X166591Y85843D01*
X166665Y85873D01*
X166739Y85899D01*
X166815Y85922D01*
X166892Y85940D01*
X166969Y85956D01*
X167048Y85967D01*
X167126Y85975D01*
X167205Y85979D01*
X167285Y85979D01*
X167364Y85975D01*
X167442Y85967D01*
X167521Y85956D01*
X167598Y85940D01*
X167675Y85922D01*
X167751Y85899D01*
X167825Y85873D01*
X167899Y85843D01*
X167971Y85809D01*
X168041Y85773D01*
X168109Y85733D01*
X168175Y85689D01*
X168239Y85643D01*
X168301Y85593D01*
X168360Y85541D01*
X168416Y85485D01*
X168470Y85428D01*
X168521Y85367D01*
X168569Y85304D01*
X168614Y85239D01*
X168656Y85172D01*
X168694Y85103D01*
X168730Y85032D01*
X168761Y84959D01*
X168789Y84885D01*
X168814Y84810D01*
X168834Y84734D01*
X168852Y84657D01*
X168865Y84579D01*
X168874Y84500D01*
X168880Y84421D01*
X168882Y84342D01*
X168880Y84263D01*
X168874Y84184D01*
X168865Y84105D01*
X168852Y84027D01*
X168834Y83950D01*
X168814Y83874D01*
X168789Y83799D01*
X168761Y83725D01*
X168730Y83652D01*
X168694Y83581D01*
X168656Y83512D01*
X168614Y83445D01*
X168569Y83380D01*
X168521Y83317D01*
X168470Y83256D01*
X168416Y83199D01*
X168360Y83143D01*
X168301Y83091D01*
X168239Y83041D01*
X168175Y82995D01*
X168109Y82951D01*
X168041Y82911D01*
X167971Y82875D01*
X167899Y82841D01*
X167825Y82811D01*
X167751Y82785D01*
X167675Y82762D01*
X167598Y82744D01*
X167521Y82728D01*
X167442Y82717D01*
X167364Y82709D01*
X167285Y82705D01*
X167205Y82705D01*
X167126Y82709D01*
X167048Y82717D01*
X166969Y82728D01*
X166892Y82744D01*
X166815Y82762D01*
X166739Y82785D01*
X166665Y82811D01*
X166591Y82841D01*
X166519Y82875D01*
X166449Y82911D01*
X166381Y82951D01*
X166315Y82995D01*
X166251Y83041D01*
X166189Y83091D01*
X166130Y83143D01*
X166074Y83199D01*
X166020Y83256D01*
X165969Y83317D01*
X165921Y83380D01*
X165876Y83445D01*
X165834Y83512D01*
X165796Y83581D01*
X165760Y83652D01*
X165729Y83725D01*
X165701Y83799D01*
X165676Y83874D01*
X165656Y83950D01*
X165638Y84027D01*
X165625Y84105D01*
X165616Y84184D01*
X165610Y84263D01*
X165608Y84342D01*
D13*
X65206Y180429D02*
X65206Y185331D01*
X56206Y185331D02*
X56206Y180429D01*
D12*
X56642Y199517D02*
X56642Y206883D01*
X56642Y199517D02*
X59916Y199517D01*
X62722Y205246D02*
X64768Y206883D01*
X64768Y199517D01*
X62722Y199517D02*
X66815Y199517D01*
D13*
X54620Y125842D02*
X49520Y125842D01*
X49520Y139842D02*
X54620Y139842D01*
D12*
X24257Y134620D02*
X24257Y127254D01*
X27531Y127254D01*
X34430Y132779D02*
X34428Y132864D01*
X34422Y132949D01*
X34412Y133033D01*
X34399Y133117D01*
X34381Y133201D01*
X34360Y133283D01*
X34335Y133364D01*
X34306Y133444D01*
X34273Y133523D01*
X34237Y133600D01*
X34197Y133675D01*
X34154Y133749D01*
X34108Y133820D01*
X34058Y133889D01*
X34005Y133956D01*
X33949Y134020D01*
X33890Y134081D01*
X33829Y134140D01*
X33765Y134196D01*
X33698Y134249D01*
X33629Y134299D01*
X33558Y134345D01*
X33484Y134388D01*
X33409Y134428D01*
X33332Y134464D01*
X33253Y134497D01*
X33173Y134526D01*
X33092Y134551D01*
X33010Y134572D01*
X32926Y134590D01*
X32842Y134603D01*
X32758Y134613D01*
X32673Y134619D01*
X32588Y134621D01*
X32588Y134620D02*
X32492Y134618D01*
X32396Y134612D01*
X32301Y134602D01*
X32206Y134589D01*
X32111Y134571D01*
X32018Y134550D01*
X31925Y134525D01*
X31834Y134496D01*
X31743Y134464D01*
X31654Y134428D01*
X31567Y134388D01*
X31481Y134345D01*
X31397Y134299D01*
X31315Y134249D01*
X31235Y134195D01*
X31158Y134139D01*
X31083Y134079D01*
X31010Y134017D01*
X30940Y133951D01*
X30872Y133883D01*
X30807Y133812D01*
X30746Y133739D01*
X30687Y133663D01*
X30631Y133584D01*
X30579Y133504D01*
X30530Y133421D01*
X30484Y133337D01*
X30442Y133251D01*
X30404Y133163D01*
X30369Y133074D01*
X30337Y132983D01*
X33816Y131347D02*
X33876Y131406D01*
X33933Y131468D01*
X33988Y131532D01*
X34039Y131599D01*
X34088Y131668D01*
X34134Y131738D01*
X34177Y131811D01*
X34217Y131885D01*
X34253Y131961D01*
X34286Y132039D01*
X34316Y132118D01*
X34343Y132198D01*
X34366Y132279D01*
X34385Y132361D01*
X34401Y132443D01*
X34414Y132527D01*
X34423Y132611D01*
X34428Y132695D01*
X34430Y132779D01*
X33816Y131346D02*
X30337Y127254D01*
X34430Y127254D01*
D14*
X169482Y190620D02*
X177482Y190620D01*
X177482Y205620D02*
X169482Y205620D01*
D12*
X167727Y213170D02*
X165441Y216408D01*
X167727Y213170D02*
X170013Y216408D01*
X167727Y213170D02*
X167727Y209550D01*
X174776Y216409D02*
X174858Y216407D01*
X174939Y216401D01*
X175020Y216392D01*
X175101Y216378D01*
X175180Y216361D01*
X175259Y216340D01*
X175337Y216315D01*
X175413Y216286D01*
X175488Y216254D01*
X175562Y216218D01*
X175634Y216179D01*
X175703Y216137D01*
X175771Y216091D01*
X175836Y216042D01*
X175899Y215990D01*
X175959Y215935D01*
X176017Y215877D01*
X176072Y215817D01*
X176124Y215754D01*
X176173Y215689D01*
X176219Y215621D01*
X176261Y215552D01*
X176300Y215480D01*
X176336Y215406D01*
X176368Y215331D01*
X176397Y215255D01*
X176422Y215177D01*
X176443Y215098D01*
X176460Y215019D01*
X176474Y214938D01*
X176483Y214857D01*
X176489Y214776D01*
X176491Y214694D01*
X174776Y216408D02*
X174684Y216406D01*
X174592Y216400D01*
X174500Y216391D01*
X174408Y216377D01*
X174318Y216360D01*
X174228Y216339D01*
X174139Y216314D01*
X174051Y216285D01*
X173964Y216253D01*
X173879Y216217D01*
X173796Y216178D01*
X173714Y216135D01*
X173634Y216089D01*
X173556Y216039D01*
X173480Y215987D01*
X173407Y215931D01*
X173336Y215872D01*
X173267Y215810D01*
X173201Y215745D01*
X173138Y215678D01*
X173078Y215608D01*
X173020Y215536D01*
X172966Y215461D01*
X172915Y215384D01*
X172867Y215305D01*
X172823Y215224D01*
X172782Y215141D01*
X172744Y215057D01*
X172710Y214971D01*
X172680Y214884D01*
X175919Y213360D02*
X175978Y213419D01*
X176034Y213480D01*
X176087Y213543D01*
X176138Y213609D01*
X176185Y213677D01*
X176229Y213747D01*
X176270Y213819D01*
X176308Y213893D01*
X176342Y213968D01*
X176373Y214045D01*
X176400Y214123D01*
X176424Y214203D01*
X176445Y214283D01*
X176461Y214364D01*
X176474Y214446D01*
X176484Y214528D01*
X176489Y214611D01*
X176491Y214694D01*
X175919Y213360D02*
X172680Y209550D01*
X176490Y209550D01*
D15*
X142906Y63121D02*
X142968Y63119D01*
X143029Y63113D01*
X143090Y63104D01*
X143150Y63091D01*
X143209Y63074D01*
X143267Y63053D01*
X143324Y63029D01*
X143379Y63002D01*
X143432Y62971D01*
X143484Y62937D01*
X143533Y62900D01*
X143580Y62860D01*
X143624Y62817D01*
X143665Y62772D01*
X143704Y62724D01*
X143740Y62673D01*
X143772Y62621D01*
X143801Y62567D01*
X143827Y62511D01*
X143849Y62453D01*
X143868Y62395D01*
X143883Y62335D01*
X143894Y62274D01*
X143902Y62213D01*
X143906Y62152D01*
X143906Y62090D01*
X143902Y62029D01*
X143894Y61968D01*
X143883Y61907D01*
X143868Y61847D01*
X143849Y61789D01*
X143827Y61731D01*
X143801Y61675D01*
X143772Y61621D01*
X143740Y61569D01*
X143704Y61518D01*
X143665Y61470D01*
X143624Y61425D01*
X143580Y61382D01*
X143533Y61342D01*
X143484Y61305D01*
X143432Y61271D01*
X143379Y61240D01*
X143324Y61213D01*
X143267Y61189D01*
X143209Y61168D01*
X143150Y61151D01*
X143090Y61138D01*
X143029Y61129D01*
X142968Y61123D01*
X142906Y61121D01*
X142844Y61123D01*
X142783Y61129D01*
X142722Y61138D01*
X142662Y61151D01*
X142603Y61168D01*
X142545Y61189D01*
X142488Y61213D01*
X142433Y61240D01*
X142380Y61271D01*
X142328Y61305D01*
X142279Y61342D01*
X142232Y61382D01*
X142188Y61425D01*
X142147Y61470D01*
X142108Y61518D01*
X142072Y61569D01*
X142040Y61621D01*
X142011Y61675D01*
X141985Y61731D01*
X141963Y61789D01*
X141944Y61847D01*
X141929Y61907D01*
X141918Y61968D01*
X141910Y62029D01*
X141906Y62090D01*
X141906Y62152D01*
X141910Y62213D01*
X141918Y62274D01*
X141929Y62335D01*
X141944Y62395D01*
X141963Y62453D01*
X141985Y62511D01*
X142011Y62567D01*
X142040Y62621D01*
X142072Y62673D01*
X142108Y62724D01*
X142147Y62772D01*
X142188Y62817D01*
X142232Y62860D01*
X142279Y62900D01*
X142328Y62937D01*
X142380Y62971D01*
X142433Y63002D01*
X142488Y63029D01*
X142545Y63053D01*
X142603Y63074D01*
X142662Y63091D01*
X142722Y63104D01*
X142783Y63113D01*
X142844Y63119D01*
X142906Y63121D01*
D12*
X131953Y58992D02*
X129667Y62230D01*
X131953Y58992D02*
X134239Y62230D01*
X131953Y58992D02*
X131953Y55372D01*
X136906Y60706D02*
X138811Y62230D01*
X138811Y55372D01*
X136906Y55372D02*
X140716Y55372D01*
X168490Y149455D02*
X168490Y156821D01*
X168490Y149455D02*
X171764Y149455D01*
X174571Y149455D02*
X176617Y149455D01*
X176706Y149457D01*
X176795Y149463D01*
X176884Y149473D01*
X176972Y149486D01*
X177060Y149503D01*
X177147Y149525D01*
X177232Y149550D01*
X177317Y149578D01*
X177400Y149611D01*
X177482Y149647D01*
X177562Y149686D01*
X177640Y149729D01*
X177716Y149775D01*
X177791Y149825D01*
X177863Y149878D01*
X177932Y149934D01*
X177999Y149993D01*
X178064Y150054D01*
X178125Y150119D01*
X178184Y150186D01*
X178240Y150255D01*
X178293Y150327D01*
X178343Y150402D01*
X178389Y150478D01*
X178432Y150556D01*
X178471Y150636D01*
X178507Y150718D01*
X178540Y150801D01*
X178568Y150886D01*
X178593Y150971D01*
X178615Y151058D01*
X178632Y151146D01*
X178645Y151234D01*
X178655Y151323D01*
X178661Y151412D01*
X178663Y151501D01*
X178661Y151590D01*
X178655Y151679D01*
X178645Y151768D01*
X178632Y151856D01*
X178615Y151944D01*
X178593Y152031D01*
X178568Y152116D01*
X178540Y152201D01*
X178507Y152284D01*
X178471Y152366D01*
X178432Y152446D01*
X178389Y152524D01*
X178343Y152600D01*
X178293Y152675D01*
X178240Y152747D01*
X178184Y152816D01*
X178125Y152883D01*
X178064Y152948D01*
X177999Y153009D01*
X177932Y153068D01*
X177863Y153124D01*
X177791Y153177D01*
X177716Y153227D01*
X177640Y153273D01*
X177562Y153316D01*
X177482Y153355D01*
X177400Y153391D01*
X177317Y153424D01*
X177232Y153452D01*
X177147Y153477D01*
X177060Y153499D01*
X176972Y153516D01*
X176884Y153529D01*
X176795Y153539D01*
X176706Y153545D01*
X176617Y153547D01*
X177026Y156821D02*
X174571Y156821D01*
X177026Y156821D02*
X177105Y156819D01*
X177184Y156813D01*
X177263Y156804D01*
X177341Y156791D01*
X177418Y156773D01*
X177494Y156753D01*
X177569Y156728D01*
X177643Y156700D01*
X177716Y156669D01*
X177787Y156633D01*
X177856Y156595D01*
X177923Y156553D01*
X177988Y156508D01*
X178051Y156460D01*
X178112Y156409D01*
X178169Y156355D01*
X178225Y156299D01*
X178277Y156240D01*
X178327Y156178D01*
X178373Y156114D01*
X178417Y156048D01*
X178457Y155980D01*
X178493Y155910D01*
X178527Y155838D01*
X178557Y155764D01*
X178583Y155690D01*
X178606Y155614D01*
X178624Y155537D01*
X178640Y155460D01*
X178651Y155381D01*
X178659Y155303D01*
X178663Y155224D01*
X178663Y155144D01*
X178659Y155065D01*
X178651Y154987D01*
X178640Y154908D01*
X178624Y154831D01*
X178606Y154754D01*
X178583Y154678D01*
X178557Y154604D01*
X178527Y154530D01*
X178493Y154458D01*
X178457Y154388D01*
X178417Y154320D01*
X178373Y154254D01*
X178327Y154190D01*
X178277Y154128D01*
X178225Y154069D01*
X178169Y154013D01*
X178112Y153959D01*
X178051Y153908D01*
X177988Y153860D01*
X177923Y153815D01*
X177856Y153773D01*
X177787Y153735D01*
X177716Y153699D01*
X177643Y153668D01*
X177569Y153640D01*
X177494Y153615D01*
X177418Y153595D01*
X177341Y153577D01*
X177263Y153564D01*
X177184Y153555D01*
X177105Y153549D01*
X177026Y153547D01*
X175389Y153547D01*
X170431Y158827D02*
X168794Y158827D01*
X168716Y158829D01*
X168638Y158834D01*
X168561Y158844D01*
X168484Y158857D01*
X168408Y158873D01*
X168333Y158893D01*
X168259Y158917D01*
X168186Y158944D01*
X168114Y158975D01*
X168044Y159009D01*
X167976Y159046D01*
X167909Y159087D01*
X167844Y159131D01*
X167782Y159177D01*
X167722Y159227D01*
X167664Y159279D01*
X167609Y159334D01*
X167557Y159392D01*
X167507Y159452D01*
X167461Y159514D01*
X167417Y159579D01*
X167376Y159646D01*
X167339Y159714D01*
X167305Y159784D01*
X167274Y159856D01*
X167247Y159929D01*
X167223Y160003D01*
X167203Y160078D01*
X167187Y160154D01*
X167174Y160231D01*
X167164Y160308D01*
X167159Y160386D01*
X167157Y160464D01*
X167157Y164556D01*
X167159Y164636D01*
X167165Y164716D01*
X167175Y164796D01*
X167188Y164875D01*
X167206Y164954D01*
X167227Y165031D01*
X167253Y165107D01*
X167282Y165182D01*
X167314Y165256D01*
X167350Y165328D01*
X167390Y165398D01*
X167433Y165465D01*
X167479Y165531D01*
X167529Y165594D01*
X167581Y165655D01*
X167636Y165714D01*
X167695Y165769D01*
X167755Y165821D01*
X167819Y165871D01*
X167885Y165917D01*
X167952Y165960D01*
X168022Y166000D01*
X168094Y166036D01*
X168168Y166068D01*
X168242Y166097D01*
X168319Y166123D01*
X168396Y166144D01*
X168475Y166162D01*
X168554Y166175D01*
X168634Y166185D01*
X168714Y166191D01*
X168794Y166193D01*
X170431Y166193D01*
X173276Y158827D02*
X175322Y158827D01*
X175411Y158829D01*
X175500Y158835D01*
X175589Y158845D01*
X175677Y158858D01*
X175765Y158875D01*
X175852Y158897D01*
X175937Y158922D01*
X176022Y158950D01*
X176105Y158983D01*
X176187Y159019D01*
X176267Y159058D01*
X176345Y159101D01*
X176421Y159147D01*
X176496Y159197D01*
X176568Y159250D01*
X176637Y159306D01*
X176704Y159365D01*
X176769Y159426D01*
X176830Y159491D01*
X176889Y159558D01*
X176945Y159627D01*
X176998Y159699D01*
X177048Y159774D01*
X177094Y159850D01*
X177137Y159928D01*
X177176Y160008D01*
X177212Y160090D01*
X177245Y160173D01*
X177273Y160258D01*
X177298Y160343D01*
X177320Y160430D01*
X177337Y160518D01*
X177350Y160606D01*
X177360Y160695D01*
X177366Y160784D01*
X177368Y160873D01*
X177366Y160962D01*
X177360Y161051D01*
X177350Y161140D01*
X177337Y161228D01*
X177320Y161316D01*
X177298Y161403D01*
X177273Y161488D01*
X177245Y161573D01*
X177212Y161656D01*
X177176Y161738D01*
X177137Y161818D01*
X177094Y161896D01*
X177048Y161972D01*
X176998Y162047D01*
X176945Y162119D01*
X176889Y162188D01*
X176830Y162255D01*
X176769Y162320D01*
X176704Y162381D01*
X176637Y162440D01*
X176568Y162496D01*
X176496Y162549D01*
X176421Y162599D01*
X176345Y162645D01*
X176267Y162688D01*
X176187Y162727D01*
X176105Y162763D01*
X176022Y162796D01*
X175937Y162824D01*
X175852Y162849D01*
X175765Y162871D01*
X175677Y162888D01*
X175589Y162901D01*
X175500Y162911D01*
X175411Y162917D01*
X175322Y162919D01*
X175731Y166193D02*
X173276Y166193D01*
X175731Y166193D02*
X175810Y166191D01*
X175889Y166185D01*
X175968Y166176D01*
X176046Y166163D01*
X176123Y166145D01*
X176199Y166125D01*
X176274Y166100D01*
X176348Y166072D01*
X176421Y166041D01*
X176492Y166005D01*
X176561Y165967D01*
X176628Y165925D01*
X176693Y165880D01*
X176756Y165832D01*
X176817Y165781D01*
X176874Y165727D01*
X176930Y165671D01*
X176982Y165612D01*
X177032Y165550D01*
X177078Y165486D01*
X177122Y165420D01*
X177162Y165352D01*
X177198Y165282D01*
X177232Y165210D01*
X177262Y165136D01*
X177288Y165062D01*
X177311Y164986D01*
X177329Y164909D01*
X177345Y164832D01*
X177356Y164753D01*
X177364Y164675D01*
X177368Y164596D01*
X177368Y164516D01*
X177364Y164437D01*
X177356Y164359D01*
X177345Y164280D01*
X177329Y164203D01*
X177311Y164126D01*
X177288Y164050D01*
X177262Y163976D01*
X177232Y163902D01*
X177198Y163830D01*
X177162Y163760D01*
X177122Y163692D01*
X177078Y163626D01*
X177032Y163562D01*
X176982Y163500D01*
X176930Y163441D01*
X176874Y163385D01*
X176817Y163331D01*
X176756Y163280D01*
X176693Y163232D01*
X176628Y163187D01*
X176561Y163145D01*
X176492Y163107D01*
X176421Y163071D01*
X176348Y163040D01*
X176274Y163012D01*
X176199Y162987D01*
X176123Y162967D01*
X176046Y162949D01*
X175968Y162936D01*
X175889Y162927D01*
X175810Y162921D01*
X175731Y162919D01*
X174095Y162919D01*
X178803Y78194D02*
X180439Y78194D01*
X178803Y78194D02*
X178725Y78196D01*
X178647Y78201D01*
X178570Y78211D01*
X178493Y78224D01*
X178417Y78240D01*
X178342Y78260D01*
X178268Y78284D01*
X178195Y78311D01*
X178123Y78342D01*
X178053Y78376D01*
X177985Y78413D01*
X177918Y78454D01*
X177853Y78498D01*
X177791Y78544D01*
X177731Y78594D01*
X177673Y78646D01*
X177618Y78701D01*
X177566Y78759D01*
X177516Y78819D01*
X177470Y78881D01*
X177426Y78946D01*
X177385Y79013D01*
X177348Y79081D01*
X177314Y79151D01*
X177283Y79223D01*
X177256Y79296D01*
X177232Y79370D01*
X177212Y79445D01*
X177196Y79521D01*
X177183Y79598D01*
X177173Y79675D01*
X177168Y79753D01*
X177166Y79831D01*
X177166Y83923D01*
X177168Y84003D01*
X177174Y84083D01*
X177184Y84163D01*
X177197Y84242D01*
X177215Y84321D01*
X177236Y84398D01*
X177262Y84474D01*
X177291Y84549D01*
X177323Y84623D01*
X177359Y84695D01*
X177399Y84765D01*
X177442Y84832D01*
X177488Y84898D01*
X177538Y84961D01*
X177590Y85022D01*
X177645Y85081D01*
X177704Y85136D01*
X177764Y85188D01*
X177828Y85238D01*
X177894Y85284D01*
X177961Y85327D01*
X178031Y85367D01*
X178103Y85403D01*
X178177Y85435D01*
X178251Y85464D01*
X178328Y85490D01*
X178405Y85511D01*
X178484Y85529D01*
X178563Y85542D01*
X178643Y85552D01*
X178723Y85558D01*
X178803Y85560D01*
X180439Y85560D01*
X184922Y85560D02*
X183285Y79831D01*
X187377Y79831D01*
X186149Y81468D02*
X186149Y78194D01*
X170699Y139516D02*
X169063Y139516D01*
X168985Y139518D01*
X168907Y139523D01*
X168830Y139533D01*
X168753Y139546D01*
X168677Y139562D01*
X168602Y139582D01*
X168528Y139606D01*
X168455Y139633D01*
X168383Y139664D01*
X168313Y139698D01*
X168245Y139735D01*
X168178Y139776D01*
X168113Y139820D01*
X168051Y139866D01*
X167991Y139916D01*
X167933Y139968D01*
X167878Y140023D01*
X167826Y140081D01*
X167776Y140141D01*
X167730Y140203D01*
X167686Y140268D01*
X167645Y140335D01*
X167608Y140403D01*
X167574Y140473D01*
X167543Y140545D01*
X167516Y140618D01*
X167492Y140692D01*
X167472Y140767D01*
X167456Y140843D01*
X167443Y140920D01*
X167433Y140997D01*
X167428Y141075D01*
X167426Y141153D01*
X167426Y145245D01*
X167428Y145325D01*
X167434Y145405D01*
X167444Y145485D01*
X167457Y145564D01*
X167475Y145643D01*
X167496Y145720D01*
X167522Y145796D01*
X167551Y145871D01*
X167583Y145945D01*
X167619Y146017D01*
X167659Y146087D01*
X167702Y146154D01*
X167748Y146220D01*
X167798Y146283D01*
X167850Y146344D01*
X167905Y146403D01*
X167964Y146458D01*
X168024Y146510D01*
X168088Y146560D01*
X168154Y146606D01*
X168221Y146649D01*
X168291Y146689D01*
X168363Y146725D01*
X168437Y146757D01*
X168511Y146786D01*
X168588Y146812D01*
X168665Y146833D01*
X168744Y146851D01*
X168823Y146864D01*
X168903Y146874D01*
X168983Y146880D01*
X169063Y146882D01*
X170699Y146882D01*
X175182Y142789D02*
X177637Y142789D01*
X175182Y142789D02*
X175104Y142791D01*
X175026Y142796D01*
X174949Y142806D01*
X174872Y142819D01*
X174796Y142835D01*
X174721Y142855D01*
X174647Y142879D01*
X174574Y142906D01*
X174502Y142937D01*
X174432Y142971D01*
X174363Y143008D01*
X174297Y143049D01*
X174232Y143093D01*
X174170Y143139D01*
X174110Y143189D01*
X174052Y143241D01*
X173997Y143296D01*
X173945Y143354D01*
X173895Y143414D01*
X173849Y143476D01*
X173805Y143541D01*
X173764Y143608D01*
X173727Y143676D01*
X173693Y143746D01*
X173662Y143818D01*
X173635Y143891D01*
X173611Y143965D01*
X173591Y144040D01*
X173575Y144116D01*
X173562Y144193D01*
X173552Y144270D01*
X173547Y144348D01*
X173545Y144426D01*
X173545Y144836D01*
X173547Y144925D01*
X173553Y145014D01*
X173563Y145103D01*
X173576Y145191D01*
X173593Y145279D01*
X173615Y145366D01*
X173640Y145451D01*
X173668Y145536D01*
X173701Y145619D01*
X173737Y145701D01*
X173776Y145781D01*
X173819Y145859D01*
X173865Y145935D01*
X173915Y146010D01*
X173968Y146082D01*
X174024Y146151D01*
X174083Y146218D01*
X174144Y146283D01*
X174209Y146344D01*
X174276Y146403D01*
X174345Y146459D01*
X174417Y146512D01*
X174492Y146562D01*
X174568Y146608D01*
X174646Y146651D01*
X174726Y146690D01*
X174808Y146726D01*
X174891Y146759D01*
X174976Y146787D01*
X175061Y146812D01*
X175148Y146834D01*
X175236Y146851D01*
X175324Y146864D01*
X175413Y146874D01*
X175502Y146880D01*
X175591Y146882D01*
X175680Y146880D01*
X175769Y146874D01*
X175858Y146864D01*
X175946Y146851D01*
X176034Y146834D01*
X176121Y146812D01*
X176206Y146787D01*
X176291Y146759D01*
X176374Y146726D01*
X176456Y146690D01*
X176536Y146651D01*
X176614Y146608D01*
X176690Y146562D01*
X176765Y146512D01*
X176837Y146459D01*
X176906Y146403D01*
X176973Y146344D01*
X177038Y146283D01*
X177099Y146218D01*
X177158Y146151D01*
X177214Y146082D01*
X177267Y146010D01*
X177317Y145935D01*
X177363Y145859D01*
X177406Y145781D01*
X177445Y145701D01*
X177481Y145619D01*
X177514Y145536D01*
X177542Y145451D01*
X177567Y145366D01*
X177589Y145279D01*
X177606Y145191D01*
X177619Y145103D01*
X177629Y145014D01*
X177635Y144925D01*
X177637Y144836D01*
X177637Y142789D01*
X177635Y142677D01*
X177629Y142566D01*
X177620Y142454D01*
X177607Y142343D01*
X177589Y142233D01*
X177569Y142123D01*
X177544Y142014D01*
X177516Y141906D01*
X177484Y141799D01*
X177448Y141693D01*
X177409Y141588D01*
X177366Y141485D01*
X177320Y141383D01*
X177270Y141283D01*
X177217Y141184D01*
X177160Y141088D01*
X177101Y140993D01*
X177038Y140901D01*
X176972Y140811D01*
X176903Y140723D01*
X176831Y140637D01*
X176756Y140554D01*
X176678Y140474D01*
X176598Y140396D01*
X176515Y140321D01*
X176429Y140249D01*
X176341Y140180D01*
X176251Y140114D01*
X176159Y140051D01*
X176064Y139992D01*
X175968Y139935D01*
X175869Y139882D01*
X175769Y139832D01*
X175667Y139786D01*
X175564Y139743D01*
X175459Y139704D01*
X175353Y139668D01*
X175246Y139636D01*
X175138Y139608D01*
X175029Y139583D01*
X174919Y139563D01*
X174809Y139545D01*
X174698Y139532D01*
X174586Y139523D01*
X174475Y139517D01*
X174363Y139515D01*
X209396Y94501D02*
X209396Y92864D01*
X209394Y92786D01*
X209389Y92708D01*
X209379Y92631D01*
X209366Y92554D01*
X209350Y92478D01*
X209330Y92403D01*
X209306Y92329D01*
X209279Y92256D01*
X209248Y92184D01*
X209214Y92114D01*
X209177Y92046D01*
X209136Y91979D01*
X209092Y91914D01*
X209046Y91852D01*
X208996Y91792D01*
X208944Y91734D01*
X208889Y91679D01*
X208831Y91627D01*
X208771Y91577D01*
X208709Y91531D01*
X208644Y91487D01*
X208578Y91446D01*
X208509Y91409D01*
X208439Y91375D01*
X208367Y91344D01*
X208294Y91317D01*
X208220Y91293D01*
X208145Y91273D01*
X208069Y91257D01*
X207992Y91244D01*
X207915Y91234D01*
X207837Y91229D01*
X207759Y91227D01*
X203667Y91227D01*
X203587Y91229D01*
X203507Y91235D01*
X203427Y91245D01*
X203348Y91258D01*
X203269Y91276D01*
X203192Y91297D01*
X203116Y91323D01*
X203041Y91352D01*
X202967Y91384D01*
X202895Y91420D01*
X202825Y91460D01*
X202758Y91503D01*
X202692Y91549D01*
X202629Y91599D01*
X202568Y91651D01*
X202509Y91706D01*
X202454Y91765D01*
X202402Y91825D01*
X202352Y91889D01*
X202306Y91954D01*
X202263Y92022D01*
X202223Y92092D01*
X202187Y92164D01*
X202155Y92238D01*
X202126Y92312D01*
X202101Y92389D01*
X202079Y92466D01*
X202061Y92545D01*
X202048Y92624D01*
X202038Y92703D01*
X202032Y92784D01*
X202030Y92864D01*
X202030Y94501D01*
X203667Y97346D02*
X202030Y99393D01*
X209396Y99393D01*
X209396Y101439D02*
X209396Y97346D01*
X205713Y104662D02*
X205560Y104664D01*
X205407Y104670D01*
X205255Y104679D01*
X205102Y104693D01*
X204950Y104710D01*
X204799Y104731D01*
X204648Y104756D01*
X204498Y104785D01*
X204348Y104817D01*
X204200Y104854D01*
X204052Y104894D01*
X203905Y104937D01*
X203760Y104985D01*
X203616Y105036D01*
X203473Y105090D01*
X203331Y105149D01*
X203192Y105210D01*
X203053Y105276D01*
X202983Y105302D01*
X202913Y105332D01*
X202846Y105365D01*
X202780Y105401D01*
X202716Y105440D01*
X202654Y105483D01*
X202595Y105529D01*
X202537Y105577D01*
X202483Y105628D01*
X202430Y105682D01*
X202381Y105739D01*
X202334Y105798D01*
X202291Y105859D01*
X202250Y105922D01*
X202213Y105987D01*
X202178Y106054D01*
X202148Y106123D01*
X202120Y106193D01*
X202097Y106264D01*
X202076Y106336D01*
X202060Y106409D01*
X202047Y106483D01*
X202037Y106558D01*
X202032Y106633D01*
X202030Y106708D01*
X202032Y106783D01*
X202037Y106858D01*
X202047Y106933D01*
X202060Y107007D01*
X202076Y107080D01*
X202097Y107152D01*
X202120Y107223D01*
X202148Y107293D01*
X202178Y107362D01*
X202213Y107429D01*
X202250Y107494D01*
X202291Y107557D01*
X202334Y107618D01*
X202381Y107677D01*
X202430Y107734D01*
X202483Y107788D01*
X202537Y107839D01*
X202595Y107888D01*
X202654Y107933D01*
X202716Y107976D01*
X202780Y108015D01*
X202846Y108052D01*
X202914Y108084D01*
X202983Y108114D01*
X203053Y108140D01*
X203191Y108205D01*
X203331Y108267D01*
X203473Y108325D01*
X203616Y108380D01*
X203760Y108431D01*
X203905Y108479D01*
X204052Y108522D01*
X204199Y108562D01*
X204348Y108599D01*
X204498Y108631D01*
X204648Y108660D01*
X204799Y108685D01*
X204950Y108706D01*
X205102Y108723D01*
X205255Y108737D01*
X205407Y108746D01*
X205560Y108752D01*
X205713Y108754D01*
X205713Y104662D02*
X205866Y104664D01*
X206019Y104670D01*
X206171Y104679D01*
X206324Y104693D01*
X206476Y104710D01*
X206627Y104731D01*
X206778Y104756D01*
X206928Y104785D01*
X207078Y104817D01*
X207226Y104854D01*
X207374Y104894D01*
X207521Y104937D01*
X207666Y104985D01*
X207810Y105036D01*
X207953Y105090D01*
X208095Y105149D01*
X208234Y105210D01*
X208373Y105276D01*
X208444Y105302D01*
X208513Y105332D01*
X208580Y105365D01*
X208646Y105401D01*
X208710Y105440D01*
X208772Y105483D01*
X208831Y105529D01*
X208889Y105577D01*
X208943Y105628D01*
X208996Y105682D01*
X209045Y105739D01*
X209092Y105798D01*
X209135Y105859D01*
X209176Y105922D01*
X209213Y105987D01*
X209248Y106054D01*
X209278Y106123D01*
X209306Y106193D01*
X209329Y106264D01*
X209350Y106336D01*
X209366Y106409D01*
X209379Y106483D01*
X209389Y106558D01*
X209394Y106633D01*
X209396Y106708D01*
X208373Y108140D02*
X208235Y108205D01*
X208095Y108267D01*
X207953Y108325D01*
X207810Y108380D01*
X207666Y108431D01*
X207521Y108479D01*
X207374Y108522D01*
X207227Y108562D01*
X207078Y108599D01*
X206928Y108631D01*
X206778Y108660D01*
X206627Y108685D01*
X206476Y108706D01*
X206324Y108723D01*
X206171Y108737D01*
X206019Y108746D01*
X205866Y108752D01*
X205713Y108754D01*
X208373Y108140D02*
X208443Y108114D01*
X208513Y108084D01*
X208580Y108051D01*
X208646Y108015D01*
X208710Y107976D01*
X208772Y107933D01*
X208831Y107887D01*
X208889Y107839D01*
X208943Y107788D01*
X208996Y107734D01*
X209045Y107677D01*
X209092Y107618D01*
X209135Y107557D01*
X209176Y107494D01*
X209213Y107429D01*
X209248Y107362D01*
X209278Y107293D01*
X209306Y107223D01*
X209329Y107152D01*
X209350Y107080D01*
X209366Y107007D01*
X209379Y106933D01*
X209389Y106858D01*
X209394Y106783D01*
X209396Y106708D01*
X207759Y105071D02*
X203667Y108345D01*
X211450Y133877D02*
X213087Y133871D01*
X211450Y133876D02*
X211370Y133878D01*
X211290Y133884D01*
X211210Y133895D01*
X211131Y133909D01*
X211053Y133926D01*
X210975Y133948D01*
X210899Y133974D01*
X210824Y134003D01*
X210751Y134036D01*
X210679Y134072D01*
X210610Y134112D01*
X210542Y134155D01*
X210476Y134202D01*
X210413Y134251D01*
X210352Y134304D01*
X210294Y134360D01*
X210239Y134418D01*
X210187Y134479D01*
X210138Y134542D01*
X210092Y134608D01*
X210049Y134676D01*
X210010Y134746D01*
X209974Y134818D01*
X209941Y134892D01*
X209913Y134967D01*
X209888Y135043D01*
X209867Y135121D01*
X209849Y135199D01*
X209836Y135278D01*
X209826Y135358D01*
X209821Y135438D01*
X209819Y135519D01*
X209833Y139611D01*
X209833Y139612D02*
X209835Y139692D01*
X209841Y139772D01*
X209852Y139852D01*
X209866Y139931D01*
X209883Y140009D01*
X209905Y140087D01*
X209931Y140163D01*
X209960Y140238D01*
X209993Y140311D01*
X210029Y140383D01*
X210069Y140452D01*
X210112Y140520D01*
X210159Y140586D01*
X210208Y140649D01*
X210261Y140710D01*
X210317Y140768D01*
X210375Y140823D01*
X210436Y140875D01*
X210499Y140924D01*
X210565Y140970D01*
X210633Y141013D01*
X210703Y141052D01*
X210775Y141088D01*
X210849Y141121D01*
X210924Y141149D01*
X211000Y141174D01*
X211078Y141195D01*
X211156Y141213D01*
X211235Y141226D01*
X211315Y141236D01*
X211395Y141241D01*
X211476Y141243D01*
X213113Y141237D01*
X215952Y139590D02*
X218004Y141220D01*
X217978Y133854D01*
X215932Y133861D02*
X220024Y133847D01*
X224896Y137103D02*
X227351Y137095D01*
X224895Y137103D02*
X224817Y137105D01*
X224740Y137111D01*
X224662Y137120D01*
X224586Y137134D01*
X224510Y137151D01*
X224434Y137171D01*
X224360Y137195D01*
X224287Y137222D01*
X224216Y137253D01*
X224146Y137288D01*
X224078Y137325D01*
X224011Y137366D01*
X223947Y137410D01*
X223885Y137457D01*
X223825Y137507D01*
X223767Y137559D01*
X223712Y137614D01*
X223660Y137672D01*
X223611Y137733D01*
X223564Y137795D01*
X223521Y137860D01*
X223480Y137926D01*
X223443Y137995D01*
X223410Y138065D01*
X223379Y138137D01*
X223352Y138210D01*
X223329Y138284D01*
X223309Y138360D01*
X223293Y138436D01*
X223280Y138513D01*
X223271Y138590D01*
X223266Y138668D01*
X223264Y138746D01*
X223266Y139155D01*
X223268Y139244D01*
X223274Y139333D01*
X223284Y139422D01*
X223298Y139510D01*
X223316Y139598D01*
X223338Y139684D01*
X223363Y139770D01*
X223392Y139855D01*
X223425Y139938D01*
X223461Y140019D01*
X223500Y140099D01*
X223544Y140177D01*
X223590Y140253D01*
X223640Y140327D01*
X223693Y140399D01*
X223749Y140469D01*
X223808Y140536D01*
X223870Y140600D01*
X223935Y140661D01*
X224002Y140720D01*
X224072Y140776D01*
X224144Y140828D01*
X224219Y140877D01*
X224295Y140923D01*
X224374Y140966D01*
X224454Y141005D01*
X224536Y141041D01*
X224619Y141073D01*
X224704Y141101D01*
X224789Y141126D01*
X224876Y141147D01*
X224964Y141164D01*
X225052Y141177D01*
X225141Y141187D01*
X225230Y141192D01*
X225319Y141194D01*
X225408Y141192D01*
X225497Y141186D01*
X225586Y141176D01*
X225674Y141162D01*
X225762Y141144D01*
X225848Y141122D01*
X225934Y141097D01*
X226018Y141068D01*
X226102Y141036D01*
X226183Y140999D01*
X226263Y140960D01*
X226341Y140916D01*
X226417Y140870D01*
X226491Y140820D01*
X226563Y140767D01*
X226633Y140711D01*
X226699Y140652D01*
X226764Y140590D01*
X226825Y140525D01*
X226884Y140458D01*
X226940Y140388D01*
X226992Y140316D01*
X227041Y140241D01*
X227087Y140165D01*
X227130Y140086D01*
X227169Y140006D01*
X227205Y139924D01*
X227237Y139841D01*
X227265Y139756D01*
X227290Y139671D01*
X227311Y139584D01*
X227328Y139496D01*
X227341Y139408D01*
X227351Y139319D01*
X227356Y139230D01*
X227358Y139141D01*
X227351Y137095D01*
X227349Y136980D01*
X227342Y136866D01*
X227332Y136752D01*
X227318Y136639D01*
X227299Y136526D01*
X227277Y136414D01*
X227251Y136303D01*
X227221Y136193D01*
X227187Y136083D01*
X227150Y135975D01*
X227108Y135869D01*
X227063Y135764D01*
X227015Y135661D01*
X226962Y135559D01*
X226907Y135459D01*
X226847Y135361D01*
X226785Y135266D01*
X226719Y135172D01*
X226650Y135081D01*
X226578Y134993D01*
X226502Y134907D01*
X226424Y134823D01*
X226343Y134743D01*
X226259Y134665D01*
X226173Y134591D01*
X226084Y134519D01*
X225992Y134451D01*
X225898Y134385D01*
X225802Y134323D01*
X225704Y134265D01*
X225604Y134210D01*
X225502Y134158D01*
X225398Y134110D01*
X225293Y134066D01*
X225186Y134026D01*
X225078Y133989D01*
X224968Y133956D01*
X224858Y133927D01*
X224747Y133901D01*
X224634Y133880D01*
X224521Y133862D01*
X224408Y133849D01*
X224294Y133839D01*
X224180Y133834D01*
X224066Y133832D01*
X167361Y98010D02*
X159995Y98010D01*
X167361Y98010D02*
X167361Y101284D01*
X165724Y104090D02*
X159995Y105727D01*
X165724Y104090D02*
X165724Y108182D01*
X164087Y106955D02*
X167361Y106955D01*
X200144Y114949D02*
X200144Y122315D01*
X200144Y114949D02*
X203418Y114949D01*
X206224Y114949D02*
X208679Y114949D01*
X208757Y114951D01*
X208835Y114956D01*
X208912Y114966D01*
X208989Y114979D01*
X209065Y114995D01*
X209140Y115015D01*
X209214Y115039D01*
X209287Y115066D01*
X209359Y115097D01*
X209429Y115131D01*
X209498Y115168D01*
X209564Y115209D01*
X209629Y115253D01*
X209691Y115299D01*
X209751Y115349D01*
X209809Y115401D01*
X209864Y115456D01*
X209916Y115514D01*
X209966Y115574D01*
X210012Y115636D01*
X210056Y115701D01*
X210097Y115768D01*
X210134Y115836D01*
X210168Y115906D01*
X210199Y115978D01*
X210226Y116051D01*
X210250Y116125D01*
X210270Y116200D01*
X210286Y116276D01*
X210299Y116353D01*
X210309Y116430D01*
X210314Y116508D01*
X210316Y116586D01*
X210316Y117404D01*
X210314Y117482D01*
X210309Y117560D01*
X210299Y117637D01*
X210286Y117714D01*
X210270Y117790D01*
X210250Y117865D01*
X210226Y117939D01*
X210199Y118012D01*
X210168Y118084D01*
X210134Y118154D01*
X210097Y118223D01*
X210056Y118289D01*
X210012Y118354D01*
X209966Y118416D01*
X209916Y118476D01*
X209864Y118534D01*
X209809Y118589D01*
X209751Y118641D01*
X209691Y118691D01*
X209629Y118737D01*
X209564Y118781D01*
X209498Y118822D01*
X209429Y118859D01*
X209359Y118893D01*
X209287Y118924D01*
X209214Y118951D01*
X209140Y118975D01*
X209065Y118995D01*
X208989Y119011D01*
X208912Y119024D01*
X208835Y119034D01*
X208757Y119039D01*
X208679Y119041D01*
X206224Y119041D01*
X206224Y122315D01*
X210316Y122315D01*
X195043Y133541D02*
X195120Y140907D01*
X195043Y133541D02*
X198316Y133507D01*
X201166Y137569D02*
X203621Y137544D01*
X203699Y137541D01*
X203777Y137535D01*
X203854Y137525D01*
X203931Y137511D01*
X204007Y137494D01*
X204082Y137473D01*
X204156Y137448D01*
X204228Y137420D01*
X204300Y137389D01*
X204369Y137354D01*
X204437Y137316D01*
X204503Y137275D01*
X204567Y137230D01*
X204629Y137183D01*
X204689Y137133D01*
X204746Y137080D01*
X204801Y137024D01*
X204852Y136966D01*
X204901Y136905D01*
X204947Y136843D01*
X204990Y136778D01*
X205030Y136711D01*
X205067Y136642D01*
X205100Y136571D01*
X205130Y136499D01*
X205156Y136426D01*
X205179Y136352D01*
X205199Y136276D01*
X205215Y136200D01*
X205227Y136123D01*
X205235Y136046D01*
X205240Y135968D01*
X205241Y135890D01*
X205236Y135480D01*
X205236Y135481D02*
X205233Y135391D01*
X205226Y135302D01*
X205216Y135214D01*
X205201Y135126D01*
X205183Y135038D01*
X205161Y134952D01*
X205135Y134866D01*
X205105Y134782D01*
X205072Y134699D01*
X205035Y134618D01*
X204995Y134538D01*
X204951Y134461D01*
X204904Y134385D01*
X204854Y134311D01*
X204800Y134240D01*
X204743Y134171D01*
X204684Y134104D01*
X204622Y134040D01*
X204556Y133979D01*
X204489Y133921D01*
X204418Y133866D01*
X204346Y133814D01*
X204271Y133765D01*
X204194Y133720D01*
X204116Y133677D01*
X204035Y133639D01*
X203953Y133604D01*
X203870Y133572D01*
X203785Y133544D01*
X203699Y133520D01*
X203612Y133500D01*
X203524Y133483D01*
X203436Y133471D01*
X203347Y133462D01*
X203258Y133457D01*
X203169Y133456D01*
X203079Y133459D01*
X202990Y133466D01*
X202902Y133476D01*
X202814Y133491D01*
X202726Y133509D01*
X202640Y133531D01*
X202554Y133557D01*
X202470Y133587D01*
X202387Y133620D01*
X202306Y133657D01*
X202226Y133697D01*
X202149Y133741D01*
X202073Y133788D01*
X201999Y133838D01*
X201928Y133892D01*
X201859Y133949D01*
X201792Y134008D01*
X201728Y134070D01*
X201667Y134136D01*
X201609Y134203D01*
X201554Y134274D01*
X201502Y134346D01*
X201453Y134421D01*
X201407Y134498D01*
X201365Y134576D01*
X201327Y134657D01*
X201292Y134739D01*
X201260Y134822D01*
X201232Y134907D01*
X201208Y134993D01*
X201188Y135080D01*
X201171Y135168D01*
X201159Y135256D01*
X201150Y135345D01*
X201145Y135434D01*
X201144Y135523D01*
X201166Y137569D01*
X201165Y137569D02*
X201168Y137684D01*
X201176Y137798D01*
X201187Y137911D01*
X201202Y138025D01*
X201221Y138137D01*
X201244Y138249D01*
X201271Y138360D01*
X201301Y138470D01*
X201336Y138579D01*
X201374Y138687D01*
X201416Y138793D01*
X201462Y138898D01*
X201512Y139001D01*
X201564Y139102D01*
X201621Y139202D01*
X201681Y139299D01*
X201744Y139394D01*
X201811Y139487D01*
X201880Y139578D01*
X201953Y139666D01*
X202029Y139751D01*
X202108Y139834D01*
X202189Y139914D01*
X202274Y139991D01*
X202361Y140065D01*
X202450Y140136D01*
X202542Y140204D01*
X202637Y140268D01*
X202733Y140330D01*
X202832Y140387D01*
X202932Y140442D01*
X203035Y140493D01*
X203139Y140540D01*
X203244Y140583D01*
X203351Y140623D01*
X203460Y140659D01*
X203570Y140691D01*
X203680Y140720D01*
X203792Y140744D01*
X203904Y140765D01*
X204017Y140782D01*
X204131Y140794D01*
X204245Y140803D01*
X204359Y140808D01*
X204473Y140809D01*
X132538Y189586D02*
X125172Y189586D01*
X125172Y191632D01*
X125174Y191721D01*
X125180Y191810D01*
X125190Y191899D01*
X125203Y191987D01*
X125220Y192075D01*
X125242Y192162D01*
X125267Y192247D01*
X125295Y192332D01*
X125328Y192415D01*
X125364Y192497D01*
X125403Y192577D01*
X125446Y192655D01*
X125492Y192731D01*
X125542Y192806D01*
X125595Y192878D01*
X125651Y192947D01*
X125710Y193014D01*
X125771Y193079D01*
X125836Y193140D01*
X125903Y193199D01*
X125972Y193255D01*
X126044Y193308D01*
X126119Y193358D01*
X126195Y193404D01*
X126273Y193447D01*
X126353Y193486D01*
X126435Y193522D01*
X126518Y193555D01*
X126603Y193583D01*
X126688Y193608D01*
X126775Y193630D01*
X126863Y193647D01*
X126951Y193660D01*
X127040Y193670D01*
X127129Y193676D01*
X127218Y193678D01*
X127307Y193676D01*
X127396Y193670D01*
X127485Y193660D01*
X127573Y193647D01*
X127661Y193630D01*
X127748Y193608D01*
X127833Y193583D01*
X127918Y193555D01*
X128001Y193522D01*
X128083Y193486D01*
X128163Y193447D01*
X128241Y193404D01*
X128317Y193358D01*
X128392Y193308D01*
X128464Y193255D01*
X128533Y193199D01*
X128600Y193140D01*
X128665Y193079D01*
X128726Y193014D01*
X128785Y192947D01*
X128841Y192878D01*
X128894Y192806D01*
X128944Y192731D01*
X128990Y192655D01*
X129033Y192577D01*
X129072Y192497D01*
X129108Y192415D01*
X129141Y192332D01*
X129169Y192247D01*
X129194Y192162D01*
X129216Y192075D01*
X129233Y191987D01*
X129246Y191899D01*
X129256Y191810D01*
X129262Y191721D01*
X129264Y191632D01*
X129264Y189586D01*
X129264Y192041D02*
X132538Y193678D01*
X130901Y196850D02*
X125172Y198487D01*
X130901Y196850D02*
X130901Y200942D01*
X129264Y199715D02*
X132538Y199715D01*
X220048Y104079D02*
X221685Y104073D01*
X220048Y104078D02*
X219968Y104080D01*
X219888Y104086D01*
X219808Y104097D01*
X219729Y104111D01*
X219651Y104128D01*
X219573Y104150D01*
X219497Y104176D01*
X219422Y104205D01*
X219349Y104238D01*
X219277Y104274D01*
X219208Y104314D01*
X219140Y104357D01*
X219074Y104404D01*
X219011Y104453D01*
X218950Y104506D01*
X218892Y104562D01*
X218837Y104620D01*
X218785Y104681D01*
X218736Y104744D01*
X218690Y104810D01*
X218647Y104878D01*
X218608Y104948D01*
X218572Y105020D01*
X218539Y105094D01*
X218511Y105169D01*
X218486Y105245D01*
X218465Y105323D01*
X218447Y105401D01*
X218434Y105480D01*
X218424Y105560D01*
X218419Y105640D01*
X218417Y105721D01*
X218431Y109813D01*
X218431Y109814D02*
X218433Y109894D01*
X218439Y109974D01*
X218450Y110054D01*
X218464Y110133D01*
X218481Y110211D01*
X218503Y110289D01*
X218529Y110365D01*
X218558Y110440D01*
X218591Y110513D01*
X218627Y110585D01*
X218667Y110654D01*
X218710Y110722D01*
X218757Y110788D01*
X218806Y110851D01*
X218859Y110912D01*
X218915Y110970D01*
X218973Y111025D01*
X219034Y111077D01*
X219097Y111126D01*
X219163Y111172D01*
X219231Y111215D01*
X219301Y111254D01*
X219373Y111290D01*
X219447Y111323D01*
X219522Y111351D01*
X219598Y111376D01*
X219676Y111397D01*
X219754Y111415D01*
X219833Y111428D01*
X219913Y111438D01*
X219993Y111443D01*
X220074Y111445D01*
X220074Y111444D02*
X221710Y111439D01*
X226806Y111420D02*
X226891Y111418D01*
X226976Y111412D01*
X227061Y111401D01*
X227145Y111387D01*
X227228Y111370D01*
X227310Y111348D01*
X227391Y111323D01*
X227471Y111293D01*
X227549Y111261D01*
X227626Y111224D01*
X227701Y111184D01*
X227775Y111141D01*
X227846Y111094D01*
X227915Y111044D01*
X227981Y110991D01*
X228045Y110935D01*
X228106Y110876D01*
X228165Y110815D01*
X228220Y110750D01*
X228273Y110683D01*
X228322Y110614D01*
X228369Y110543D01*
X228411Y110469D01*
X228451Y110394D01*
X228487Y110317D01*
X228519Y110238D01*
X228548Y110158D01*
X228572Y110077D01*
X228594Y109994D01*
X228611Y109911D01*
X228624Y109827D01*
X228634Y109742D01*
X228639Y109658D01*
X228641Y109573D01*
X226806Y111421D02*
X226710Y111419D01*
X226614Y111414D01*
X226519Y111404D01*
X226424Y111391D01*
X226329Y111374D01*
X226236Y111353D01*
X226143Y111329D01*
X226051Y111300D01*
X225961Y111268D01*
X225872Y111232D01*
X225784Y111193D01*
X225698Y111150D01*
X225614Y111104D01*
X225532Y111054D01*
X225452Y111001D01*
X225374Y110945D01*
X225299Y110886D01*
X225226Y110823D01*
X225156Y110758D01*
X225088Y110690D01*
X225023Y110619D01*
X224961Y110546D01*
X224902Y110470D01*
X224846Y110392D01*
X224794Y110312D01*
X224744Y110230D01*
X224698Y110145D01*
X224656Y110059D01*
X224617Y109972D01*
X224581Y109882D01*
X224550Y109792D01*
X228023Y108143D02*
X228083Y108202D01*
X228141Y108264D01*
X228195Y108328D01*
X228247Y108394D01*
X228296Y108463D01*
X228342Y108533D01*
X228386Y108606D01*
X228425Y108680D01*
X228462Y108756D01*
X228496Y108833D01*
X228526Y108912D01*
X228553Y108992D01*
X228576Y109073D01*
X228596Y109155D01*
X228612Y109238D01*
X228625Y109321D01*
X228634Y109405D01*
X228640Y109489D01*
X228642Y109573D01*
X228023Y108143D02*
X224530Y104063D01*
X228622Y104049D01*
X231865Y109766D02*
X233917Y111396D01*
X233891Y104030D01*
X231845Y104037D02*
X235937Y104023D01*
D16*
X136977Y261789D02*
X60977Y261789D01*
X60977Y215789D02*
X136977Y215789D01*
D12*
X34408Y234838D02*
X32771Y234838D01*
X32693Y234840D01*
X32615Y234845D01*
X32538Y234855D01*
X32461Y234868D01*
X32385Y234884D01*
X32310Y234904D01*
X32236Y234928D01*
X32163Y234955D01*
X32091Y234986D01*
X32021Y235020D01*
X31952Y235057D01*
X31886Y235098D01*
X31821Y235142D01*
X31759Y235188D01*
X31699Y235238D01*
X31641Y235290D01*
X31586Y235345D01*
X31534Y235403D01*
X31484Y235463D01*
X31438Y235525D01*
X31394Y235590D01*
X31353Y235657D01*
X31316Y235725D01*
X31282Y235795D01*
X31251Y235867D01*
X31224Y235940D01*
X31200Y236014D01*
X31180Y236089D01*
X31164Y236165D01*
X31151Y236242D01*
X31141Y236319D01*
X31136Y236397D01*
X31134Y236475D01*
X31134Y240567D01*
X31136Y240647D01*
X31142Y240727D01*
X31152Y240807D01*
X31165Y240886D01*
X31183Y240965D01*
X31204Y241042D01*
X31230Y241118D01*
X31259Y241193D01*
X31291Y241267D01*
X31327Y241339D01*
X31367Y241409D01*
X31410Y241476D01*
X31456Y241542D01*
X31506Y241605D01*
X31558Y241666D01*
X31613Y241725D01*
X31672Y241780D01*
X31732Y241832D01*
X31796Y241882D01*
X31862Y241928D01*
X31929Y241971D01*
X31999Y242011D01*
X32071Y242047D01*
X32145Y242079D01*
X32219Y242108D01*
X32296Y242134D01*
X32373Y242155D01*
X32452Y242173D01*
X32531Y242186D01*
X32611Y242196D01*
X32691Y242202D01*
X32771Y242204D01*
X34408Y242204D01*
X39504Y242204D02*
X39589Y242202D01*
X39674Y242196D01*
X39758Y242186D01*
X39842Y242173D01*
X39926Y242155D01*
X40008Y242134D01*
X40089Y242109D01*
X40169Y242080D01*
X40248Y242047D01*
X40325Y242011D01*
X40400Y241971D01*
X40474Y241928D01*
X40545Y241882D01*
X40614Y241832D01*
X40681Y241779D01*
X40745Y241723D01*
X40806Y241664D01*
X40865Y241603D01*
X40921Y241539D01*
X40974Y241472D01*
X41024Y241403D01*
X41070Y241332D01*
X41113Y241258D01*
X41153Y241183D01*
X41189Y241106D01*
X41222Y241027D01*
X41251Y240947D01*
X41276Y240866D01*
X41297Y240784D01*
X41315Y240700D01*
X41328Y240616D01*
X41338Y240532D01*
X41344Y240447D01*
X41346Y240362D01*
X39504Y242204D02*
X39408Y242202D01*
X39312Y242196D01*
X39217Y242186D01*
X39122Y242173D01*
X39027Y242155D01*
X38934Y242134D01*
X38841Y242109D01*
X38750Y242080D01*
X38659Y242048D01*
X38570Y242012D01*
X38483Y241972D01*
X38397Y241929D01*
X38313Y241883D01*
X38231Y241833D01*
X38151Y241779D01*
X38074Y241723D01*
X37999Y241663D01*
X37926Y241601D01*
X37856Y241535D01*
X37788Y241467D01*
X37723Y241396D01*
X37662Y241323D01*
X37603Y241247D01*
X37547Y241168D01*
X37495Y241088D01*
X37446Y241005D01*
X37400Y240921D01*
X37358Y240835D01*
X37320Y240747D01*
X37285Y240658D01*
X37253Y240567D01*
X40732Y238930D02*
X40792Y238989D01*
X40849Y239051D01*
X40904Y239115D01*
X40955Y239182D01*
X41004Y239251D01*
X41050Y239321D01*
X41093Y239394D01*
X41133Y239468D01*
X41169Y239544D01*
X41202Y239622D01*
X41232Y239701D01*
X41259Y239781D01*
X41282Y239862D01*
X41301Y239944D01*
X41317Y240026D01*
X41330Y240110D01*
X41339Y240194D01*
X41344Y240278D01*
X41346Y240362D01*
X40732Y238930D02*
X37253Y234838D01*
X41346Y234838D01*
X44569Y234838D02*
X46615Y234838D01*
X46704Y234840D01*
X46793Y234846D01*
X46882Y234856D01*
X46970Y234869D01*
X47058Y234886D01*
X47145Y234908D01*
X47230Y234933D01*
X47315Y234961D01*
X47398Y234994D01*
X47480Y235030D01*
X47560Y235069D01*
X47638Y235112D01*
X47714Y235158D01*
X47789Y235208D01*
X47861Y235261D01*
X47930Y235317D01*
X47997Y235376D01*
X48062Y235437D01*
X48123Y235502D01*
X48182Y235569D01*
X48238Y235638D01*
X48291Y235710D01*
X48341Y235785D01*
X48387Y235861D01*
X48430Y235939D01*
X48469Y236019D01*
X48505Y236101D01*
X48538Y236184D01*
X48566Y236269D01*
X48591Y236354D01*
X48613Y236441D01*
X48630Y236529D01*
X48643Y236617D01*
X48653Y236706D01*
X48659Y236795D01*
X48661Y236884D01*
X48659Y236973D01*
X48653Y237062D01*
X48643Y237151D01*
X48630Y237239D01*
X48613Y237327D01*
X48591Y237414D01*
X48566Y237499D01*
X48538Y237584D01*
X48505Y237667D01*
X48469Y237749D01*
X48430Y237829D01*
X48387Y237907D01*
X48341Y237983D01*
X48291Y238058D01*
X48238Y238130D01*
X48182Y238199D01*
X48123Y238266D01*
X48062Y238331D01*
X47997Y238392D01*
X47930Y238451D01*
X47861Y238507D01*
X47789Y238560D01*
X47714Y238610D01*
X47638Y238656D01*
X47560Y238699D01*
X47480Y238738D01*
X47398Y238774D01*
X47315Y238807D01*
X47230Y238835D01*
X47145Y238860D01*
X47058Y238882D01*
X46970Y238899D01*
X46882Y238912D01*
X46793Y238922D01*
X46704Y238928D01*
X46615Y238930D01*
X47024Y242204D02*
X44569Y242204D01*
X47024Y242204D02*
X47103Y242202D01*
X47182Y242196D01*
X47261Y242187D01*
X47339Y242174D01*
X47416Y242156D01*
X47492Y242136D01*
X47567Y242111D01*
X47641Y242083D01*
X47714Y242052D01*
X47785Y242016D01*
X47854Y241978D01*
X47921Y241936D01*
X47986Y241891D01*
X48049Y241843D01*
X48110Y241792D01*
X48167Y241738D01*
X48223Y241682D01*
X48275Y241623D01*
X48325Y241561D01*
X48371Y241497D01*
X48415Y241431D01*
X48455Y241363D01*
X48491Y241293D01*
X48525Y241221D01*
X48555Y241147D01*
X48581Y241073D01*
X48604Y240997D01*
X48622Y240920D01*
X48638Y240843D01*
X48649Y240764D01*
X48657Y240686D01*
X48661Y240607D01*
X48661Y240527D01*
X48657Y240448D01*
X48649Y240370D01*
X48638Y240291D01*
X48622Y240214D01*
X48604Y240137D01*
X48581Y240061D01*
X48555Y239987D01*
X48525Y239913D01*
X48491Y239841D01*
X48455Y239771D01*
X48415Y239703D01*
X48371Y239637D01*
X48325Y239573D01*
X48275Y239511D01*
X48223Y239452D01*
X48167Y239396D01*
X48110Y239342D01*
X48049Y239291D01*
X47986Y239243D01*
X47921Y239198D01*
X47854Y239156D01*
X47785Y239118D01*
X47714Y239082D01*
X47641Y239051D01*
X47567Y239023D01*
X47492Y238998D01*
X47416Y238978D01*
X47339Y238960D01*
X47261Y238947D01*
X47182Y238938D01*
X47103Y238932D01*
X47024Y238930D01*
X45387Y238930D01*
X13996Y89291D02*
X6630Y89291D01*
X9903Y89291D02*
X9903Y93383D01*
X6630Y93383D02*
X13996Y93383D01*
X13996Y98409D02*
X6630Y98409D01*
X6630Y96363D02*
X6630Y100455D01*
X6630Y103434D02*
X11949Y103434D01*
X12038Y103436D01*
X12127Y103442D01*
X12216Y103452D01*
X12304Y103465D01*
X12392Y103482D01*
X12479Y103504D01*
X12564Y103529D01*
X12649Y103557D01*
X12732Y103590D01*
X12814Y103626D01*
X12894Y103665D01*
X12972Y103708D01*
X13048Y103754D01*
X13123Y103804D01*
X13195Y103857D01*
X13264Y103913D01*
X13331Y103972D01*
X13396Y104033D01*
X13457Y104098D01*
X13516Y104165D01*
X13572Y104234D01*
X13625Y104306D01*
X13675Y104381D01*
X13721Y104457D01*
X13764Y104535D01*
X13803Y104615D01*
X13839Y104697D01*
X13872Y104780D01*
X13900Y104865D01*
X13925Y104950D01*
X13947Y105037D01*
X13964Y105125D01*
X13977Y105213D01*
X13987Y105302D01*
X13993Y105391D01*
X13995Y105480D01*
X13993Y105569D01*
X13987Y105658D01*
X13977Y105747D01*
X13964Y105835D01*
X13947Y105923D01*
X13925Y106010D01*
X13900Y106095D01*
X13872Y106180D01*
X13839Y106263D01*
X13803Y106345D01*
X13764Y106425D01*
X13721Y106503D01*
X13675Y106579D01*
X13625Y106654D01*
X13572Y106726D01*
X13516Y106795D01*
X13457Y106862D01*
X13396Y106927D01*
X13331Y106988D01*
X13264Y107047D01*
X13195Y107103D01*
X13123Y107156D01*
X13048Y107206D01*
X12972Y107252D01*
X12894Y107295D01*
X12814Y107334D01*
X12732Y107370D01*
X12649Y107403D01*
X12564Y107431D01*
X12479Y107456D01*
X12392Y107478D01*
X12304Y107495D01*
X12216Y107508D01*
X12127Y107518D01*
X12038Y107524D01*
X11949Y107526D01*
X6630Y107526D01*
X6629Y113244D02*
X6631Y113329D01*
X6637Y113414D01*
X6647Y113498D01*
X6660Y113582D01*
X6678Y113666D01*
X6699Y113748D01*
X6724Y113829D01*
X6753Y113909D01*
X6786Y113988D01*
X6822Y114065D01*
X6862Y114140D01*
X6905Y114214D01*
X6951Y114285D01*
X7001Y114354D01*
X7054Y114421D01*
X7110Y114485D01*
X7169Y114546D01*
X7230Y114605D01*
X7294Y114661D01*
X7361Y114714D01*
X7430Y114764D01*
X7501Y114810D01*
X7575Y114853D01*
X7650Y114893D01*
X7727Y114929D01*
X7806Y114962D01*
X7886Y114991D01*
X7967Y115016D01*
X8049Y115037D01*
X8133Y115055D01*
X8217Y115068D01*
X8301Y115078D01*
X8386Y115084D01*
X8471Y115086D01*
X6629Y113244D02*
X6631Y113148D01*
X6637Y113052D01*
X6647Y112957D01*
X6660Y112862D01*
X6678Y112767D01*
X6699Y112674D01*
X6724Y112581D01*
X6753Y112490D01*
X6785Y112399D01*
X6821Y112310D01*
X6861Y112223D01*
X6904Y112137D01*
X6950Y112053D01*
X7000Y111971D01*
X7054Y111891D01*
X7110Y111814D01*
X7170Y111739D01*
X7232Y111666D01*
X7298Y111596D01*
X7366Y111528D01*
X7437Y111463D01*
X7510Y111402D01*
X7586Y111343D01*
X7665Y111287D01*
X7745Y111235D01*
X7828Y111186D01*
X7912Y111140D01*
X7998Y111098D01*
X8086Y111060D01*
X8175Y111025D01*
X8266Y110993D01*
X9903Y114471D02*
X9844Y114531D01*
X9782Y114588D01*
X9718Y114643D01*
X9651Y114694D01*
X9582Y114743D01*
X9512Y114789D01*
X9439Y114832D01*
X9365Y114872D01*
X9289Y114908D01*
X9211Y114941D01*
X9132Y114971D01*
X9052Y114998D01*
X8971Y115021D01*
X8889Y115040D01*
X8807Y115056D01*
X8723Y115069D01*
X8639Y115078D01*
X8555Y115083D01*
X8471Y115085D01*
X9903Y114471D02*
X13996Y110993D01*
X13996Y115085D01*
X8266Y118308D02*
X6630Y120354D01*
X13996Y120354D01*
X13996Y118308D02*
X13996Y122400D01*
X39863Y39878D02*
X41500Y39878D01*
X39863Y39878D02*
X39785Y39880D01*
X39707Y39885D01*
X39630Y39895D01*
X39553Y39908D01*
X39477Y39924D01*
X39402Y39944D01*
X39328Y39968D01*
X39255Y39995D01*
X39183Y40026D01*
X39113Y40060D01*
X39045Y40097D01*
X38978Y40138D01*
X38913Y40182D01*
X38851Y40228D01*
X38791Y40278D01*
X38733Y40330D01*
X38678Y40385D01*
X38626Y40443D01*
X38576Y40503D01*
X38530Y40565D01*
X38486Y40630D01*
X38445Y40697D01*
X38408Y40765D01*
X38374Y40835D01*
X38343Y40907D01*
X38316Y40980D01*
X38292Y41054D01*
X38272Y41129D01*
X38256Y41205D01*
X38243Y41282D01*
X38233Y41359D01*
X38228Y41437D01*
X38226Y41515D01*
X38227Y41515D02*
X38227Y45607D01*
X38226Y45607D02*
X38228Y45687D01*
X38234Y45767D01*
X38244Y45847D01*
X38257Y45926D01*
X38275Y46005D01*
X38296Y46082D01*
X38322Y46158D01*
X38351Y46233D01*
X38383Y46307D01*
X38419Y46379D01*
X38459Y46449D01*
X38502Y46516D01*
X38548Y46582D01*
X38598Y46645D01*
X38650Y46706D01*
X38705Y46765D01*
X38764Y46820D01*
X38824Y46872D01*
X38888Y46922D01*
X38954Y46968D01*
X39021Y47011D01*
X39091Y47051D01*
X39163Y47087D01*
X39237Y47119D01*
X39311Y47148D01*
X39388Y47174D01*
X39465Y47195D01*
X39544Y47213D01*
X39623Y47226D01*
X39703Y47236D01*
X39783Y47242D01*
X39863Y47244D01*
X41500Y47244D01*
X46596Y47245D02*
X46681Y47243D01*
X46766Y47237D01*
X46850Y47227D01*
X46934Y47214D01*
X47018Y47196D01*
X47100Y47175D01*
X47181Y47150D01*
X47261Y47121D01*
X47340Y47088D01*
X47417Y47052D01*
X47492Y47012D01*
X47566Y46969D01*
X47637Y46923D01*
X47706Y46873D01*
X47773Y46820D01*
X47837Y46764D01*
X47898Y46705D01*
X47957Y46644D01*
X48013Y46580D01*
X48066Y46513D01*
X48116Y46444D01*
X48162Y46373D01*
X48205Y46299D01*
X48245Y46224D01*
X48281Y46147D01*
X48314Y46068D01*
X48343Y45988D01*
X48368Y45907D01*
X48389Y45825D01*
X48407Y45741D01*
X48420Y45657D01*
X48430Y45573D01*
X48436Y45488D01*
X48438Y45403D01*
X46596Y47244D02*
X46500Y47242D01*
X46404Y47236D01*
X46309Y47226D01*
X46214Y47213D01*
X46119Y47195D01*
X46026Y47174D01*
X45933Y47149D01*
X45842Y47120D01*
X45751Y47088D01*
X45662Y47052D01*
X45575Y47012D01*
X45489Y46969D01*
X45405Y46923D01*
X45323Y46873D01*
X45243Y46819D01*
X45166Y46763D01*
X45091Y46703D01*
X45018Y46641D01*
X44948Y46575D01*
X44880Y46507D01*
X44815Y46436D01*
X44754Y46363D01*
X44695Y46287D01*
X44639Y46208D01*
X44587Y46128D01*
X44538Y46045D01*
X44492Y45961D01*
X44450Y45875D01*
X44412Y45787D01*
X44377Y45698D01*
X44345Y45607D01*
X47824Y43971D02*
X47884Y44030D01*
X47941Y44092D01*
X47996Y44156D01*
X48047Y44223D01*
X48096Y44292D01*
X48142Y44362D01*
X48185Y44435D01*
X48225Y44509D01*
X48261Y44585D01*
X48294Y44663D01*
X48324Y44742D01*
X48351Y44822D01*
X48374Y44903D01*
X48393Y44985D01*
X48409Y45067D01*
X48422Y45151D01*
X48431Y45235D01*
X48436Y45319D01*
X48438Y45403D01*
X47824Y43970D02*
X44346Y39878D01*
X48438Y39878D01*
X51661Y41515D02*
X53298Y47244D01*
X51661Y41515D02*
X55753Y41515D01*
X54525Y43152D02*
X54525Y39878D01*
D17*
X47928Y30534D02*
X47852Y30532D01*
X47776Y30526D01*
X47701Y30517D01*
X47626Y30503D01*
X47552Y30486D01*
X47479Y30465D01*
X47407Y30441D01*
X47336Y30412D01*
X47267Y30381D01*
X47200Y30346D01*
X47135Y30307D01*
X47071Y30265D01*
X47010Y30220D01*
X46951Y30172D01*
X46895Y30121D01*
X46841Y30067D01*
X46790Y30011D01*
X46742Y29952D01*
X46697Y29891D01*
X46655Y29827D01*
X46616Y29762D01*
X46581Y29695D01*
X46550Y29626D01*
X46521Y29555D01*
X46497Y29483D01*
X46476Y29410D01*
X46459Y29336D01*
X46445Y29261D01*
X46436Y29186D01*
X46430Y29110D01*
X46428Y29034D01*
X47928Y30534D02*
X69428Y30534D01*
X69928Y30534D01*
X70004Y30532D01*
X70080Y30526D01*
X70155Y30517D01*
X70230Y30503D01*
X70304Y30486D01*
X70377Y30465D01*
X70449Y30441D01*
X70520Y30412D01*
X70589Y30381D01*
X70656Y30346D01*
X70721Y30307D01*
X70785Y30265D01*
X70846Y30220D01*
X70905Y30172D01*
X70961Y30121D01*
X71015Y30067D01*
X71066Y30011D01*
X71114Y29952D01*
X71159Y29891D01*
X71201Y29827D01*
X71240Y29762D01*
X71275Y29695D01*
X71306Y29626D01*
X71335Y29555D01*
X71359Y29483D01*
X71380Y29410D01*
X71397Y29336D01*
X71411Y29261D01*
X71420Y29186D01*
X71426Y29110D01*
X71428Y29034D01*
X71428Y7534D01*
X71428Y7034D01*
X71426Y6958D01*
X71420Y6882D01*
X71411Y6807D01*
X71397Y6732D01*
X71380Y6658D01*
X71359Y6585D01*
X71335Y6513D01*
X71306Y6442D01*
X71275Y6373D01*
X71240Y6306D01*
X71201Y6241D01*
X71159Y6177D01*
X71114Y6116D01*
X71066Y6057D01*
X71015Y6001D01*
X70961Y5947D01*
X70905Y5896D01*
X70846Y5848D01*
X70785Y5803D01*
X70721Y5761D01*
X70656Y5722D01*
X70589Y5687D01*
X70520Y5656D01*
X70449Y5627D01*
X70377Y5603D01*
X70304Y5582D01*
X70230Y5565D01*
X70155Y5551D01*
X70080Y5542D01*
X70004Y5536D01*
X69928Y5534D01*
X48428Y5534D01*
X47928Y5534D01*
X47852Y5536D01*
X47776Y5542D01*
X47701Y5551D01*
X47626Y5565D01*
X47552Y5582D01*
X47479Y5603D01*
X47407Y5627D01*
X47336Y5656D01*
X47267Y5687D01*
X47200Y5722D01*
X47135Y5761D01*
X47071Y5803D01*
X47010Y5848D01*
X46951Y5896D01*
X46895Y5947D01*
X46841Y6001D01*
X46790Y6057D01*
X46742Y6116D01*
X46697Y6177D01*
X46655Y6241D01*
X46616Y6306D01*
X46581Y6373D01*
X46550Y6442D01*
X46521Y6513D01*
X46497Y6585D01*
X46476Y6658D01*
X46459Y6732D01*
X46445Y6807D01*
X46436Y6882D01*
X46430Y6958D01*
X46428Y7034D01*
X46428Y29034D01*
D18*
X47928Y28034D02*
X47930Y28094D01*
X47935Y28155D01*
X47944Y28214D01*
X47957Y28273D01*
X47973Y28332D01*
X47993Y28389D01*
X48016Y28444D01*
X48043Y28499D01*
X48072Y28551D01*
X48105Y28602D01*
X48141Y28651D01*
X48179Y28697D01*
X48221Y28741D01*
X48265Y28783D01*
X48311Y28821D01*
X48360Y28857D01*
X48411Y28890D01*
X48463Y28919D01*
X48518Y28946D01*
X48573Y28969D01*
X48630Y28989D01*
X48689Y29005D01*
X48748Y29018D01*
X48807Y29027D01*
X48868Y29032D01*
X48928Y29034D01*
X47928Y8034D02*
X47930Y7974D01*
X47935Y7913D01*
X47944Y7854D01*
X47957Y7795D01*
X47973Y7736D01*
X47993Y7679D01*
X48016Y7624D01*
X48043Y7569D01*
X48072Y7517D01*
X48105Y7466D01*
X48141Y7417D01*
X48179Y7371D01*
X48221Y7327D01*
X48265Y7285D01*
X48311Y7247D01*
X48360Y7211D01*
X48411Y7178D01*
X48463Y7149D01*
X48518Y7122D01*
X48573Y7099D01*
X48630Y7079D01*
X48689Y7063D01*
X48748Y7050D01*
X48807Y7041D01*
X48868Y7036D01*
X48928Y7034D01*
X68928Y7034D02*
X68988Y7036D01*
X69049Y7041D01*
X69108Y7050D01*
X69167Y7063D01*
X69226Y7079D01*
X69283Y7099D01*
X69338Y7122D01*
X69393Y7149D01*
X69445Y7178D01*
X69496Y7211D01*
X69545Y7247D01*
X69591Y7285D01*
X69635Y7327D01*
X69677Y7371D01*
X69715Y7417D01*
X69751Y7466D01*
X69784Y7517D01*
X69813Y7569D01*
X69840Y7624D01*
X69863Y7679D01*
X69883Y7736D01*
X69899Y7795D01*
X69912Y7854D01*
X69921Y7913D01*
X69926Y7974D01*
X69928Y8034D01*
X69928Y28034D02*
X69926Y28094D01*
X69921Y28155D01*
X69912Y28214D01*
X69899Y28273D01*
X69883Y28332D01*
X69863Y28389D01*
X69840Y28444D01*
X69813Y28499D01*
X69784Y28551D01*
X69751Y28602D01*
X69715Y28651D01*
X69677Y28697D01*
X69635Y28741D01*
X69591Y28783D01*
X69545Y28821D01*
X69496Y28857D01*
X69445Y28890D01*
X69393Y28919D01*
X69338Y28946D01*
X69283Y28969D01*
X69226Y28989D01*
X69167Y29005D01*
X69108Y29018D01*
X69049Y29027D01*
X68988Y29032D01*
X68928Y29034D01*
D17*
X67428Y13034D02*
X67430Y13097D01*
X67436Y13159D01*
X67446Y13221D01*
X67459Y13283D01*
X67477Y13343D01*
X67498Y13402D01*
X67523Y13460D01*
X67552Y13516D01*
X67584Y13570D01*
X67619Y13622D01*
X67657Y13671D01*
X67699Y13719D01*
X67743Y13763D01*
X67791Y13805D01*
X67840Y13843D01*
X67892Y13878D01*
X67946Y13910D01*
X68002Y13939D01*
X68060Y13964D01*
X68119Y13985D01*
X68179Y14003D01*
X68241Y14016D01*
X68303Y14026D01*
X68365Y14032D01*
X68428Y14034D01*
X68491Y14032D01*
X68553Y14026D01*
X68615Y14016D01*
X68677Y14003D01*
X68737Y13985D01*
X68796Y13964D01*
X68854Y13939D01*
X68910Y13910D01*
X68964Y13878D01*
X69016Y13843D01*
X69065Y13805D01*
X69113Y13763D01*
X69157Y13719D01*
X69199Y13671D01*
X69237Y13622D01*
X69272Y13570D01*
X69304Y13516D01*
X69333Y13460D01*
X69358Y13402D01*
X69379Y13343D01*
X69397Y13283D01*
X69410Y13221D01*
X69420Y13159D01*
X69426Y13097D01*
X69428Y13034D01*
X69426Y12971D01*
X69420Y12909D01*
X69410Y12847D01*
X69397Y12785D01*
X69379Y12725D01*
X69358Y12666D01*
X69333Y12608D01*
X69304Y12552D01*
X69272Y12498D01*
X69237Y12446D01*
X69199Y12397D01*
X69157Y12349D01*
X69113Y12305D01*
X69065Y12263D01*
X69016Y12225D01*
X68964Y12190D01*
X68910Y12158D01*
X68854Y12129D01*
X68796Y12104D01*
X68737Y12083D01*
X68677Y12065D01*
X68615Y12052D01*
X68553Y12042D01*
X68491Y12036D01*
X68428Y12034D01*
X68365Y12036D01*
X68303Y12042D01*
X68241Y12052D01*
X68179Y12065D01*
X68119Y12083D01*
X68060Y12104D01*
X68002Y12129D01*
X67946Y12158D01*
X67892Y12190D01*
X67840Y12225D01*
X67791Y12263D01*
X67743Y12305D01*
X67699Y12349D01*
X67657Y12397D01*
X67619Y12446D01*
X67584Y12498D01*
X67552Y12552D01*
X67523Y12608D01*
X67498Y12666D01*
X67477Y12725D01*
X67459Y12785D01*
X67446Y12847D01*
X67436Y12909D01*
X67430Y12971D01*
X67428Y13034D01*
D12*
X79166Y6521D02*
X79166Y4475D01*
X79166Y6521D02*
X79168Y6610D01*
X79174Y6699D01*
X79184Y6788D01*
X79197Y6876D01*
X79214Y6964D01*
X79236Y7051D01*
X79261Y7136D01*
X79289Y7221D01*
X79322Y7304D01*
X79358Y7386D01*
X79397Y7466D01*
X79440Y7544D01*
X79486Y7620D01*
X79536Y7695D01*
X79589Y7767D01*
X79645Y7836D01*
X79704Y7903D01*
X79765Y7968D01*
X79830Y8029D01*
X79897Y8088D01*
X79966Y8144D01*
X80038Y8197D01*
X80113Y8247D01*
X80189Y8293D01*
X80267Y8336D01*
X80347Y8375D01*
X80429Y8411D01*
X80512Y8444D01*
X80597Y8472D01*
X80682Y8497D01*
X80769Y8519D01*
X80857Y8536D01*
X80945Y8549D01*
X81034Y8559D01*
X81123Y8565D01*
X81212Y8567D01*
X81301Y8565D01*
X81390Y8559D01*
X81479Y8549D01*
X81567Y8536D01*
X81655Y8519D01*
X81742Y8497D01*
X81827Y8472D01*
X81912Y8444D01*
X81995Y8411D01*
X82077Y8375D01*
X82157Y8336D01*
X82235Y8293D01*
X82311Y8247D01*
X82386Y8197D01*
X82458Y8144D01*
X82527Y8088D01*
X82594Y8029D01*
X82659Y7968D01*
X82720Y7903D01*
X82779Y7836D01*
X82835Y7767D01*
X82888Y7695D01*
X82938Y7620D01*
X82984Y7544D01*
X83027Y7466D01*
X83066Y7386D01*
X83102Y7304D01*
X83135Y7221D01*
X83163Y7136D01*
X83188Y7051D01*
X83210Y6964D01*
X83227Y6876D01*
X83240Y6788D01*
X83250Y6699D01*
X83256Y6610D01*
X83258Y6521D01*
X83258Y4475D01*
X75892Y4475D01*
X75892Y6521D01*
X75894Y6600D01*
X75900Y6679D01*
X75909Y6758D01*
X75922Y6836D01*
X75940Y6913D01*
X75960Y6989D01*
X75985Y7064D01*
X76013Y7138D01*
X76044Y7211D01*
X76080Y7282D01*
X76118Y7351D01*
X76160Y7418D01*
X76205Y7483D01*
X76253Y7546D01*
X76304Y7607D01*
X76358Y7664D01*
X76414Y7720D01*
X76473Y7772D01*
X76535Y7822D01*
X76599Y7868D01*
X76665Y7912D01*
X76733Y7952D01*
X76803Y7988D01*
X76875Y8022D01*
X76949Y8052D01*
X77023Y8078D01*
X77099Y8101D01*
X77176Y8119D01*
X77253Y8135D01*
X77332Y8146D01*
X77410Y8154D01*
X77489Y8158D01*
X77569Y8158D01*
X77648Y8154D01*
X77726Y8146D01*
X77805Y8135D01*
X77882Y8119D01*
X77959Y8101D01*
X78035Y8078D01*
X78109Y8052D01*
X78183Y8022D01*
X78255Y7988D01*
X78325Y7952D01*
X78393Y7912D01*
X78459Y7868D01*
X78523Y7822D01*
X78585Y7772D01*
X78644Y7720D01*
X78700Y7664D01*
X78754Y7607D01*
X78805Y7546D01*
X78853Y7483D01*
X78898Y7418D01*
X78940Y7351D01*
X78978Y7282D01*
X79014Y7211D01*
X79045Y7138D01*
X79073Y7064D01*
X79098Y6989D01*
X79118Y6913D01*
X79136Y6836D01*
X79149Y6758D01*
X79158Y6679D01*
X79164Y6600D01*
X79166Y6521D01*
X75892Y11751D02*
X83258Y11751D01*
X79984Y14206D02*
X75892Y11751D01*
X79984Y14206D02*
X75892Y16662D01*
X83258Y16662D01*
X83258Y20466D02*
X83258Y23740D01*
X83258Y20466D02*
X75892Y20466D01*
X75892Y23740D01*
X79166Y22922D02*
X79166Y20466D01*
X75892Y28797D02*
X75894Y28882D01*
X75900Y28967D01*
X75910Y29051D01*
X75923Y29135D01*
X75941Y29219D01*
X75962Y29301D01*
X75987Y29382D01*
X76016Y29462D01*
X76049Y29541D01*
X76085Y29618D01*
X76125Y29693D01*
X76168Y29767D01*
X76214Y29838D01*
X76264Y29907D01*
X76317Y29974D01*
X76373Y30038D01*
X76432Y30099D01*
X76493Y30158D01*
X76557Y30214D01*
X76624Y30267D01*
X76693Y30317D01*
X76764Y30363D01*
X76838Y30406D01*
X76913Y30446D01*
X76990Y30482D01*
X77069Y30515D01*
X77149Y30544D01*
X77230Y30569D01*
X77312Y30590D01*
X77396Y30608D01*
X77480Y30621D01*
X77564Y30631D01*
X77649Y30637D01*
X77734Y30639D01*
X75892Y28797D02*
X75894Y28701D01*
X75900Y28605D01*
X75910Y28510D01*
X75923Y28415D01*
X75941Y28320D01*
X75962Y28227D01*
X75987Y28134D01*
X76016Y28043D01*
X76048Y27952D01*
X76084Y27863D01*
X76124Y27776D01*
X76167Y27690D01*
X76213Y27606D01*
X76263Y27524D01*
X76317Y27444D01*
X76373Y27367D01*
X76433Y27292D01*
X76495Y27219D01*
X76561Y27149D01*
X76629Y27081D01*
X76700Y27016D01*
X76773Y26955D01*
X76849Y26896D01*
X76928Y26840D01*
X77008Y26788D01*
X77091Y26739D01*
X77175Y26693D01*
X77261Y26651D01*
X77349Y26613D01*
X77438Y26578D01*
X77529Y26546D01*
X79166Y30025D02*
X79107Y30085D01*
X79045Y30142D01*
X78981Y30197D01*
X78914Y30248D01*
X78845Y30297D01*
X78775Y30343D01*
X78702Y30386D01*
X78628Y30426D01*
X78552Y30462D01*
X78474Y30495D01*
X78395Y30525D01*
X78315Y30552D01*
X78234Y30575D01*
X78152Y30594D01*
X78070Y30610D01*
X77986Y30623D01*
X77902Y30632D01*
X77818Y30637D01*
X77734Y30639D01*
X79166Y30025D02*
X83258Y26547D01*
X83258Y30639D01*
X81212Y33862D02*
X81123Y33864D01*
X81034Y33870D01*
X80945Y33880D01*
X80857Y33893D01*
X80769Y33910D01*
X80682Y33932D01*
X80597Y33957D01*
X80512Y33985D01*
X80429Y34018D01*
X80347Y34054D01*
X80267Y34093D01*
X80189Y34136D01*
X80113Y34182D01*
X80038Y34232D01*
X79966Y34285D01*
X79897Y34341D01*
X79830Y34400D01*
X79765Y34461D01*
X79704Y34526D01*
X79645Y34593D01*
X79589Y34662D01*
X79536Y34734D01*
X79486Y34809D01*
X79440Y34885D01*
X79397Y34963D01*
X79358Y35043D01*
X79322Y35125D01*
X79289Y35208D01*
X79261Y35293D01*
X79236Y35378D01*
X79214Y35465D01*
X79197Y35553D01*
X79184Y35641D01*
X79174Y35730D01*
X79168Y35819D01*
X79166Y35908D01*
X79168Y35997D01*
X79174Y36086D01*
X79184Y36175D01*
X79197Y36263D01*
X79214Y36351D01*
X79236Y36438D01*
X79261Y36523D01*
X79289Y36608D01*
X79322Y36691D01*
X79358Y36773D01*
X79397Y36853D01*
X79440Y36931D01*
X79486Y37007D01*
X79536Y37082D01*
X79589Y37154D01*
X79645Y37223D01*
X79704Y37290D01*
X79765Y37355D01*
X79830Y37416D01*
X79897Y37475D01*
X79966Y37531D01*
X80038Y37584D01*
X80113Y37634D01*
X80189Y37680D01*
X80267Y37723D01*
X80347Y37762D01*
X80429Y37798D01*
X80512Y37831D01*
X80597Y37859D01*
X80682Y37884D01*
X80769Y37906D01*
X80857Y37923D01*
X80945Y37936D01*
X81034Y37946D01*
X81123Y37952D01*
X81212Y37954D01*
X81301Y37952D01*
X81390Y37946D01*
X81479Y37936D01*
X81567Y37923D01*
X81655Y37906D01*
X81742Y37884D01*
X81827Y37859D01*
X81912Y37831D01*
X81995Y37798D01*
X82077Y37762D01*
X82157Y37723D01*
X82235Y37680D01*
X82311Y37634D01*
X82386Y37584D01*
X82458Y37531D01*
X82527Y37475D01*
X82594Y37416D01*
X82659Y37355D01*
X82720Y37290D01*
X82779Y37223D01*
X82835Y37154D01*
X82888Y37082D01*
X82938Y37007D01*
X82984Y36931D01*
X83027Y36853D01*
X83066Y36773D01*
X83102Y36691D01*
X83135Y36608D01*
X83163Y36523D01*
X83188Y36438D01*
X83210Y36351D01*
X83227Y36263D01*
X83240Y36175D01*
X83250Y36086D01*
X83256Y35997D01*
X83258Y35908D01*
X83256Y35819D01*
X83250Y35730D01*
X83240Y35641D01*
X83227Y35553D01*
X83210Y35465D01*
X83188Y35378D01*
X83163Y35293D01*
X83135Y35208D01*
X83102Y35125D01*
X83066Y35043D01*
X83027Y34963D01*
X82984Y34885D01*
X82938Y34809D01*
X82888Y34734D01*
X82835Y34662D01*
X82779Y34593D01*
X82720Y34526D01*
X82659Y34461D01*
X82594Y34400D01*
X82527Y34341D01*
X82458Y34285D01*
X82386Y34232D01*
X82311Y34182D01*
X82235Y34136D01*
X82157Y34093D01*
X82077Y34054D01*
X81995Y34018D01*
X81912Y33985D01*
X81827Y33957D01*
X81742Y33932D01*
X81655Y33910D01*
X81567Y33893D01*
X81479Y33880D01*
X81390Y33870D01*
X81301Y33864D01*
X81212Y33862D01*
X77529Y34271D02*
X77450Y34273D01*
X77371Y34279D01*
X77292Y34288D01*
X77214Y34301D01*
X77137Y34319D01*
X77061Y34339D01*
X76986Y34364D01*
X76912Y34392D01*
X76839Y34423D01*
X76768Y34459D01*
X76699Y34497D01*
X76632Y34539D01*
X76567Y34584D01*
X76504Y34632D01*
X76443Y34683D01*
X76386Y34737D01*
X76330Y34793D01*
X76278Y34852D01*
X76228Y34914D01*
X76182Y34978D01*
X76138Y35044D01*
X76098Y35112D01*
X76062Y35182D01*
X76028Y35254D01*
X75998Y35328D01*
X75972Y35402D01*
X75949Y35478D01*
X75931Y35555D01*
X75915Y35632D01*
X75904Y35711D01*
X75896Y35789D01*
X75892Y35868D01*
X75892Y35948D01*
X75896Y36027D01*
X75904Y36105D01*
X75915Y36184D01*
X75931Y36261D01*
X75949Y36338D01*
X75972Y36414D01*
X75998Y36488D01*
X76028Y36562D01*
X76062Y36634D01*
X76098Y36704D01*
X76138Y36772D01*
X76182Y36838D01*
X76228Y36902D01*
X76278Y36964D01*
X76330Y37023D01*
X76386Y37079D01*
X76443Y37133D01*
X76504Y37184D01*
X76567Y37232D01*
X76632Y37277D01*
X76699Y37319D01*
X76768Y37357D01*
X76839Y37393D01*
X76912Y37424D01*
X76986Y37452D01*
X77061Y37477D01*
X77137Y37497D01*
X77214Y37515D01*
X77292Y37528D01*
X77371Y37537D01*
X77450Y37543D01*
X77529Y37545D01*
X77608Y37543D01*
X77687Y37537D01*
X77766Y37528D01*
X77844Y37515D01*
X77921Y37497D01*
X77997Y37477D01*
X78072Y37452D01*
X78146Y37424D01*
X78219Y37393D01*
X78290Y37357D01*
X78359Y37319D01*
X78426Y37277D01*
X78491Y37232D01*
X78554Y37184D01*
X78615Y37133D01*
X78672Y37079D01*
X78728Y37023D01*
X78780Y36964D01*
X78830Y36902D01*
X78876Y36838D01*
X78920Y36772D01*
X78960Y36704D01*
X78996Y36634D01*
X79030Y36562D01*
X79060Y36488D01*
X79086Y36414D01*
X79109Y36338D01*
X79127Y36261D01*
X79143Y36184D01*
X79154Y36105D01*
X79162Y36027D01*
X79166Y35948D01*
X79166Y35868D01*
X79162Y35789D01*
X79154Y35711D01*
X79143Y35632D01*
X79127Y35555D01*
X79109Y35478D01*
X79086Y35402D01*
X79060Y35328D01*
X79030Y35254D01*
X78996Y35182D01*
X78960Y35112D01*
X78920Y35044D01*
X78876Y34978D01*
X78830Y34914D01*
X78780Y34852D01*
X78728Y34793D01*
X78672Y34737D01*
X78615Y34683D01*
X78554Y34632D01*
X78491Y34584D01*
X78426Y34539D01*
X78359Y34497D01*
X78290Y34459D01*
X78219Y34423D01*
X78146Y34392D01*
X78072Y34364D01*
X77997Y34339D01*
X77921Y34319D01*
X77844Y34301D01*
X77766Y34288D01*
X77687Y34279D01*
X77608Y34273D01*
X77529Y34271D01*
X79575Y41177D02*
X79422Y41179D01*
X79269Y41185D01*
X79117Y41194D01*
X78964Y41208D01*
X78812Y41225D01*
X78661Y41246D01*
X78510Y41271D01*
X78360Y41300D01*
X78210Y41332D01*
X78062Y41369D01*
X77914Y41409D01*
X77767Y41452D01*
X77622Y41500D01*
X77478Y41551D01*
X77335Y41605D01*
X77193Y41664D01*
X77054Y41725D01*
X76915Y41791D01*
X76845Y41817D01*
X76775Y41847D01*
X76708Y41880D01*
X76642Y41916D01*
X76578Y41955D01*
X76516Y41998D01*
X76457Y42044D01*
X76399Y42092D01*
X76345Y42143D01*
X76292Y42197D01*
X76243Y42254D01*
X76196Y42313D01*
X76153Y42374D01*
X76112Y42437D01*
X76075Y42502D01*
X76040Y42569D01*
X76010Y42638D01*
X75982Y42708D01*
X75959Y42779D01*
X75938Y42851D01*
X75922Y42924D01*
X75909Y42998D01*
X75899Y43073D01*
X75894Y43148D01*
X75892Y43223D01*
X75894Y43298D01*
X75899Y43373D01*
X75909Y43448D01*
X75922Y43522D01*
X75938Y43595D01*
X75959Y43667D01*
X75982Y43738D01*
X76010Y43808D01*
X76040Y43877D01*
X76075Y43944D01*
X76112Y44009D01*
X76153Y44072D01*
X76196Y44133D01*
X76243Y44192D01*
X76292Y44249D01*
X76345Y44303D01*
X76399Y44354D01*
X76457Y44403D01*
X76516Y44448D01*
X76578Y44491D01*
X76642Y44530D01*
X76708Y44567D01*
X76776Y44599D01*
X76845Y44629D01*
X76915Y44655D01*
X77053Y44720D01*
X77193Y44782D01*
X77335Y44840D01*
X77478Y44895D01*
X77622Y44946D01*
X77767Y44994D01*
X77914Y45037D01*
X78061Y45077D01*
X78210Y45114D01*
X78360Y45146D01*
X78510Y45175D01*
X78661Y45200D01*
X78812Y45221D01*
X78964Y45238D01*
X79117Y45252D01*
X79269Y45261D01*
X79422Y45267D01*
X79575Y45269D01*
X79575Y41178D02*
X79728Y41180D01*
X79881Y41186D01*
X80033Y41195D01*
X80186Y41209D01*
X80338Y41226D01*
X80489Y41247D01*
X80640Y41272D01*
X80790Y41301D01*
X80940Y41333D01*
X81088Y41370D01*
X81236Y41410D01*
X81383Y41453D01*
X81528Y41501D01*
X81672Y41552D01*
X81815Y41606D01*
X81957Y41665D01*
X82096Y41726D01*
X82235Y41792D01*
X82235Y41791D02*
X82306Y41817D01*
X82375Y41847D01*
X82442Y41880D01*
X82508Y41916D01*
X82572Y41955D01*
X82634Y41998D01*
X82693Y42044D01*
X82751Y42092D01*
X82805Y42143D01*
X82858Y42197D01*
X82907Y42254D01*
X82954Y42313D01*
X82997Y42374D01*
X83038Y42437D01*
X83075Y42502D01*
X83110Y42569D01*
X83140Y42638D01*
X83168Y42708D01*
X83191Y42779D01*
X83212Y42851D01*
X83228Y42924D01*
X83241Y42998D01*
X83251Y43073D01*
X83256Y43148D01*
X83258Y43223D01*
X82235Y44655D02*
X82097Y44720D01*
X81957Y44782D01*
X81815Y44840D01*
X81672Y44895D01*
X81528Y44946D01*
X81383Y44994D01*
X81236Y45037D01*
X81089Y45077D01*
X80940Y45114D01*
X80790Y45146D01*
X80640Y45175D01*
X80489Y45200D01*
X80338Y45221D01*
X80186Y45238D01*
X80033Y45252D01*
X79881Y45261D01*
X79728Y45267D01*
X79575Y45269D01*
X82235Y44655D02*
X82305Y44629D01*
X82375Y44599D01*
X82442Y44566D01*
X82508Y44530D01*
X82572Y44491D01*
X82634Y44448D01*
X82693Y44402D01*
X82751Y44354D01*
X82805Y44303D01*
X82858Y44249D01*
X82907Y44192D01*
X82954Y44133D01*
X82997Y44072D01*
X83038Y44009D01*
X83075Y43944D01*
X83110Y43877D01*
X83140Y43808D01*
X83168Y43738D01*
X83191Y43667D01*
X83212Y43595D01*
X83228Y43522D01*
X83241Y43448D01*
X83251Y43373D01*
X83256Y43298D01*
X83258Y43223D01*
X81621Y41586D02*
X77529Y44860D01*
X22705Y89281D02*
X21068Y89281D01*
X20990Y89283D01*
X20912Y89288D01*
X20835Y89298D01*
X20758Y89311D01*
X20682Y89327D01*
X20607Y89347D01*
X20533Y89371D01*
X20460Y89398D01*
X20388Y89429D01*
X20318Y89463D01*
X20249Y89500D01*
X20183Y89541D01*
X20118Y89585D01*
X20056Y89631D01*
X19996Y89681D01*
X19938Y89733D01*
X19883Y89788D01*
X19831Y89846D01*
X19781Y89906D01*
X19735Y89968D01*
X19691Y90033D01*
X19650Y90100D01*
X19613Y90168D01*
X19579Y90238D01*
X19548Y90310D01*
X19521Y90383D01*
X19497Y90457D01*
X19477Y90532D01*
X19461Y90608D01*
X19448Y90685D01*
X19438Y90762D01*
X19433Y90840D01*
X19431Y90918D01*
X19431Y95010D01*
X19433Y95090D01*
X19439Y95170D01*
X19449Y95250D01*
X19462Y95329D01*
X19480Y95408D01*
X19501Y95485D01*
X19527Y95561D01*
X19556Y95636D01*
X19588Y95710D01*
X19624Y95782D01*
X19664Y95852D01*
X19707Y95919D01*
X19753Y95985D01*
X19803Y96048D01*
X19855Y96109D01*
X19910Y96168D01*
X19969Y96223D01*
X20029Y96275D01*
X20093Y96325D01*
X20159Y96371D01*
X20226Y96414D01*
X20296Y96454D01*
X20368Y96490D01*
X20442Y96522D01*
X20516Y96551D01*
X20593Y96577D01*
X20670Y96598D01*
X20749Y96616D01*
X20828Y96629D01*
X20908Y96639D01*
X20988Y96645D01*
X21068Y96647D01*
X22705Y96647D01*
X27801Y96648D02*
X27886Y96646D01*
X27971Y96640D01*
X28055Y96630D01*
X28139Y96617D01*
X28223Y96599D01*
X28305Y96578D01*
X28386Y96553D01*
X28466Y96524D01*
X28545Y96491D01*
X28622Y96455D01*
X28697Y96415D01*
X28771Y96372D01*
X28842Y96326D01*
X28911Y96276D01*
X28978Y96223D01*
X29042Y96167D01*
X29103Y96108D01*
X29162Y96047D01*
X29218Y95983D01*
X29271Y95916D01*
X29321Y95847D01*
X29367Y95776D01*
X29410Y95702D01*
X29450Y95627D01*
X29486Y95550D01*
X29519Y95471D01*
X29548Y95391D01*
X29573Y95310D01*
X29594Y95228D01*
X29612Y95144D01*
X29625Y95060D01*
X29635Y94976D01*
X29641Y94891D01*
X29643Y94806D01*
X27801Y96647D02*
X27705Y96645D01*
X27609Y96639D01*
X27514Y96629D01*
X27419Y96616D01*
X27324Y96598D01*
X27231Y96577D01*
X27138Y96552D01*
X27047Y96523D01*
X26956Y96491D01*
X26867Y96455D01*
X26780Y96415D01*
X26694Y96372D01*
X26610Y96326D01*
X26528Y96276D01*
X26448Y96222D01*
X26371Y96166D01*
X26296Y96106D01*
X26223Y96044D01*
X26153Y95978D01*
X26085Y95910D01*
X26020Y95839D01*
X25959Y95766D01*
X25900Y95690D01*
X25844Y95611D01*
X25792Y95531D01*
X25743Y95448D01*
X25697Y95364D01*
X25655Y95278D01*
X25617Y95190D01*
X25582Y95101D01*
X25550Y95010D01*
X29028Y93374D02*
X29088Y93433D01*
X29145Y93495D01*
X29200Y93559D01*
X29251Y93626D01*
X29300Y93695D01*
X29346Y93765D01*
X29389Y93838D01*
X29429Y93912D01*
X29465Y93988D01*
X29498Y94066D01*
X29528Y94145D01*
X29555Y94225D01*
X29578Y94306D01*
X29597Y94388D01*
X29613Y94470D01*
X29626Y94554D01*
X29635Y94638D01*
X29640Y94722D01*
X29642Y94806D01*
X29028Y93373D02*
X25550Y89281D01*
X29642Y89281D01*
X32865Y89281D02*
X35321Y89281D01*
X35399Y89283D01*
X35477Y89288D01*
X35554Y89298D01*
X35631Y89311D01*
X35707Y89327D01*
X35782Y89347D01*
X35856Y89371D01*
X35929Y89398D01*
X36001Y89429D01*
X36071Y89463D01*
X36140Y89500D01*
X36206Y89541D01*
X36271Y89585D01*
X36333Y89631D01*
X36393Y89681D01*
X36451Y89733D01*
X36506Y89788D01*
X36558Y89846D01*
X36608Y89906D01*
X36654Y89968D01*
X36698Y90033D01*
X36739Y90100D01*
X36776Y90168D01*
X36810Y90238D01*
X36841Y90310D01*
X36868Y90383D01*
X36892Y90457D01*
X36912Y90532D01*
X36928Y90608D01*
X36941Y90685D01*
X36951Y90762D01*
X36956Y90840D01*
X36958Y90918D01*
X36958Y91736D01*
X36956Y91814D01*
X36951Y91892D01*
X36941Y91969D01*
X36928Y92046D01*
X36912Y92122D01*
X36892Y92197D01*
X36868Y92271D01*
X36841Y92344D01*
X36810Y92416D01*
X36776Y92486D01*
X36739Y92555D01*
X36698Y92621D01*
X36654Y92686D01*
X36608Y92748D01*
X36558Y92808D01*
X36506Y92866D01*
X36451Y92921D01*
X36393Y92973D01*
X36333Y93023D01*
X36271Y93069D01*
X36206Y93113D01*
X36140Y93154D01*
X36071Y93191D01*
X36001Y93225D01*
X35929Y93256D01*
X35856Y93283D01*
X35782Y93307D01*
X35707Y93327D01*
X35631Y93343D01*
X35554Y93356D01*
X35477Y93366D01*
X35399Y93371D01*
X35321Y93373D01*
X32865Y93373D01*
X32865Y96647D01*
X36958Y96647D01*
D10*
X117270Y32010D02*
X227670Y32010D01*
X228047Y32005D01*
X228425Y31992D01*
X228801Y31969D01*
X229178Y31937D01*
X229553Y31895D01*
X229927Y31845D01*
X230300Y31785D01*
X230671Y31717D01*
X231040Y31639D01*
X231408Y31553D01*
X231773Y31457D01*
X232136Y31353D01*
X232496Y31240D01*
X232853Y31118D01*
X233207Y30987D01*
X233558Y30848D01*
X233905Y30700D01*
X234249Y30544D01*
X234589Y30380D01*
X234925Y30207D01*
X235256Y30027D01*
X235583Y29838D01*
X235905Y29641D01*
X236222Y29437D01*
X236535Y29225D01*
X236842Y29005D01*
X237143Y28778D01*
X237439Y28544D01*
X237729Y28302D01*
X238013Y28054D01*
X238291Y27799D01*
X238563Y27537D01*
X238829Y27268D01*
X239087Y26993D01*
X239339Y26712D01*
X239584Y26425D01*
X239822Y26132D01*
X240053Y25833D01*
X240276Y25529D01*
X240492Y25219D01*
X240700Y24904D01*
X240901Y24585D01*
X241093Y24260D01*
X241278Y23931D01*
X241455Y23597D01*
X241623Y23259D01*
X241784Y22918D01*
X241935Y22572D01*
X242079Y22223D01*
X242214Y21870D01*
X242340Y21515D01*
X242457Y21156D01*
X242566Y20794D01*
X242666Y20430D01*
X242757Y20064D01*
X242839Y19696D01*
X242912Y19325D01*
X242976Y18953D01*
X243031Y18580D01*
X243077Y18205D01*
X243114Y17830D01*
X243141Y17453D01*
X243160Y17076D01*
X243169Y16699D01*
X243169Y16321D01*
X243160Y15944D01*
X243141Y15567D01*
X243114Y15190D01*
X243077Y14815D01*
X243031Y14440D01*
X242976Y14067D01*
X242912Y13695D01*
X242839Y13324D01*
X242757Y12956D01*
X242666Y12590D01*
X242566Y12226D01*
X242457Y11864D01*
X242340Y11505D01*
X242214Y11150D01*
X242079Y10797D01*
X241935Y10448D01*
X241784Y10102D01*
X241623Y9761D01*
X241455Y9423D01*
X241278Y9089D01*
X241093Y8760D01*
X240901Y8435D01*
X240700Y8116D01*
X240492Y7801D01*
X240276Y7491D01*
X240053Y7187D01*
X239822Y6888D01*
X239584Y6595D01*
X239339Y6308D01*
X239087Y6027D01*
X238829Y5752D01*
X238563Y5483D01*
X238291Y5221D01*
X238013Y4966D01*
X237729Y4718D01*
X237439Y4476D01*
X237143Y4242D01*
X236842Y4015D01*
X236535Y3795D01*
X236222Y3583D01*
X235905Y3379D01*
X235583Y3182D01*
X235256Y2993D01*
X234925Y2813D01*
X234589Y2640D01*
X234249Y2476D01*
X233905Y2320D01*
X233558Y2172D01*
X233207Y2033D01*
X232853Y1902D01*
X232496Y1780D01*
X232136Y1667D01*
X231773Y1563D01*
X231408Y1467D01*
X231040Y1381D01*
X230671Y1303D01*
X230300Y1235D01*
X229927Y1175D01*
X229553Y1125D01*
X229178Y1083D01*
X228801Y1051D01*
X228425Y1028D01*
X228047Y1015D01*
X227670Y1010D01*
X117270Y1010D01*
X116893Y1015D01*
X116515Y1028D01*
X116139Y1051D01*
X115762Y1083D01*
X115387Y1125D01*
X115013Y1175D01*
X114640Y1235D01*
X114269Y1303D01*
X113900Y1381D01*
X113532Y1467D01*
X113167Y1563D01*
X112804Y1667D01*
X112444Y1780D01*
X112087Y1902D01*
X111733Y2033D01*
X111382Y2172D01*
X111035Y2320D01*
X110691Y2476D01*
X110351Y2640D01*
X110015Y2813D01*
X109684Y2993D01*
X109357Y3182D01*
X109035Y3379D01*
X108718Y3583D01*
X108405Y3795D01*
X108098Y4015D01*
X107797Y4242D01*
X107501Y4476D01*
X107211Y4718D01*
X106927Y4966D01*
X106649Y5221D01*
X106377Y5483D01*
X106111Y5752D01*
X105853Y6027D01*
X105601Y6308D01*
X105356Y6595D01*
X105118Y6888D01*
X104887Y7187D01*
X104664Y7491D01*
X104448Y7801D01*
X104240Y8116D01*
X104039Y8435D01*
X103847Y8760D01*
X103662Y9089D01*
X103485Y9423D01*
X103317Y9761D01*
X103156Y10102D01*
X103005Y10448D01*
X102861Y10797D01*
X102726Y11150D01*
X102600Y11505D01*
X102483Y11864D01*
X102374Y12226D01*
X102274Y12590D01*
X102183Y12956D01*
X102101Y13324D01*
X102028Y13695D01*
X101964Y14067D01*
X101909Y14440D01*
X101863Y14815D01*
X101826Y15190D01*
X101799Y15567D01*
X101780Y15944D01*
X101771Y16321D01*
X101771Y16699D01*
X101780Y17076D01*
X101799Y17453D01*
X101826Y17830D01*
X101863Y18205D01*
X101909Y18580D01*
X101964Y18953D01*
X102028Y19325D01*
X102101Y19696D01*
X102183Y20064D01*
X102274Y20430D01*
X102374Y20794D01*
X102483Y21156D01*
X102600Y21515D01*
X102726Y21870D01*
X102861Y22223D01*
X103005Y22572D01*
X103156Y22918D01*
X103317Y23259D01*
X103485Y23597D01*
X103662Y23931D01*
X103847Y24260D01*
X104039Y24585D01*
X104240Y24904D01*
X104448Y25219D01*
X104664Y25529D01*
X104887Y25833D01*
X105118Y26132D01*
X105356Y26425D01*
X105601Y26712D01*
X105853Y26993D01*
X106111Y27268D01*
X106377Y27537D01*
X106649Y27799D01*
X106927Y28054D01*
X107211Y28302D01*
X107501Y28544D01*
X107797Y28778D01*
X108098Y29005D01*
X108405Y29225D01*
X108718Y29437D01*
X109035Y29641D01*
X109357Y29838D01*
X109684Y30027D01*
X110015Y30207D01*
X110351Y30380D01*
X110691Y30544D01*
X111035Y30700D01*
X111382Y30848D01*
X111733Y30987D01*
X112087Y31118D01*
X112444Y31240D01*
X112804Y31353D01*
X113167Y31457D01*
X113532Y31553D01*
X113900Y31639D01*
X114269Y31717D01*
X114640Y31785D01*
X115013Y31845D01*
X115387Y31895D01*
X115762Y31937D01*
X116139Y31969D01*
X116515Y31992D01*
X116893Y32005D01*
X117270Y32010D01*
D12*
X138430Y37084D02*
X138430Y44450D01*
X140476Y44450D01*
X140565Y44448D01*
X140654Y44442D01*
X140743Y44432D01*
X140831Y44419D01*
X140919Y44402D01*
X141006Y44380D01*
X141091Y44355D01*
X141176Y44327D01*
X141259Y44294D01*
X141341Y44258D01*
X141421Y44219D01*
X141499Y44176D01*
X141575Y44130D01*
X141650Y44080D01*
X141722Y44027D01*
X141791Y43971D01*
X141858Y43912D01*
X141923Y43851D01*
X141984Y43786D01*
X142043Y43719D01*
X142099Y43650D01*
X142152Y43578D01*
X142202Y43503D01*
X142248Y43427D01*
X142291Y43349D01*
X142330Y43269D01*
X142366Y43187D01*
X142399Y43104D01*
X142427Y43019D01*
X142452Y42934D01*
X142474Y42847D01*
X142491Y42759D01*
X142504Y42671D01*
X142514Y42582D01*
X142520Y42493D01*
X142522Y42404D01*
X142520Y42315D01*
X142514Y42226D01*
X142504Y42137D01*
X142491Y42049D01*
X142474Y41961D01*
X142452Y41874D01*
X142427Y41789D01*
X142399Y41704D01*
X142366Y41621D01*
X142330Y41539D01*
X142291Y41459D01*
X142248Y41381D01*
X142202Y41305D01*
X142152Y41230D01*
X142099Y41158D01*
X142043Y41089D01*
X141984Y41022D01*
X141923Y40957D01*
X141858Y40896D01*
X141791Y40837D01*
X141722Y40781D01*
X141650Y40728D01*
X141575Y40678D01*
X141499Y40632D01*
X141421Y40589D01*
X141341Y40550D01*
X141259Y40514D01*
X141176Y40481D01*
X141091Y40453D01*
X141006Y40428D01*
X140919Y40406D01*
X140831Y40389D01*
X140743Y40376D01*
X140654Y40366D01*
X140565Y40360D01*
X140476Y40358D01*
X138430Y40358D01*
X140885Y40358D02*
X142522Y37084D01*
X145954Y37084D02*
X149227Y37084D01*
X145954Y37084D02*
X145954Y44450D01*
X149227Y44450D01*
X148409Y41176D02*
X145954Y41176D01*
X152293Y37084D02*
X155567Y37084D01*
X152293Y37084D02*
X152293Y44450D01*
X155567Y44450D01*
X154749Y41176D02*
X152293Y41176D01*
X158617Y44450D02*
X158617Y37084D01*
X158617Y44450D02*
X160664Y44450D01*
X160753Y44448D01*
X160842Y44442D01*
X160931Y44432D01*
X161019Y44419D01*
X161107Y44402D01*
X161194Y44380D01*
X161279Y44355D01*
X161364Y44327D01*
X161447Y44294D01*
X161529Y44258D01*
X161609Y44219D01*
X161687Y44176D01*
X161763Y44130D01*
X161838Y44080D01*
X161910Y44027D01*
X161979Y43971D01*
X162046Y43912D01*
X162111Y43851D01*
X162172Y43786D01*
X162231Y43719D01*
X162287Y43650D01*
X162340Y43578D01*
X162390Y43503D01*
X162436Y43427D01*
X162479Y43349D01*
X162518Y43269D01*
X162554Y43187D01*
X162587Y43104D01*
X162615Y43019D01*
X162640Y42934D01*
X162662Y42847D01*
X162679Y42759D01*
X162692Y42671D01*
X162702Y42582D01*
X162708Y42493D01*
X162710Y42404D01*
X162710Y39130D01*
X162708Y39041D01*
X162702Y38952D01*
X162692Y38863D01*
X162679Y38775D01*
X162662Y38687D01*
X162640Y38600D01*
X162615Y38515D01*
X162587Y38430D01*
X162554Y38347D01*
X162518Y38265D01*
X162479Y38185D01*
X162436Y38107D01*
X162390Y38031D01*
X162340Y37956D01*
X162287Y37884D01*
X162231Y37815D01*
X162172Y37748D01*
X162111Y37683D01*
X162046Y37622D01*
X161979Y37563D01*
X161910Y37507D01*
X161838Y37454D01*
X161763Y37404D01*
X161687Y37358D01*
X161609Y37315D01*
X161529Y37276D01*
X161447Y37240D01*
X161364Y37207D01*
X161279Y37179D01*
X161194Y37154D01*
X161107Y37132D01*
X161019Y37115D01*
X160931Y37102D01*
X160842Y37092D01*
X160753Y37086D01*
X160664Y37084D01*
X158617Y37084D01*
X168388Y37084D02*
X168466Y37086D01*
X168544Y37091D01*
X168621Y37101D01*
X168698Y37114D01*
X168774Y37130D01*
X168849Y37150D01*
X168923Y37174D01*
X168996Y37201D01*
X169068Y37232D01*
X169138Y37266D01*
X169207Y37303D01*
X169273Y37344D01*
X169338Y37388D01*
X169400Y37434D01*
X169460Y37484D01*
X169518Y37536D01*
X169573Y37591D01*
X169625Y37649D01*
X169675Y37709D01*
X169721Y37771D01*
X169765Y37836D01*
X169806Y37903D01*
X169843Y37971D01*
X169877Y38041D01*
X169908Y38113D01*
X169935Y38186D01*
X169959Y38260D01*
X169979Y38335D01*
X169995Y38411D01*
X170008Y38488D01*
X170018Y38565D01*
X170023Y38643D01*
X170025Y38721D01*
X168388Y37084D02*
X168274Y37086D01*
X168161Y37091D01*
X168047Y37101D01*
X167934Y37114D01*
X167822Y37131D01*
X167710Y37151D01*
X167599Y37175D01*
X167488Y37203D01*
X167379Y37234D01*
X167271Y37269D01*
X167164Y37308D01*
X167058Y37350D01*
X166954Y37395D01*
X166851Y37444D01*
X166750Y37497D01*
X166651Y37552D01*
X166553Y37611D01*
X166458Y37673D01*
X166365Y37738D01*
X166273Y37806D01*
X166185Y37877D01*
X166098Y37951D01*
X166014Y38028D01*
X165933Y38107D01*
X166137Y42813D02*
X166139Y42891D01*
X166144Y42969D01*
X166154Y43046D01*
X166167Y43123D01*
X166183Y43199D01*
X166203Y43274D01*
X166227Y43348D01*
X166254Y43421D01*
X166285Y43493D01*
X166319Y43563D01*
X166356Y43632D01*
X166397Y43698D01*
X166441Y43763D01*
X166487Y43825D01*
X166537Y43885D01*
X166589Y43943D01*
X166644Y43998D01*
X166702Y44050D01*
X166762Y44100D01*
X166824Y44146D01*
X166889Y44190D01*
X166956Y44231D01*
X167024Y44268D01*
X167094Y44302D01*
X167166Y44333D01*
X167239Y44360D01*
X167313Y44384D01*
X167388Y44404D01*
X167464Y44420D01*
X167541Y44433D01*
X167618Y44443D01*
X167696Y44448D01*
X167774Y44450D01*
X167884Y44448D01*
X167993Y44442D01*
X168103Y44432D01*
X168211Y44419D01*
X168320Y44401D01*
X168427Y44380D01*
X168534Y44354D01*
X168640Y44325D01*
X168745Y44293D01*
X168848Y44256D01*
X168950Y44216D01*
X169051Y44172D01*
X169150Y44124D01*
X169247Y44074D01*
X169342Y44019D01*
X169435Y43961D01*
X169526Y43900D01*
X169615Y43836D01*
X166956Y41380D02*
X166889Y41422D01*
X166824Y41466D01*
X166762Y41514D01*
X166702Y41564D01*
X166644Y41617D01*
X166589Y41673D01*
X166537Y41732D01*
X166487Y41792D01*
X166440Y41856D01*
X166397Y41921D01*
X166356Y41988D01*
X166319Y42057D01*
X166285Y42128D01*
X166254Y42200D01*
X166227Y42274D01*
X166203Y42348D01*
X166183Y42424D01*
X166167Y42501D01*
X166154Y42578D01*
X166144Y42656D01*
X166139Y42735D01*
X166137Y42813D01*
X169206Y40153D02*
X169272Y40111D01*
X169337Y40067D01*
X169399Y40020D01*
X169459Y39969D01*
X169517Y39916D01*
X169572Y39860D01*
X169625Y39802D01*
X169674Y39741D01*
X169721Y39678D01*
X169764Y39613D01*
X169805Y39546D01*
X169842Y39477D01*
X169876Y39406D01*
X169907Y39334D01*
X169934Y39260D01*
X169958Y39185D01*
X169978Y39110D01*
X169994Y39033D01*
X170007Y38956D01*
X170017Y38878D01*
X170022Y38799D01*
X170024Y38721D01*
X169206Y40153D02*
X166956Y41381D01*
X172752Y44450D02*
X174389Y37084D01*
X176025Y41995D01*
X177662Y37084D01*
X179299Y44450D01*
X182853Y44450D02*
X182853Y37084D01*
X182035Y37084D02*
X183671Y37084D01*
X183671Y44450D02*
X182035Y44450D01*
X188217Y44450D02*
X188217Y37084D01*
X186171Y44450D02*
X190264Y44450D01*
X194613Y37084D02*
X196250Y37084D01*
X194613Y37084D02*
X194535Y37086D01*
X194457Y37091D01*
X194380Y37101D01*
X194303Y37114D01*
X194227Y37130D01*
X194152Y37150D01*
X194078Y37174D01*
X194005Y37201D01*
X193933Y37232D01*
X193863Y37266D01*
X193795Y37303D01*
X193728Y37344D01*
X193663Y37388D01*
X193601Y37434D01*
X193541Y37484D01*
X193483Y37536D01*
X193428Y37591D01*
X193376Y37649D01*
X193326Y37709D01*
X193280Y37771D01*
X193236Y37836D01*
X193195Y37903D01*
X193158Y37971D01*
X193124Y38041D01*
X193093Y38113D01*
X193066Y38186D01*
X193042Y38260D01*
X193022Y38335D01*
X193006Y38411D01*
X192993Y38488D01*
X192983Y38565D01*
X192978Y38643D01*
X192976Y38721D01*
X192976Y42813D01*
X192978Y42893D01*
X192984Y42973D01*
X192994Y43053D01*
X193007Y43132D01*
X193025Y43211D01*
X193046Y43288D01*
X193072Y43364D01*
X193101Y43439D01*
X193133Y43513D01*
X193169Y43585D01*
X193209Y43655D01*
X193252Y43722D01*
X193298Y43788D01*
X193348Y43851D01*
X193400Y43912D01*
X193455Y43971D01*
X193514Y44026D01*
X193574Y44078D01*
X193638Y44128D01*
X193704Y44174D01*
X193771Y44217D01*
X193841Y44257D01*
X193913Y44293D01*
X193987Y44325D01*
X194061Y44354D01*
X194138Y44380D01*
X194215Y44401D01*
X194294Y44419D01*
X194373Y44432D01*
X194453Y44442D01*
X194533Y44448D01*
X194613Y44450D01*
X196250Y44450D01*
X199339Y44450D02*
X199339Y37084D01*
X199339Y41176D02*
X203431Y41176D01*
X203431Y44450D02*
X203431Y37084D01*
X112952Y49072D02*
X112952Y56438D01*
X114998Y56438D01*
X115087Y56436D01*
X115176Y56430D01*
X115265Y56420D01*
X115353Y56407D01*
X115441Y56390D01*
X115528Y56368D01*
X115613Y56343D01*
X115698Y56315D01*
X115781Y56282D01*
X115863Y56246D01*
X115943Y56207D01*
X116021Y56164D01*
X116097Y56118D01*
X116172Y56068D01*
X116244Y56015D01*
X116313Y55959D01*
X116380Y55900D01*
X116445Y55839D01*
X116506Y55774D01*
X116565Y55707D01*
X116621Y55638D01*
X116674Y55566D01*
X116724Y55491D01*
X116770Y55415D01*
X116813Y55337D01*
X116852Y55257D01*
X116888Y55175D01*
X116921Y55092D01*
X116949Y55007D01*
X116974Y54922D01*
X116996Y54835D01*
X117013Y54747D01*
X117026Y54659D01*
X117036Y54570D01*
X117042Y54481D01*
X117044Y54392D01*
X117042Y54303D01*
X117036Y54214D01*
X117026Y54125D01*
X117013Y54037D01*
X116996Y53949D01*
X116974Y53862D01*
X116949Y53777D01*
X116921Y53692D01*
X116888Y53609D01*
X116852Y53527D01*
X116813Y53447D01*
X116770Y53369D01*
X116724Y53293D01*
X116674Y53218D01*
X116621Y53146D01*
X116565Y53077D01*
X116506Y53010D01*
X116445Y52945D01*
X116380Y52884D01*
X116313Y52825D01*
X116244Y52769D01*
X116172Y52716D01*
X116097Y52666D01*
X116021Y52620D01*
X115943Y52577D01*
X115863Y52538D01*
X115781Y52502D01*
X115698Y52469D01*
X115613Y52441D01*
X115528Y52416D01*
X115441Y52394D01*
X115353Y52377D01*
X115265Y52364D01*
X115176Y52354D01*
X115087Y52348D01*
X114998Y52346D01*
X112952Y52346D01*
X115407Y52346D02*
X117044Y49072D01*
X120216Y49072D02*
X122262Y49072D01*
X122351Y49074D01*
X122440Y49080D01*
X122529Y49090D01*
X122617Y49103D01*
X122705Y49120D01*
X122792Y49142D01*
X122877Y49167D01*
X122962Y49195D01*
X123045Y49228D01*
X123127Y49264D01*
X123207Y49303D01*
X123285Y49346D01*
X123361Y49392D01*
X123436Y49442D01*
X123508Y49495D01*
X123577Y49551D01*
X123644Y49610D01*
X123709Y49671D01*
X123770Y49736D01*
X123829Y49803D01*
X123885Y49872D01*
X123938Y49944D01*
X123988Y50019D01*
X124034Y50095D01*
X124077Y50173D01*
X124116Y50253D01*
X124152Y50335D01*
X124185Y50418D01*
X124213Y50503D01*
X124238Y50588D01*
X124260Y50675D01*
X124277Y50763D01*
X124290Y50851D01*
X124300Y50940D01*
X124306Y51029D01*
X124308Y51118D01*
X124306Y51207D01*
X124300Y51296D01*
X124290Y51385D01*
X124277Y51473D01*
X124260Y51561D01*
X124238Y51648D01*
X124213Y51733D01*
X124185Y51818D01*
X124152Y51901D01*
X124116Y51983D01*
X124077Y52063D01*
X124034Y52141D01*
X123988Y52217D01*
X123938Y52292D01*
X123885Y52364D01*
X123829Y52433D01*
X123770Y52500D01*
X123709Y52565D01*
X123644Y52626D01*
X123577Y52685D01*
X123508Y52741D01*
X123436Y52794D01*
X123361Y52844D01*
X123285Y52890D01*
X123207Y52933D01*
X123127Y52972D01*
X123045Y53008D01*
X122962Y53041D01*
X122877Y53069D01*
X122792Y53094D01*
X122705Y53116D01*
X122617Y53133D01*
X122529Y53146D01*
X122440Y53156D01*
X122351Y53162D01*
X122262Y53164D01*
X122671Y56438D02*
X120216Y56438D01*
X122671Y56438D02*
X122750Y56436D01*
X122829Y56430D01*
X122908Y56421D01*
X122986Y56408D01*
X123063Y56390D01*
X123139Y56370D01*
X123214Y56345D01*
X123288Y56317D01*
X123361Y56286D01*
X123432Y56250D01*
X123501Y56212D01*
X123568Y56170D01*
X123633Y56125D01*
X123696Y56077D01*
X123757Y56026D01*
X123814Y55972D01*
X123870Y55916D01*
X123922Y55857D01*
X123972Y55795D01*
X124018Y55731D01*
X124062Y55665D01*
X124102Y55597D01*
X124138Y55527D01*
X124172Y55455D01*
X124202Y55381D01*
X124228Y55307D01*
X124251Y55231D01*
X124269Y55154D01*
X124285Y55077D01*
X124296Y54998D01*
X124304Y54920D01*
X124308Y54841D01*
X124308Y54761D01*
X124304Y54682D01*
X124296Y54604D01*
X124285Y54525D01*
X124269Y54448D01*
X124251Y54371D01*
X124228Y54295D01*
X124202Y54221D01*
X124172Y54147D01*
X124138Y54075D01*
X124102Y54005D01*
X124062Y53937D01*
X124018Y53871D01*
X123972Y53807D01*
X123922Y53745D01*
X123870Y53686D01*
X123814Y53630D01*
X123757Y53576D01*
X123696Y53525D01*
X123633Y53477D01*
X123568Y53432D01*
X123501Y53390D01*
X123432Y53352D01*
X123361Y53316D01*
X123288Y53285D01*
X123214Y53257D01*
X123139Y53232D01*
X123063Y53212D01*
X122986Y53194D01*
X122908Y53181D01*
X122829Y53172D01*
X122750Y53166D01*
X122671Y53164D01*
X121034Y53164D01*
X42468Y75590D02*
X42468Y82956D01*
X44514Y82956D01*
X44603Y82954D01*
X44692Y82948D01*
X44781Y82938D01*
X44869Y82925D01*
X44957Y82908D01*
X45044Y82886D01*
X45129Y82861D01*
X45214Y82833D01*
X45297Y82800D01*
X45379Y82764D01*
X45459Y82725D01*
X45537Y82682D01*
X45613Y82636D01*
X45688Y82586D01*
X45760Y82533D01*
X45829Y82477D01*
X45896Y82418D01*
X45961Y82357D01*
X46022Y82292D01*
X46081Y82225D01*
X46137Y82156D01*
X46190Y82084D01*
X46240Y82009D01*
X46286Y81933D01*
X46329Y81855D01*
X46368Y81775D01*
X46404Y81693D01*
X46437Y81610D01*
X46465Y81525D01*
X46490Y81440D01*
X46512Y81353D01*
X46529Y81265D01*
X46542Y81177D01*
X46552Y81088D01*
X46558Y80999D01*
X46560Y80910D01*
X46558Y80821D01*
X46552Y80732D01*
X46542Y80643D01*
X46529Y80555D01*
X46512Y80467D01*
X46490Y80380D01*
X46465Y80295D01*
X46437Y80210D01*
X46404Y80127D01*
X46368Y80045D01*
X46329Y79965D01*
X46286Y79887D01*
X46240Y79811D01*
X46190Y79736D01*
X46137Y79664D01*
X46081Y79595D01*
X46022Y79528D01*
X45961Y79463D01*
X45896Y79402D01*
X45829Y79343D01*
X45760Y79287D01*
X45688Y79234D01*
X45613Y79184D01*
X45537Y79138D01*
X45459Y79095D01*
X45379Y79056D01*
X45297Y79020D01*
X45214Y78987D01*
X45129Y78959D01*
X45044Y78934D01*
X44957Y78912D01*
X44869Y78895D01*
X44781Y78882D01*
X44692Y78872D01*
X44603Y78866D01*
X44514Y78864D01*
X42468Y78864D01*
X44923Y78864D02*
X46560Y75590D01*
X49732Y75590D02*
X52187Y75590D01*
X52265Y75592D01*
X52343Y75597D01*
X52420Y75607D01*
X52497Y75620D01*
X52573Y75636D01*
X52648Y75656D01*
X52722Y75680D01*
X52795Y75707D01*
X52867Y75738D01*
X52937Y75772D01*
X53006Y75809D01*
X53072Y75850D01*
X53137Y75894D01*
X53199Y75940D01*
X53259Y75990D01*
X53317Y76042D01*
X53372Y76097D01*
X53424Y76155D01*
X53474Y76215D01*
X53520Y76277D01*
X53564Y76342D01*
X53605Y76409D01*
X53642Y76477D01*
X53676Y76547D01*
X53707Y76619D01*
X53734Y76692D01*
X53758Y76766D01*
X53778Y76841D01*
X53794Y76917D01*
X53807Y76994D01*
X53817Y77071D01*
X53822Y77149D01*
X53824Y77227D01*
X53824Y78045D01*
X53822Y78123D01*
X53817Y78201D01*
X53807Y78278D01*
X53794Y78355D01*
X53778Y78431D01*
X53758Y78506D01*
X53734Y78580D01*
X53707Y78653D01*
X53676Y78725D01*
X53642Y78795D01*
X53605Y78864D01*
X53564Y78930D01*
X53520Y78995D01*
X53474Y79057D01*
X53424Y79117D01*
X53372Y79175D01*
X53317Y79230D01*
X53259Y79282D01*
X53199Y79332D01*
X53137Y79378D01*
X53072Y79422D01*
X53006Y79463D01*
X52937Y79500D01*
X52867Y79534D01*
X52795Y79565D01*
X52722Y79592D01*
X52648Y79616D01*
X52573Y79636D01*
X52497Y79652D01*
X52420Y79665D01*
X52343Y79675D01*
X52265Y79680D01*
X52187Y79682D01*
X49732Y79682D01*
X49732Y82956D01*
X53824Y82956D01*
X67233Y62890D02*
X67233Y55524D01*
X67233Y62890D02*
X69279Y62890D01*
X69368Y62888D01*
X69457Y62882D01*
X69546Y62872D01*
X69634Y62859D01*
X69722Y62842D01*
X69809Y62820D01*
X69894Y62795D01*
X69979Y62767D01*
X70062Y62734D01*
X70144Y62698D01*
X70224Y62659D01*
X70302Y62616D01*
X70378Y62570D01*
X70453Y62520D01*
X70525Y62467D01*
X70594Y62411D01*
X70661Y62352D01*
X70726Y62291D01*
X70787Y62226D01*
X70846Y62159D01*
X70902Y62090D01*
X70955Y62018D01*
X71005Y61943D01*
X71051Y61867D01*
X71094Y61789D01*
X71133Y61709D01*
X71169Y61627D01*
X71202Y61544D01*
X71230Y61459D01*
X71255Y61374D01*
X71277Y61287D01*
X71294Y61199D01*
X71307Y61111D01*
X71317Y61022D01*
X71323Y60933D01*
X71325Y60844D01*
X71323Y60755D01*
X71317Y60666D01*
X71307Y60577D01*
X71294Y60489D01*
X71277Y60401D01*
X71255Y60314D01*
X71230Y60229D01*
X71202Y60144D01*
X71169Y60061D01*
X71133Y59979D01*
X71094Y59899D01*
X71051Y59821D01*
X71005Y59745D01*
X70955Y59670D01*
X70902Y59598D01*
X70846Y59529D01*
X70787Y59462D01*
X70726Y59397D01*
X70661Y59336D01*
X70594Y59277D01*
X70525Y59221D01*
X70453Y59168D01*
X70378Y59118D01*
X70302Y59072D01*
X70224Y59029D01*
X70144Y58990D01*
X70062Y58954D01*
X69979Y58921D01*
X69894Y58893D01*
X69809Y58868D01*
X69722Y58846D01*
X69634Y58829D01*
X69546Y58816D01*
X69457Y58806D01*
X69368Y58800D01*
X69279Y58798D01*
X67233Y58798D01*
X69688Y58798D02*
X71325Y55524D01*
X74497Y59616D02*
X76952Y59616D01*
X77030Y59614D01*
X77108Y59609D01*
X77185Y59599D01*
X77262Y59586D01*
X77338Y59570D01*
X77413Y59550D01*
X77487Y59526D01*
X77560Y59499D01*
X77632Y59468D01*
X77702Y59434D01*
X77771Y59397D01*
X77837Y59356D01*
X77902Y59312D01*
X77964Y59266D01*
X78024Y59216D01*
X78082Y59164D01*
X78137Y59109D01*
X78189Y59051D01*
X78239Y58991D01*
X78285Y58929D01*
X78329Y58864D01*
X78370Y58798D01*
X78407Y58729D01*
X78441Y58659D01*
X78472Y58587D01*
X78499Y58514D01*
X78523Y58440D01*
X78543Y58365D01*
X78559Y58289D01*
X78572Y58212D01*
X78582Y58135D01*
X78587Y58057D01*
X78589Y57979D01*
X78589Y57570D01*
X78587Y57481D01*
X78581Y57392D01*
X78571Y57303D01*
X78558Y57215D01*
X78541Y57127D01*
X78519Y57040D01*
X78494Y56955D01*
X78466Y56870D01*
X78433Y56787D01*
X78397Y56705D01*
X78358Y56625D01*
X78315Y56547D01*
X78269Y56471D01*
X78219Y56396D01*
X78166Y56324D01*
X78110Y56255D01*
X78051Y56188D01*
X77990Y56123D01*
X77925Y56062D01*
X77858Y56003D01*
X77789Y55947D01*
X77717Y55894D01*
X77642Y55844D01*
X77566Y55798D01*
X77488Y55755D01*
X77408Y55716D01*
X77326Y55680D01*
X77243Y55647D01*
X77158Y55619D01*
X77073Y55594D01*
X76986Y55572D01*
X76898Y55555D01*
X76810Y55542D01*
X76721Y55532D01*
X76632Y55526D01*
X76543Y55524D01*
X76454Y55526D01*
X76365Y55532D01*
X76276Y55542D01*
X76188Y55555D01*
X76100Y55572D01*
X76013Y55594D01*
X75928Y55619D01*
X75843Y55647D01*
X75760Y55680D01*
X75678Y55716D01*
X75598Y55755D01*
X75520Y55798D01*
X75444Y55844D01*
X75369Y55894D01*
X75297Y55947D01*
X75228Y56003D01*
X75161Y56062D01*
X75096Y56123D01*
X75035Y56188D01*
X74976Y56255D01*
X74920Y56324D01*
X74867Y56396D01*
X74817Y56471D01*
X74771Y56547D01*
X74728Y56625D01*
X74689Y56705D01*
X74653Y56787D01*
X74620Y56870D01*
X74592Y56955D01*
X74567Y57040D01*
X74545Y57127D01*
X74528Y57215D01*
X74515Y57303D01*
X74505Y57392D01*
X74499Y57481D01*
X74497Y57570D01*
X74497Y59616D01*
X74499Y59730D01*
X74505Y59844D01*
X74515Y59958D01*
X74529Y60072D01*
X74547Y60185D01*
X74569Y60297D01*
X74594Y60408D01*
X74624Y60518D01*
X74657Y60628D01*
X74694Y60736D01*
X74735Y60842D01*
X74780Y60948D01*
X74828Y61051D01*
X74880Y61153D01*
X74936Y61253D01*
X74994Y61351D01*
X75057Y61447D01*
X75122Y61540D01*
X75191Y61632D01*
X75263Y61720D01*
X75338Y61807D01*
X75416Y61890D01*
X75497Y61971D01*
X75580Y62049D01*
X75667Y62124D01*
X75755Y62196D01*
X75847Y62265D01*
X75940Y62330D01*
X76036Y62392D01*
X76134Y62451D01*
X76234Y62507D01*
X76336Y62559D01*
X76439Y62607D01*
X76545Y62652D01*
X76651Y62693D01*
X76759Y62730D01*
X76869Y62763D01*
X76979Y62793D01*
X77090Y62818D01*
X77202Y62840D01*
X77315Y62858D01*
X77429Y62872D01*
X77543Y62882D01*
X77657Y62888D01*
X77771Y62890D01*
D10*
X214884Y249936D02*
X214884Y258064D01*
X214884Y249936D02*
X208296Y249936D01*
X186436Y249936D02*
X186436Y258064D01*
X186436Y249936D02*
X193024Y249936D01*
D16*
X210333Y245237D02*
X210333Y242415D01*
X210333Y245237D02*
X210335Y245320D01*
X210341Y245402D01*
X210350Y245484D01*
X210364Y245566D01*
X210381Y245647D01*
X210402Y245727D01*
X210427Y245806D01*
X210456Y245883D01*
X210488Y245960D01*
X210523Y246034D01*
X210562Y246107D01*
X210605Y246178D01*
X210651Y246247D01*
X210700Y246314D01*
X210752Y246378D01*
X210807Y246440D01*
X210864Y246499D01*
X210925Y246555D01*
X210988Y246609D01*
X211053Y246659D01*
X211121Y246707D01*
X211191Y246751D01*
X211263Y246791D01*
X211337Y246829D01*
X211412Y246863D01*
X211489Y246893D01*
X211568Y246920D01*
X211647Y246943D01*
X211728Y246962D01*
X211809Y246977D01*
X211891Y246989D01*
X211973Y246997D01*
X212056Y247001D01*
X212138Y247001D01*
X212221Y246997D01*
X212303Y246989D01*
X212385Y246977D01*
X212466Y246962D01*
X212547Y246943D01*
X212626Y246920D01*
X212705Y246893D01*
X212782Y246863D01*
X212857Y246829D01*
X212931Y246791D01*
X213003Y246751D01*
X213073Y246707D01*
X213141Y246659D01*
X213206Y246609D01*
X213269Y246555D01*
X213330Y246499D01*
X213387Y246440D01*
X213442Y246378D01*
X213494Y246314D01*
X213543Y246247D01*
X213589Y246178D01*
X213632Y246107D01*
X213671Y246034D01*
X213706Y245960D01*
X213738Y245883D01*
X213767Y245806D01*
X213792Y245727D01*
X213813Y245647D01*
X213830Y245566D01*
X213844Y245484D01*
X213853Y245402D01*
X213859Y245320D01*
X213861Y245237D01*
X213861Y242415D01*
X213859Y242332D01*
X213853Y242250D01*
X213844Y242168D01*
X213830Y242086D01*
X213813Y242005D01*
X213792Y241925D01*
X213767Y241846D01*
X213738Y241769D01*
X213706Y241692D01*
X213671Y241618D01*
X213632Y241545D01*
X213589Y241474D01*
X213543Y241405D01*
X213494Y241338D01*
X213442Y241274D01*
X213387Y241212D01*
X213330Y241153D01*
X213269Y241097D01*
X213206Y241043D01*
X213141Y240993D01*
X213073Y240945D01*
X213003Y240901D01*
X212931Y240861D01*
X212857Y240823D01*
X212782Y240789D01*
X212705Y240759D01*
X212626Y240732D01*
X212547Y240709D01*
X212466Y240690D01*
X212385Y240675D01*
X212303Y240663D01*
X212221Y240655D01*
X212138Y240651D01*
X212056Y240651D01*
X211973Y240655D01*
X211891Y240663D01*
X211809Y240675D01*
X211728Y240690D01*
X211647Y240709D01*
X211568Y240732D01*
X211489Y240759D01*
X211412Y240789D01*
X211337Y240823D01*
X211263Y240861D01*
X211191Y240901D01*
X211121Y240945D01*
X211053Y240993D01*
X210988Y241043D01*
X210925Y241097D01*
X210864Y241153D01*
X210807Y241212D01*
X210752Y241274D01*
X210700Y241338D01*
X210651Y241405D01*
X210605Y241474D01*
X210562Y241545D01*
X210523Y241618D01*
X210488Y241692D01*
X210456Y241769D01*
X210427Y241846D01*
X210402Y241925D01*
X210381Y242005D01*
X210364Y242086D01*
X210350Y242168D01*
X210341Y242250D01*
X210335Y242332D01*
X210333Y242415D01*
X213156Y242062D02*
X214567Y240651D01*
X216803Y245590D02*
X218567Y247001D01*
X218567Y240651D01*
X216803Y240651D02*
X220331Y240651D01*
D10*
X180594Y249936D02*
X180594Y258064D01*
X180594Y249936D02*
X174006Y249936D01*
X152146Y249936D02*
X152146Y258064D01*
X152146Y249936D02*
X158734Y249936D01*
D16*
X177313Y245237D02*
X177313Y242415D01*
X177313Y245237D02*
X177315Y245320D01*
X177321Y245402D01*
X177330Y245484D01*
X177344Y245566D01*
X177361Y245647D01*
X177382Y245727D01*
X177407Y245806D01*
X177436Y245883D01*
X177468Y245960D01*
X177503Y246034D01*
X177542Y246107D01*
X177585Y246178D01*
X177631Y246247D01*
X177680Y246314D01*
X177732Y246378D01*
X177787Y246440D01*
X177844Y246499D01*
X177905Y246555D01*
X177968Y246609D01*
X178033Y246659D01*
X178101Y246707D01*
X178171Y246751D01*
X178243Y246791D01*
X178317Y246829D01*
X178392Y246863D01*
X178469Y246893D01*
X178548Y246920D01*
X178627Y246943D01*
X178708Y246962D01*
X178789Y246977D01*
X178871Y246989D01*
X178953Y246997D01*
X179036Y247001D01*
X179118Y247001D01*
X179201Y246997D01*
X179283Y246989D01*
X179365Y246977D01*
X179446Y246962D01*
X179527Y246943D01*
X179606Y246920D01*
X179685Y246893D01*
X179762Y246863D01*
X179837Y246829D01*
X179911Y246791D01*
X179983Y246751D01*
X180053Y246707D01*
X180121Y246659D01*
X180186Y246609D01*
X180249Y246555D01*
X180310Y246499D01*
X180367Y246440D01*
X180422Y246378D01*
X180474Y246314D01*
X180523Y246247D01*
X180569Y246178D01*
X180612Y246107D01*
X180651Y246034D01*
X180686Y245960D01*
X180718Y245883D01*
X180747Y245806D01*
X180772Y245727D01*
X180793Y245647D01*
X180810Y245566D01*
X180824Y245484D01*
X180833Y245402D01*
X180839Y245320D01*
X180841Y245237D01*
X180841Y242415D01*
X180839Y242332D01*
X180833Y242250D01*
X180824Y242168D01*
X180810Y242086D01*
X180793Y242005D01*
X180772Y241925D01*
X180747Y241846D01*
X180718Y241769D01*
X180686Y241692D01*
X180651Y241618D01*
X180612Y241545D01*
X180569Y241474D01*
X180523Y241405D01*
X180474Y241338D01*
X180422Y241274D01*
X180367Y241212D01*
X180310Y241153D01*
X180249Y241097D01*
X180186Y241043D01*
X180121Y240993D01*
X180053Y240945D01*
X179983Y240901D01*
X179911Y240861D01*
X179837Y240823D01*
X179762Y240789D01*
X179685Y240759D01*
X179606Y240732D01*
X179527Y240709D01*
X179446Y240690D01*
X179365Y240675D01*
X179283Y240663D01*
X179201Y240655D01*
X179118Y240651D01*
X179036Y240651D01*
X178953Y240655D01*
X178871Y240663D01*
X178789Y240675D01*
X178708Y240690D01*
X178627Y240709D01*
X178548Y240732D01*
X178469Y240759D01*
X178392Y240789D01*
X178317Y240823D01*
X178243Y240861D01*
X178171Y240901D01*
X178101Y240945D01*
X178033Y240993D01*
X177968Y241043D01*
X177905Y241097D01*
X177844Y241153D01*
X177787Y241212D01*
X177732Y241274D01*
X177680Y241338D01*
X177631Y241405D01*
X177585Y241474D01*
X177542Y241545D01*
X177503Y241618D01*
X177468Y241692D01*
X177436Y241769D01*
X177407Y241846D01*
X177382Y241925D01*
X177361Y242005D01*
X177344Y242086D01*
X177330Y242168D01*
X177321Y242250D01*
X177315Y242332D01*
X177313Y242415D01*
X180136Y242062D02*
X181547Y240651D01*
X187311Y245413D02*
X187309Y245491D01*
X187303Y245569D01*
X187294Y245646D01*
X187280Y245723D01*
X187263Y245799D01*
X187243Y245874D01*
X187218Y245948D01*
X187190Y246021D01*
X187159Y246092D01*
X187123Y246162D01*
X187085Y246229D01*
X187043Y246295D01*
X186998Y246359D01*
X186951Y246420D01*
X186900Y246479D01*
X186846Y246536D01*
X186789Y246590D01*
X186730Y246641D01*
X186669Y246688D01*
X186605Y246733D01*
X186539Y246775D01*
X186472Y246813D01*
X186402Y246849D01*
X186331Y246880D01*
X186258Y246908D01*
X186184Y246933D01*
X186109Y246953D01*
X186033Y246970D01*
X185956Y246984D01*
X185879Y246993D01*
X185801Y246999D01*
X185723Y247001D01*
X185723Y247000D02*
X185635Y246998D01*
X185546Y246992D01*
X185458Y246983D01*
X185371Y246969D01*
X185284Y246952D01*
X185198Y246931D01*
X185113Y246907D01*
X185030Y246879D01*
X184947Y246847D01*
X184866Y246811D01*
X184787Y246772D01*
X184709Y246730D01*
X184633Y246684D01*
X184560Y246636D01*
X184488Y246584D01*
X184419Y246529D01*
X184352Y246471D01*
X184288Y246410D01*
X184227Y246346D01*
X184168Y246280D01*
X184112Y246211D01*
X184060Y246140D01*
X184010Y246067D01*
X183964Y245992D01*
X183921Y245915D01*
X183881Y245836D01*
X183845Y245755D01*
X183812Y245673D01*
X183783Y245589D01*
X186782Y244178D02*
X186839Y244236D01*
X186894Y244296D01*
X186946Y244358D01*
X186994Y244423D01*
X187040Y244491D01*
X187082Y244560D01*
X187121Y244631D01*
X187157Y244704D01*
X187189Y244779D01*
X187217Y244855D01*
X187242Y244932D01*
X187263Y245011D01*
X187280Y245090D01*
X187294Y245170D01*
X187303Y245251D01*
X187309Y245332D01*
X187311Y245413D01*
X186782Y244178D02*
X183783Y240651D01*
X187311Y240651D01*
M02*
