G04 EAGLE Gerber RS-274X export*
G75*
%MOMM*%
%FSLAX34Y34*%
%LPD*%
%INSoldermask Bottom*%
%IPPOS*%
%AMOC8*
5,1,8,0,0,1.08239X$1,22.5*%
G01*
%ADD10C,0.400200*%
%ADD11C,0.428259*%
%ADD12C,1.227000*%
%ADD13R,1.027000X1.127000*%
%ADD14R,3.687000X4.087000*%
%ADD15C,1.143000*%


D10*
X87892Y271352D02*
X85224Y271352D01*
X85224Y274620D01*
X87892Y274620D01*
X87892Y271352D01*
X93864Y271352D02*
X96532Y271352D01*
X93864Y271352D02*
X93864Y274620D01*
X96532Y274620D01*
X96532Y271352D01*
D11*
X52104Y269415D02*
X52104Y276403D01*
X59092Y276403D01*
X59092Y269415D01*
X52104Y269415D01*
X52104Y273484D02*
X59092Y273484D01*
X69644Y276403D02*
X69644Y269415D01*
X69644Y276403D02*
X76632Y276403D01*
X76632Y269415D01*
X69644Y269415D01*
X69644Y273484D02*
X76632Y273484D01*
D12*
X9224Y249584D03*
X9336Y236868D03*
X9201Y223917D03*
X9419Y211525D03*
X9185Y198661D03*
X9190Y186043D03*
D13*
X255857Y47631D03*
X255857Y63631D03*
X214857Y63631D03*
X214857Y47631D03*
D14*
G36*
X86890Y141093D02*
X108457Y170996D01*
X141604Y147089D01*
X120037Y117186D01*
X86890Y141093D01*
G37*
G36*
X160010Y242476D02*
X181577Y272379D01*
X214724Y248472D01*
X193157Y218569D01*
X160010Y242476D01*
G37*
D15*
X109220Y16510D03*
X236220Y16510D03*
M02*
