G04 EAGLE Gerber RS-274X export*
G75*
%MOMM*%
%FSLAX34Y34*%
%LPD*%
%IN*%
%IPPOS*%
%AMOC8*
5,1,8,0,0,1.08239X$1,22.5*%
G01*
%ADD10C,0.254000*%


D10*
X668Y33974D02*
X21668Y33974D01*
X22841Y33888D01*
X24002Y33700D01*
X25143Y33411D01*
X26254Y33024D01*
X27327Y32541D01*
X28354Y31967D01*
X29327Y31306D01*
X30239Y30562D01*
X31083Y29742D01*
X31851Y28851D01*
X32540Y27897D01*
X33142Y26886D01*
X33654Y25827D01*
X34072Y24727D01*
X34392Y23595D01*
X34612Y22439D01*
X34731Y21269D01*
X34748Y20092D01*
X34668Y18974D01*
X34668Y-1026D01*
X85858Y-1026D01*
X85858Y9974D01*
X95128Y9974D01*
X95128Y-1026D01*
X259668Y-1026D01*
X259668Y20974D01*
X259759Y22062D01*
X259944Y23137D01*
X260223Y24192D01*
X260592Y25219D01*
X261050Y26210D01*
X261592Y27157D01*
X262215Y28053D01*
X262913Y28892D01*
X263682Y29666D01*
X264516Y30371D01*
X265408Y31000D01*
X266351Y31549D01*
X267338Y32014D01*
X268362Y32391D01*
X269415Y32677D01*
X270489Y32871D01*
X271576Y32970D01*
X272668Y32974D01*
X293668Y32974D01*
X293668Y79704D01*
X293662Y79102D01*
X293662Y222372D01*
X293668Y222974D01*
X293668Y257974D01*
X271668Y257974D01*
X270584Y258152D01*
X269520Y258424D01*
X268484Y258788D01*
X267483Y259241D01*
X266525Y259779D01*
X265619Y260399D01*
X264769Y261095D01*
X263984Y261863D01*
X263268Y262696D01*
X262628Y263588D01*
X262068Y264533D01*
X261592Y265523D01*
X261205Y266551D01*
X260908Y267608D01*
X260705Y268688D01*
X260597Y269781D01*
X260584Y270879D01*
X260668Y271974D01*
X260668Y291974D01*
X95398Y291974D01*
X95398Y280704D01*
X85858Y280704D01*
X85858Y291974D01*
X36668Y291974D01*
X36668Y270974D01*
X36671Y269890D01*
X36581Y268809D01*
X36396Y267741D01*
X36119Y266693D01*
X35752Y265673D01*
X35297Y264688D01*
X34759Y263748D01*
X34140Y262857D01*
X33446Y262024D01*
X32682Y261255D01*
X31854Y260555D01*
X30968Y259930D01*
X30031Y259385D01*
X29050Y258923D01*
X28032Y258549D01*
X26986Y258264D01*
X25919Y258072D01*
X24839Y257974D01*
X23755Y257970D01*
X23668Y257974D01*
X668Y257974D01*
X668Y33974D01*
X125730Y21590D02*
X125290Y21515D01*
X124858Y21403D01*
X124437Y21253D01*
X124031Y21066D01*
X123643Y20846D01*
X123275Y20592D01*
X122931Y20307D01*
X122613Y19993D01*
X122324Y19653D01*
X122065Y19289D01*
X121840Y18904D01*
X121648Y18500D01*
X121493Y18081D01*
X121374Y17651D01*
X121294Y17211D01*
X121252Y16767D01*
X121249Y16320D01*
X121285Y15875D01*
X121360Y15435D01*
X121472Y15003D01*
X121622Y14582D01*
X121809Y14176D01*
X122029Y13788D01*
X122283Y13420D01*
X122568Y13076D01*
X122882Y12758D01*
X123222Y12469D01*
X123586Y12210D01*
X123971Y11985D01*
X124375Y11793D01*
X124794Y11638D01*
X125224Y11519D01*
X125664Y11439D01*
X126108Y11397D01*
X126555Y11394D01*
X127000Y11430D01*
X219710Y11430D01*
X220155Y11394D01*
X220602Y11397D01*
X221046Y11439D01*
X221486Y11519D01*
X221916Y11638D01*
X222335Y11793D01*
X222739Y11985D01*
X223124Y12210D01*
X223488Y12469D01*
X223828Y12758D01*
X224142Y13076D01*
X224427Y13420D01*
X224681Y13788D01*
X224901Y14176D01*
X225088Y14582D01*
X225238Y15003D01*
X225350Y15435D01*
X225425Y15875D01*
X225461Y16320D01*
X225458Y16767D01*
X225416Y17211D01*
X225336Y17651D01*
X225217Y18081D01*
X225062Y18500D01*
X224871Y18904D01*
X224645Y19289D01*
X224386Y19653D01*
X224097Y19993D01*
X223779Y20307D01*
X223435Y20592D01*
X223067Y20846D01*
X222679Y21066D01*
X222273Y21253D01*
X221853Y21403D01*
X221420Y21515D01*
X220980Y21590D01*
X125730Y21590D01*
M02*
