G04 EAGLE Gerber RS-274X export*
G75*
%MOMM*%
%FSLAX34Y34*%
%LPD*%
%INSilkscreen Bottom*%
%IPPOS*%
%AMOC8*
5,1,8,0,0,1.08239X$1,22.5*%
G01*
%ADD10C,0.076200*%
%ADD11C,0.127000*%
%ADD12C,0.203200*%


D10*
X16995Y43868D02*
X11266Y43868D01*
X11188Y43866D01*
X11110Y43861D01*
X11033Y43851D01*
X10956Y43838D01*
X10880Y43822D01*
X10805Y43802D01*
X10731Y43778D01*
X10658Y43751D01*
X10586Y43720D01*
X10516Y43686D01*
X10448Y43649D01*
X10381Y43608D01*
X10316Y43564D01*
X10254Y43518D01*
X10194Y43468D01*
X10136Y43416D01*
X10081Y43361D01*
X10029Y43303D01*
X9979Y43243D01*
X9933Y43181D01*
X9889Y43116D01*
X9848Y43050D01*
X9811Y42981D01*
X9777Y42911D01*
X9746Y42839D01*
X9719Y42766D01*
X9695Y42692D01*
X9675Y42617D01*
X9659Y42541D01*
X9646Y42464D01*
X9636Y42387D01*
X9631Y42309D01*
X9629Y42231D01*
X9629Y41413D01*
X9629Y47562D02*
X16995Y47562D01*
X9629Y47562D02*
X9629Y50836D01*
X9629Y55256D02*
X9629Y56893D01*
X9629Y55256D02*
X9631Y55178D01*
X9636Y55100D01*
X9646Y55023D01*
X9659Y54946D01*
X9675Y54870D01*
X9695Y54795D01*
X9719Y54721D01*
X9746Y54648D01*
X9777Y54576D01*
X9811Y54506D01*
X9848Y54438D01*
X9889Y54371D01*
X9933Y54306D01*
X9979Y54244D01*
X10029Y54184D01*
X10081Y54126D01*
X10136Y54071D01*
X10194Y54019D01*
X10254Y53969D01*
X10316Y53923D01*
X10381Y53879D01*
X10447Y53838D01*
X10516Y53801D01*
X10586Y53767D01*
X10658Y53736D01*
X10731Y53709D01*
X10805Y53685D01*
X10880Y53665D01*
X10956Y53649D01*
X11033Y53636D01*
X11110Y53626D01*
X11188Y53621D01*
X11266Y53619D01*
X15358Y53619D01*
X15436Y53621D01*
X15514Y53626D01*
X15591Y53636D01*
X15668Y53649D01*
X15744Y53665D01*
X15819Y53685D01*
X15893Y53709D01*
X15966Y53736D01*
X16038Y53767D01*
X16108Y53801D01*
X16177Y53838D01*
X16243Y53879D01*
X16308Y53923D01*
X16370Y53969D01*
X16430Y54019D01*
X16488Y54071D01*
X16543Y54126D01*
X16595Y54184D01*
X16645Y54244D01*
X16691Y54306D01*
X16735Y54371D01*
X16776Y54438D01*
X16813Y54506D01*
X16847Y54576D01*
X16878Y54648D01*
X16905Y54721D01*
X16929Y54795D01*
X16949Y54870D01*
X16965Y54946D01*
X16978Y55023D01*
X16988Y55100D01*
X16993Y55178D01*
X16995Y55256D01*
X16995Y56893D01*
X16995Y61424D02*
X11266Y61424D01*
X11188Y61422D01*
X11110Y61417D01*
X11033Y61407D01*
X10956Y61394D01*
X10880Y61378D01*
X10805Y61358D01*
X10731Y61334D01*
X10658Y61307D01*
X10586Y61276D01*
X10516Y61242D01*
X10448Y61205D01*
X10381Y61164D01*
X10316Y61120D01*
X10254Y61074D01*
X10194Y61024D01*
X10136Y60972D01*
X10081Y60917D01*
X10029Y60859D01*
X9979Y60799D01*
X9933Y60737D01*
X9889Y60672D01*
X9848Y60606D01*
X9811Y60537D01*
X9777Y60467D01*
X9746Y60395D01*
X9719Y60322D01*
X9695Y60248D01*
X9675Y60173D01*
X9659Y60097D01*
X9646Y60020D01*
X9636Y59943D01*
X9631Y59865D01*
X9629Y59787D01*
X9629Y58969D01*
X9629Y65118D02*
X16995Y65118D01*
X9629Y65118D02*
X9629Y68392D01*
X9629Y72812D02*
X9629Y74449D01*
X9629Y72812D02*
X9631Y72734D01*
X9636Y72656D01*
X9646Y72579D01*
X9659Y72502D01*
X9675Y72426D01*
X9695Y72351D01*
X9719Y72277D01*
X9746Y72204D01*
X9777Y72132D01*
X9811Y72062D01*
X9848Y71994D01*
X9889Y71927D01*
X9933Y71862D01*
X9979Y71800D01*
X10029Y71740D01*
X10081Y71682D01*
X10136Y71627D01*
X10194Y71575D01*
X10254Y71525D01*
X10316Y71479D01*
X10381Y71435D01*
X10447Y71394D01*
X10516Y71357D01*
X10586Y71323D01*
X10658Y71292D01*
X10731Y71265D01*
X10805Y71241D01*
X10880Y71221D01*
X10956Y71205D01*
X11033Y71192D01*
X11110Y71182D01*
X11188Y71177D01*
X11266Y71175D01*
X15358Y71175D01*
X15436Y71177D01*
X15514Y71182D01*
X15591Y71192D01*
X15668Y71205D01*
X15744Y71221D01*
X15819Y71241D01*
X15893Y71265D01*
X15966Y71292D01*
X16038Y71323D01*
X16108Y71357D01*
X16177Y71394D01*
X16243Y71435D01*
X16308Y71479D01*
X16370Y71525D01*
X16430Y71575D01*
X16488Y71627D01*
X16543Y71682D01*
X16595Y71740D01*
X16645Y71800D01*
X16691Y71862D01*
X16735Y71927D01*
X16776Y71994D01*
X16813Y72062D01*
X16847Y72132D01*
X16878Y72204D01*
X16905Y72277D01*
X16929Y72351D01*
X16949Y72426D01*
X16965Y72502D01*
X16978Y72579D01*
X16988Y72656D01*
X16993Y72734D01*
X16995Y72812D01*
X16995Y74449D01*
X16995Y78981D02*
X11266Y78981D01*
X11188Y78979D01*
X11110Y78974D01*
X11033Y78964D01*
X10956Y78951D01*
X10880Y78935D01*
X10805Y78915D01*
X10731Y78891D01*
X10658Y78864D01*
X10586Y78833D01*
X10516Y78799D01*
X10448Y78762D01*
X10381Y78721D01*
X10316Y78677D01*
X10254Y78631D01*
X10194Y78581D01*
X10136Y78529D01*
X10081Y78474D01*
X10029Y78416D01*
X9979Y78356D01*
X9933Y78294D01*
X9889Y78229D01*
X9848Y78163D01*
X9811Y78094D01*
X9777Y78024D01*
X9746Y77952D01*
X9719Y77879D01*
X9695Y77805D01*
X9675Y77730D01*
X9659Y77654D01*
X9646Y77577D01*
X9636Y77500D01*
X9631Y77422D01*
X9629Y77344D01*
X9629Y76525D01*
X9629Y82675D02*
X16995Y82675D01*
X9629Y82675D02*
X9629Y85948D01*
X9629Y90369D02*
X9629Y92006D01*
X9629Y90369D02*
X9631Y90291D01*
X9636Y90213D01*
X9646Y90136D01*
X9659Y90059D01*
X9675Y89983D01*
X9695Y89908D01*
X9719Y89834D01*
X9746Y89761D01*
X9777Y89689D01*
X9811Y89619D01*
X9848Y89551D01*
X9889Y89484D01*
X9933Y89419D01*
X9979Y89357D01*
X10029Y89297D01*
X10081Y89239D01*
X10136Y89184D01*
X10194Y89132D01*
X10254Y89082D01*
X10316Y89036D01*
X10381Y88992D01*
X10447Y88951D01*
X10516Y88914D01*
X10586Y88880D01*
X10658Y88849D01*
X10731Y88822D01*
X10805Y88798D01*
X10880Y88778D01*
X10956Y88762D01*
X11033Y88749D01*
X11110Y88739D01*
X11188Y88734D01*
X11266Y88732D01*
X15358Y88732D01*
X15436Y88734D01*
X15514Y88739D01*
X15591Y88749D01*
X15668Y88762D01*
X15744Y88778D01*
X15819Y88798D01*
X15893Y88822D01*
X15966Y88849D01*
X16038Y88880D01*
X16108Y88914D01*
X16177Y88951D01*
X16243Y88992D01*
X16308Y89036D01*
X16370Y89082D01*
X16430Y89132D01*
X16488Y89184D01*
X16543Y89239D01*
X16595Y89297D01*
X16645Y89357D01*
X16691Y89419D01*
X16735Y89484D01*
X16776Y89551D01*
X16813Y89619D01*
X16847Y89689D01*
X16878Y89761D01*
X16905Y89834D01*
X16929Y89908D01*
X16949Y89983D01*
X16965Y90059D01*
X16978Y90136D01*
X16988Y90213D01*
X16993Y90291D01*
X16995Y90369D01*
X16995Y92006D01*
X16995Y96537D02*
X11266Y96537D01*
X11188Y96535D01*
X11110Y96530D01*
X11033Y96520D01*
X10956Y96507D01*
X10880Y96491D01*
X10805Y96471D01*
X10731Y96447D01*
X10658Y96420D01*
X10586Y96389D01*
X10516Y96355D01*
X10448Y96318D01*
X10381Y96277D01*
X10316Y96233D01*
X10254Y96187D01*
X10194Y96137D01*
X10136Y96085D01*
X10081Y96030D01*
X10029Y95972D01*
X9979Y95912D01*
X9933Y95850D01*
X9889Y95785D01*
X9848Y95719D01*
X9811Y95650D01*
X9777Y95580D01*
X9746Y95508D01*
X9719Y95435D01*
X9695Y95361D01*
X9675Y95286D01*
X9659Y95210D01*
X9646Y95133D01*
X9636Y95056D01*
X9631Y94978D01*
X9629Y94900D01*
X9629Y94082D01*
X9629Y100231D02*
X16995Y100231D01*
X9629Y100231D02*
X9629Y103505D01*
X9629Y107925D02*
X9629Y109562D01*
X9629Y107925D02*
X9631Y107847D01*
X9636Y107769D01*
X9646Y107692D01*
X9659Y107615D01*
X9675Y107539D01*
X9695Y107464D01*
X9719Y107390D01*
X9746Y107317D01*
X9777Y107245D01*
X9811Y107175D01*
X9848Y107107D01*
X9889Y107040D01*
X9933Y106975D01*
X9979Y106913D01*
X10029Y106853D01*
X10081Y106795D01*
X10136Y106740D01*
X10194Y106688D01*
X10254Y106638D01*
X10316Y106592D01*
X10381Y106548D01*
X10447Y106507D01*
X10516Y106470D01*
X10586Y106436D01*
X10658Y106405D01*
X10731Y106378D01*
X10805Y106354D01*
X10880Y106334D01*
X10956Y106318D01*
X11033Y106305D01*
X11110Y106295D01*
X11188Y106290D01*
X11266Y106288D01*
X15358Y106288D01*
X15436Y106290D01*
X15514Y106295D01*
X15591Y106305D01*
X15668Y106318D01*
X15744Y106334D01*
X15819Y106354D01*
X15893Y106378D01*
X15966Y106405D01*
X16038Y106436D01*
X16108Y106470D01*
X16177Y106507D01*
X16243Y106548D01*
X16308Y106592D01*
X16370Y106638D01*
X16430Y106688D01*
X16488Y106740D01*
X16543Y106795D01*
X16595Y106853D01*
X16645Y106913D01*
X16691Y106975D01*
X16735Y107040D01*
X16776Y107107D01*
X16813Y107175D01*
X16847Y107245D01*
X16878Y107317D01*
X16905Y107390D01*
X16929Y107464D01*
X16949Y107539D01*
X16965Y107615D01*
X16978Y107692D01*
X16988Y107769D01*
X16993Y107847D01*
X16995Y107925D01*
X16995Y109562D01*
X38063Y246518D02*
X38063Y253884D01*
X40109Y253884D02*
X36017Y253884D01*
X32959Y253884D02*
X32959Y246518D01*
X30504Y249791D02*
X32959Y253884D01*
X30504Y249791D02*
X28049Y253884D01*
X28049Y246518D01*
X22292Y246517D02*
X22214Y246519D01*
X22136Y246524D01*
X22059Y246534D01*
X21982Y246547D01*
X21906Y246563D01*
X21831Y246583D01*
X21757Y246607D01*
X21684Y246634D01*
X21612Y246665D01*
X21542Y246699D01*
X21474Y246736D01*
X21407Y246777D01*
X21342Y246821D01*
X21280Y246867D01*
X21220Y246917D01*
X21162Y246969D01*
X21107Y247024D01*
X21055Y247082D01*
X21005Y247142D01*
X20959Y247204D01*
X20915Y247269D01*
X20874Y247335D01*
X20837Y247404D01*
X20803Y247474D01*
X20772Y247546D01*
X20745Y247619D01*
X20721Y247693D01*
X20701Y247768D01*
X20685Y247844D01*
X20672Y247921D01*
X20662Y247998D01*
X20657Y248076D01*
X20655Y248154D01*
X22292Y246518D02*
X22406Y246520D01*
X22519Y246525D01*
X22633Y246535D01*
X22746Y246548D01*
X22858Y246565D01*
X22970Y246585D01*
X23081Y246609D01*
X23192Y246637D01*
X23301Y246668D01*
X23409Y246703D01*
X23516Y246742D01*
X23622Y246784D01*
X23726Y246829D01*
X23829Y246878D01*
X23930Y246931D01*
X24029Y246986D01*
X24127Y247045D01*
X24222Y247107D01*
X24315Y247172D01*
X24407Y247240D01*
X24495Y247311D01*
X24582Y247385D01*
X24666Y247462D01*
X24747Y247541D01*
X24543Y252247D02*
X24541Y252325D01*
X24536Y252403D01*
X24526Y252480D01*
X24513Y252557D01*
X24497Y252633D01*
X24477Y252708D01*
X24453Y252782D01*
X24426Y252855D01*
X24395Y252927D01*
X24361Y252997D01*
X24324Y253066D01*
X24283Y253132D01*
X24239Y253197D01*
X24193Y253259D01*
X24143Y253319D01*
X24091Y253377D01*
X24036Y253432D01*
X23978Y253484D01*
X23918Y253534D01*
X23856Y253580D01*
X23791Y253624D01*
X23725Y253665D01*
X23656Y253702D01*
X23586Y253736D01*
X23514Y253767D01*
X23441Y253794D01*
X23367Y253818D01*
X23292Y253838D01*
X23216Y253854D01*
X23139Y253867D01*
X23062Y253877D01*
X22984Y253882D01*
X22906Y253884D01*
X22906Y253883D02*
X22796Y253881D01*
X22687Y253875D01*
X22577Y253865D01*
X22469Y253852D01*
X22360Y253834D01*
X22253Y253813D01*
X22146Y253787D01*
X22040Y253758D01*
X21935Y253726D01*
X21832Y253689D01*
X21730Y253649D01*
X21629Y253605D01*
X21530Y253557D01*
X21433Y253507D01*
X21338Y253452D01*
X21245Y253394D01*
X21154Y253333D01*
X21065Y253269D01*
X23724Y250814D02*
X23791Y250856D01*
X23856Y250900D01*
X23918Y250948D01*
X23978Y250998D01*
X24036Y251051D01*
X24091Y251107D01*
X24143Y251166D01*
X24193Y251226D01*
X24240Y251290D01*
X24283Y251355D01*
X24324Y251422D01*
X24361Y251491D01*
X24395Y251562D01*
X24426Y251634D01*
X24453Y251708D01*
X24477Y251782D01*
X24497Y251858D01*
X24513Y251935D01*
X24526Y252012D01*
X24536Y252090D01*
X24541Y252169D01*
X24543Y252247D01*
X21473Y249586D02*
X21407Y249545D01*
X21342Y249500D01*
X21280Y249453D01*
X21220Y249402D01*
X21162Y249349D01*
X21107Y249293D01*
X21054Y249235D01*
X21005Y249174D01*
X20958Y249111D01*
X20915Y249046D01*
X20874Y248979D01*
X20837Y248910D01*
X20803Y248839D01*
X20772Y248767D01*
X20745Y248693D01*
X20721Y248618D01*
X20701Y248543D01*
X20685Y248466D01*
X20672Y248389D01*
X20662Y248311D01*
X20657Y248232D01*
X20655Y248154D01*
X21473Y249587D02*
X23724Y250814D01*
X38063Y241184D02*
X38063Y233818D01*
X40109Y241184D02*
X36017Y241184D01*
X31668Y233818D02*
X30031Y233818D01*
X31668Y233817D02*
X31746Y233819D01*
X31824Y233824D01*
X31901Y233834D01*
X31978Y233847D01*
X32054Y233863D01*
X32129Y233883D01*
X32203Y233907D01*
X32276Y233934D01*
X32348Y233965D01*
X32418Y233999D01*
X32487Y234036D01*
X32553Y234077D01*
X32618Y234121D01*
X32680Y234167D01*
X32740Y234217D01*
X32798Y234269D01*
X32853Y234324D01*
X32905Y234382D01*
X32955Y234442D01*
X33001Y234504D01*
X33045Y234569D01*
X33086Y234636D01*
X33123Y234704D01*
X33157Y234774D01*
X33188Y234846D01*
X33215Y234919D01*
X33239Y234993D01*
X33259Y235068D01*
X33275Y235144D01*
X33288Y235221D01*
X33298Y235298D01*
X33303Y235376D01*
X33305Y235454D01*
X33305Y239547D01*
X33303Y239625D01*
X33298Y239703D01*
X33288Y239780D01*
X33275Y239857D01*
X33259Y239933D01*
X33239Y240008D01*
X33215Y240082D01*
X33188Y240155D01*
X33157Y240227D01*
X33123Y240297D01*
X33086Y240366D01*
X33045Y240432D01*
X33001Y240497D01*
X32955Y240559D01*
X32905Y240619D01*
X32853Y240677D01*
X32798Y240732D01*
X32740Y240784D01*
X32680Y240834D01*
X32618Y240880D01*
X32553Y240924D01*
X32487Y240965D01*
X32418Y241002D01*
X32348Y241036D01*
X32276Y241067D01*
X32203Y241094D01*
X32129Y241118D01*
X32054Y241138D01*
X31978Y241154D01*
X31901Y241167D01*
X31824Y241177D01*
X31746Y241182D01*
X31668Y241184D01*
X30031Y241184D01*
X26824Y241184D02*
X26824Y233818D01*
X26824Y236682D02*
X22732Y241184D01*
X25187Y238319D02*
X22732Y233818D01*
X38063Y227214D02*
X38063Y219848D01*
X40109Y227214D02*
X36017Y227214D01*
X33038Y227214D02*
X33038Y219848D01*
X33038Y227214D02*
X30992Y227214D01*
X30992Y227213D02*
X30903Y227211D01*
X30814Y227205D01*
X30725Y227195D01*
X30637Y227182D01*
X30549Y227165D01*
X30462Y227143D01*
X30377Y227118D01*
X30292Y227090D01*
X30209Y227057D01*
X30127Y227021D01*
X30047Y226982D01*
X29969Y226939D01*
X29893Y226893D01*
X29818Y226843D01*
X29746Y226790D01*
X29677Y226734D01*
X29610Y226675D01*
X29545Y226614D01*
X29484Y226549D01*
X29425Y226482D01*
X29369Y226413D01*
X29316Y226341D01*
X29266Y226266D01*
X29220Y226190D01*
X29177Y226112D01*
X29138Y226032D01*
X29102Y225950D01*
X29069Y225867D01*
X29041Y225782D01*
X29016Y225697D01*
X28994Y225610D01*
X28977Y225522D01*
X28964Y225434D01*
X28954Y225345D01*
X28948Y225256D01*
X28946Y225167D01*
X28946Y221894D01*
X28948Y221805D01*
X28954Y221716D01*
X28964Y221627D01*
X28977Y221539D01*
X28994Y221451D01*
X29016Y221364D01*
X29041Y221279D01*
X29069Y221194D01*
X29102Y221111D01*
X29138Y221029D01*
X29177Y220949D01*
X29220Y220871D01*
X29266Y220795D01*
X29316Y220720D01*
X29369Y220648D01*
X29425Y220579D01*
X29484Y220512D01*
X29545Y220447D01*
X29610Y220386D01*
X29677Y220327D01*
X29746Y220271D01*
X29818Y220218D01*
X29893Y220168D01*
X29969Y220122D01*
X30047Y220079D01*
X30127Y220040D01*
X30209Y220004D01*
X30292Y219971D01*
X30377Y219943D01*
X30462Y219918D01*
X30549Y219896D01*
X30637Y219879D01*
X30725Y219866D01*
X30814Y219856D01*
X30903Y219850D01*
X30992Y219848D01*
X33038Y219848D01*
X25479Y221894D02*
X25479Y225167D01*
X25477Y225256D01*
X25471Y225345D01*
X25461Y225434D01*
X25448Y225522D01*
X25431Y225610D01*
X25409Y225697D01*
X25384Y225782D01*
X25356Y225867D01*
X25323Y225950D01*
X25287Y226032D01*
X25248Y226112D01*
X25205Y226190D01*
X25159Y226266D01*
X25109Y226341D01*
X25056Y226413D01*
X25000Y226482D01*
X24941Y226549D01*
X24880Y226614D01*
X24815Y226675D01*
X24748Y226734D01*
X24679Y226790D01*
X24607Y226843D01*
X24532Y226893D01*
X24456Y226939D01*
X24378Y226982D01*
X24298Y227021D01*
X24216Y227057D01*
X24133Y227090D01*
X24048Y227118D01*
X23963Y227143D01*
X23876Y227165D01*
X23788Y227182D01*
X23700Y227195D01*
X23611Y227205D01*
X23522Y227211D01*
X23433Y227213D01*
X23344Y227211D01*
X23255Y227205D01*
X23166Y227195D01*
X23078Y227182D01*
X22990Y227165D01*
X22903Y227143D01*
X22818Y227118D01*
X22733Y227090D01*
X22650Y227057D01*
X22568Y227021D01*
X22488Y226982D01*
X22410Y226939D01*
X22334Y226893D01*
X22259Y226843D01*
X22187Y226790D01*
X22118Y226734D01*
X22051Y226675D01*
X21986Y226614D01*
X21925Y226549D01*
X21866Y226482D01*
X21810Y226413D01*
X21757Y226341D01*
X21707Y226266D01*
X21661Y226190D01*
X21618Y226112D01*
X21579Y226032D01*
X21543Y225950D01*
X21510Y225867D01*
X21482Y225782D01*
X21457Y225697D01*
X21435Y225610D01*
X21418Y225522D01*
X21405Y225434D01*
X21395Y225345D01*
X21389Y225256D01*
X21387Y225167D01*
X21386Y225167D02*
X21386Y221894D01*
X21387Y221894D02*
X21389Y221805D01*
X21395Y221716D01*
X21405Y221627D01*
X21418Y221539D01*
X21435Y221451D01*
X21457Y221364D01*
X21482Y221279D01*
X21510Y221194D01*
X21543Y221111D01*
X21579Y221029D01*
X21618Y220949D01*
X21661Y220871D01*
X21707Y220795D01*
X21757Y220720D01*
X21810Y220648D01*
X21866Y220579D01*
X21925Y220512D01*
X21986Y220447D01*
X22051Y220386D01*
X22118Y220327D01*
X22187Y220271D01*
X22259Y220218D01*
X22334Y220168D01*
X22410Y220122D01*
X22488Y220079D01*
X22568Y220040D01*
X22650Y220004D01*
X22733Y219971D01*
X22818Y219943D01*
X22903Y219918D01*
X22990Y219896D01*
X23078Y219879D01*
X23166Y219866D01*
X23255Y219856D01*
X23344Y219850D01*
X23433Y219848D01*
X23522Y219850D01*
X23611Y219856D01*
X23700Y219866D01*
X23788Y219879D01*
X23876Y219896D01*
X23963Y219918D01*
X24048Y219943D01*
X24133Y219971D01*
X24216Y220004D01*
X24298Y220040D01*
X24378Y220079D01*
X24456Y220122D01*
X24532Y220168D01*
X24607Y220218D01*
X24679Y220271D01*
X24748Y220327D01*
X24815Y220386D01*
X24880Y220447D01*
X24941Y220512D01*
X25000Y220579D01*
X25056Y220648D01*
X25109Y220720D01*
X25159Y220795D01*
X25205Y220871D01*
X25248Y220949D01*
X25287Y221029D01*
X25323Y221111D01*
X25356Y221194D01*
X25384Y221279D01*
X25409Y221364D01*
X25431Y221451D01*
X25448Y221539D01*
X25461Y221627D01*
X25471Y221716D01*
X25477Y221805D01*
X25479Y221894D01*
X38063Y215784D02*
X38063Y208418D01*
X40109Y215784D02*
X36017Y215784D01*
X33038Y215784D02*
X33038Y208418D01*
X33038Y215784D02*
X30992Y215784D01*
X30992Y215783D02*
X30903Y215781D01*
X30814Y215775D01*
X30725Y215765D01*
X30637Y215752D01*
X30549Y215735D01*
X30462Y215713D01*
X30377Y215688D01*
X30292Y215660D01*
X30209Y215627D01*
X30127Y215591D01*
X30047Y215552D01*
X29969Y215509D01*
X29893Y215463D01*
X29818Y215413D01*
X29746Y215360D01*
X29677Y215304D01*
X29610Y215245D01*
X29545Y215184D01*
X29484Y215119D01*
X29425Y215052D01*
X29369Y214983D01*
X29316Y214911D01*
X29266Y214836D01*
X29220Y214760D01*
X29177Y214682D01*
X29138Y214602D01*
X29102Y214520D01*
X29069Y214437D01*
X29041Y214352D01*
X29016Y214267D01*
X28994Y214180D01*
X28977Y214092D01*
X28964Y214004D01*
X28954Y213915D01*
X28948Y213826D01*
X28946Y213737D01*
X28946Y210464D01*
X28948Y210375D01*
X28954Y210286D01*
X28964Y210197D01*
X28977Y210109D01*
X28994Y210021D01*
X29016Y209934D01*
X29041Y209849D01*
X29069Y209764D01*
X29102Y209681D01*
X29138Y209599D01*
X29177Y209519D01*
X29220Y209441D01*
X29266Y209365D01*
X29316Y209290D01*
X29369Y209218D01*
X29425Y209149D01*
X29484Y209082D01*
X29545Y209017D01*
X29610Y208956D01*
X29677Y208897D01*
X29746Y208841D01*
X29818Y208788D01*
X29893Y208738D01*
X29969Y208692D01*
X30047Y208649D01*
X30127Y208610D01*
X30209Y208574D01*
X30292Y208541D01*
X30377Y208513D01*
X30462Y208488D01*
X30549Y208466D01*
X30637Y208449D01*
X30725Y208436D01*
X30814Y208426D01*
X30903Y208420D01*
X30992Y208418D01*
X33038Y208418D01*
X24896Y208418D02*
X24896Y215784D01*
X25714Y208418D02*
X24077Y208418D01*
X24077Y215784D02*
X25714Y215784D01*
X40109Y203084D02*
X37654Y195718D01*
X35198Y203084D01*
X30771Y195718D02*
X29134Y195718D01*
X30771Y195717D02*
X30849Y195719D01*
X30927Y195724D01*
X31004Y195734D01*
X31081Y195747D01*
X31157Y195763D01*
X31232Y195783D01*
X31306Y195807D01*
X31379Y195834D01*
X31451Y195865D01*
X31521Y195899D01*
X31590Y195936D01*
X31656Y195977D01*
X31721Y196021D01*
X31783Y196067D01*
X31843Y196117D01*
X31901Y196169D01*
X31956Y196224D01*
X32008Y196282D01*
X32058Y196342D01*
X32104Y196404D01*
X32148Y196469D01*
X32189Y196536D01*
X32226Y196604D01*
X32260Y196674D01*
X32291Y196746D01*
X32318Y196819D01*
X32342Y196893D01*
X32362Y196968D01*
X32378Y197044D01*
X32391Y197121D01*
X32401Y197198D01*
X32406Y197276D01*
X32408Y197354D01*
X32408Y201447D01*
X32406Y201525D01*
X32401Y201603D01*
X32391Y201680D01*
X32378Y201757D01*
X32362Y201833D01*
X32342Y201908D01*
X32318Y201982D01*
X32291Y202055D01*
X32260Y202127D01*
X32226Y202197D01*
X32189Y202266D01*
X32148Y202332D01*
X32104Y202397D01*
X32058Y202459D01*
X32008Y202519D01*
X31956Y202577D01*
X31901Y202632D01*
X31843Y202684D01*
X31783Y202734D01*
X31721Y202780D01*
X31656Y202824D01*
X31590Y202865D01*
X31521Y202902D01*
X31451Y202936D01*
X31379Y202967D01*
X31306Y202994D01*
X31232Y203018D01*
X31157Y203038D01*
X31081Y203054D01*
X31004Y203067D01*
X30927Y203077D01*
X30849Y203082D01*
X30771Y203084D01*
X29134Y203084D01*
X24675Y195718D02*
X23038Y195718D01*
X24675Y195717D02*
X24753Y195719D01*
X24831Y195724D01*
X24908Y195734D01*
X24985Y195747D01*
X25061Y195763D01*
X25136Y195783D01*
X25210Y195807D01*
X25283Y195834D01*
X25355Y195865D01*
X25425Y195899D01*
X25494Y195936D01*
X25560Y195977D01*
X25625Y196021D01*
X25687Y196067D01*
X25747Y196117D01*
X25805Y196169D01*
X25860Y196224D01*
X25912Y196282D01*
X25962Y196342D01*
X26008Y196404D01*
X26052Y196469D01*
X26093Y196536D01*
X26130Y196604D01*
X26164Y196674D01*
X26195Y196746D01*
X26222Y196819D01*
X26246Y196893D01*
X26266Y196968D01*
X26282Y197044D01*
X26295Y197121D01*
X26305Y197198D01*
X26310Y197276D01*
X26312Y197354D01*
X26312Y201447D01*
X26310Y201525D01*
X26305Y201603D01*
X26295Y201680D01*
X26282Y201757D01*
X26266Y201833D01*
X26246Y201908D01*
X26222Y201982D01*
X26195Y202055D01*
X26164Y202127D01*
X26130Y202197D01*
X26093Y202266D01*
X26052Y202332D01*
X26008Y202397D01*
X25962Y202459D01*
X25912Y202519D01*
X25860Y202577D01*
X25805Y202632D01*
X25747Y202684D01*
X25687Y202734D01*
X25625Y202780D01*
X25560Y202824D01*
X25494Y202865D01*
X25425Y202902D01*
X25355Y202936D01*
X25283Y202967D01*
X25210Y202994D01*
X25136Y203018D01*
X25061Y203038D01*
X24985Y203054D01*
X24908Y203067D01*
X24831Y203077D01*
X24753Y203082D01*
X24675Y203084D01*
X23038Y203084D01*
X36017Y185840D02*
X37245Y185840D01*
X36017Y185840D02*
X36017Y181748D01*
X38472Y181748D01*
X38472Y181747D02*
X38550Y181749D01*
X38628Y181754D01*
X38705Y181764D01*
X38782Y181777D01*
X38858Y181793D01*
X38933Y181813D01*
X39007Y181837D01*
X39080Y181864D01*
X39152Y181895D01*
X39222Y181929D01*
X39291Y181966D01*
X39357Y182007D01*
X39422Y182051D01*
X39484Y182097D01*
X39544Y182147D01*
X39602Y182199D01*
X39657Y182254D01*
X39709Y182312D01*
X39759Y182372D01*
X39805Y182434D01*
X39849Y182499D01*
X39890Y182566D01*
X39927Y182634D01*
X39961Y182704D01*
X39992Y182776D01*
X40019Y182849D01*
X40043Y182923D01*
X40063Y182998D01*
X40079Y183074D01*
X40092Y183151D01*
X40102Y183228D01*
X40107Y183306D01*
X40109Y183384D01*
X40109Y187477D01*
X40107Y187555D01*
X40102Y187633D01*
X40092Y187710D01*
X40079Y187787D01*
X40063Y187863D01*
X40043Y187938D01*
X40019Y188012D01*
X39992Y188085D01*
X39961Y188157D01*
X39927Y188227D01*
X39890Y188296D01*
X39849Y188362D01*
X39805Y188427D01*
X39759Y188489D01*
X39709Y188549D01*
X39657Y188607D01*
X39602Y188662D01*
X39544Y188714D01*
X39484Y188764D01*
X39422Y188810D01*
X39357Y188854D01*
X39291Y188895D01*
X39222Y188932D01*
X39152Y188966D01*
X39080Y188997D01*
X39007Y189024D01*
X38933Y189048D01*
X38858Y189068D01*
X38782Y189084D01*
X38705Y189097D01*
X38628Y189107D01*
X38550Y189112D01*
X38472Y189114D01*
X36017Y189114D01*
X32306Y189114D02*
X32306Y181748D01*
X28214Y181748D02*
X32306Y189114D01*
X28214Y189114D02*
X28214Y181748D01*
X24503Y181748D02*
X24503Y189114D01*
X22457Y189114D01*
X22457Y189113D02*
X22368Y189111D01*
X22279Y189105D01*
X22190Y189095D01*
X22102Y189082D01*
X22014Y189065D01*
X21927Y189043D01*
X21842Y189018D01*
X21757Y188990D01*
X21674Y188957D01*
X21592Y188921D01*
X21512Y188882D01*
X21434Y188839D01*
X21358Y188793D01*
X21283Y188743D01*
X21211Y188690D01*
X21142Y188634D01*
X21075Y188575D01*
X21010Y188514D01*
X20949Y188449D01*
X20890Y188382D01*
X20834Y188313D01*
X20781Y188241D01*
X20731Y188166D01*
X20685Y188090D01*
X20642Y188012D01*
X20603Y187932D01*
X20567Y187850D01*
X20534Y187767D01*
X20506Y187682D01*
X20481Y187597D01*
X20459Y187510D01*
X20442Y187422D01*
X20429Y187334D01*
X20419Y187245D01*
X20413Y187156D01*
X20411Y187067D01*
X20411Y183794D01*
X20413Y183705D01*
X20419Y183616D01*
X20429Y183527D01*
X20442Y183439D01*
X20459Y183351D01*
X20481Y183264D01*
X20506Y183179D01*
X20534Y183094D01*
X20567Y183011D01*
X20603Y182929D01*
X20642Y182849D01*
X20685Y182771D01*
X20731Y182695D01*
X20781Y182620D01*
X20834Y182548D01*
X20890Y182479D01*
X20949Y182412D01*
X21010Y182347D01*
X21075Y182286D01*
X21142Y182227D01*
X21211Y182171D01*
X21283Y182118D01*
X21358Y182068D01*
X21434Y182022D01*
X21512Y181979D01*
X21592Y181940D01*
X21674Y181904D01*
X21757Y181871D01*
X21842Y181843D01*
X21927Y181818D01*
X22014Y181796D01*
X22102Y181779D01*
X22190Y181766D01*
X22279Y181756D01*
X22368Y181750D01*
X22457Y181748D01*
X24503Y181748D01*
X287082Y191400D02*
X287082Y193855D01*
X289537Y192218D02*
X283399Y192218D01*
X283330Y192220D01*
X283262Y192226D01*
X283193Y192235D01*
X283126Y192249D01*
X283059Y192266D01*
X282993Y192287D01*
X282929Y192311D01*
X282866Y192340D01*
X282805Y192371D01*
X282746Y192406D01*
X282688Y192444D01*
X282633Y192486D01*
X282581Y192530D01*
X282531Y192578D01*
X282483Y192628D01*
X282439Y192680D01*
X282397Y192735D01*
X282359Y192793D01*
X282324Y192852D01*
X282293Y192913D01*
X282264Y192976D01*
X282240Y193040D01*
X282219Y193106D01*
X282202Y193173D01*
X282188Y193240D01*
X282179Y193309D01*
X282173Y193377D01*
X282171Y193446D01*
X282171Y193855D01*
X282171Y196388D02*
X282580Y196388D01*
X282580Y196797D01*
X282171Y196797D01*
X282171Y196388D01*
X282171Y199990D02*
X287082Y199990D01*
X287082Y203673D01*
X287080Y203742D01*
X287074Y203810D01*
X287065Y203879D01*
X287051Y203946D01*
X287034Y204013D01*
X287013Y204079D01*
X286989Y204143D01*
X286960Y204206D01*
X286929Y204267D01*
X286894Y204326D01*
X286856Y204384D01*
X286814Y204439D01*
X286770Y204491D01*
X286722Y204541D01*
X286672Y204589D01*
X286620Y204633D01*
X286565Y204675D01*
X286507Y204713D01*
X286448Y204748D01*
X286387Y204779D01*
X286324Y204808D01*
X286260Y204832D01*
X286194Y204853D01*
X286127Y204870D01*
X286060Y204884D01*
X285991Y204893D01*
X285923Y204899D01*
X285854Y204901D01*
X285854Y204900D02*
X282171Y204900D01*
X282171Y202445D02*
X287082Y202445D01*
X282171Y209595D02*
X282171Y211641D01*
X282171Y209595D02*
X282173Y209526D01*
X282179Y209458D01*
X282188Y209389D01*
X282202Y209322D01*
X282219Y209255D01*
X282240Y209189D01*
X282264Y209125D01*
X282293Y209062D01*
X282324Y209001D01*
X282359Y208942D01*
X282397Y208884D01*
X282439Y208829D01*
X282483Y208777D01*
X282531Y208727D01*
X282581Y208679D01*
X282633Y208635D01*
X282688Y208593D01*
X282746Y208555D01*
X282805Y208520D01*
X282866Y208489D01*
X282929Y208460D01*
X282993Y208436D01*
X283059Y208415D01*
X283126Y208398D01*
X283193Y208384D01*
X283262Y208375D01*
X283330Y208369D01*
X283399Y208367D01*
X285445Y208367D01*
X285524Y208369D01*
X285603Y208375D01*
X285682Y208384D01*
X285760Y208397D01*
X285837Y208415D01*
X285913Y208435D01*
X285988Y208460D01*
X286062Y208488D01*
X286135Y208519D01*
X286206Y208555D01*
X286275Y208593D01*
X286342Y208635D01*
X286407Y208680D01*
X286470Y208728D01*
X286531Y208779D01*
X286588Y208833D01*
X286644Y208889D01*
X286696Y208948D01*
X286746Y209010D01*
X286792Y209074D01*
X286836Y209140D01*
X286876Y209208D01*
X286912Y209278D01*
X286946Y209350D01*
X286976Y209424D01*
X287002Y209498D01*
X287025Y209574D01*
X287043Y209651D01*
X287059Y209728D01*
X287070Y209807D01*
X287078Y209885D01*
X287082Y209964D01*
X287082Y210044D01*
X287078Y210123D01*
X287070Y210201D01*
X287059Y210280D01*
X287043Y210357D01*
X287025Y210434D01*
X287002Y210510D01*
X286976Y210584D01*
X286946Y210658D01*
X286912Y210730D01*
X286876Y210800D01*
X286836Y210868D01*
X286792Y210934D01*
X286746Y210998D01*
X286696Y211060D01*
X286644Y211119D01*
X286588Y211175D01*
X286531Y211229D01*
X286470Y211280D01*
X286407Y211328D01*
X286342Y211373D01*
X286275Y211415D01*
X286206Y211453D01*
X286135Y211489D01*
X286062Y211520D01*
X285988Y211548D01*
X285913Y211573D01*
X285837Y211593D01*
X285760Y211611D01*
X285682Y211624D01*
X285603Y211633D01*
X285524Y211639D01*
X285445Y211641D01*
X284626Y211641D01*
X284626Y208367D01*
X281353Y214463D02*
X290356Y217737D01*
X289537Y223792D02*
X282171Y223792D01*
X282171Y221746D01*
X282173Y221677D01*
X282179Y221609D01*
X282188Y221540D01*
X282202Y221473D01*
X282219Y221406D01*
X282240Y221340D01*
X282264Y221276D01*
X282293Y221213D01*
X282324Y221152D01*
X282359Y221093D01*
X282397Y221035D01*
X282439Y220980D01*
X282483Y220928D01*
X282531Y220878D01*
X282581Y220830D01*
X282633Y220786D01*
X282688Y220744D01*
X282746Y220706D01*
X282805Y220671D01*
X282866Y220640D01*
X282929Y220611D01*
X282993Y220587D01*
X283059Y220566D01*
X283126Y220549D01*
X283193Y220535D01*
X283262Y220526D01*
X283330Y220520D01*
X283399Y220518D01*
X285854Y220518D01*
X285923Y220520D01*
X285991Y220526D01*
X286060Y220535D01*
X286127Y220549D01*
X286194Y220566D01*
X286260Y220587D01*
X286324Y220611D01*
X286387Y220640D01*
X286448Y220671D01*
X286507Y220706D01*
X286565Y220744D01*
X286620Y220786D01*
X286672Y220830D01*
X286722Y220878D01*
X286770Y220928D01*
X286814Y220980D01*
X286856Y221035D01*
X286894Y221093D01*
X286929Y221152D01*
X286960Y221213D01*
X286989Y221276D01*
X287013Y221340D01*
X287034Y221406D01*
X287051Y221473D01*
X287065Y221540D01*
X287074Y221609D01*
X287080Y221677D01*
X287082Y221746D01*
X287082Y223792D01*
X282171Y228370D02*
X282171Y230416D01*
X282171Y228370D02*
X282173Y228301D01*
X282179Y228233D01*
X282188Y228164D01*
X282202Y228097D01*
X282219Y228030D01*
X282240Y227964D01*
X282264Y227900D01*
X282293Y227837D01*
X282324Y227776D01*
X282359Y227717D01*
X282397Y227659D01*
X282439Y227604D01*
X282483Y227552D01*
X282531Y227502D01*
X282581Y227454D01*
X282633Y227410D01*
X282688Y227368D01*
X282746Y227330D01*
X282805Y227295D01*
X282866Y227264D01*
X282929Y227235D01*
X282993Y227211D01*
X283059Y227190D01*
X283126Y227173D01*
X283193Y227159D01*
X283262Y227150D01*
X283330Y227144D01*
X283399Y227142D01*
X283399Y227143D02*
X285445Y227143D01*
X285524Y227145D01*
X285603Y227151D01*
X285682Y227160D01*
X285760Y227173D01*
X285837Y227191D01*
X285913Y227211D01*
X285988Y227236D01*
X286062Y227264D01*
X286135Y227295D01*
X286206Y227331D01*
X286275Y227369D01*
X286342Y227411D01*
X286407Y227456D01*
X286470Y227504D01*
X286531Y227555D01*
X286588Y227609D01*
X286644Y227665D01*
X286696Y227724D01*
X286746Y227786D01*
X286792Y227850D01*
X286836Y227916D01*
X286876Y227984D01*
X286912Y228054D01*
X286946Y228126D01*
X286976Y228200D01*
X287002Y228274D01*
X287025Y228350D01*
X287043Y228427D01*
X287059Y228504D01*
X287070Y228583D01*
X287078Y228661D01*
X287082Y228740D01*
X287082Y228820D01*
X287078Y228899D01*
X287070Y228977D01*
X287059Y229056D01*
X287043Y229133D01*
X287025Y229210D01*
X287002Y229286D01*
X286976Y229360D01*
X286946Y229434D01*
X286912Y229506D01*
X286876Y229576D01*
X286836Y229644D01*
X286792Y229710D01*
X286746Y229774D01*
X286696Y229836D01*
X286644Y229895D01*
X286588Y229951D01*
X286531Y230005D01*
X286470Y230056D01*
X286407Y230104D01*
X286342Y230149D01*
X286275Y230191D01*
X286206Y230229D01*
X286135Y230265D01*
X286062Y230296D01*
X285988Y230324D01*
X285913Y230349D01*
X285837Y230369D01*
X285760Y230387D01*
X285682Y230400D01*
X285603Y230409D01*
X285524Y230415D01*
X285445Y230417D01*
X285445Y230416D02*
X284626Y230416D01*
X284626Y227143D01*
X285036Y234874D02*
X285036Y236715D01*
X285035Y234874D02*
X285033Y234799D01*
X285027Y234724D01*
X285017Y234650D01*
X285004Y234576D01*
X284986Y234503D01*
X284965Y234431D01*
X284940Y234361D01*
X284911Y234292D01*
X284879Y234224D01*
X284843Y234158D01*
X284804Y234094D01*
X284762Y234032D01*
X284716Y233973D01*
X284667Y233916D01*
X284616Y233861D01*
X284561Y233810D01*
X284504Y233761D01*
X284445Y233715D01*
X284383Y233673D01*
X284319Y233634D01*
X284253Y233598D01*
X284185Y233566D01*
X284116Y233537D01*
X284046Y233512D01*
X283974Y233491D01*
X283901Y233473D01*
X283827Y233460D01*
X283753Y233450D01*
X283678Y233444D01*
X283603Y233442D01*
X283528Y233444D01*
X283453Y233450D01*
X283379Y233460D01*
X283305Y233473D01*
X283232Y233491D01*
X283160Y233512D01*
X283090Y233537D01*
X283021Y233566D01*
X282953Y233598D01*
X282887Y233634D01*
X282823Y233673D01*
X282761Y233715D01*
X282702Y233761D01*
X282645Y233810D01*
X282590Y233861D01*
X282539Y233916D01*
X282490Y233973D01*
X282444Y234032D01*
X282402Y234094D01*
X282363Y234158D01*
X282327Y234224D01*
X282295Y234292D01*
X282266Y234361D01*
X282241Y234431D01*
X282220Y234503D01*
X282202Y234576D01*
X282189Y234650D01*
X282179Y234724D01*
X282173Y234799D01*
X282171Y234874D01*
X282171Y236715D01*
X285854Y236715D01*
X285854Y236716D02*
X285923Y236714D01*
X285991Y236708D01*
X286060Y236699D01*
X286127Y236685D01*
X286194Y236668D01*
X286260Y236647D01*
X286324Y236623D01*
X286387Y236594D01*
X286448Y236563D01*
X286507Y236528D01*
X286565Y236490D01*
X286620Y236448D01*
X286672Y236404D01*
X286722Y236356D01*
X286770Y236306D01*
X286814Y236254D01*
X286856Y236199D01*
X286894Y236141D01*
X286929Y236082D01*
X286960Y236021D01*
X286989Y235958D01*
X287013Y235894D01*
X287034Y235828D01*
X287051Y235761D01*
X287065Y235694D01*
X287074Y235625D01*
X287080Y235557D01*
X287082Y235488D01*
X287082Y233851D01*
X282171Y239822D02*
X287082Y243096D01*
X287082Y239822D02*
X282171Y243096D01*
X282171Y245674D02*
X287082Y248948D01*
X287082Y245674D02*
X282171Y248948D01*
X96926Y258685D02*
X96926Y266051D01*
X94879Y266051D01*
X94790Y266049D01*
X94701Y266043D01*
X94612Y266033D01*
X94524Y266020D01*
X94436Y266003D01*
X94349Y265981D01*
X94264Y265956D01*
X94179Y265928D01*
X94096Y265895D01*
X94014Y265859D01*
X93934Y265820D01*
X93856Y265777D01*
X93780Y265731D01*
X93705Y265681D01*
X93633Y265628D01*
X93564Y265572D01*
X93497Y265513D01*
X93432Y265452D01*
X93371Y265387D01*
X93312Y265320D01*
X93256Y265251D01*
X93203Y265179D01*
X93153Y265104D01*
X93107Y265028D01*
X93064Y264950D01*
X93025Y264870D01*
X92989Y264788D01*
X92956Y264705D01*
X92928Y264620D01*
X92903Y264535D01*
X92881Y264448D01*
X92864Y264360D01*
X92851Y264272D01*
X92841Y264183D01*
X92835Y264094D01*
X92833Y264005D01*
X92835Y263916D01*
X92841Y263827D01*
X92851Y263738D01*
X92864Y263650D01*
X92881Y263562D01*
X92903Y263475D01*
X92928Y263390D01*
X92956Y263305D01*
X92989Y263222D01*
X93025Y263140D01*
X93064Y263060D01*
X93107Y262982D01*
X93153Y262906D01*
X93203Y262831D01*
X93256Y262759D01*
X93312Y262690D01*
X93371Y262623D01*
X93432Y262558D01*
X93497Y262497D01*
X93564Y262438D01*
X93633Y262382D01*
X93705Y262329D01*
X93780Y262279D01*
X93856Y262233D01*
X93934Y262190D01*
X94014Y262151D01*
X94096Y262115D01*
X94179Y262082D01*
X94264Y262054D01*
X94349Y262029D01*
X94436Y262007D01*
X94524Y261990D01*
X94612Y261977D01*
X94701Y261967D01*
X94790Y261961D01*
X94879Y261959D01*
X96926Y261959D01*
X94470Y261959D02*
X92833Y258685D01*
X85569Y264210D02*
X85571Y264295D01*
X85577Y264380D01*
X85587Y264464D01*
X85600Y264548D01*
X85618Y264632D01*
X85639Y264714D01*
X85664Y264795D01*
X85693Y264875D01*
X85726Y264954D01*
X85762Y265031D01*
X85802Y265106D01*
X85845Y265180D01*
X85891Y265251D01*
X85941Y265320D01*
X85994Y265387D01*
X86050Y265451D01*
X86109Y265512D01*
X86170Y265571D01*
X86234Y265627D01*
X86301Y265680D01*
X86370Y265730D01*
X86441Y265776D01*
X86515Y265819D01*
X86590Y265859D01*
X86667Y265895D01*
X86746Y265928D01*
X86826Y265957D01*
X86907Y265982D01*
X86989Y266003D01*
X87073Y266021D01*
X87157Y266034D01*
X87241Y266044D01*
X87326Y266050D01*
X87411Y266052D01*
X87411Y266051D02*
X87507Y266049D01*
X87603Y266043D01*
X87698Y266033D01*
X87793Y266020D01*
X87888Y266002D01*
X87981Y265981D01*
X88074Y265956D01*
X88165Y265927D01*
X88256Y265895D01*
X88345Y265859D01*
X88432Y265819D01*
X88518Y265776D01*
X88602Y265730D01*
X88684Y265680D01*
X88764Y265626D01*
X88841Y265570D01*
X88916Y265510D01*
X88989Y265448D01*
X89059Y265382D01*
X89127Y265314D01*
X89192Y265243D01*
X89253Y265170D01*
X89312Y265094D01*
X89368Y265015D01*
X89420Y264935D01*
X89469Y264852D01*
X89515Y264768D01*
X89557Y264682D01*
X89595Y264594D01*
X89630Y264505D01*
X89662Y264414D01*
X86183Y262778D02*
X86123Y262837D01*
X86066Y262899D01*
X86011Y262963D01*
X85960Y263030D01*
X85911Y263099D01*
X85865Y263169D01*
X85822Y263242D01*
X85782Y263316D01*
X85746Y263392D01*
X85713Y263470D01*
X85683Y263549D01*
X85656Y263629D01*
X85633Y263710D01*
X85614Y263792D01*
X85598Y263874D01*
X85585Y263958D01*
X85576Y264042D01*
X85571Y264126D01*
X85569Y264210D01*
X86183Y262777D02*
X89662Y258685D01*
X85569Y258685D01*
D11*
X48493Y268147D02*
X48493Y277672D01*
D12*
X221977Y41631D02*
X248737Y41631D01*
X248737Y69631D02*
X221977Y69631D01*
X256357Y56931D02*
X256357Y54331D01*
X214357Y54331D02*
X214357Y56931D01*
D11*
X227307Y55631D02*
X227309Y55829D01*
X227317Y56026D01*
X227329Y56223D01*
X227346Y56420D01*
X227368Y56616D01*
X227394Y56812D01*
X227426Y57007D01*
X227462Y57201D01*
X227503Y57395D01*
X227548Y57587D01*
X227599Y57778D01*
X227654Y57968D01*
X227713Y58156D01*
X227778Y58343D01*
X227846Y58528D01*
X227920Y58712D01*
X227998Y58893D01*
X228080Y59073D01*
X228167Y59250D01*
X228258Y59426D01*
X228353Y59599D01*
X228452Y59770D01*
X228556Y59938D01*
X228664Y60103D01*
X228775Y60266D01*
X228891Y60426D01*
X229011Y60584D01*
X229134Y60738D01*
X229261Y60889D01*
X229392Y61037D01*
X229527Y61182D01*
X229665Y61323D01*
X229806Y61461D01*
X229951Y61596D01*
X230099Y61727D01*
X230250Y61854D01*
X230404Y61977D01*
X230562Y62097D01*
X230722Y62213D01*
X230885Y62324D01*
X231050Y62432D01*
X231218Y62536D01*
X231389Y62635D01*
X231562Y62730D01*
X231738Y62821D01*
X231915Y62908D01*
X232095Y62990D01*
X232276Y63068D01*
X232460Y63142D01*
X232645Y63210D01*
X232832Y63275D01*
X233020Y63334D01*
X233210Y63389D01*
X233401Y63440D01*
X233593Y63485D01*
X233787Y63526D01*
X233981Y63562D01*
X234176Y63594D01*
X234372Y63620D01*
X234568Y63642D01*
X234765Y63659D01*
X234962Y63671D01*
X235159Y63679D01*
X235357Y63681D01*
X235555Y63679D01*
X235752Y63671D01*
X235949Y63659D01*
X236146Y63642D01*
X236342Y63620D01*
X236538Y63594D01*
X236733Y63562D01*
X236927Y63526D01*
X237121Y63485D01*
X237313Y63440D01*
X237504Y63389D01*
X237694Y63334D01*
X237882Y63275D01*
X238069Y63210D01*
X238254Y63142D01*
X238438Y63068D01*
X238619Y62990D01*
X238799Y62908D01*
X238976Y62821D01*
X239152Y62730D01*
X239325Y62635D01*
X239496Y62536D01*
X239664Y62432D01*
X239829Y62324D01*
X239992Y62213D01*
X240152Y62097D01*
X240310Y61977D01*
X240464Y61854D01*
X240615Y61727D01*
X240763Y61596D01*
X240908Y61461D01*
X241049Y61323D01*
X241187Y61182D01*
X241322Y61037D01*
X241453Y60889D01*
X241580Y60738D01*
X241703Y60584D01*
X241823Y60426D01*
X241939Y60266D01*
X242050Y60103D01*
X242158Y59938D01*
X242262Y59770D01*
X242361Y59599D01*
X242456Y59426D01*
X242547Y59250D01*
X242634Y59073D01*
X242716Y58893D01*
X242794Y58712D01*
X242868Y58528D01*
X242936Y58343D01*
X243001Y58156D01*
X243060Y57968D01*
X243115Y57778D01*
X243166Y57587D01*
X243211Y57395D01*
X243252Y57201D01*
X243288Y57007D01*
X243320Y56812D01*
X243346Y56616D01*
X243368Y56420D01*
X243385Y56223D01*
X243397Y56026D01*
X243405Y55829D01*
X243407Y55631D01*
X243405Y55433D01*
X243397Y55236D01*
X243385Y55039D01*
X243368Y54842D01*
X243346Y54646D01*
X243320Y54450D01*
X243288Y54255D01*
X243252Y54061D01*
X243211Y53867D01*
X243166Y53675D01*
X243115Y53484D01*
X243060Y53294D01*
X243001Y53106D01*
X242936Y52919D01*
X242868Y52734D01*
X242794Y52550D01*
X242716Y52369D01*
X242634Y52189D01*
X242547Y52012D01*
X242456Y51836D01*
X242361Y51663D01*
X242262Y51492D01*
X242158Y51324D01*
X242050Y51159D01*
X241939Y50996D01*
X241823Y50836D01*
X241703Y50678D01*
X241580Y50524D01*
X241453Y50373D01*
X241322Y50225D01*
X241187Y50080D01*
X241049Y49939D01*
X240908Y49801D01*
X240763Y49666D01*
X240615Y49535D01*
X240464Y49408D01*
X240310Y49285D01*
X240152Y49165D01*
X239992Y49049D01*
X239829Y48938D01*
X239664Y48830D01*
X239496Y48726D01*
X239325Y48627D01*
X239152Y48532D01*
X238976Y48441D01*
X238799Y48354D01*
X238619Y48272D01*
X238438Y48194D01*
X238254Y48120D01*
X238069Y48052D01*
X237882Y47987D01*
X237694Y47928D01*
X237504Y47873D01*
X237313Y47822D01*
X237121Y47777D01*
X236927Y47736D01*
X236733Y47700D01*
X236538Y47668D01*
X236342Y47642D01*
X236146Y47620D01*
X235949Y47603D01*
X235752Y47591D01*
X235555Y47583D01*
X235357Y47581D01*
X235159Y47583D01*
X234962Y47591D01*
X234765Y47603D01*
X234568Y47620D01*
X234372Y47642D01*
X234176Y47668D01*
X233981Y47700D01*
X233787Y47736D01*
X233593Y47777D01*
X233401Y47822D01*
X233210Y47873D01*
X233020Y47928D01*
X232832Y47987D01*
X232645Y48052D01*
X232460Y48120D01*
X232276Y48194D01*
X232095Y48272D01*
X231915Y48354D01*
X231738Y48441D01*
X231562Y48532D01*
X231389Y48627D01*
X231218Y48726D01*
X231050Y48830D01*
X230885Y48938D01*
X230722Y49049D01*
X230562Y49165D01*
X230404Y49285D01*
X230250Y49408D01*
X230099Y49535D01*
X229951Y49666D01*
X229806Y49801D01*
X229665Y49939D01*
X229527Y50080D01*
X229392Y50225D01*
X229261Y50373D01*
X229134Y50524D01*
X229011Y50678D01*
X228891Y50836D01*
X228775Y50996D01*
X228664Y51159D01*
X228556Y51324D01*
X228452Y51492D01*
X228353Y51663D01*
X228258Y51836D01*
X228167Y52012D01*
X228080Y52189D01*
X227998Y52369D01*
X227920Y52550D01*
X227846Y52734D01*
X227778Y52919D01*
X227713Y53106D01*
X227654Y53294D01*
X227599Y53484D01*
X227548Y53675D01*
X227503Y53867D01*
X227462Y54061D01*
X227426Y54255D01*
X227394Y54450D01*
X227368Y54646D01*
X227346Y54842D01*
X227329Y55039D01*
X227317Y55236D01*
X227309Y55433D01*
X227307Y55631D01*
M02*
