G04 EAGLE Gerber RS-274X export*
G75*
%MOMM*%
%FSLAX34Y34*%
%LPD*%
%INSolderpaste Bottom*%
%IPPOS*%
%AMOC8*
5,1,8,0,0,1.08239X$1,22.5*%
G01*
%ADD10C,0.270000*%
%ADD11C,0.300000*%
%ADD12R,0.900000X1.000000*%
%ADD13R,3.560000X3.960000*%


D10*
X87908Y271336D02*
X85208Y271336D01*
X85208Y274636D01*
X87908Y274636D01*
X87908Y271336D01*
X87908Y273901D02*
X85208Y273901D01*
X93848Y271336D02*
X96548Y271336D01*
X93848Y271336D02*
X93848Y274636D01*
X96548Y274636D01*
X96548Y271336D01*
X96548Y273901D02*
X93848Y273901D01*
D11*
X52098Y276409D02*
X52098Y269409D01*
X52098Y276409D02*
X59098Y276409D01*
X59098Y269409D01*
X52098Y269409D01*
X52098Y272259D02*
X59098Y272259D01*
X59098Y275109D02*
X52098Y275109D01*
X69638Y276409D02*
X69638Y269409D01*
X69638Y276409D02*
X76638Y276409D01*
X76638Y269409D01*
X69638Y269409D01*
X69638Y272259D02*
X76638Y272259D01*
X76638Y275109D02*
X69638Y275109D01*
D12*
X214857Y63631D03*
X214857Y47631D03*
X255857Y47631D03*
X255857Y63631D03*
D13*
G36*
X87776Y141237D02*
X108601Y170110D01*
X140718Y146945D01*
X119893Y118072D01*
X87776Y141237D01*
G37*
G36*
X160896Y242620D02*
X181721Y271493D01*
X213838Y248328D01*
X193013Y219455D01*
X160896Y242620D01*
G37*
M02*
