G04 EAGLE Gerber RS-274X export*
G75*
%MOMM*%
%FSLAX34Y34*%
%LPD*%
%INSolderpaste Top*%
%IPPOS*%
%AMOC8*
5,1,8,0,0,1.08239X$1,22.5*%
G01*
%ADD10R,0.850000X0.300000*%
%ADD11R,0.300000X0.850000*%
%ADD12R,5.250000X5.250000*%
%ADD13C,0.280800*%
%ADD14C,0.500000*%
%ADD15C,0.402900*%
%ADD16R,1.000000X1.800000*%
%ADD17R,0.850000X0.950000*%
%ADD18C,0.270000*%
%ADD19R,2.368000X2.403600*%
%ADD20R,0.500000X0.500000*%
%ADD21R,1.450000X2.400000*%
%ADD22R,0.350000X0.500000*%


D10*
X149816Y116010D03*
X149816Y121010D03*
X149816Y126010D03*
X149816Y131010D03*
X149816Y136010D03*
X149816Y141010D03*
X149816Y146010D03*
X149816Y151010D03*
X149816Y156010D03*
X149816Y161010D03*
X149816Y166010D03*
X149816Y171010D03*
D11*
X142816Y178010D03*
X137816Y178010D03*
X132816Y178010D03*
X127816Y178010D03*
X122816Y178010D03*
X117816Y178010D03*
X112816Y178010D03*
X107816Y178010D03*
X102816Y178010D03*
X97816Y178010D03*
X92816Y178010D03*
X87816Y178010D03*
D10*
X80816Y171010D03*
X80816Y166010D03*
X80816Y161010D03*
X80816Y156010D03*
X80816Y151010D03*
X80816Y146010D03*
X80816Y141010D03*
X80816Y136010D03*
X80816Y131010D03*
X80816Y126010D03*
X80816Y121010D03*
X80816Y116010D03*
D11*
X87816Y109010D03*
X92816Y109010D03*
X97816Y109010D03*
X102816Y109010D03*
X107816Y109010D03*
X112816Y109010D03*
X117816Y109010D03*
X122816Y109010D03*
X127816Y109010D03*
X132816Y109010D03*
X137816Y109010D03*
X142816Y109010D03*
D12*
X115316Y143510D03*
D13*
X47697Y192107D02*
X47697Y194699D01*
X47697Y192107D02*
X44505Y192107D01*
X44505Y194699D01*
X47697Y194699D01*
X44505Y186099D02*
X44505Y183507D01*
X44505Y186099D02*
X47697Y186099D01*
X47697Y183507D01*
X44505Y183507D01*
X37410Y192107D02*
X37410Y194699D01*
X37410Y192107D02*
X34218Y192107D01*
X34218Y194699D01*
X37410Y194699D01*
X34218Y186099D02*
X34218Y183507D01*
X34218Y186099D02*
X37410Y186099D01*
X37410Y183507D01*
X34218Y183507D01*
X94941Y92591D02*
X94941Y89999D01*
X91749Y89999D01*
X91749Y92591D01*
X94941Y92591D01*
X91749Y83991D02*
X91749Y81399D01*
X91749Y83991D02*
X94941Y83991D01*
X94941Y81399D01*
X91749Y81399D01*
X81970Y81272D02*
X81970Y83864D01*
X85162Y83864D01*
X85162Y81272D01*
X81970Y81272D01*
X85162Y89872D02*
X85162Y92464D01*
X85162Y89872D02*
X81970Y89872D01*
X81970Y92464D01*
X85162Y92464D01*
X79419Y193366D02*
X76827Y193366D01*
X79419Y193366D02*
X79419Y190174D01*
X76827Y190174D01*
X76827Y193366D01*
X76827Y192842D02*
X79419Y192842D01*
X85427Y190174D02*
X88019Y190174D01*
X85427Y190174D02*
X85427Y193366D01*
X88019Y193366D01*
X88019Y190174D01*
X88019Y192842D02*
X85427Y192842D01*
X176776Y184095D02*
X179368Y184095D01*
X179368Y180903D01*
X176776Y180903D01*
X176776Y184095D01*
X176776Y183571D02*
X179368Y183571D01*
X185376Y180903D02*
X187968Y180903D01*
X185376Y180903D02*
X185376Y184095D01*
X187968Y184095D01*
X187968Y180903D01*
X187968Y183571D02*
X185376Y183571D01*
X170061Y180903D02*
X167469Y180903D01*
X167469Y184095D01*
X170061Y184095D01*
X170061Y180903D01*
X170061Y183571D02*
X167469Y183571D01*
X161461Y184095D02*
X158869Y184095D01*
X161461Y184095D02*
X161461Y180903D01*
X158869Y180903D01*
X158869Y184095D01*
X158869Y183571D02*
X161461Y183571D01*
X140898Y188333D02*
X140898Y190925D01*
X144090Y190925D01*
X144090Y188333D01*
X140898Y188333D01*
X144090Y196933D02*
X144090Y199525D01*
X144090Y196933D02*
X140898Y196933D01*
X140898Y199525D01*
X144090Y199525D01*
X96194Y197275D02*
X96194Y194683D01*
X96194Y197275D02*
X99386Y197275D01*
X99386Y194683D01*
X96194Y194683D01*
X99386Y203283D02*
X99386Y205875D01*
X99386Y203283D02*
X96194Y203283D01*
X96194Y205875D01*
X99386Y205875D01*
X108530Y90686D02*
X108530Y88094D01*
X105338Y88094D01*
X105338Y90686D01*
X108530Y90686D01*
X105338Y82086D02*
X105338Y79494D01*
X105338Y82086D02*
X108530Y82086D01*
X108530Y79494D01*
X105338Y79494D01*
X75002Y89872D02*
X75002Y92464D01*
X75002Y89872D02*
X71810Y89872D01*
X71810Y92464D01*
X75002Y92464D01*
X71810Y83864D02*
X71810Y81272D01*
X71810Y83864D02*
X75002Y83864D01*
X75002Y81272D01*
X71810Y81272D01*
D14*
X63666Y104620D02*
X58666Y104620D01*
X58666Y113820D01*
X63666Y113820D01*
X63666Y104620D01*
X63666Y109370D02*
X58666Y109370D01*
X44966Y113820D02*
X39966Y113820D01*
X44966Y113820D02*
X44966Y104620D01*
X39966Y104620D01*
X39966Y113820D01*
X39966Y109370D02*
X44966Y109370D01*
X45093Y157508D02*
X40093Y157508D01*
X45093Y157508D02*
X45093Y148308D01*
X40093Y148308D01*
X40093Y157508D01*
X40093Y153058D02*
X45093Y153058D01*
X58793Y148308D02*
X63793Y148308D01*
X58793Y148308D02*
X58793Y157508D01*
X63793Y157508D01*
X63793Y148308D01*
X63793Y153058D02*
X58793Y153058D01*
D13*
X118182Y90686D02*
X118182Y88094D01*
X114990Y88094D01*
X114990Y90686D01*
X118182Y90686D01*
X114990Y82086D02*
X114990Y79494D01*
X114990Y82086D02*
X118182Y82086D01*
X118182Y79494D01*
X114990Y79494D01*
X155774Y98254D02*
X155774Y100846D01*
X155774Y98254D02*
X152582Y98254D01*
X152582Y100846D01*
X155774Y100846D01*
X152582Y92246D02*
X152582Y89654D01*
X152582Y92246D02*
X155774Y92246D01*
X155774Y89654D01*
X152582Y89654D01*
D15*
X58070Y172744D02*
X58070Y176616D01*
X63342Y176616D01*
X63342Y172744D01*
X58070Y172744D01*
X58070Y176572D02*
X63342Y176572D01*
X63342Y189144D02*
X63342Y193016D01*
X63342Y189144D02*
X58070Y189144D01*
X58070Y193016D01*
X63342Y193016D01*
X63342Y192972D02*
X58070Y192972D01*
D14*
X58920Y128242D02*
X63920Y128242D01*
X58920Y128242D02*
X58920Y137442D01*
X63920Y137442D01*
X63920Y128242D01*
X63920Y132992D02*
X58920Y132992D01*
X45220Y137442D02*
X40220Y137442D01*
X45220Y137442D02*
X45220Y128242D01*
X40220Y128242D01*
X40220Y137442D01*
X40220Y132992D02*
X45220Y132992D01*
D16*
X185982Y198120D03*
X160982Y198120D03*
D17*
X142656Y69331D03*
X142656Y83831D03*
X131156Y83831D03*
X131156Y69331D03*
D18*
X171622Y121794D02*
X174322Y121794D01*
X171622Y121794D02*
X171622Y125094D01*
X174322Y125094D01*
X174322Y121794D01*
X174322Y124359D02*
X171622Y124359D01*
X180262Y121794D02*
X182962Y121794D01*
X180262Y121794D02*
X180262Y125094D01*
X182962Y125094D01*
X182962Y121794D01*
X182962Y124359D02*
X180262Y124359D01*
X174449Y132208D02*
X171749Y132208D01*
X171749Y135508D01*
X174449Y135508D01*
X174449Y132208D01*
X174449Y134773D02*
X171749Y134773D01*
X180389Y132208D02*
X183089Y132208D01*
X180389Y132208D02*
X180389Y135508D01*
X183089Y135508D01*
X183089Y132208D01*
X183089Y134773D02*
X180389Y134773D01*
X180389Y93598D02*
X183089Y93598D01*
X183089Y90298D01*
X180389Y90298D01*
X180389Y93598D01*
X180389Y92863D02*
X183089Y92863D01*
X174449Y93598D02*
X171749Y93598D01*
X174449Y93598D02*
X174449Y90298D01*
X171749Y90298D01*
X171749Y93598D01*
X171749Y92863D02*
X174449Y92863D01*
X174449Y111126D02*
X171749Y111126D01*
X171749Y114426D01*
X174449Y114426D01*
X174449Y111126D01*
X174449Y113691D02*
X171749Y113691D01*
X180389Y111126D02*
X183089Y111126D01*
X180389Y111126D02*
X180389Y114426D01*
X183089Y114426D01*
X183089Y111126D01*
X183089Y113691D02*
X180389Y113691D01*
X208706Y116587D02*
X211406Y116587D01*
X208706Y116587D02*
X208706Y119887D01*
X211406Y119887D01*
X211406Y116587D01*
X211406Y119152D02*
X208706Y119152D01*
X217346Y116587D02*
X220046Y116587D01*
X217346Y116587D02*
X217346Y119887D01*
X220046Y119887D01*
X220046Y116587D01*
X220046Y119152D02*
X217346Y119152D01*
X218585Y184406D02*
X219714Y186858D01*
X218585Y184406D02*
X215588Y185784D01*
X216717Y188236D01*
X219714Y186858D01*
X219468Y186971D02*
X216135Y186971D01*
X222195Y192256D02*
X223324Y194708D01*
X222195Y192256D02*
X219198Y193634D01*
X220327Y196086D01*
X223324Y194708D01*
X223078Y194821D02*
X219745Y194821D01*
X174576Y100712D02*
X171876Y100712D01*
X171876Y104012D01*
X174576Y104012D01*
X174576Y100712D01*
X174576Y103277D02*
X171876Y103277D01*
X180516Y100712D02*
X183216Y100712D01*
X180516Y100712D02*
X180516Y104012D01*
X183216Y104012D01*
X183216Y100712D01*
X183216Y103277D02*
X180516Y103277D01*
X190164Y116460D02*
X192864Y116460D01*
X190164Y116460D02*
X190164Y119760D01*
X192864Y119760D01*
X192864Y116460D01*
X192864Y119025D02*
X190164Y119025D01*
X198804Y116460D02*
X201504Y116460D01*
X198804Y116460D02*
X198804Y119760D01*
X201504Y119760D01*
X201504Y116460D01*
X201504Y119025D02*
X198804Y119025D01*
X206822Y126774D02*
X206851Y129473D01*
X206822Y126774D02*
X203523Y126809D01*
X203552Y129508D01*
X206851Y129473D01*
X206850Y129339D02*
X203550Y129339D01*
X206912Y135414D02*
X206941Y138113D01*
X206912Y135414D02*
X203613Y135449D01*
X203642Y138148D01*
X206941Y138113D01*
X206940Y137979D02*
X203640Y137979D01*
X164420Y70992D02*
X161720Y70992D01*
X164420Y70992D02*
X164420Y67692D01*
X161720Y67692D01*
X161720Y70992D01*
X161720Y70257D02*
X164420Y70257D01*
X155780Y70992D02*
X153080Y70992D01*
X155780Y70992D02*
X155780Y67692D01*
X153080Y67692D01*
X153080Y70992D01*
X153080Y70257D02*
X155780Y70257D01*
X121367Y71246D02*
X118667Y71246D01*
X121367Y71246D02*
X121367Y67946D01*
X118667Y67946D01*
X118667Y71246D01*
X118667Y70511D02*
X121367Y70511D01*
X112727Y71246D02*
X110027Y71246D01*
X112727Y71246D02*
X112727Y67946D01*
X110027Y67946D01*
X110027Y71246D01*
X110027Y70511D02*
X112727Y70511D01*
X117476Y203630D02*
X117476Y206330D01*
X120776Y206330D01*
X120776Y203630D01*
X117476Y203630D01*
X117476Y206195D02*
X120776Y206195D01*
X117476Y197690D02*
X117476Y194990D01*
X117476Y197690D02*
X120776Y197690D01*
X120776Y194990D01*
X117476Y194990D01*
X117476Y197555D02*
X120776Y197555D01*
X226640Y200901D02*
X227832Y203322D01*
X226640Y200901D02*
X223680Y202358D01*
X224872Y204779D01*
X227832Y203322D01*
X227539Y203466D02*
X224226Y203466D01*
X230455Y208653D02*
X231647Y211074D01*
X230455Y208653D02*
X227495Y210110D01*
X228687Y212531D01*
X231647Y211074D01*
X231354Y211218D02*
X228041Y211218D01*
D19*
X74115Y238789D03*
X136539Y238789D03*
D20*
X33836Y51341D03*
X33836Y61341D03*
X33836Y71341D03*
X8836Y51341D03*
X8836Y61341D03*
X8836Y71341D03*
D21*
X21209Y61325D03*
D13*
X66885Y38917D02*
X69477Y38917D01*
X66885Y38917D02*
X66885Y42109D01*
X69477Y42109D01*
X69477Y38917D01*
X69477Y41585D02*
X66885Y41585D01*
X60877Y42109D02*
X58285Y42109D01*
X60877Y42109D02*
X60877Y38917D01*
X58285Y38917D01*
X58285Y42109D01*
X58285Y41585D02*
X60877Y41585D01*
D22*
X55678Y28284D03*
X62178Y28284D03*
X68678Y28284D03*
X49178Y28284D03*
X62178Y7784D03*
X55678Y7784D03*
X49178Y7784D03*
X68678Y7784D03*
D13*
X17316Y85416D02*
X14724Y85416D01*
X17316Y85416D02*
X17316Y82224D01*
X14724Y82224D01*
X14724Y85416D01*
X14724Y84892D02*
X17316Y84892D01*
X23324Y82224D02*
X25916Y82224D01*
X23324Y82224D02*
X23324Y85416D01*
X25916Y85416D01*
X25916Y82224D01*
X25916Y84892D02*
X23324Y84892D01*
D18*
X109900Y40260D02*
X112600Y40260D01*
X109900Y40260D02*
X109900Y43560D01*
X112600Y43560D01*
X112600Y40260D01*
X112600Y42825D02*
X109900Y42825D01*
X118540Y40260D02*
X121240Y40260D01*
X118540Y40260D02*
X118540Y43560D01*
X121240Y43560D01*
X121240Y40260D01*
X121240Y42825D02*
X118540Y42825D01*
X50545Y59354D02*
X50545Y62054D01*
X50545Y59354D02*
X47245Y59354D01*
X47245Y62054D01*
X50545Y62054D01*
X50545Y61919D02*
X47245Y61919D01*
X50545Y67994D02*
X50545Y70694D01*
X50545Y67994D02*
X47245Y67994D01*
X47245Y70694D01*
X50545Y70694D01*
X50545Y70559D02*
X47245Y70559D01*
X62229Y62054D02*
X62229Y59354D01*
X58929Y59354D01*
X58929Y62054D01*
X62229Y62054D01*
X62229Y61919D02*
X58929Y61919D01*
X62229Y67994D02*
X62229Y70694D01*
X62229Y67994D02*
X58929Y67994D01*
X58929Y70694D01*
X62229Y70694D01*
X62229Y70559D02*
X58929Y70559D01*
X210981Y217726D02*
X213394Y216517D01*
X210981Y217726D02*
X212458Y220675D01*
X214871Y219466D01*
X213394Y216517D01*
X214679Y219082D02*
X211660Y219082D01*
X218707Y213858D02*
X221120Y212649D01*
X218707Y213858D02*
X220184Y216807D01*
X222597Y215598D01*
X221120Y212649D01*
X222405Y215214D02*
X219386Y215214D01*
M02*
