M48
;GenerationSoftware,Autodesk,EAGLE,9.6.2*%
;CreationDate,2021-11-29T20:34:19Z*%
FMAT,2
ICI,OFF
METRIC,TZ,000.000
T5C0.200
T4C0.250
T3C0.254
T2C0.300
T1C0.600
%
G90
M71
T1
X23622Y1651
X10922Y1651
T2
X23908Y23874
X3683Y14287
X3150Y14287
X2870Y18491
X4445Y21209
T3
X6998Y10224
X7366Y9830
X10008Y8928
X7112Y18809
X7112Y19380
X12865Y15684
X11532Y14351
X10198Y15684
X11532Y15684
X12865Y14351
X12865Y13017
X11532Y13017
X10198Y13017
X10198Y14351
X15456Y6782
X6909Y18225
X15456Y8179
X11328Y21082
X10198Y16726
X11493Y16739
X12865Y16726
X10185Y11963
X11532Y11963
X12890Y11963
X9144Y16726
X9157Y15697
X9144Y14364
X12256Y8561
X9144Y11963
X13919Y11963
X13919Y13030
X13906Y14351
X9144Y13030
X4445Y17488
X3886Y17475
X15418Y10605
X13919Y16726
X13906Y15684
T4
X4064Y6096
X1905Y18669
X23838Y28054
X23876Y19431
X23876Y18796
X23876Y18161
X23876Y17526
X23876Y16891
X23876Y16256
X23876Y15621
X23876Y14986
X23876Y14351
X23876Y13716
X23876Y13081
X23876Y12446
X23876Y11811
X23876Y11176
X23876Y10541
X23876Y9906
X23876Y9271
X23876Y8636
X23876Y8001
X23876Y7366
X23241Y7366
X22606Y7366
X21971Y7366
X21336Y7366
X20701Y7366
X20066Y7366
X23876Y20193
X23851Y28702
X23838Y27445
X23825Y26797
X23825Y26162
X23851Y25527
X23838Y24892
X23241Y28702
X22606Y28702
X21971Y28702
X21971Y28067
X21971Y27432
X21971Y26797
X21971Y25527
X21971Y24892
X21971Y24257
X18923Y17145
X18415Y16764
X17653Y16637
X17653Y16002
X17653Y15367
X17653Y14732
X18415Y14732
X18161Y7366
X17526Y7366
X17526Y8001
X16891Y8001
X16383Y8509
X16383Y9144
X16383Y9779
X16383Y10414
X18796Y7366
X19431Y7366
X19431Y10541
X19431Y9906
X19431Y9271
X19431Y8636
X19431Y8001
X23241Y24892
X22606Y24892
X22593Y23571
X20066Y10541
X20701Y10541
X21336Y10541
X21971Y10541
X22606Y10541
X23241Y10541
X23241Y9906
X23241Y9271
X23241Y8636
X23241Y8001
X22606Y11176
X22606Y11811
X22606Y12446
X18796Y8001
X18161Y8001
X22606Y24257
X23851Y22771
X21336Y28702
X20701Y28702
X20066Y28702
X19431Y28702
X18796Y28702
X18161Y28702
X17526Y28702
X16891Y28702
X16256Y28702
X15621Y28702
X14986Y28702
X14351Y28702
X13716Y28702
X13081Y28702
X12446Y28702
X11811Y28702
X11176Y28702
X10541Y28702
X8255Y28702
X7493Y28702
X6731Y28702
X5969Y28702
X5207Y28702
X4445Y28702
X4445Y27940
X4445Y27178
X4318Y26416
X3937Y25781
X10160Y3556
X9779Y4064
X9271Y4572
X8763Y5080
X8255Y5588
X5969Y7874
X5461Y8382
X4953Y8890
X635Y9906
X2159Y9906
X2921Y9906
X635Y10668
X635Y11430
X635Y12192
X635Y12954
X635Y13716
X635Y14478
X635Y15240
X635Y16002
X635Y16891
X20066Y9906
X20701Y9906
X21336Y9906
X21971Y9906
X22606Y9906
X20066Y9271
X20066Y8636
X20066Y8001
X20701Y8001
X21336Y8001
X21971Y8001
X22606Y8001
X22733Y3429
X21844Y3429
X20955Y3429
X19939Y3429
X18923Y3429
X17907Y3429
X16891Y3429
X15875Y3429
X14859Y3429
X13843Y3429
X13081Y3429
X7709Y6134
X21971Y23571
X23241Y11176
X22606Y28067
X23241Y28067
X23241Y27432
X23241Y26797
X23241Y26162
X23241Y25527
X23876Y5842
X23876Y5207
X23241Y5842
X23241Y5207
X22606Y5842
X22606Y5207
X23876Y4318
X23876Y3429
X17526Y6731
X18161Y6731
X18796Y6731
X19431Y6731
X20066Y6731
X16891Y7366
X22606Y6604
X23241Y6604
X23876Y6604
X20701Y6731
X21971Y22936
X22606Y22936
X22098Y12700
X21463Y12700
X21463Y13589
X21463Y14351
X21539Y15037
X21692Y15786
X21895Y16548
X22225Y17310
X22581Y18059
X22898Y18733
X23292Y19545
X19520Y12827
X18872Y12827
X19545Y13627
X19583Y14453
X19647Y15329
X19799Y16142
X19990Y16916
X20218Y17678
X20561Y18440
X20955Y19177
X21323Y19952
X21666Y20739
X21107Y21019
X20549Y21323
X20625Y22314
X20625Y22936
X20714Y20282
X20333Y19520
X19952Y18771
X19545Y18021
X18872Y13627
X20142Y20612
X19761Y19888
X23254Y22936
X20574Y5461
X13208Y4953
X1651Y24384
X1651Y22987
X1651Y21717
X1651Y20447
X1651Y19304
X12065Y6858
X11430Y5969
X10287Y5969
X7493Y20955
X8763Y20955
X12192Y3429
X23241Y11811
X23241Y12446
X23241Y13081
X23241Y13716
X23241Y14351
X23241Y14986
X23241Y15621
X23241Y16256
X23241Y16891
X23241Y17526
X23241Y18161
X22606Y13081
X22606Y13716
X22606Y14351
X22606Y14986
X22606Y15621
X22606Y16256
X22606Y16891
X22606Y25527
X22606Y26162
X21311Y22936
X22606Y27432
X20701Y9271
X20701Y8636
X21336Y8636
X21971Y8636
X22606Y8636
X22606Y9271
X21971Y9271
X21336Y9271
X8001Y10795
X9017Y9906
X10541Y9779
X6210Y2223
X14948Y18923
X9169Y20015
X5055Y2223
X9271Y7620
X4064Y9779
X1905Y23749
X1905Y25019
X12573Y5207
X3556Y3848
X4940Y3848
X4204Y3873
X1651Y10541
X4191Y508
X1905Y22352
X1905Y21082
X10262Y27305
X20574Y4826
X21971Y26162
X22606Y26797
T5
X7252Y17082
X12319Y18669
X11278Y18580
X6883Y16535
X8369Y9766
X7264Y16078
X15875Y15494
X15811Y17234
X8204Y17793
X10643Y20574
X17361Y17615
X15875Y16129
X16104Y14313
M30