M48
;GenerationSoftware,Autodesk,EAGLE,9.6.2*%
;CreationDate,2021-10-26T20:41:57Z*%
FMAT,2
ICI,OFF
METRIC,TZ,000.000
T5C0.200
T4C0.250
T3C0.254
T2C0.300
T1C0.600
%
G90
M71
T1
X10922Y1651
X23622Y1651
T2
X3683Y14287
X23908Y23874
X3150Y14287
X2870Y18491
T3
X15418Y10605
X6998Y10224
X7366Y9830
X10008Y8928
X7112Y18809
X13919Y16726
X12865Y15684
X11532Y14351
X10198Y15684
X11532Y15684
X12865Y14351
X12865Y13017
X11532Y13017
X10198Y13017
X10198Y14351
X7112Y19380
X6909Y18225
X15456Y8179
X11328Y21082
X10198Y16726
X11493Y16739
X12865Y16726
X10185Y11963
X11532Y11963
X12890Y11963
X9144Y16726
X13919Y13030
X9144Y14364
X9144Y13030
X9144Y11963
X13919Y11963
X4445Y17488
X13906Y14351
X13906Y15684
X3886Y17475
X12231Y8497
X9157Y15697
T4
X5055Y2223
X6210Y2223
X4064Y6096
X1905Y18669
X23838Y28054
X23876Y19431
X23876Y18796
X23876Y18161
X23876Y17526
X23876Y16891
X23876Y16256
X23876Y15621
X23876Y14986
X23876Y14351
X23876Y13716
X23876Y13081
X23876Y12446
X23876Y11811
X23876Y11176
X23876Y10541
X23876Y9906
X23876Y9271
X23876Y8636
X23876Y8001
X23876Y7366
X23241Y7366
X22606Y7366
X21971Y7366
X21336Y7366
X20701Y7366
X20066Y7366
X23876Y20193
X23838Y27445
X23825Y26797
X23825Y26162
X23851Y25527
X23838Y24892
X23241Y28702
X22606Y28702
X21971Y28702
X21971Y28067
X21971Y27432
X21971Y26797
X21971Y26162
X21971Y25527
X21971Y24892
X21971Y24257
X18923Y17145
X18415Y16764
X17653Y16637
X17653Y16002
X17653Y15367
X17653Y14732
X18415Y14732
X19177Y14732
X19177Y14097
X19177Y13462
X19177Y12700
X18161Y7366
X17526Y7366
X17526Y8001
X16891Y8001
X16383Y8509
X16383Y9144
X16383Y9779
X16383Y10414
X18796Y7366
X19431Y7366
X22606Y13081
X21971Y13081
X21336Y13081
X21336Y13716
X19431Y10541
X19431Y9906
X19431Y9271
X19431Y8636
X19431Y8001
X23241Y24892
X22606Y24892
X22593Y23571
X23241Y24257
X20066Y10541
X20701Y10541
X21336Y10541
X21971Y10541
X22606Y10541
X23241Y10541
X23241Y9906
X23241Y9271
X23241Y8636
X23241Y8001
X20701Y13081
X20701Y13716
X22606Y11176
X22606Y11811
X22606Y12446
X18796Y8001
X18161Y8001
X23749Y4191
X23749Y5207
X23749Y5842
X22606Y24257
X23622Y22987
X21336Y28702
X20701Y28702
X20066Y28702
X19431Y28702
X18796Y28702
X18161Y28702
X17526Y28702
X16891Y28702
X16256Y28702
X15621Y28702
X14986Y28702
X14351Y28702
X13716Y28702
X13081Y28702
X12446Y28702
X11811Y28702
X11176Y28702
X10541Y28702
X8255Y28702
X7493Y28702
X6731Y28702
X5969Y28702
X5207Y28702
X4445Y28702
X4445Y27940
X4445Y27178
X4318Y26416
X3937Y25781
X10160Y3556
X9779Y4064
X9271Y4572
X8763Y5080
X8255Y5588
X5969Y7874
X5461Y8382
X4953Y8890
X635Y9906
X2159Y9906
X2921Y9906
X635Y10668
X635Y11430
X635Y12192
X635Y12954
X635Y13716
X635Y14478
X635Y15240
X635Y16002
X635Y16891
X23241Y23558
X20066Y9906
X20701Y9906
X21336Y9906
X21971Y9906
X22606Y9906
X20066Y9271
X20701Y9271
X21336Y9271
X21971Y9271
X22606Y9271
X20066Y8636
X20701Y8636
X21336Y8636
X21971Y8636
X22606Y8636
X20066Y8001
X20701Y8001
X21336Y8001
X21971Y8001
X22606Y8001
X22733Y3429
X21844Y3429
X20955Y3429
X19939Y3429
X18923Y3429
X17907Y3429
X16891Y3429
X14859Y3429
X13843Y3429
X12827Y3429
X11811Y3429
X7709Y6134
X23876Y20955
X23368Y19939
X22987Y19177
X22606Y18415
X22225Y17653
X21844Y16891
X21463Y16129
X21209Y15240
X20955Y14478
X19304Y15494
X19685Y16383
X20066Y17272
X20447Y18034
X22606Y22225
X22352Y21463
X21844Y20447
X21336Y19558
X20955Y18796
X19431Y17653
X19558Y18415
X19939Y19304
X20447Y20320
X20955Y21336
X21463Y22225
X21717Y22987
X21971Y23622
X22593Y22936
X23241Y11176
X22606Y25527
X22606Y26162
X22606Y26797
X15875Y3429
X22606Y28067
X23241Y28067
X23241Y27432
X23241Y26797
X23241Y26162
X23241Y25527
X14834Y18936
X9169Y20015
X4445Y21209
X1651Y10541
X9271Y7620
X4064Y9779
X6731Y5080
X1905Y23749
X1905Y25019
X13208Y4191
X16104Y14313
X3556Y3848
X15875Y15494
X4940Y3848
X4204Y3873
X15875Y16129
X1905Y22352
X1905Y21209
X10262Y27305
X20625Y6337
X23851Y28702
X22606Y27432
T5
X8369Y9766
X7264Y16078
X7252Y17082
X7391Y11214
X15811Y17234
X17361Y17615
X10643Y20574
X8204Y17793
X11278Y18580
X6883Y16535
M30